<svg width="12" height="19" viewBox="0 0 12 19" fill="none" xmlns="http://www.w3.org/2000/svg">
<path d="M11.543 0.141252C10.6372 0.0444382 9.72678 -0.00267634 8.81588 0.000117285C5.79604 0.000117285 3.91931 1.93801 3.91931 5.05746V7.1754H1.38257C1.2635 7.1754 1.1493 7.22306 1.0651 7.30789C0.980896 7.39272 0.933594 7.50778 0.933594 7.62775V11.1109C0.933594 11.2309 0.980896 11.3459 1.0651 11.4308C1.1493 11.5156 1.2635 11.5633 1.38257 11.5633H3.91931V18.5476C3.91931 18.6676 3.96661 18.7827 4.05081 18.8675C4.13501 18.9523 4.24921 19 4.36829 19H7.94037C8.05945 19 8.17365 18.9523 8.25785 18.8675C8.34205 18.7827 8.38935 18.6676 8.38935 18.5476V11.5633H10.918C11.027 11.5633 11.1323 11.5234 11.2143 11.451C11.2962 11.3786 11.3492 11.2786 11.3634 11.1697L11.8097 7.68656C11.818 7.62272 11.8127 7.55782 11.7941 7.49622C11.7755 7.43461 11.7441 7.37771 11.7019 7.32932C11.6598 7.28093 11.6078 7.24217 11.5496 7.21563C11.4914 7.18908 11.4282 7.17537 11.3643 7.1754H8.38935V5.40307C8.38935 4.52549 8.56445 4.15908 9.65368 4.15908H11.4846C11.6037 4.15908 11.7179 4.11143 11.8021 4.02659C11.8863 3.94176 11.9336 3.8267 11.9336 3.70673V0.58999C11.9336 0.480166 11.894 0.374072 11.8222 0.291503C11.7503 0.208934 11.6511 0.15553 11.543 0.141252ZM11.0356 3.25347L9.65278 3.25437C7.71588 3.25437 7.49139 4.48116 7.49139 5.40307V7.62866C7.49139 7.74847 7.53857 7.8634 7.62258 7.9482C7.70658 8.03301 7.82055 8.08078 7.93947 8.08102H10.8542L10.5229 10.6594H7.94037C7.82129 10.6594 7.70709 10.7071 7.62289 10.7919C7.53869 10.8768 7.49139 10.9918 7.49139 11.1118V18.0944H4.81727V11.1118C4.81727 10.9918 4.76996 10.8768 4.68576 10.7919C4.60156 10.7071 4.48736 10.6594 4.36829 10.6594H1.83245V8.08102H4.36829C4.48736 8.08102 4.60156 8.03336 4.68576 7.94852C4.76996 7.86369 4.81727 7.74863 4.81727 7.62866V5.05746C4.81727 2.45732 6.31237 0.904831 8.81588 0.904831C9.72192 0.904831 10.54 0.95459 11.0356 0.998016V3.25347Z" fill="white"/>
</svg>
