<svg width="20" height="19" viewBox="0 0 20 19" fill="none" xmlns="http://www.w3.org/2000/svg">
<path d="M10.4336 5.14583C9.57242 5.14583 8.73059 5.4012 8.01455 5.87964C7.29851 6.35808 6.74043 7.03811 6.41087 7.83373C6.08131 8.62935 5.99509 9.50483 6.16309 10.3495C6.3311 11.1941 6.74579 11.9699 7.35473 12.5789C7.96367 13.1878 8.73951 13.6025 9.58414 13.7705C10.4288 13.9385 11.3042 13.8523 12.0999 13.5227C12.8955 13.1932 13.5755 12.6351 14.054 11.919C14.5324 11.203 14.7878 10.3612 14.7878 9.5C14.7878 8.3452 14.329 7.2377 13.5125 6.42114C12.6959 5.60457 11.5884 5.14583 10.4336 5.14583ZM10.4336 13.0625C9.729 13.0625 9.04023 12.8536 8.45438 12.4621C7.86853 12.0707 7.41191 11.5143 7.14227 10.8633C6.87264 10.2123 6.80209 9.49605 6.93955 8.80499C7.07701 8.11393 7.4163 7.47916 7.91453 6.98093C8.41275 6.48271 9.04753 6.14341 9.73858 6.00595C10.4296 5.86849 11.1459 5.93904 11.7969 6.20868C12.4479 6.47832 13.0043 6.93493 13.3957 7.52078C13.7872 8.10663 13.9961 8.7954 13.9961 9.5C13.9961 10.4448 13.6208 11.351 12.9527 12.0191C12.2846 12.6872 11.3784 13.0625 10.4336 13.0625ZM14.7878 0H6.07943C4.71467 0 3.4058 0.542149 2.44077 1.50718C1.47574 2.47221 0.933594 3.78107 0.933594 5.14583V13.8542C0.933594 14.5299 1.06669 15.1991 1.3253 15.8234C1.5839 16.4477 1.96294 17.015 2.44077 17.4928C3.4058 18.4579 4.71467 19 6.07943 19H14.7878C15.4635 19 16.1327 18.8669 16.757 18.6083C17.3813 18.3497 17.9486 17.9707 18.4264 17.4928C18.9042 17.015 19.2833 16.4477 19.5419 15.8234C19.8005 15.1991 19.9336 14.5299 19.9336 13.8542V5.14583C19.9336 4.47007 19.8005 3.80093 19.5419 3.17661C19.2833 2.55229 18.9042 1.98501 18.4264 1.50718C17.9486 1.02934 17.3813 0.650306 16.757 0.391703C16.1327 0.133101 15.4635 0 14.7878 0ZM19.1419 13.8542C19.1419 15.009 18.6832 16.1165 17.8666 16.933C17.0501 17.7496 15.9426 18.2083 14.7878 18.2083H6.07943C4.92463 18.2083 3.81713 17.7496 3.00057 16.933C2.184 16.1165 1.72526 15.009 1.72526 13.8542V5.14583C1.72526 3.99104 2.184 2.88354 3.00057 2.06697C3.81713 1.25041 4.92463 0.791667 6.07943 0.791667H14.7878C15.9426 0.791667 17.0501 1.25041 17.8666 2.06697C18.6832 2.88354 19.1419 3.99104 19.1419 5.14583V13.8542ZM16.3711 4.35417C16.3711 4.51074 16.3247 4.6638 16.2377 4.79399C16.1507 4.92418 16.027 5.02565 15.8824 5.08557C15.7377 5.14549 15.5785 5.16117 15.425 5.13062C15.2714 5.10008 15.1304 5.02468 15.0196 4.91396C14.9089 4.80324 14.8335 4.66218 14.803 4.50861C14.7724 4.35504 14.7881 4.19587 14.848 4.05121C14.9079 3.90655 15.0094 3.78291 15.1396 3.69592C15.2698 3.60893 15.4229 3.5625 15.5794 3.5625C15.7894 3.5625 15.9908 3.64591 16.1392 3.79437C16.2877 3.94284 16.3711 4.1442 16.3711 4.35417Z" fill="white"/>
</svg>
