<svg width="22" height="20" viewBox="0 0 22 20" fill="none" xmlns="http://www.w3.org/2000/svg">
<path d="M21.3791 0.357094C21.1635 0.178368 20.9035 0.0613219 20.6267 0.0183649C20.35 -0.0245921 20.0668 0.00814099 19.8071 0.113094L1.8901 7.34609C1.60058 7.46507 1.35408 7.6693 1.18334 7.93165C1.0126 8.19401 0.925695 8.5021 0.934158 8.815C0.942621 9.12791 1.04605 9.43085 1.23072 9.68359C1.41539 9.93634 1.67257 10.1269 1.9681 10.2301L5.8341 11.5721L7.9291 18.4981C7.9331 18.5121 7.9461 18.5211 7.9521 18.5341C7.97369 18.5894 8.00521 18.6402 8.0451 18.6841C8.10572 18.7518 8.18397 18.8013 8.2711 18.8271C8.2811 18.8311 8.2881 18.8401 8.2981 18.8421H8.3041L8.3071 18.8431C8.38447 18.8597 8.46486 18.8556 8.5401 18.8311C8.5481 18.8291 8.5561 18.8291 8.5651 18.8261C8.63735 18.8007 8.70273 18.759 8.7561 18.7041C8.7621 18.6971 8.7721 18.6961 8.7781 18.6901L11.7911 15.3641L16.1881 18.7691C16.4551 18.9781 16.7841 19.0911 17.1231 19.0911C17.8571 19.0911 18.4901 18.5771 18.6411 17.8601L21.9031 1.84209C21.9584 1.57017 21.9389 1.28832 21.8466 1.02662C21.7544 0.764915 21.5928 0.533167 21.3791 0.356094V0.357094ZM9.02211 12.8871L8.3151 16.3241L6.8401 11.4461L14.1551 7.63609L9.1581 12.6341C9.08891 12.7032 9.04161 12.7912 9.02211 12.8871ZM17.6611 17.6591C17.6423 17.7498 17.6006 17.8341 17.5398 17.904C17.479 17.9738 17.4013 18.0269 17.3141 18.0581C17.229 18.0908 17.1369 18.1009 17.0468 18.0872C16.9566 18.0735 16.8716 18.0366 16.8001 17.9801L12.0371 14.2911C11.9375 14.2142 11.8127 14.1777 11.6874 14.1888C11.5621 14.2 11.4456 14.2579 11.3611 14.3511L9.2641 16.6621L9.97011 13.2351L17.1591 6.04509C17.2433 5.96063 17.2945 5.84885 17.3035 5.72993C17.3126 5.61102 17.2788 5.49279 17.2083 5.3966C17.1378 5.3004 17.0352 5.23256 16.9191 5.20533C16.803 5.1781 16.681 5.19327 16.5751 5.24809L6.2121 10.6461L2.2951 9.28409C2.19125 9.2498 2.10067 9.18398 2.03596 9.0958C1.97126 9.00761 1.93566 8.90146 1.9341 8.79209C1.92912 8.68176 1.9586 8.57262 2.01845 8.4798C2.0783 8.38698 2.16555 8.31509 2.2681 8.27409L20.1821 1.04109C20.2739 1.00209 20.3748 0.989477 20.4733 1.00467C20.5719 1.01986 20.6643 1.06226 20.7401 1.12709C20.8155 1.18808 20.8724 1.26882 20.9045 1.36029C20.9367 1.45176 20.9428 1.55037 20.9221 1.64509L17.6611 17.6601V17.6591Z" fill="white"/>
</svg>
