<svg width="24" height="19" viewBox="0 0 24 19" fill="none" xmlns="http://www.w3.org/2000/svg">
<path d="M23.9266 0.866416C23.9266 0.771788 23.901 0.67885 23.8524 0.597043C23.8039 0.515237 23.7341 0.447476 23.6501 0.400645C23.5662 0.353813 23.471 0.32958 23.3744 0.330406C23.2778 0.331233 23.1831 0.357089 23.1 0.40535C22.3295 0.854717 21.4926 1.18458 20.6191 1.38324C19.6644 0.490616 18.3938 -0.00513537 17.0739 4.01186e-05C16.3571 0.00103712 15.6482 0.147758 14.9922 0.430918C14.3362 0.714077 13.7474 1.12751 13.263 1.64505C12.7786 2.1626 12.4092 2.77298 12.1781 3.43758C11.947 4.10218 11.8593 4.80652 11.9205 5.50603C8.61088 5.16156 5.5742 3.55067 3.47151 1.02404C3.41539 0.956913 3.34348 0.90413 3.26194 0.87022C3.1804 0.836309 3.09168 0.822285 3.00339 0.82935C2.91509 0.836415 2.82987 0.864358 2.75504 0.910782C2.6802 0.957205 2.61799 1.02072 2.57374 1.09588C2.1195 1.87164 1.88057 2.75035 1.8807 3.64461C1.87936 4.62608 2.1692 5.58678 2.71497 6.40994L2.64928 6.37455C2.5635 6.33331 2.46826 6.3146 2.37287 6.32023C2.27749 6.32587 2.18523 6.35567 2.10514 6.40672C2.02169 6.45986 1.9532 6.53267 1.90595 6.61847C1.8587 6.70428 1.8342 6.80032 1.83471 6.89781C1.83033 7.02433 1.838 7.15193 1.8588 7.27631C1.91054 7.98424 2.11465 8.67342 2.45769 9.2986C2.80074 9.92378 3.27498 10.4708 3.84924 10.9037C3.77925 10.9239 3.71408 10.9576 3.65757 11.0028C3.60106 11.048 3.55435 11.1038 3.52018 11.1669C3.48601 11.2301 3.46507 11.2993 3.45859 11.3704C3.45211 11.4416 3.46023 11.5133 3.48246 11.5814C3.73538 12.3537 4.17474 13.0549 4.7633 13.6255C5.35185 14.1962 6.07224 14.6194 6.86336 14.8592C5.2479 15.745 3.38734 16.1065 1.54896 15.8918C1.42576 15.8767 1.30099 15.9031 1.19512 15.9666C1.08924 16.0301 1.00855 16.127 0.966291 16.2413C0.924026 16.3556 0.922698 16.4806 0.962524 16.5958C1.00235 16.7109 1.08096 16.8094 1.18547 16.8751C3.38551 18.2624 5.947 18.9999 8.56367 18.9992C11.532 19.0313 14.428 18.1019 16.8012 16.3555C19.1744 14.6091 20.8919 12.1437 21.6866 9.34253C22.0577 8.12339 22.2471 6.85706 22.2493 5.58431C22.2493 5.45564 22.2493 5.32161 22.246 5.18543C22.8155 4.61839 23.2588 3.94198 23.548 3.19881C23.8373 2.45565 23.9662 1.66186 23.9266 0.867489V0.866416ZM21.2727 4.65467C21.1828 4.75881 21.1369 4.8927 21.1446 5.02888C21.2044 6.38435 21.0327 7.74008 20.6366 9.04016C19.93 11.6309 18.3563 13.9147 16.1675 15.5259C13.9787 17.137 11.3012 17.9825 8.56367 17.9269C6.89295 17.927 5.23908 17.6 3.69924 16.9651C5.50894 16.7685 7.22569 16.0774 8.65344 14.9708C8.74227 14.9024 8.80732 14.8087 8.83965 14.7027C8.87199 14.5967 8.87003 14.4834 8.83405 14.3785C8.79807 14.2737 8.72982 14.1822 8.63868 14.1168C8.54754 14.0514 8.43796 14.0152 8.32499 14.0132C7.62424 14.0021 6.93835 13.8135 6.33403 13.4659C5.7297 13.1183 5.22748 12.6235 4.87621 12.0296C5.34152 12.0307 5.80355 11.9685 6.24915 11.843C6.36659 11.8093 6.46912 11.738 6.54035 11.6406C6.61158 11.5431 6.64741 11.4251 6.64211 11.3053C6.63682 11.1856 6.59071 11.071 6.51114 10.98C6.43158 10.8889 6.32315 10.8266 6.20317 10.8029C5.41946 10.6493 4.69953 10.2725 4.1337 9.71969C3.56787 9.16687 3.18134 8.46271 3.02263 7.69556C3.48759 7.84323 3.97159 7.92554 4.46016 7.94003C4.58054 7.94876 4.70024 7.91604 4.7986 7.84752C4.89695 7.77899 4.96777 7.67898 4.99883 7.56475C5.03459 7.45386 5.03257 7.33459 4.99308 7.22493C4.95358 7.11527 4.87875 7.02115 4.77986 6.95678C4.22285 6.59367 3.76647 6.10095 3.45159 5.52273C3.1367 4.94451 2.97314 4.29885 2.97555 3.64354C2.97555 3.2007 3.0489 2.76108 3.19452 2.3429C5.62184 4.90989 8.97685 6.44696 12.5445 6.62653C12.6298 6.63546 12.7159 6.62245 12.7945 6.58879C12.873 6.55513 12.9412 6.50198 12.9923 6.4346C13.0466 6.37087 13.0851 6.29567 13.1046 6.21492C13.1242 6.13417 13.1244 6.05007 13.1051 5.96924C13.0328 5.6735 12.9961 5.3705 12.9956 5.06641C12.9968 4.00754 13.4266 2.99233 14.191 2.24339C14.9553 1.49445 15.9917 1.07292 17.0728 1.07122C17.6298 1.06966 18.181 1.1812 18.6916 1.39879C19.2023 1.61638 19.6614 1.93529 20.0399 2.3354C20.1035 2.4018 20.1833 2.45122 20.2718 2.47899C20.3603 2.50676 20.4546 2.51196 20.5457 2.49409C21.3226 2.34427 22.0781 2.10268 22.7956 1.77461C22.6091 2.86756 22.0759 3.87523 21.2716 4.65467H21.2727Z" fill="white"/>
</svg>
