<svg width="330" height="181" viewBox="0 0 330 181" fill="none" xmlns="http://www.w3.org/2000/svg">
<g clip-path="url(#clip0_420_966)">
<path d="M120.986 16.4885L92.2385 22.6968L100.735 62.0409L129.483 55.8326L120.986 16.4885Z" fill="#F5F5F5"/>
<path d="M257.823 0.314209H159.844V64.0084H257.823V0.314209Z" fill="#F5F5F5"/>
<path d="M221.775 32.5997C223.485 25.4394 219.067 18.2485 211.907 16.5382C204.746 14.828 197.556 19.2462 195.845 26.4066C194.135 33.5669 198.553 40.7579 205.714 42.4681C212.874 44.1783 220.065 39.7601 221.775 32.5997Z" fill="#E0E0E0"/>
<path d="M213.32 29.4642L209.845 31.4871L206.37 33.5099V29.4642V25.4703L209.845 27.4413L213.32 29.4642Z" fill="#F5F5F5"/>
<path d="M257.823 52.5974H159.844V64.0603H257.823V52.5974Z" fill="#E0E0E0"/>
<path d="M169.388 58.303L167.936 59.1329L166.535 59.9109V58.303V56.6951L167.936 57.4731L169.388 58.303Z" fill="#F5F5F5"/>
<path d="M249.731 58.0436H177.479V58.5626H249.731V58.0436Z" fill="#F5F5F5"/>
<path d="M178.932 58.303C178.932 58.8735 178.465 59.3922 177.842 59.3922C177.22 59.3922 176.753 58.9254 176.753 58.303C176.753 57.7324 177.22 57.2137 177.842 57.2137C178.465 57.2137 178.932 57.7324 178.932 58.303Z" fill="#F5F5F5"/>
<path d="M326.651 136.572H232.044C230.488 136.572 229.192 135.275 229.192 133.719V49.0704C229.192 47.5144 230.488 46.2177 232.044 46.2177H326.651C328.207 46.2177 329.504 47.5144 329.504 49.0704V133.771C329.504 135.327 328.207 136.572 326.651 136.572Z" fill="#F5F5F5"/>
<path d="M329.504 56.2801H229.192V49.5372C229.192 47.7218 230.696 46.2177 232.511 46.2177H326.185C328 46.2177 329.504 47.7218 329.504 49.5372V56.2801Z" fill="#EBEBEB"/>
<path d="M235.312 52.0279C235.742 52.0279 236.09 51.6794 236.09 51.2494C236.09 50.8195 235.742 50.4709 235.312 50.4709C234.882 50.4709 234.534 50.8195 234.534 51.2494C234.534 51.6794 234.882 52.0279 235.312 52.0279Z" fill="#FAFAFA"/>
<path d="M240.862 51.2494C240.862 51.6646 240.499 52.0279 240.084 52.0279C239.669 52.0279 239.306 51.6646 239.306 51.2494C239.306 50.8342 239.669 50.4709 240.084 50.4709C240.499 50.4709 240.862 50.8342 240.862 51.2494Z" fill="#FAFAFA"/>
<path d="M244.804 52.0279C245.234 52.0279 245.582 51.6794 245.582 51.2494C245.582 50.8195 245.234 50.4709 244.804 50.4709C244.374 50.4709 244.026 50.8195 244.026 51.2494C244.026 51.6794 244.374 52.0279 244.804 52.0279Z" fill="#FAFAFA"/>
<path d="M317.419 64.4235H279.555V65.7729H317.419V64.4235Z" fill="#FAFAFA"/>
<path d="M317.419 70.077H279.555V71.4264H317.419V70.077Z" fill="#FAFAFA"/>
<path d="M317.419 75.7306H279.555V77.08H317.419V75.7306Z" fill="#FAFAFA"/>
<path d="M317.419 81.3325H279.555V82.6819H317.419V81.3325Z" fill="#FAFAFA"/>
<path d="M298.487 86.9861H279.555V88.3355H298.487V86.9861Z" fill="#FAFAFA"/>
<path d="M239.367 99.4663H277.23V98.1169H239.367V99.4663Z" fill="#FAFAFA"/>
<path d="M239.367 105.094H277.23V103.745H239.367V105.094Z" fill="#FAFAFA"/>
<path d="M239.367 110.723H277.23V109.373H239.367V110.723Z" fill="#FAFAFA"/>
<path d="M239.367 116.403H277.23V115.053H239.367V116.403Z" fill="#FAFAFA"/>
<path d="M258.252 122.031H277.184V120.682H258.252V122.031Z" fill="#FAFAFA"/>
<path d="M316.174 96.5818H283.757V123.553H316.174V96.5818Z" fill="#FAFAFA"/>
<path d="M283.705 115.41L293.248 108.667L299.939 113.335L310.469 104.414L316.174 110.068V123.553H283.757L283.705 115.41Z" fill="#EBEBEB"/>
<path d="M300.51 107.111C301.999 107.111 303.207 105.903 303.207 104.414C303.207 102.924 301.999 101.717 300.51 101.717C299.02 101.717 297.813 102.924 297.813 104.414C297.813 105.903 299.02 107.111 300.51 107.111Z" fill="#EBEBEB"/>
<path d="M271.723 63.5935H239.306V90.565H271.723V63.5935Z" fill="#FAFAFA"/>
<path d="M239.254 82.4217L248.849 75.7307L255.54 80.347L266.07 71.4257L271.723 77.0793V90.565H239.306L239.254 82.4217Z" fill="#EBEBEB"/>
<path d="M256.111 74.1227C257.601 74.1227 258.808 72.9151 258.808 71.4255C258.808 69.936 257.601 68.7284 256.111 68.7284C254.621 68.7284 253.414 69.936 253.414 71.4255C253.414 72.9151 254.621 74.1227 256.111 74.1227Z" fill="#EBEBEB"/>
<path d="M119.076 153.689H3.25517C1.90661 153.689 0.817383 152.599 0.817383 151.251V88.3347H121.462V151.251C121.462 152.599 120.425 153.689 119.076 153.689Z" fill="#F5F5F5"/>
<path d="M121.462 88.3347H0.817383V100.472H121.462V88.3347Z" fill="#EBEBEB"/>
<path d="M8.18264 95.337C8.69827 95.337 9.11627 94.919 9.11627 94.4034C9.11627 93.8877 8.69827 93.4697 8.18264 93.4697C7.66702 93.4697 7.24902 93.8877 7.24902 94.4034C7.24902 94.919 7.66702 95.337 8.18264 95.337Z" fill="#FAFAFA"/>
<path d="M13.888 95.337C14.4036 95.337 14.8216 94.919 14.8216 94.4034C14.8216 93.8877 14.4036 93.4697 13.888 93.4697C13.3723 93.4697 12.9543 93.8877 12.9543 94.4034C12.9543 94.919 13.3723 95.337 13.888 95.337Z" fill="#FAFAFA"/>
<path d="M19.5935 95.337C20.1092 95.337 20.5272 94.919 20.5272 94.4034C20.5272 93.8877 20.1092 93.4697 19.5935 93.4697C19.0779 93.4697 18.6599 93.8877 18.6599 94.4034C18.6599 94.919 19.0779 95.337 19.5935 95.337Z" fill="#FAFAFA"/>
<path d="M106.939 110.275H61.3989V111.936H106.939V110.275Z" fill="#EBEBEB"/>
<path d="M106.939 117.07H61.3989V118.731H106.939V117.07Z" fill="#EBEBEB"/>
<path d="M106.939 123.813H61.3989V125.473H106.939V123.813Z" fill="#EBEBEB"/>
<path d="M106.939 130.607H61.3989V132.268H106.939V130.607Z" fill="#EBEBEB"/>
<path d="M84.1689 137.402H61.3989V139.063H84.1689V137.402Z" fill="#EBEBEB"/>
<path d="M49.8845 109.082H10.8799V141.5H49.8845V109.082Z" fill="#FAFAFA"/>
<path d="M10.7761 131.748L22.2908 123.657L30.3303 129.259L42.9861 118.522L49.8326 125.317V141.552H10.8799L10.7761 131.748Z" fill="#EBEBEB"/>
<path d="M34.2722 118.522C34.2722 120.337 32.8199 121.79 31.0045 121.79C29.1891 121.79 27.7368 120.337 27.7368 118.522C27.7368 116.707 29.1891 115.254 31.0045 115.254C32.8199 115.254 34.2722 116.759 34.2722 118.522Z" fill="#EBEBEB"/>
<path d="M117.356 23.5955L88.6084 29.8038L97.1051 69.148L125.852 62.9397L117.356 23.5955Z" fill="white"/>
<path d="M125.819 62.9193C125.819 62.9193 125.819 62.8674 125.767 62.7118C125.715 62.5562 125.715 62.4006 125.663 62.1412C125.559 61.6226 125.404 60.9483 125.196 60.0146C124.781 58.1474 124.159 55.3984 123.433 51.9232C121.929 45.0247 119.802 35.1697 117.261 23.5512L117.416 23.655C108.754 25.5222 99.0032 27.6488 88.6815 29.8792L88.7852 29.7236C91.9491 44.4023 94.8537 58.0436 97.2397 69.0397L97.0841 68.936C105.798 67.0687 112.956 65.5645 117.987 64.4753C120.476 63.9566 122.447 63.5417 123.796 63.2305C124.47 63.0749 124.989 62.9711 125.352 62.9193C125.663 62.9711 125.819 62.9193 125.819 62.9193C125.819 62.9193 125.663 62.9711 125.3 63.023C124.937 63.1267 124.47 63.2305 123.796 63.3861C122.447 63.6973 120.528 64.1122 118.039 64.6828C113.007 65.772 105.85 67.3799 97.0841 69.2472H96.9803V69.1435C94.5944 58.0955 91.6379 44.506 88.474 29.8273L88.4221 29.6717L88.5777 29.6198C98.8994 27.3895 108.651 25.3148 117.313 23.4475H117.416V23.5512C119.906 35.2216 122.032 45.0766 123.485 52.0269C124.211 55.5021 124.781 58.1992 125.196 60.0665C125.404 61.0001 125.559 61.7263 125.663 62.1931C125.715 62.4525 125.767 62.6081 125.767 62.7118C125.819 62.8674 125.819 62.9193 125.819 62.9193Z" fill="#263238"/>
<path d="M107.873 33.9249C107.873 33.9767 104.761 34.7548 100.922 35.5846C97.0841 36.4145 93.9202 37.037 93.9202 36.9851C93.9202 36.9332 97.0322 36.1552 100.87 35.3253C104.709 34.4435 107.873 33.8211 107.873 33.9249Z" fill="#263238"/>
<path d="M116.171 35.6885C116.171 35.7403 111.4 36.8815 105.435 38.1263C99.47 39.423 94.6462 40.4085 94.6462 40.3048C94.6462 40.2529 99.4181 39.1118 105.383 37.8669C111.296 36.6221 116.171 35.6366 116.171 35.6885Z" fill="#263238"/>
<path d="M116.949 39.2673C116.949 39.3191 112.178 40.4602 106.213 41.7051C100.248 43.0018 95.4243 43.9873 95.4243 43.8835C95.4243 43.8317 100.196 42.6906 106.161 41.4457C112.074 40.149 116.898 39.1635 116.949 39.2673Z" fill="#263238"/>
<path d="M117.728 42.8462C117.728 42.8981 112.956 44.0392 106.991 45.284C101.026 46.5807 96.2024 47.5662 96.2024 47.4625C96.2024 47.4106 100.974 46.2695 106.939 45.0247C112.852 43.728 117.676 42.7425 117.728 42.8462Z" fill="#263238"/>
<path d="M118.454 46.3733C118.454 46.4252 113.682 47.5663 107.717 48.8111C101.752 50.1078 96.9285 51.0933 96.9285 50.9896C96.9285 50.9377 101.7 49.7966 107.665 48.5518C113.63 47.3069 118.454 46.3214 118.454 46.3733Z" fill="#263238"/>
<path d="M119.232 49.9522C119.232 50.004 114.46 51.1451 108.495 52.39C102.53 53.6867 97.7065 54.6722 97.7065 54.5684C97.7065 54.5166 102.478 53.3755 108.443 52.1306C114.408 50.8858 119.232 49.9003 119.232 49.9522Z" fill="#263238"/>
<path d="M120.009 53.5311C120.009 53.5829 115.238 54.724 109.273 55.9689C103.308 57.2656 98.4844 58.2511 98.4844 58.1473C98.4844 58.0955 103.256 56.9544 109.221 55.7095C115.186 54.4128 120.009 53.4273 120.009 53.5311Z" fill="#263238"/>
<path d="M110.829 59.2366C110.829 59.2885 108.287 59.9109 105.072 60.637C101.856 61.3113 99.2625 61.83 99.2625 61.7781C99.2625 61.7263 101.804 61.1038 105.02 60.3777C108.236 59.6515 110.829 59.1847 110.829 59.2366Z" fill="#263238"/>
<path d="M251.806 124.279L259.171 143.159L262.231 138.232L266.485 143.782L271.568 138.958L266.744 134.29L271.204 131.282L251.806 124.279Z" fill="#EDE059"/>
<path d="M249.057 127.08C249.109 127.132 247.916 127.962 246.36 128.947C244.856 129.933 243.559 130.659 243.559 130.555C243.507 130.503 244.7 129.674 246.256 128.688C247.76 127.754 249.005 127.028 249.057 127.08Z" fill="#263238"/>
<path d="M249.627 123.242C249.627 123.294 249.161 123.138 248.435 122.931C247.708 122.723 246.723 122.36 245.686 121.893C244.596 121.478 243.663 121.012 242.988 120.7C242.314 120.389 241.899 120.182 241.899 120.13C241.899 120.078 242.366 120.234 243.04 120.545C243.818 120.856 244.752 121.219 245.789 121.634C246.827 122.049 247.708 122.412 248.538 122.723C249.213 123.034 249.627 123.242 249.627 123.242Z" fill="#263238"/>
<path d="M251.858 114.684C251.91 114.684 252.014 115.099 252.117 115.721C252.221 116.395 252.377 117.277 252.532 118.263C252.636 119.248 252.74 120.182 252.792 120.856C252.843 121.53 252.843 121.945 252.792 121.945C252.74 121.945 252.532 120.337 252.273 118.314C252.013 116.343 251.754 114.684 251.858 114.684Z" fill="#263238"/>
<path d="M262.024 118.937C262.076 118.989 260.675 119.611 259.171 120.597C257.615 121.582 256.422 122.464 256.37 122.36C256.37 122.308 256.63 122.101 257.097 121.738C257.563 121.375 258.238 120.856 259.016 120.389C260.572 119.352 262.024 118.833 262.024 118.937Z" fill="#263238"/>
<path d="M80.694 127.495C80.6421 127.495 80.694 126.665 80.3309 125.213C80.1753 124.487 79.8122 123.657 79.2935 122.723C78.7749 121.841 77.9968 120.908 76.9076 120.078C75.8703 119.3 74.5217 118.626 72.9657 118.366C71.4615 118.107 69.698 118.159 68.0901 118.781C67.2602 119.092 66.4822 119.507 65.756 120.026C65.393 120.285 65.0299 120.597 64.7187 120.908C64.4075 121.271 64.0963 121.582 63.7851 121.997C62.644 123.501 62.0215 125.472 61.9697 127.495C61.9697 129.518 62.644 131.437 63.7851 132.993C64.0444 133.408 64.4075 133.719 64.7187 134.082C65.0817 134.394 65.393 134.705 65.756 134.964C66.4822 135.535 67.2602 135.95 68.0901 136.209C69.7499 136.831 71.4615 136.883 72.9657 136.624C74.5217 136.365 75.8184 135.69 76.9076 134.912C77.945 134.134 78.723 133.201 79.2935 132.267C79.8122 131.385 80.1753 130.503 80.3309 129.777C80.694 128.325 80.6421 127.495 80.694 127.495C80.694 127.495 80.694 127.547 80.694 127.651C80.694 127.754 80.694 127.91 80.694 128.118C80.694 128.325 80.694 128.584 80.6421 128.844C80.5902 129.155 80.5902 129.466 80.4865 129.829C80.3309 130.555 80.0197 131.437 79.4491 132.371C78.9305 133.304 78.1524 134.238 77.0632 135.068C75.974 135.898 74.6254 136.572 73.0694 136.883C71.5134 137.143 69.7499 137.143 68.0901 136.468C67.2602 136.157 66.4303 135.742 65.6523 135.172C65.2892 134.912 64.9261 134.549 64.5631 134.238C64.2519 133.875 63.8888 133.512 63.6294 133.149C62.4365 131.593 61.7622 129.57 61.7622 127.495C61.7622 125.42 62.4365 123.398 63.6294 121.841C63.8888 121.427 64.2519 121.115 64.5631 120.752C64.9261 120.441 65.2374 120.078 65.6523 119.819C66.3784 119.248 67.2083 118.833 68.0901 118.522C69.7499 117.899 71.5134 117.848 73.0694 118.107C74.6254 118.418 75.974 119.092 77.0632 119.922C78.1524 120.752 78.9305 121.686 79.4491 122.619C79.9678 123.553 80.3309 124.435 80.4865 125.161C80.5902 125.524 80.6421 125.835 80.6421 126.147C80.694 126.458 80.694 126.665 80.694 126.873C80.694 127.08 80.694 127.184 80.694 127.339C80.694 127.443 80.694 127.495 80.694 127.495Z" fill="#263238"/>
<path d="M71.254 132.215C71.2021 132.215 71.0984 130.088 71.0984 127.495C71.0984 124.902 71.1503 122.775 71.254 122.775C71.3577 122.775 71.4096 124.902 71.4096 127.495C71.4096 130.088 71.3577 132.215 71.254 132.215Z" fill="#263238"/>
<path d="M75.9741 127.495C75.9741 127.547 73.8476 127.651 71.2542 127.651C68.6608 127.651 66.5342 127.599 66.5342 127.495C66.5342 127.391 68.6608 127.339 71.2542 127.339C73.8994 127.339 75.9741 127.391 75.9741 127.495Z" fill="#263238"/>
<path d="M225.042 157.89C224.99 157.942 218.455 147.828 210.467 135.379C202.479 122.931 196.1 112.765 196.151 112.713C196.203 112.661 202.739 122.723 210.726 135.224C218.714 147.724 225.094 157.89 225.042 157.89Z" fill="#263238"/>
<path d="M227.895 179.882C236.23 179.882 242.988 173.124 242.988 164.788C242.988 156.452 236.23 149.695 227.895 149.695C219.559 149.695 212.801 156.452 212.801 164.788C212.801 173.124 219.559 179.882 227.895 179.882Z" fill="white"/>
<path d="M212.749 164.788C212.749 164.788 212.749 164.685 212.749 164.529C212.749 164.374 212.749 164.114 212.749 163.803C212.749 163.647 212.749 163.492 212.749 163.284C212.749 163.077 212.801 162.869 212.853 162.662C212.905 162.195 212.956 161.676 213.164 161.106C213.423 159.913 213.942 158.512 214.824 157.06C215.705 155.608 216.95 154.052 218.662 152.703C220.374 151.406 222.552 150.265 225.042 149.85C225.664 149.747 226.287 149.643 226.961 149.643C227.272 149.643 227.635 149.591 227.946 149.591C228.258 149.591 228.621 149.643 228.932 149.643C229.295 149.643 229.606 149.695 229.969 149.747C230.332 149.799 230.643 149.85 231.007 149.902C231.681 150.058 232.355 150.213 233.029 150.473C233.704 150.68 234.378 151.043 235 151.355C235.312 151.51 235.623 151.718 235.934 151.925C236.245 152.081 236.556 152.34 236.868 152.548C237.49 152.963 238.009 153.481 238.579 154C239.098 154.57 239.617 155.141 240.083 155.763C241.017 157.008 241.795 158.409 242.262 159.965C242.781 161.521 243.04 163.129 243.04 164.788C243.04 166.448 242.729 168.056 242.262 169.612C241.795 171.168 240.965 172.569 240.083 173.814C239.617 174.436 239.098 175.007 238.579 175.577C238.009 176.096 237.49 176.614 236.868 177.029C236.556 177.237 236.297 177.496 235.934 177.652C235.623 177.859 235.312 178.067 235 178.222C234.326 178.534 233.704 178.897 233.029 179.104C232.355 179.363 231.681 179.519 231.007 179.675C230.643 179.727 230.332 179.778 229.969 179.83C229.606 179.882 229.295 179.934 228.932 179.934C228.569 179.934 228.258 179.986 227.946 179.986C227.635 179.986 227.272 179.934 226.961 179.934C226.287 179.934 225.664 179.778 225.042 179.727C222.552 179.26 220.374 178.17 218.662 176.874C216.95 175.577 215.705 174.021 214.824 172.517C213.942 171.013 213.423 169.664 213.164 168.471C213.008 167.901 212.956 167.382 212.853 166.915C212.801 166.708 212.801 166.5 212.749 166.293C212.749 166.085 212.749 165.93 212.749 165.774C212.749 165.463 212.749 165.203 212.749 165.048C212.749 164.892 212.749 164.788 212.749 164.788C212.749 164.788 212.749 164.892 212.801 165.048C212.801 165.203 212.853 165.463 212.853 165.774C212.853 165.93 212.853 166.085 212.905 166.293C212.905 166.5 212.956 166.708 213.008 166.915C213.06 167.382 213.164 167.901 213.32 168.471C213.579 169.612 214.149 171.013 214.979 172.465C215.861 173.917 217.106 175.421 218.818 176.718C220.529 178.015 222.656 179.104 225.145 179.519C225.768 179.623 226.39 179.727 227.065 179.727C227.376 179.727 227.739 179.778 228.05 179.778C228.361 179.778 228.724 179.727 229.036 179.727C229.347 179.727 229.71 179.675 230.021 179.623C230.332 179.571 230.695 179.519 231.007 179.467C231.681 179.312 232.355 179.156 233.029 178.897C233.704 178.689 234.326 178.326 235 178.015C235.312 177.859 235.623 177.652 235.934 177.444C236.245 177.289 236.556 177.029 236.816 176.822C237.438 176.407 237.957 175.888 238.527 175.37C239.046 174.799 239.565 174.28 239.98 173.606C240.861 172.361 241.639 171.013 242.106 169.457C242.573 167.952 242.832 166.345 242.884 164.737C242.884 163.129 242.625 161.521 242.106 160.017C241.639 158.512 240.861 157.112 239.98 155.867C239.565 155.245 238.994 154.674 238.527 154.155C237.957 153.637 237.438 153.118 236.816 152.703C236.505 152.496 236.245 152.236 235.934 152.081C235.623 151.873 235.312 151.718 235 151.51C234.326 151.199 233.704 150.888 233.029 150.628C232.355 150.369 231.681 150.213 231.007 150.058C230.695 150.006 230.332 149.954 230.021 149.902C229.71 149.85 229.347 149.799 229.036 149.799C228.724 149.799 228.361 149.747 228.05 149.747C227.739 149.747 227.376 149.799 227.065 149.799C226.39 149.799 225.768 149.954 225.145 150.006C222.656 150.421 220.529 151.51 218.818 152.807C217.106 154.104 215.861 155.608 214.979 157.06C214.098 158.512 213.579 159.913 213.32 161.054C213.164 161.625 213.06 162.143 213.008 162.61C212.956 162.817 212.956 163.025 212.905 163.232C212.905 163.44 212.905 163.596 212.853 163.751C212.853 164.062 212.801 164.27 212.801 164.477C212.749 164.685 212.749 164.788 212.749 164.788Z" fill="#263238"/>
<path d="M223.745 159.239L221.67 171.064L227.895 170.235L234.067 171.064L231.577 159.239H223.745Z" fill="#263238"/>
<path d="M230.488 159.394C230.436 159.394 230.332 158.979 229.969 158.357C229.814 158.046 229.554 157.683 229.243 157.371C229.087 157.216 228.88 157.112 228.621 157.008C228.413 156.904 228.154 156.904 227.895 156.904C227.376 156.904 226.857 157.008 226.494 157.268C226.131 157.527 225.872 157.838 225.716 158.149C225.405 158.772 225.301 159.239 225.249 159.187C225.249 159.187 225.249 158.72 225.56 158.046C225.716 157.734 225.924 157.319 226.39 157.008C226.805 156.697 227.376 156.593 227.946 156.593C228.258 156.593 228.517 156.645 228.776 156.749C229.036 156.853 229.243 157.008 229.451 157.164C229.814 157.527 230.073 157.89 230.229 158.253C230.488 158.927 230.54 159.394 230.488 159.394Z" fill="#263238"/>
<path d="M167.572 158.927C167.52 158.927 167.417 148.502 167.417 135.69C167.417 122.827 167.469 112.453 167.572 112.453C167.624 112.453 167.728 122.879 167.728 135.69C167.676 148.502 167.624 158.927 167.572 158.927Z" fill="#263238"/>
<path d="M167.261 180.245C175.597 180.245 182.355 173.488 182.355 165.152C182.355 156.816 175.597 150.058 167.261 150.058C158.925 150.058 152.168 156.816 152.168 165.152C152.168 173.488 158.925 180.245 167.261 180.245Z" fill="white"/>
<path d="M152.116 165.152C152.116 165.152 152.116 165.048 152.116 164.892C152.116 164.737 152.116 164.477 152.116 164.166C152.116 164.011 152.116 163.855 152.116 163.647C152.116 163.44 152.168 163.232 152.219 163.025C152.271 162.558 152.323 162.04 152.531 161.469C152.79 160.276 153.309 158.876 154.19 157.423C155.072 155.971 156.317 154.415 158.029 153.066C159.74 151.77 161.919 150.629 164.408 150.214C165.031 150.11 165.653 150.006 166.328 150.006C166.639 150.006 167.002 149.954 167.313 149.954C167.624 149.954 167.987 150.006 168.298 150.006C168.662 150.006 168.973 150.058 169.336 150.11C169.699 150.162 170.01 150.214 170.373 150.265C171.047 150.421 171.722 150.577 172.396 150.836C173.07 151.043 173.745 151.407 174.367 151.718C174.678 151.873 174.989 152.081 175.301 152.288C175.612 152.444 175.923 152.703 176.234 152.911C176.857 153.326 177.375 153.844 177.946 154.363C178.465 154.934 178.983 155.504 179.45 156.127C180.384 157.371 181.162 158.772 181.629 160.328C182.147 161.884 182.407 163.492 182.407 165.152C182.407 166.811 182.095 168.419 181.629 169.975C181.162 171.531 180.332 172.932 179.45 174.177C178.983 174.799 178.465 175.37 177.946 175.94C177.375 176.459 176.857 176.978 176.234 177.393C175.923 177.6 175.664 177.859 175.301 178.015C174.989 178.222 174.678 178.43 174.367 178.585C173.693 178.897 173.07 179.26 172.396 179.467C171.722 179.727 171.047 179.882 170.373 180.038C170.01 180.09 169.699 180.142 169.336 180.193C168.973 180.245 168.662 180.297 168.298 180.297C167.935 180.297 167.624 180.349 167.313 180.349C167.002 180.349 166.639 180.297 166.328 180.297C165.653 180.297 165.031 180.142 164.408 180.09C161.919 179.623 159.74 178.534 158.029 177.237C156.317 175.94 155.072 174.384 154.19 172.88C153.309 171.376 152.79 170.027 152.531 168.834C152.375 168.264 152.323 167.745 152.219 167.278C152.168 167.071 152.168 166.863 152.116 166.656C152.116 166.448 152.116 166.293 152.116 166.137C152.116 165.826 152.116 165.567 152.116 165.411C152.116 165.203 152.116 165.152 152.116 165.152C152.116 165.152 152.116 165.255 152.168 165.411C152.168 165.567 152.219 165.826 152.219 166.137C152.219 166.293 152.219 166.448 152.271 166.656C152.271 166.863 152.323 167.071 152.375 167.278C152.427 167.745 152.531 168.264 152.686 168.834C152.946 169.975 153.516 171.376 154.346 172.828C155.228 174.28 156.473 175.785 158.184 177.081C159.896 178.378 162.022 179.467 164.512 179.882C165.135 179.986 165.757 180.09 166.431 180.09C166.742 180.09 167.106 180.142 167.417 180.142C167.728 180.142 168.091 180.09 168.402 180.09C168.713 180.09 169.076 180.038 169.388 179.986C169.699 179.934 170.062 179.882 170.373 179.83C171.047 179.675 171.722 179.519 172.396 179.26C173.07 179.052 173.693 178.689 174.367 178.378C174.678 178.222 174.989 178.015 175.301 177.807C175.612 177.652 175.923 177.393 176.182 177.185C176.805 176.77 177.323 176.251 177.894 175.733C178.413 175.162 178.931 174.643 179.346 173.969C180.228 172.724 181.006 171.376 181.473 169.82C181.94 168.316 182.199 166.708 182.251 165.1C182.251 163.492 181.992 161.884 181.473 160.38C181.006 158.876 180.228 157.475 179.346 156.23C178.931 155.608 178.361 155.037 177.894 154.519C177.323 154 176.805 153.481 176.182 153.066C175.871 152.859 175.612 152.599 175.301 152.444C174.989 152.236 174.678 152.081 174.367 151.873C173.693 151.562 173.07 151.251 172.396 150.992C171.722 150.732 171.047 150.577 170.373 150.421C170.062 150.369 169.699 150.317 169.388 150.265C169.076 150.214 168.713 150.162 168.402 150.162C168.091 150.162 167.728 150.11 167.417 150.11C167.106 150.11 166.742 150.162 166.431 150.162C165.757 150.162 165.135 150.317 164.512 150.369C162.022 150.784 159.896 151.873 158.184 153.17C156.473 154.467 155.228 155.971 154.346 157.423C153.464 158.876 152.946 160.276 152.686 161.417C152.531 161.988 152.427 162.506 152.375 162.973C152.323 163.181 152.323 163.388 152.271 163.596C152.271 163.803 152.271 163.959 152.219 164.114C152.219 164.425 152.168 164.633 152.168 164.84C152.116 165.048 152.116 165.152 152.116 165.152Z" fill="#263238"/>
<path d="M167.261 158.357L160.674 164.322V171.895H165.809V167.33H169.025V171.895H173.796V164.322L167.261 158.357Z" fill="#263238"/>
<path d="M109.014 158.409C108.962 158.357 115.445 148.087 123.537 135.431C131.628 122.775 138.267 112.557 138.319 112.609C138.371 112.661 131.887 122.931 123.796 135.587C115.705 148.243 109.066 158.461 109.014 158.409Z" fill="#263238"/>
<path d="M106.576 180.038C114.912 180.038 121.67 173.28 121.67 164.944C121.67 156.608 114.912 149.851 106.576 149.851C98.24 149.851 91.4824 156.608 91.4824 164.944C91.4824 173.28 98.24 180.038 106.576 180.038Z" fill="white"/>
<path d="M121.669 164.944C121.669 164.944 121.669 164.84 121.618 164.685C121.618 164.529 121.566 164.27 121.566 163.959C121.566 163.803 121.566 163.648 121.514 163.44C121.514 163.233 121.462 163.025 121.41 162.818C121.358 162.351 121.255 161.832 121.099 161.262C120.84 160.12 120.269 158.72 119.439 157.268C118.557 155.815 117.313 154.311 115.601 153.015C113.889 151.718 111.763 150.629 109.273 150.214C108.651 150.11 108.028 150.006 107.354 150.006C107.043 150.006 106.68 149.954 106.368 149.954C106.057 149.954 105.694 150.006 105.383 150.006C105.072 150.006 104.709 150.058 104.397 150.11C104.086 150.162 103.723 150.214 103.412 150.266C102.738 150.421 102.063 150.577 101.389 150.836C100.715 151.044 100.092 151.407 99.4182 151.718C99.107 151.873 98.7958 152.081 98.4846 152.288C98.1734 152.444 97.8621 152.703 97.6028 152.911C96.9804 153.326 96.4617 153.844 95.8912 154.363C95.3725 154.934 94.8538 155.452 94.4389 156.075C93.5571 157.32 92.7791 158.668 92.3123 160.224C91.8455 161.728 91.5861 163.336 91.5343 164.944C91.5343 166.552 91.7936 168.16 92.3123 169.664C92.7791 171.168 93.5571 172.569 94.4389 173.814C94.8538 174.436 95.4244 175.007 95.8912 175.577C96.4617 176.096 96.9804 176.615 97.6028 177.03C97.914 177.237 98.1734 177.496 98.4846 177.652C98.7958 177.859 99.107 178.015 99.4182 178.223C100.092 178.534 100.715 178.845 101.389 179.104C102.063 179.364 102.738 179.519 103.412 179.675C103.723 179.727 104.086 179.779 104.397 179.83C104.709 179.882 105.072 179.934 105.383 179.934C105.694 179.934 106.057 179.986 106.368 179.986C106.68 179.986 107.043 179.934 107.354 179.934C108.028 179.934 108.651 179.779 109.273 179.727C111.763 179.312 113.889 178.223 115.601 176.926C117.313 175.629 118.557 174.125 119.439 172.673C120.321 171.22 120.84 169.82 121.099 168.679C121.255 168.108 121.358 167.59 121.41 167.123C121.462 166.915 121.462 166.708 121.514 166.5C121.514 166.293 121.514 166.137 121.566 165.982C121.566 165.67 121.618 165.463 121.618 165.255C121.669 164.996 121.669 164.944 121.669 164.944C121.669 164.944 121.669 165.048 121.669 165.204C121.669 165.359 121.669 165.619 121.669 165.93C121.669 166.085 121.669 166.241 121.669 166.448C121.669 166.656 121.618 166.863 121.566 167.071C121.514 167.538 121.462 168.056 121.255 168.627C120.995 169.82 120.477 171.22 119.595 172.673C118.713 174.125 117.468 175.681 115.757 177.03C114.045 178.326 111.866 179.467 109.377 179.882C108.754 179.986 108.132 180.09 107.458 180.09C107.146 180.09 106.783 180.142 106.472 180.142C106.161 180.142 105.798 180.09 105.487 180.09C105.124 180.09 104.812 180.038 104.449 179.986C104.086 179.934 103.775 179.882 103.412 179.83C102.738 179.675 102.063 179.519 101.389 179.26C100.715 179.052 100.041 178.689 99.4182 178.378C99.107 178.222 98.7958 178.015 98.4846 177.808C98.1734 177.652 97.8621 177.393 97.5509 177.185C96.9285 176.77 96.4098 176.252 95.8393 175.733C95.3206 175.162 94.8019 174.592 94.3351 173.969C93.4015 172.724 92.6235 171.324 92.1567 169.768C91.638 168.212 91.3787 166.604 91.3787 164.944C91.3787 163.284 91.6899 161.677 92.1567 160.12C92.6235 158.564 93.4534 157.164 94.3351 155.919C94.8019 155.297 95.3206 154.726 95.8393 154.156C96.4098 153.637 96.9285 153.118 97.5509 152.703C97.8621 152.496 98.1215 152.237 98.4846 152.081C98.7958 151.873 99.107 151.666 99.4182 151.51C100.092 151.199 100.715 150.836 101.389 150.629C102.063 150.369 102.738 150.214 103.412 150.058C103.775 150.006 104.086 149.954 104.449 149.902C104.812 149.851 105.124 149.799 105.487 149.799C105.85 149.799 106.161 149.747 106.472 149.747C106.783 149.747 107.146 149.799 107.458 149.799C108.132 149.799 108.754 149.954 109.377 150.006C111.866 150.473 114.045 151.562 115.757 152.859C117.468 154.156 118.713 155.712 119.595 157.216C120.477 158.72 120.995 160.069 121.255 161.262C121.41 161.832 121.462 162.351 121.566 162.818C121.618 163.025 121.618 163.233 121.669 163.44C121.669 163.648 121.669 163.803 121.669 163.959C121.669 164.27 121.669 164.529 121.669 164.685C121.721 164.84 121.669 164.944 121.669 164.944Z" fill="#263238"/>
<path d="M112.437 157.06H100.559V172.776H112.437V157.06Z" fill="#263238"/>
<path d="M107.043 159.602C107.043 159.654 106.161 159.758 105.072 159.758C103.983 159.758 103.101 159.706 103.101 159.602C103.101 159.55 103.983 159.446 105.072 159.446C106.213 159.446 107.043 159.498 107.043 159.602Z" fill="#455A64"/>
<path d="M110.518 161.78C110.518 161.832 108.754 161.936 106.628 161.936C104.449 161.936 102.738 161.884 102.738 161.78C102.738 161.729 104.501 161.625 106.628 161.625C108.754 161.677 110.518 161.729 110.518 161.78Z" fill="#455A64"/>
<path d="M110.518 163.129C110.518 163.181 108.754 163.285 106.628 163.285C104.449 163.285 102.738 163.233 102.738 163.129C102.738 163.077 104.501 162.973 106.628 162.973C108.754 163.025 110.518 163.077 110.518 163.129Z" fill="#455A64"/>
<path d="M110.518 164.478C110.518 164.53 108.754 164.633 106.628 164.633C104.449 164.633 102.738 164.582 102.738 164.478C102.738 164.374 104.501 164.322 106.628 164.322C108.754 164.374 110.518 164.426 110.518 164.478Z" fill="#455A64"/>
<path d="M110.518 165.826C110.518 165.878 108.754 165.982 106.628 165.982C104.449 165.982 102.738 165.93 102.738 165.826C102.738 165.722 104.501 165.67 106.628 165.67C108.754 165.722 110.518 165.774 110.518 165.826Z" fill="#455A64"/>
<path d="M110.518 167.175C110.518 167.227 108.754 167.33 106.628 167.33C104.449 167.33 102.738 167.279 102.738 167.175C102.738 167.123 104.501 167.019 106.628 167.019C108.754 167.019 110.518 167.123 110.518 167.175Z" fill="#455A64"/>
<path d="M110.518 168.523C110.518 168.575 108.754 168.679 106.628 168.679C104.449 168.679 102.738 168.627 102.738 168.523C102.738 168.471 104.501 168.368 106.628 168.368C108.754 168.368 110.518 168.471 110.518 168.523Z" fill="#455A64"/>
<path d="M110.518 169.872C110.518 169.924 108.754 170.028 106.628 170.028C104.449 170.028 102.738 169.976 102.738 169.872C102.738 169.82 104.501 169.716 106.628 169.716C108.754 169.716 110.518 169.82 110.518 169.872Z" fill="#455A64"/>
<path d="M237.075 112.972H103.256C96.4615 112.972 90.9116 107.422 90.9116 100.628V99.2791C90.9116 92.4844 96.4615 86.9344 103.256 86.9344H237.127C243.922 86.9344 249.472 92.4844 249.472 99.2791V100.628C249.42 107.474 243.922 112.972 237.075 112.972Z" fill="white"/>
<path d="M214.305 86.7268V112.972H236.453C243.714 112.972 249.575 107.111 249.575 99.8495C249.575 92.5879 243.714 86.7268 236.453 86.7268H214.305Z" fill="#EDE059"/>
<path d="M234.949 99.1233C234.897 99.1233 234.949 98.6046 234.741 97.7747C234.534 96.9448 233.963 95.7 232.718 94.7664C232.096 94.2995 231.318 93.9365 230.436 93.7808C229.554 93.6252 228.517 93.6771 227.583 94.0402C227.117 94.1958 226.65 94.4551 226.235 94.7664C225.82 95.0776 225.405 95.4925 225.094 95.9075C224.419 96.7892 224.056 97.9303 224.056 99.1233C224.056 100.316 224.419 101.457 225.094 102.339C225.405 102.806 225.82 103.169 226.235 103.48C226.65 103.791 227.117 104.051 227.583 104.206C228.517 104.569 229.554 104.621 230.436 104.466C231.318 104.31 232.096 103.895 232.718 103.48C233.963 102.547 234.534 101.302 234.741 100.472C234.897 99.642 234.897 99.1233 234.949 99.1233C234.949 99.1233 235 99.642 234.845 100.472C234.637 101.302 234.119 102.598 232.822 103.584C232.2 104.051 231.37 104.466 230.436 104.673C229.502 104.829 228.465 104.829 227.48 104.466C226.961 104.31 226.494 104.051 226.027 103.688C225.561 103.376 225.146 102.962 224.834 102.495C224.108 101.561 223.745 100.368 223.745 99.1233C223.745 97.8784 224.16 96.6855 224.834 95.7518C225.197 95.285 225.561 94.8701 226.027 94.5589C226.494 94.2477 226.961 93.9883 227.48 93.7808C228.465 93.4178 229.554 93.3659 230.436 93.5734C231.37 93.729 232.148 94.1439 232.822 94.6626C234.119 95.6481 234.637 96.9448 234.845 97.7747C235 98.6565 234.949 99.1233 234.949 99.1233Z" fill="white"/>
<path d="M240.084 106.904C240.032 106.955 238.631 106.022 236.868 104.777C235.156 103.532 233.808 102.495 233.808 102.443C233.859 102.391 235.26 103.325 237.023 104.569C238.735 105.762 240.135 106.8 240.084 106.904Z" fill="white"/>
<path d="M202.842 97.5154H105.953V103.065H202.842V97.5154Z" fill="#EBEBEB"/>
<path d="M237.075 112.972C237.075 112.972 237.387 112.972 237.957 112.92C238.268 112.92 238.631 112.868 239.046 112.765C239.461 112.713 239.98 112.557 240.55 112.402C241.64 112.039 242.988 111.52 244.337 110.482C244.492 110.379 244.7 110.223 244.855 110.119C245.011 109.964 245.167 109.808 245.374 109.653C245.737 109.341 246.048 109.03 246.36 108.667C246.671 108.304 246.982 107.889 247.293 107.474C247.449 107.267 247.553 107.007 247.708 106.8L247.916 106.437L248.071 106.074C248.59 105.088 248.901 103.999 249.16 102.806C249.212 102.495 249.264 102.184 249.316 101.872C249.316 101.561 249.368 101.25 249.368 100.939C249.42 100.316 249.368 99.642 249.368 98.9677C249.316 96.3224 248.331 93.4178 246.256 91.0838C244.181 88.7497 241.017 87.0899 237.49 86.9862C233.963 86.9343 230.177 86.9862 226.287 86.9862C194.803 86.9862 151.338 86.9862 103.308 87.038C100.352 87.038 97.3952 88.1791 95.2167 90.0983C93.0383 92.0174 91.5341 94.7664 91.2229 97.671C91.1711 98.0341 91.1711 98.3972 91.1192 98.7603C91.1192 99.1233 91.0673 99.4864 91.1192 99.8495C91.1192 100.576 91.1192 101.302 91.2229 102.028C91.3785 103.48 91.7935 104.829 92.4677 106.126C93.7644 108.667 95.9429 110.742 98.4844 111.831C99.7811 112.402 101.13 112.713 102.53 112.817C103.204 112.868 103.931 112.868 104.605 112.868C105.279 112.868 106.005 112.868 106.68 112.868C109.48 112.868 112.229 112.868 114.927 112.868C120.373 112.868 125.715 112.868 130.902 112.868C151.701 112.868 170.477 112.868 186.193 112.92C201.909 112.92 214.668 112.972 223.486 112.972C227.895 112.972 231.318 112.972 233.6 112.972C234.741 112.972 235.623 112.972 236.245 112.972C236.816 112.972 237.075 112.972 237.075 112.972C237.075 112.972 236.764 112.972 236.194 112.972C235.571 112.972 234.689 112.972 233.548 112.972C231.214 112.972 227.791 112.972 223.434 112.972C214.617 112.972 201.909 112.972 186.141 113.024C170.425 113.024 151.649 113.024 130.85 113.076C125.663 113.076 120.321 113.076 114.875 113.076C112.126 113.076 109.377 113.076 106.628 113.076C105.953 113.076 105.227 113.076 104.553 113.076C103.879 113.076 103.153 113.076 102.426 113.024C101.026 112.92 99.6255 112.609 98.2769 112.039C95.6317 110.897 93.4014 108.823 92.1047 106.229C91.4304 104.933 91.0154 103.532 90.8598 102.028C90.808 101.302 90.7561 100.576 90.7561 99.8495C90.7561 99.4864 90.7561 99.1233 90.7561 98.7603C90.7561 98.3972 90.7561 98.0341 90.8598 97.671C91.2229 94.7145 92.7271 91.9136 94.9574 89.9427C97.1877 87.9198 100.196 86.7787 103.256 86.7787C151.286 86.7787 194.751 86.8306 226.235 86.8306C230.177 86.8306 233.911 86.8306 237.49 86.8824C241.069 86.9862 244.285 88.6978 246.36 91.0319C248.434 93.366 249.472 96.3224 249.472 99.0196C249.472 99.6939 249.472 100.368 249.472 100.991C249.472 101.302 249.42 101.613 249.42 101.924C249.368 102.235 249.316 102.547 249.264 102.858C249.005 104.051 248.694 105.192 248.175 106.177C248.123 106.281 248.071 106.437 248.019 106.54L247.812 106.904C247.656 107.111 247.553 107.37 247.397 107.578C247.086 107.993 246.826 108.408 246.463 108.771C246.152 109.134 245.841 109.497 245.478 109.808C245.322 109.964 245.167 110.119 244.959 110.275C244.804 110.431 244.596 110.534 244.441 110.638C243.092 111.624 241.692 112.194 240.602 112.557C240.032 112.713 239.565 112.817 239.098 112.868C238.683 112.92 238.32 112.972 238.009 112.972C237.386 112.972 237.075 112.972 237.075 112.972Z" fill="#263238"/>
<path d="M168.402 96.7892C167.936 96.2187 167.884 95.7519 168.921 95.7C171.255 95.4925 172.967 94.4552 173.278 93.8846C173.537 93.3141 172.811 92.6916 172.189 93.0547C171.67 93.3659 170.685 93.5734 169.907 93.6771C169.284 93.7809 168.662 93.7809 167.987 93.6771C167.417 93.5734 166.95 93.5215 166.535 93.4178C166.535 93.4178 164.046 92.8991 163.008 92.0692L157.77 97.671L160.207 100.472C160.207 100.472 161.4 102.235 163.475 102.028C165.602 101.82 168.402 100.316 168.402 100.316C168.766 99.7457 172.189 101.82 173.278 102.598C174.367 103.377 175.197 103.169 175.145 102.443C175.093 101.924 171.826 99.4345 170.736 98.7084C170.166 98.2416 168.973 97.4635 168.402 96.7892Z" fill="#FFBE9D"/>
<path d="M165.342 101.666C165.342 101.718 165.187 101.77 164.927 101.77C164.668 101.77 164.305 101.666 163.942 101.406C163.631 101.147 163.423 100.835 163.319 100.576C163.216 100.316 163.268 100.161 163.268 100.161C163.319 100.161 163.475 100.783 164.046 101.199C164.668 101.666 165.342 101.614 165.342 101.666Z" fill="#EB996E"/>
<path d="M167.417 100.836C167.417 100.888 167.261 100.94 167.002 100.888C166.743 100.888 166.38 100.784 166.068 100.525C165.757 100.265 165.55 99.9536 165.498 99.6941C165.394 99.4346 165.446 99.2789 165.446 99.2789C165.498 99.2789 165.654 99.8498 166.224 100.265C166.795 100.784 167.417 100.784 167.417 100.836Z" fill="#EB996E"/>
<path d="M173.071 42.6388C173.278 47.2551 178.88 53.5311 183.081 54.5685C185.259 55.0872 187.801 54.8278 189.513 56.332C192.469 58.8736 190.757 64.1122 192.78 67.4837C194.025 69.5584 196.463 70.5958 197.863 72.5668C200.197 75.8345 198.641 80.8138 195.477 83.2516C192.313 85.6894 188.112 86.1563 184.17 86.0525C175.508 85.845 166.587 83.0442 160.311 76.9237C157.355 74.0191 145.84 65.0977 149.834 43.9355" fill="#263238"/>
<path d="M204.399 75.5234L171.359 65.7203C168.61 64.5792 166.535 64.2679 166.535 64.2679L155.384 64.3198C153.879 64.3198 152.427 64.631 151.13 65.2016L121.047 75.2121C118.817 75.9383 117.261 78.2205 117.261 80.8139C117.261 84.0298 119.595 86.6232 122.396 86.6232H136.296C136.244 86.7788 136.244 86.8306 136.244 86.8306L184.533 86.9862L202.946 87.0381C205.799 87.0381 208.081 84.3928 208.081 81.177C208.185 78.5317 206.629 76.1976 204.399 75.5234Z" fill="#EDE059"/>
<path d="M197.811 79.103C197.811 79.103 197.708 79.103 197.5 79.103C197.293 79.103 196.982 79.0511 196.67 78.9992C195.944 78.8954 194.855 78.7916 193.558 78.6359C190.913 78.3764 187.23 78.1688 183.185 78.2207C179.139 78.2726 175.456 78.584 172.863 78.9473C171.566 79.103 170.477 79.2587 169.751 79.3625C169.388 79.4144 169.129 79.4663 168.921 79.4663C168.714 79.4663 168.61 79.5182 168.61 79.4663C168.61 79.4663 168.714 79.4144 168.921 79.4144C169.129 79.3625 169.44 79.3106 169.751 79.2587C170.477 79.103 171.566 78.9473 172.863 78.7397C175.508 78.3764 179.139 78.0131 183.237 77.9612C187.282 77.9093 190.965 78.1688 193.61 78.4802C194.907 78.6359 195.996 78.7916 196.722 78.8954C197.085 78.9473 197.345 78.9992 197.552 79.0511C197.708 79.0511 197.811 79.0511 197.811 79.103Z" fill="#263238"/>
<g opacity="0.6">
<g opacity="0.6">
<path opacity="0.6" d="M190.031 71.0627C190.031 71.0627 189.98 71.1146 189.928 71.1665C189.876 71.2702 189.772 71.3221 189.616 71.4777C189.357 71.737 188.994 72.152 188.423 72.6188C187.905 73.0856 187.231 73.6562 186.401 74.2267C185.571 74.7973 184.533 75.3678 183.34 75.679C182.096 76.0421 180.643 75.9902 179.191 75.5753C177.739 75.2122 176.286 74.4342 174.834 73.6562C173.382 72.8781 171.826 71.9964 170.114 71.4258C168.403 70.8553 166.483 70.8553 164.72 71.6852C162.956 72.4632 161.504 73.6562 159.896 74.5379C159.481 74.7454 159.066 74.9529 158.651 75.1085C158.236 75.2641 157.821 75.4197 157.407 75.5234C156.577 75.7827 155.695 75.8865 154.865 75.9384C151.494 76.1977 148.485 75.1085 146.411 73.6043C145.373 72.8781 144.595 72.0482 143.869 71.3221C143.143 70.6478 142.469 70.0773 141.898 69.7142C140.705 68.988 139.875 68.988 139.875 68.9362C139.875 68.9362 140.083 68.9362 140.446 68.988C140.809 69.0399 141.328 69.2474 141.95 69.6104C142.572 69.9735 143.247 70.5441 143.973 71.2184C144.699 71.8926 145.529 72.7225 146.514 73.4487C148.537 74.8491 151.545 75.9384 154.813 75.679C155.643 75.6271 156.473 75.4715 157.303 75.2641C157.718 75.1603 158.133 75.0047 158.548 74.8491C158.963 74.6416 159.378 74.486 159.741 74.2786C161.349 73.4487 162.801 72.2557 164.564 71.4258C166.328 70.5959 168.403 70.5441 170.114 71.1665C171.878 71.6852 173.382 72.6188 174.834 73.3968C176.286 74.1748 177.687 74.9529 179.139 75.3159C180.54 75.7309 181.94 75.7309 183.133 75.4197C184.326 75.1085 185.363 74.5379 186.193 74.0192C187.023 73.4487 187.697 72.93 188.216 72.4632C188.735 71.9964 189.15 71.6333 189.409 71.374C189.513 71.2702 189.616 71.1665 189.72 71.0627C189.98 71.0627 190.031 71.0627 190.031 71.0627Z" fill="white"/>
</g>
</g>
<g opacity="0.2">
<path opacity="0.2" d="M138.734 78.9985L159.585 82.9405L157.199 86.8825H156.525L138.734 78.9985Z" fill="black"/>
</g>
<g opacity="0.6">
<g opacity="0.6">
<path opacity="0.6" d="M201.909 74.9009C201.909 74.9009 201.909 75.0046 201.909 75.2121C201.909 75.4196 201.857 75.7308 201.805 76.1457C201.65 76.9237 201.338 78.0648 200.56 79.2578C199.782 80.4508 198.434 81.6437 196.618 82.2662C195.737 82.5774 194.699 82.7848 193.662 82.733C192.625 82.6811 191.587 82.4736 190.55 82.1624C189.513 81.8512 188.475 81.54 187.49 81.3325C186.504 81.1251 185.519 81.0732 184.585 81.1769C182.718 81.3844 181.214 82.1624 180.073 83.0442C178.931 83.8741 178.257 84.8077 177.842 85.482C177.739 85.6376 177.635 85.7932 177.583 85.9488C177.531 86.0525 177.479 86.2081 177.427 86.3119C177.324 86.5194 177.272 86.5712 177.272 86.5712C177.272 86.5712 177.324 86.4675 177.375 86.26C177.427 86.1563 177.479 86.0525 177.531 85.8969C177.583 85.7413 177.687 85.5857 177.79 85.4301C178.205 84.7558 178.88 83.7703 180.021 82.8886C181.11 82.0068 182.718 81.1769 184.585 80.9695C185.519 80.8657 186.556 80.8657 187.542 81.1251C188.579 81.3325 189.564 81.6437 190.602 81.9549C191.639 82.2662 192.676 82.4736 193.662 82.5255C194.647 82.5774 195.633 82.4218 196.515 82.1106C198.278 81.54 199.575 80.347 200.405 79.2059C201.235 78.0648 201.546 76.9237 201.701 76.1457C201.857 75.3158 201.857 74.9009 201.909 74.9009Z" fill="white"/>
</g>
</g>
<path d="M121.099 85.9489C121.099 85.9489 158.859 102.599 158.651 102.236C158.444 101.872 164.668 90.9283 164.668 90.9283L134.118 75.8346L121.099 85.9489Z" fill="#EDE059"/>
<path d="M138.423 77.9612C138.423 77.9612 138.682 78.0649 139.201 78.2724C139.72 78.5317 140.446 78.8429 141.276 79.2579C143.039 80.0878 145.425 81.2808 148.07 82.5775C150.716 83.8742 153.101 85.0671 154.865 85.9489C155.695 86.3639 156.369 86.7269 156.888 86.9863C157.355 87.2456 157.614 87.4012 157.614 87.4012C157.614 87.4012 157.355 87.2975 156.836 87.09C156.317 86.8307 155.591 86.5195 154.761 86.1045C152.998 85.2746 150.612 84.0816 147.967 82.7849C145.321 81.4882 142.935 80.2953 141.172 79.4135C140.342 78.9985 139.668 78.6355 139.149 78.3761C138.682 78.1168 138.423 77.9612 138.423 77.9612Z" fill="#263238"/>
<g opacity="0.6">
<g opacity="0.6">
<path opacity="0.6" d="M146.722 82.9924C146.722 82.9924 146.722 83.4073 146.359 84.1335C146.047 84.8078 145.321 85.7414 144.128 86.3638C143.506 86.675 142.832 86.9862 142.054 87.09C141.276 87.2456 140.394 87.2456 139.512 87.1418C137.697 86.9344 135.881 86.1563 134.014 85.2746C132.147 84.3928 130.383 83.5629 128.672 83.148C127.79 82.9405 126.96 82.8368 126.182 82.8368C125.404 82.8368 124.678 82.9924 124.055 83.1999C122.811 83.6148 121.877 84.2891 121.41 84.8596C120.943 85.4302 120.736 85.7933 120.736 85.7933C120.736 85.7933 120.84 85.3783 121.358 84.8078C121.825 84.1853 122.707 83.4592 124.004 83.0443C124.626 82.8368 125.404 82.6812 126.182 82.6293C126.96 82.5774 127.842 82.6812 128.724 82.8886C130.487 83.3036 132.302 84.1335 134.118 85.0152C135.985 85.897 137.8 86.6231 139.564 86.8825C140.446 86.9862 141.276 86.9862 142.054 86.8825C142.832 86.7788 143.506 86.5194 144.076 86.2082C145.269 85.5858 145.996 84.7559 146.307 84.0816C146.618 83.4073 146.67 82.9924 146.722 82.9924Z" fill="white"/>
</g>
</g>
<g opacity="0.6">
<g opacity="0.6">
<path opacity="0.6" d="M162.749 94.4034C162.749 94.4553 161.919 94.2996 160.57 94.2996C159.896 94.2996 159.118 94.2996 158.236 94.4034C157.355 94.5071 156.369 94.7146 155.384 94.9739C154.398 95.2333 153.464 95.5964 152.686 95.9594C151.908 96.3225 151.182 96.7375 150.612 97.1005C149.471 97.8267 148.848 98.3972 148.796 98.3454C148.796 98.3454 148.952 98.1898 149.211 97.9304C149.471 97.6711 149.937 97.308 150.508 96.9449C151.079 96.53 151.753 96.1669 152.583 95.752C153.413 95.3889 154.346 94.9739 155.332 94.7146C156.317 94.4553 157.303 94.2478 158.236 94.144C159.118 94.0403 159.948 94.0403 160.622 94.0922C161.297 94.144 161.867 94.1959 162.23 94.2478C162.541 94.3515 162.749 94.4034 162.749 94.4034Z" fill="white"/>
</g>
</g>
<g opacity="0.2">
<path opacity="0.2" d="M167.417 64.2161C166.795 65.9796 167.728 67.8468 168.662 69.4548C169.284 70.5959 169.959 71.737 170.84 72.6187C171.774 73.5524 172.967 74.2266 174.264 74.1748C175.975 74.1229 177.479 72.8781 179.191 72.9818C180.332 73.0337 181.37 73.708 182.303 74.3822C183.963 75.5233 185.675 76.6126 187.542 77.2869C189.409 77.9612 191.484 78.2205 193.403 77.6499C195.322 77.0794 197.034 75.5752 197.449 73.6042" fill="black"/>
</g>
<path d="M167.521 63.6972C167.624 61.6744 167.728 59.8071 167.728 59.8071C167.728 59.8071 172.292 59.2366 172.448 54.6203C172.655 50.004 172.189 39.3192 172.189 39.3192L163.838 35.3253L154.865 42.5869L156.265 63.8528C156.473 66.9131 159.066 69.2471 162.178 69.1434C165.083 68.9878 167.417 66.6537 167.521 63.6972Z" fill="#FFBE9D"/>
<path d="M171.411 47.723C171.411 48.0344 171.151 48.3458 170.84 48.3458C170.529 48.3458 170.27 48.0863 170.27 47.7749C170.27 47.4635 170.529 47.1521 170.84 47.1521C171.151 47.1002 171.411 47.3597 171.411 47.723Z" fill="#263238"/>
<path d="M171.981 46.4775C171.929 46.5813 171.463 46.166 170.84 46.166C170.218 46.1141 169.751 46.4775 169.699 46.3737C169.647 46.3218 169.751 46.2179 169.958 46.0622C170.166 45.9065 170.477 45.8027 170.892 45.8027C171.255 45.8027 171.618 46.0103 171.774 46.166C171.981 46.2698 172.033 46.4256 171.981 46.4775Z" fill="#263238"/>
<path d="M164.512 47.723C164.512 48.0344 164.253 48.3458 163.942 48.3458C163.63 48.3458 163.371 48.0863 163.371 47.7749C163.371 47.4635 163.63 47.1521 163.942 47.1521C164.253 47.1002 164.512 47.3597 164.512 47.723Z" fill="#263238"/>
<path d="M165.083 46.5812C165.031 46.685 164.564 46.2698 163.942 46.2698C163.319 46.2179 162.852 46.5812 162.801 46.4774C162.749 46.4255 162.852 46.3217 163.06 46.166C163.267 46.0103 163.579 45.9065 163.994 45.9065C164.357 45.9065 164.72 46.1141 164.875 46.2698C165.083 46.4255 165.135 46.5293 165.083 46.5812Z" fill="#263238"/>
<path d="M167.417 51.9232C167.417 51.8713 167.78 51.8194 168.454 51.7676C168.61 51.7676 168.765 51.7157 168.817 51.612C168.869 51.5082 168.817 51.3008 168.714 51.0933C168.558 50.6783 168.402 50.2634 168.247 49.7966C167.624 47.9293 167.158 46.3733 167.261 46.3733C167.313 46.3733 167.884 47.8256 168.506 49.6929C168.662 50.1597 168.817 50.5746 168.921 50.9896C168.973 51.197 169.077 51.4045 168.973 51.6638C168.921 51.7676 168.817 51.8713 168.714 51.9232C168.61 51.9751 168.506 51.9751 168.454 51.9751C167.832 51.9751 167.417 51.9751 167.417 51.9232Z" fill="#263238"/>
<path d="M165.394 52.5975C164.772 52.1825 167.157 53.6348 168.402 53.583C168.402 53.583 167.624 54.7759 166.328 54.2054C165.031 53.6867 165.394 52.5975 165.394 52.5975Z" fill="white"/>
<path d="M167.728 59.8591C167.728 59.8591 164.668 59.9628 161.711 57.8881C161.711 57.8881 163.112 61.2595 167.624 61.0002L167.728 59.8591Z" fill="#EB996E"/>
<path d="M149.989 47.0994C149.989 51.0933 148.9 61.7263 156.213 63.1786L155.954 48.5517C155.954 48.5517 163.008 45.2322 164.253 38.2818L164.305 38.3337C164.772 39.3711 165.55 41.6533 165.083 43.4687L171.722 45.0766L172.5 45.7509C172.5 45.7509 174.886 40.564 170.321 35.8959C165.757 31.2277 161.867 34.5992 159.429 34.288C157.821 34.0805 152.168 34.1324 149.885 43.8317L149.989 47.0994Z" fill="#263238"/>
<path d="M156.161 48.7592C155.539 48.3962 154.709 48.7074 154.19 49.2261C153.412 50.056 153.309 51.4045 153.879 52.39C154.45 53.3755 155.746 53.8942 156.836 53.583" fill="#FFBE9D"/>
<path d="M156.006 52.2352C156.006 52.2871 155.798 52.2871 155.487 52.2352C155.176 52.1315 154.709 51.924 154.502 51.3535C154.398 51.0941 154.45 50.8348 154.553 50.5754C154.657 50.368 154.813 50.2124 154.968 50.1086C155.28 49.9012 155.487 49.953 155.487 49.953C155.487 50.0049 155.331 50.0568 155.072 50.2642C154.865 50.4717 154.657 50.8348 154.813 51.2497C154.968 51.6647 155.331 51.8721 155.591 52.0278C155.798 52.1315 156.006 52.1834 156.006 52.2352Z" fill="#EB996E"/>
<path d="M155.383 53.1162C155.072 53.22 154.865 53.6352 155.072 53.9466C155.28 54.2061 155.746 54.2061 155.954 53.8947C156.109 53.5833 155.902 53.1681 155.591 53.1162" fill="#EDE059"/>
<path d="M168.817 86.9861V79.3615C168.817 79.3615 157.51 81.6955 157.303 86.8823L168.817 86.9861Z" fill="#FFBE9D"/>
<path d="M167.676 62.9192C167.884 65.2533 168.921 67.4836 170.633 69.0915C172.344 70.6994 174.627 71.6331 176.961 71.6849C178.62 71.7368 180.384 71.3219 181.94 71.9961C183.289 72.5667 184.118 73.8634 185.156 74.9008C187.594 77.2867 191.432 78.1166 194.648 77.0274C195.996 76.5605 198.175 75.575 198.434 74.1746C198.641 73.0854 197.293 71.9961 196.515 71.2181C195.737 70.4401 194.751 69.9214 193.714 69.4546C185.674 65.6682 177.012 62.9192 168.091 62.4524" fill="#263238"/>
</g>
<defs>
<clipPath id="clip0_420_966">
<rect width="328.687" height="180.035" fill="white" transform="translate(0.817383 0.314209)"/>
</clipPath>
</defs>
</svg>
