<svg width="291" height="217" viewBox="0 0 291 217" fill="none" xmlns="http://www.w3.org/2000/svg">
<g clip-path="url(#clip0_420_2847)">
<path d="M290.662 190.358H0.954102V190.474H290.662V190.358Z" fill="#EBEBEB"/>
<path d="M261.633 199.684H242.454V199.8H261.633V199.684Z" fill="#EBEBEB"/>
<path d="M192.856 201.306H187.815V201.422H192.856V201.306Z" fill="#EBEBEB"/>
<path d="M241.875 194.354H230.75V194.47H241.875V194.354Z" fill="#EBEBEB"/>
<path d="M56.404 195.281H31.3733V195.397H56.404V195.281Z" fill="#EBEBEB"/>
<path d="M65.2113 195.281H61.561V195.397H65.2113V195.281Z" fill="#EBEBEB"/>
<path d="M131.438 197.772H77.1472V197.888H131.438V197.772Z" fill="#EBEBEB"/>
<path d="M138.276 164.523H26.3906C24.5944 164.523 23.0879 163.017 23.0879 161.221V4.01075C23.0879 2.21505 24.5944 0.708984 26.3906 0.708984H138.276C140.072 0.708984 141.578 2.21505 141.578 4.01075V161.221C141.578 163.075 140.13 164.523 138.276 164.523ZM26.3906 0.824836C24.6523 0.824836 23.2038 2.21505 23.2038 4.01075V161.221C23.2038 162.959 24.5944 164.407 26.3906 164.407H138.276C140.014 164.407 141.462 163.017 141.462 161.221V4.01075C141.462 2.27298 140.072 0.824836 138.276 0.824836H26.3906Z" fill="#EBEBEB"/>
<path d="M263.603 164.523H151.718C149.922 164.523 148.415 163.017 148.415 161.221V4.01075C148.415 2.21505 149.922 0.708984 151.718 0.708984H263.603C265.399 0.708984 266.906 2.21505 266.906 4.01075V161.221C266.906 163.075 265.457 164.523 263.603 164.523ZM151.718 0.824836C149.98 0.824836 148.531 2.21505 148.531 4.01075V161.221C148.531 162.959 149.922 164.407 151.718 164.407H263.603C265.341 164.407 266.79 163.017 266.79 161.221V4.01075C266.79 2.27298 265.399 0.824836 263.603 0.824836H151.718Z" fill="#EBEBEB"/>
<path d="M195.29 78.7928C208.57 78.7928 219.336 68.0301 219.336 54.7536C219.336 41.4772 208.57 30.7145 195.29 30.7145C182.01 30.7145 171.244 41.4772 171.244 54.7536C171.244 68.0301 182.01 78.7928 195.29 78.7928Z" fill="#F5F5F5"/>
<path d="M238.225 50.0037C238.225 47.8604 236.486 46.0648 234.285 46.0648C233.879 46.0648 233.531 46.1227 233.184 46.2385C233.242 45.833 233.3 45.4276 233.3 45.0221C233.3 40.446 229.591 36.7387 225.014 36.7387C224.492 36.7387 223.971 36.7966 223.507 36.8546C222.233 34.7692 219.915 33.379 217.308 33.379C213.31 33.379 210.123 36.5649 210.065 40.5618C210.007 40.5618 210.007 40.5618 209.949 40.5618C206.241 40.5618 203.286 43.5739 203.286 47.2233C203.286 50.9305 206.299 53.8847 209.949 53.8847H234.458C236.544 53.8847 238.225 52.1469 238.225 50.0037Z" fill="#EBEBEB"/>
<path d="M176.285 71.61C176.285 69.4668 174.547 67.6711 172.345 67.6711C171.94 67.6711 171.592 67.729 171.244 67.8448C171.302 67.4394 171.36 67.0339 171.36 66.6284C171.36 62.0523 167.652 58.345 163.075 58.345C162.553 58.345 162.032 58.403 161.568 58.4609C160.293 56.3756 157.976 54.9854 155.368 54.9854C151.37 54.9854 148.184 58.1713 148.126 62.1681C148.068 62.1681 148.068 62.1681 148.01 62.1681C144.301 62.1681 141.346 65.1803 141.346 68.8296C141.346 72.5368 144.359 75.491 148.01 75.491H172.461C174.605 75.4331 176.285 73.7533 176.285 71.61Z" fill="#EBEBEB"/>
<path d="M68.1663 79.0245C68.1663 76.8812 66.428 75.0855 64.2262 75.0855C63.8207 75.0855 63.473 75.1434 63.1254 75.2593C63.1833 74.8538 63.2412 74.4483 63.2412 74.0428C63.2412 69.4667 59.533 65.7595 54.9556 65.7595C54.4341 65.7595 53.9127 65.8174 53.4491 65.8753C52.1744 63.79 49.8568 62.3998 47.2494 62.3998C43.2514 62.3998 40.0646 65.5857 40.0067 69.5826C39.9488 69.5826 39.9488 69.5826 39.8908 69.5826C36.1826 69.5826 33.2275 72.5947 33.2275 76.244C33.2275 79.8933 36.0667 82.9634 39.7749 82.9634H64.3421C66.428 82.8476 68.1663 81.1677 68.1663 79.0245Z" fill="#EBEBEB"/>
<path d="M235.965 97.7345C235.965 96.4022 234.922 95.3595 233.589 95.3595C233.358 95.3595 233.126 95.4174 232.894 95.4754C232.952 95.2437 232.952 95.012 232.952 94.7223C232.952 91.9419 230.692 89.6828 227.911 89.6828C227.621 89.6828 227.274 89.7407 226.984 89.7407C226.231 88.4664 224.84 87.6554 223.218 87.6554C220.842 87.6554 218.872 89.5669 218.814 91.9998H218.756C216.497 91.9998 214.7 93.7955 214.7 96.0546C214.7 98.3137 216.497 100.109 218.756 100.109H233.589C234.98 100.051 235.965 99.0088 235.965 97.7345Z" fill="#EBEBEB"/>
<path d="M92.7335 21.5622C92.7335 20.2299 91.6906 19.1873 90.3579 19.1873C90.1262 19.1873 89.8944 19.2452 89.6626 19.3031C89.7206 19.0714 89.7206 18.8397 89.7206 18.5501C89.7206 15.7697 87.4609 13.5106 84.6797 13.5106C84.39 13.5106 84.0423 13.5685 83.7526 13.5685C82.9994 12.2941 81.6088 11.4832 79.9864 11.4832C77.6108 11.4832 75.6408 13.3947 75.5828 15.8276H75.5249C73.2652 15.8276 71.469 17.6233 71.469 19.8824C71.469 22.1415 73.2652 23.9372 75.5249 23.9372H90.3579C91.7485 23.8793 92.7335 22.8366 92.7335 21.5622Z" fill="#EBEBEB"/>
<path d="M53.0435 110.015L68.6877 181.263L71.5848 179.931L55.0714 109.609L53.0435 110.015Z" fill="#EBEBEB"/>
<path d="M233.184 180.916C233.184 180.916 223.507 113.954 245.293 44.7325L241.875 42.0679C241.875 42.0679 216.265 94.4327 220.031 182.769L233.184 180.916Z" fill="#E6E6E6"/>
<path d="M251.262 26.5438C259.257 21.2726 271.135 29.6718 272.758 42.7051C272.758 42.7051 271.367 41.8362 269.108 40.9673C268.47 37.6655 267.891 34.7692 267.891 34.7692L268.296 40.6777C267.601 40.446 266.848 40.1563 265.979 39.9246L265.399 36.7387L265.11 39.6929C264.067 39.4612 262.908 39.2295 261.691 39.0557L260.185 29.7876L259.431 38.9399C258.272 38.882 257.114 38.9399 255.897 39.1137L254.97 32.7998V39.2295C253.985 39.4033 253 39.635 251.957 39.9246L250.856 30.5407C250.856 30.5407 250.914 35.8119 250.856 40.2722C248.307 41.199 245.699 42.6471 243.15 44.7904L243.092 43.6319C243.034 43.6898 243.961 31.3516 251.262 26.5438Z" fill="#E0E0E0"/>
<path d="M240.195 22.3732C233.821 15.1904 220.205 20.172 215.222 32.3364C215.222 32.3364 216.786 31.873 219.22 31.5834C220.668 28.5712 222.001 25.9067 222.001 25.9067L220.031 31.4675C220.784 31.4096 221.595 31.3517 222.465 31.3517L223.855 28.4554L223.334 31.3517C224.435 31.4096 225.593 31.4675 226.81 31.6413L230.692 23.1262L229.07 32.1047C230.171 32.3943 231.33 32.7419 232.431 33.2053L234.98 27.3548L233.3 33.6108C234.227 34.0163 235.096 34.4797 236.023 35.0589L239.557 26.3121C239.557 26.3121 238.167 31.4096 237.008 35.754C239.268 37.318 241.411 39.4033 243.266 42.1838L243.671 41.0832C243.671 41.0253 245.989 28.9188 240.195 22.3732Z" fill="#E0E0E0"/>
<path d="M234.053 39.3454C240.427 33.1474 245.236 38.5345 245.236 38.5345C242.86 39.1716 240.716 40.6777 238.862 42.6472L237.993 41.5466L238.109 43.4581C237.645 43.9795 237.24 44.5008 236.834 45.0221L235.386 41.7204L236.023 46.2386C235.444 47.1074 234.864 47.9763 234.401 48.8452L233.763 45.5435L233.821 49.8879C233.3 50.8726 232.836 51.8574 232.373 52.7262L231.677 46.702L231.561 54.5219C230.519 56.9548 229.997 58.6347 229.997 58.6347C229.997 58.6347 227.679 45.5435 234.053 39.3454Z" fill="#E0E0E0"/>
<path d="M251.262 54.0006L249.929 54.7536C249.755 53.7689 249.523 52.6683 249.234 51.6256L250.103 50.0037L249.002 50.6988C248.886 50.3512 248.828 50.0037 248.712 49.6561L249.871 46.4702L248.133 47.7446C247.206 44.8483 246.047 42.2996 244.54 41.0831C244.54 41.0831 259.142 45.7751 250.914 61.5309C250.914 61.5309 250.624 59.0401 250.045 55.7383L251.262 54.0006Z" fill="#E0E0E0"/>
<path d="M236.892 41.1411L234.574 36.7388L235.559 41.3149C235.328 41.3728 235.096 41.3728 234.864 41.4307L231.851 37.6656L232.604 42.01C231.619 42.2996 230.634 42.6472 229.533 43.1106C228.49 43.574 227.39 44.0953 226.347 44.7325L224.898 40.9094L225.593 45.1959C224.608 45.7752 223.623 46.4123 222.696 47.1075L221.943 43.6898L222.001 47.5709C220.842 48.3818 219.741 49.2507 218.756 50.0617L218.872 43.9215L218.003 50.7568C216.96 51.6257 216.091 52.4366 215.28 53.1897L215.164 48.9031L214.063 54.3482C212.962 55.4488 212.267 56.2018 212.267 56.2018C212.846 41.257 218.64 35.3485 228.201 33.7266C237.761 32.1047 244.714 42.0679 244.714 42.0679C244.714 42.0679 241.759 40.6777 236.892 41.1411Z" fill="#E0E0E0"/>
<path d="M264.82 59.3877L263.951 63.848C263.545 62.7474 262.966 61.2992 262.212 59.7353L263.024 53.1897L261.575 58.345C260.532 56.2018 259.199 53.8268 257.693 51.6257L259.084 47.1075L256.882 50.4671C256.418 49.8879 255.955 49.3086 255.491 48.7873L256.244 45.9489L255.028 48.3239C254.68 47.9763 254.39 47.6288 254.043 47.2812L254.97 43.4581L253.463 46.7599C252.478 45.891 251.493 45.138 250.392 44.5587L251.899 39.9247C251.899 39.9247 250.798 41.8362 249.523 44.1532C248.017 43.4581 246.394 43.1106 244.714 43.1685C244.714 43.1685 247.611 38.5345 252.942 36.9705C258.272 35.3485 269.745 45.0221 264.762 66.2809C264.762 66.2809 264.588 65.8175 264.298 64.9486L264.82 59.3877Z" fill="#E0E0E0"/>
<path d="M256.071 18.0868L256.998 20.8093C256.708 20.8093 256.36 20.8672 256.013 20.9252L254.912 17.3917L255.665 20.9831C255.086 21.1569 254.39 21.4465 253.695 21.9099L252.189 17.16L253.058 22.3154C252.826 22.4892 252.594 22.6629 252.305 22.8946L250.624 18.4344L251.841 23.3001C250.798 24.2849 249.697 25.6751 248.654 27.5287L248.191 20.9831L247.437 29.9036C246.394 32.1627 245.352 35.0011 244.424 38.5346C244.424 38.5346 243.497 14.785 249.234 12.1205C254.97 9.45587 258.33 20.8672 258.33 20.8672C258.33 20.8672 258.041 20.7514 257.519 20.7514L256.071 18.0868Z" fill="#E0E0E0"/>
<path d="M247.901 44.5008L247.379 49.019L245.641 44.6745L243.324 48.0922L242.397 44.9062L239.731 47.1653C239.731 47.1653 240.079 41.4307 241.759 38.824C243.497 36.1595 248.596 38.0131 247.901 44.5008Z" fill="#E0E0E0"/>
<path d="M176.517 116.85V85.4542C176.517 85.4542 170.143 92.2315 165.914 91.3047C161.684 90.3779 156.179 93.5638 156.179 93.5638C156.179 93.5638 161.684 92.7529 163.77 95.012C165.798 97.2711 174.952 97.5028 174.952 97.5028V118.008L176.517 116.85Z" fill="#EBEBEB"/>
<path d="M204.619 107.234H203.17V109.204H198.419V107.234H193.726V109.204H188.917V107.234H184.223V109.204H179.472V107.234H174.779V109.204H169.97V107.234H165.334V109.204H160.525V107.234H155.832V109.204H151.081V107.234H149.458L144.823 144.423L209.428 144.191L204.619 107.234Z" fill="#E0E0E0"/>
<path d="M214.874 134.228H212.904V136.95H206.357V134.228H199.925V136.95H193.32V134.228H186.888V136.95H180.341V134.228H173.91V136.95H167.304V134.228H160.873V136.95H154.325V134.228H147.894V136.95H141.346V134.228H139.087L132.713 185.318L221.538 184.971L214.874 134.228Z" fill="#EBEBEB"/>
<path d="M247.669 179.294C246.279 177.73 245.004 176.166 243.555 174.66C243.439 174.544 243.381 174.428 243.324 174.428C242.86 174.139 242.339 173.849 241.875 173.617C241.759 173.559 241.469 173.443 241.18 173.328C240.6 173.096 240.021 172.864 239.441 172.632C235.849 171.184 232.604 169.504 229.881 166.666C228.375 165.102 227.216 163.249 225.651 161.742C225.593 161.8 225.304 161.627 225.188 161.511C224.724 161.453 224.087 161.395 224.029 161.337C223.392 161.337 222.754 161.337 222.175 161.395C221.306 161.453 220.379 161.511 219.51 161.569C216.033 166.608 211.687 173.501 209.775 174.428C206.82 175.818 179.298 183.117 177.27 182.654C175.242 182.248 164.639 183.059 161.974 183.001C159.308 182.885 154.499 181.727 147.488 178.483C140.477 175.297 136.653 175.239 128.252 172.575C119.85 169.91 114.172 168.867 109.247 172.98C104.322 177.093 90.7635 168.404 86.5917 167.13C82.3619 165.913 74.3081 158.73 68.8036 162.09C63.2992 165.45 58.7218 167.014 51.8267 172.98C44.9317 178.946 31.3154 190.416 31.3154 190.416H263.661L260.996 185.724C255.839 185.666 251.146 183.233 247.669 179.294Z" fill="#F5F5F5"/>
<path d="M25.9849 122.353C25.9849 122.353 32.764 110.189 51.0735 99.704C51.0735 99.704 65.9645 98.4296 82.8255 105.786C82.8255 105.786 86.2441 111.463 82.362 113.664C78.4799 115.923 75.2352 111.405 75.2352 111.405C75.2352 111.405 74.5399 118.24 69.441 118.472C64.4001 118.646 62.8936 113.664 62.8936 113.664C62.8936 113.664 62.3721 119.92 56.3462 121.542C51.0735 122.932 47.8288 118.472 47.8288 118.472C47.8288 118.472 46.7859 123.627 42.0926 125.133C38.3264 126.35 35.719 123.106 35.719 123.106C35.719 123.106 34.6182 128.725 30.6202 128.725C27.2596 128.667 25.9849 122.353 25.9849 122.353Z" fill="#E0E0E0"/>
<path d="M145.808 216.54C207.856 216.54 258.156 213.609 258.156 209.994C258.156 206.379 207.856 203.449 145.808 203.449C83.7594 203.449 33.4592 206.379 33.4592 209.994C33.4592 213.609 83.7594 216.54 145.808 216.54Z" fill="#F5F5F5"/>
<path d="M223.45 181.437C223.45 181.437 225.999 177.73 228.259 176.745C230.577 175.702 230.924 171.821 232.199 171.59C233.474 171.358 234.806 175.007 237.008 176.05C239.21 177.093 242.455 181.437 242.455 181.437H223.45Z" fill="#EDE059"/>
<path opacity="0.8" d="M223.45 181.437C223.45 181.437 225.999 177.73 228.259 176.745C230.577 175.702 230.924 171.821 232.199 171.59C233.474 171.358 234.806 175.007 237.008 176.05C239.21 177.093 242.455 181.437 242.455 181.437H223.45Z" fill="white"/>
<path d="M241.759 207.967H223.45L221.132 181.379H244.077L241.759 207.967Z" fill="#EDE059"/>
<path d="M245.236 179.989H220.031V182.769H245.236V179.989Z" fill="#EDE059"/>
<path opacity="0.2" d="M245.236 179.989H220.031V182.769H245.236V179.989Z" fill="white"/>
<path d="M231.504 181.958C233.184 184.565 240.311 195.397 244.772 196.15L245.294 194.818C245.294 194.818 241.354 195.281 232.547 181.263C232.373 180.974 232.025 180.858 231.735 181.032C231.446 181.263 231.33 181.669 231.504 181.958Z" fill="#263238"/>
<path d="M205.43 173.617C206.241 173.386 207.052 173.849 207.284 174.602L210.413 185.55L214.469 183.928C214.469 183.928 216.902 193.08 212.267 194.47C207.747 195.861 204.271 187.461 204.271 187.461L208.385 186.303L204.445 175.471C204.213 174.718 204.619 173.849 205.43 173.617Z" fill="#EDE059"/>
<path opacity="0.4" d="M212.325 194.47C207.805 195.861 204.329 187.461 204.329 187.461L208.443 186.303C208.443 186.303 209.138 187.519 209.949 187.23C210.76 186.94 210.413 185.55 210.413 185.55L214.469 183.928C214.527 183.928 216.96 193.022 212.325 194.47Z" fill="white"/>
<path d="M247.032 210.226C244.772 209.126 242.455 208.025 241.701 207.967C240.079 207.851 239.152 207.156 238.051 205.766C236.892 204.376 236.429 202.812 234.401 200.611C232.315 198.409 234.632 197.54 230.287 196.961C225.941 196.382 227.622 196.73 224.956 194.818C222.291 192.906 222.812 192.906 219.684 191.516C216.555 190.126 218.409 189.605 214.701 189.315C212.151 189.083 208.153 190.416 206.067 191.922C205.14 192.559 204.677 193.659 203.75 194.239C202.707 194.876 201.142 193.659 201.316 195.861C201.374 196.44 201.548 197.019 201.374 197.54C201.084 198.757 195.985 198.757 194.653 199.162C194.363 199.278 194.015 199.336 193.9 199.626C193.61 200.147 194.073 201.074 193.494 201.306C193.32 201.364 193.088 201.306 192.915 201.306C192.219 201.422 192.393 202.696 191.756 202.986C191.118 203.275 190.365 202.696 189.67 202.986C189.09 203.217 188.917 203.912 188.453 204.26C187.642 204.781 186.715 205.129 185.904 205.708C184.455 206.635 183.238 207.793 181.674 208.662L177.56 209.763L176.343 210.168H247.032V210.226Z" fill="#EDE059"/>
<path opacity="0.8" d="M247.032 210.226C244.772 209.126 242.455 208.025 241.701 207.967C240.079 207.851 239.152 207.156 238.051 205.766C236.892 204.376 236.429 202.812 234.401 200.611C232.315 198.409 234.632 197.54 230.287 196.961C225.941 196.382 227.622 196.73 224.956 194.818C222.291 192.906 222.812 192.906 219.684 191.516C216.555 190.126 218.409 189.605 214.701 189.315C212.151 189.083 208.153 190.416 206.067 191.922C205.14 192.559 204.677 193.659 203.75 194.239C202.707 194.876 201.142 193.659 201.316 195.861C201.374 196.44 201.548 197.019 201.374 197.54C201.084 198.757 195.985 198.757 194.653 199.162C194.363 199.278 194.015 199.336 193.9 199.626C193.61 200.147 194.073 201.074 193.494 201.306C193.32 201.364 193.088 201.306 192.915 201.306C192.219 201.422 192.393 202.696 191.756 202.986C191.118 203.275 190.365 202.696 189.67 202.986C189.09 203.217 188.917 203.912 188.453 204.26C187.642 204.781 186.715 205.129 185.904 205.708C184.455 206.635 183.238 207.793 181.674 208.662L177.56 209.763L176.343 210.168H247.032V210.226Z" fill="white"/>
<path d="M198.419 199.684C198.419 199.742 198.419 199.742 198.419 199.8C198.419 201.827 197.781 203.739 196.796 205.303C196.739 205.418 196.623 205.592 196.507 205.708C195.927 206.577 195.174 207.33 194.305 207.967C194.131 208.141 193.899 208.257 193.726 208.373C193.668 208.431 193.61 208.431 193.61 208.489C193.552 208.546 193.494 208.546 193.436 208.604C193.32 208.662 193.204 208.72 193.146 208.778C192.972 208.894 192.798 208.952 192.625 209.068C191.234 209.763 189.612 210.168 187.931 210.168C184.918 210.168 182.195 208.894 180.283 206.925C179.588 206.171 179.008 205.361 178.487 204.434C177.734 202.986 177.328 201.364 177.328 199.626V199.568C177.328 199.278 177.328 198.989 177.386 198.699C177.502 197.309 177.908 195.977 178.487 194.818C178.661 194.528 178.835 194.239 179.008 193.949C179.588 193.022 180.399 192.153 181.21 191.458C181.5 191.227 181.79 190.995 182.079 190.821C182.195 190.763 182.311 190.705 182.427 190.589C183.238 190.068 184.165 189.721 185.092 189.431C185.15 189.431 185.266 189.373 185.324 189.373C186.135 189.141 187.004 189.083 187.873 189.083C188.163 189.083 188.395 189.083 188.685 189.141C188.743 189.141 188.801 189.141 188.916 189.141C190.133 189.257 191.234 189.547 192.277 190.068C192.335 190.068 192.393 190.126 192.393 190.126C193.32 190.532 194.131 191.111 194.884 191.748C196.739 193.37 198.013 195.687 198.361 198.236C198.361 198.757 198.419 199.22 198.419 199.684Z" fill="#EDE059"/>
<path opacity="0.6" d="M198.419 199.684C198.419 203.797 196.043 207.388 192.567 209.126C192.161 208.778 191.987 208.431 191.987 208.431C193.957 202.754 191.987 199.742 191.987 199.742V199.684L192.103 198.757V198.583C192.393 196.903 193.146 193.717 194.826 191.806C197.028 193.717 198.419 196.556 198.419 199.684Z" fill="white"/>
<path opacity="0.6" d="M179.762 197.83C179.762 197.83 177.908 199.684 178.487 204.434C177.734 202.985 177.328 201.364 177.328 199.626C177.328 196.324 178.835 193.37 181.21 191.458C180.167 193.486 179.646 195.803 179.762 197.83Z" fill="white"/>
<path opacity="0.2" d="M194.827 191.806C192.509 194.471 191.93 199.684 191.93 199.684C185.556 201.248 179.704 197.888 179.704 197.888C179.588 195.861 180.109 193.486 181.152 191.516C182.949 190.068 185.266 189.141 187.816 189.141C190.539 189.141 192.973 190.126 194.827 191.806Z" fill="white"/>
<path opacity="0.2" d="M192.567 209.126C191.176 209.821 189.554 210.226 187.874 210.226C184.861 210.226 182.137 208.952 180.225 206.982C182.195 208.141 186.251 209.821 191.987 208.431C191.987 208.373 192.103 208.778 192.567 209.126Z" fill="white"/>
<g opacity="0.2">
<path opacity="0.2" d="M192.393 190.185C192.103 190.59 191.871 190.996 191.64 191.401C191.234 192.212 190.829 193.023 190.539 193.892C190.191 194.761 189.959 195.63 189.728 196.499C189.496 197.367 189.322 198.294 189.148 199.163C189.206 198.236 189.322 197.367 189.554 196.441C189.728 195.514 190.017 194.645 190.307 193.776C190.655 192.907 191.002 192.096 191.466 191.285C191.698 190.88 191.987 190.474 192.277 190.127C192.277 190.127 192.335 190.127 192.393 190.185Z" fill="black"/>
<path opacity="0.2" d="M188.859 189.199C188.743 189.489 188.569 189.721 188.453 190.01C188.047 190.879 187.7 191.864 187.41 192.791C187.12 193.717 186.889 194.702 186.657 195.687C186.425 196.672 186.251 197.656 186.077 198.641C186.135 197.656 186.251 196.614 186.425 195.629C186.599 194.644 186.831 193.66 187.12 192.675C187.41 191.69 187.758 190.763 188.221 189.836C188.337 189.605 188.453 189.373 188.627 189.141C188.685 189.141 188.801 189.199 188.859 189.199Z" fill="black"/>
<path opacity="0.2" d="M185.266 189.431C185.208 189.605 185.15 189.721 185.092 189.895C184.745 190.763 184.513 191.632 184.281 192.559C184.049 193.428 183.876 194.355 183.702 195.282C183.528 196.208 183.412 197.077 183.238 198.004C183.238 197.077 183.354 196.15 183.47 195.224C183.586 194.297 183.76 193.37 183.992 192.501C184.223 191.574 184.455 190.706 184.861 189.837C184.919 189.721 184.977 189.605 184.977 189.547C185.15 189.489 185.208 189.489 185.266 189.431Z" fill="black"/>
<path opacity="0.2" d="M182.369 190.648C182.195 191.285 181.964 191.923 181.848 192.618C181.674 193.371 181.558 194.124 181.442 194.877C181.326 195.63 181.268 196.383 181.152 197.136C181.094 196.383 181.152 195.63 181.21 194.877C181.268 194.124 181.384 193.371 181.558 192.618C181.674 192.039 181.848 191.459 182.022 190.938C182.137 190.822 182.253 190.706 182.369 190.648Z" fill="black"/>
<path opacity="0.2" d="M194.942 203.217C194.942 204.318 194.827 205.419 194.537 206.461C194.421 206.983 194.189 207.504 193.957 207.967C193.899 208.141 193.784 208.315 193.726 208.489C193.668 208.547 193.61 208.546 193.61 208.604C193.899 207.909 194.189 207.156 194.363 206.403C194.653 205.361 194.769 204.318 194.711 203.217C194.711 202.175 194.537 201.074 194.247 200.089C193.957 199.047 193.552 198.062 192.972 197.135C193.61 198.004 194.131 198.989 194.479 200.031C194.711 201.016 194.884 202.117 194.942 203.217Z" fill="black"/>
<path opacity="0.2" d="M197.028 202.928V203.796L196.913 204.665C196.913 204.897 196.855 205.129 196.797 205.36C196.739 205.476 196.623 205.65 196.507 205.766C196.565 205.418 196.681 205.013 196.681 204.607L196.739 203.739V202.87C196.739 202.58 196.739 202.29 196.739 202.001C196.739 201.711 196.739 201.422 196.681 201.132C196.565 199.973 196.217 198.873 195.812 197.83C195.406 196.787 194.827 195.745 194.131 194.818C194.943 195.629 195.58 196.672 196.043 197.714C196.507 198.815 196.855 199.915 196.97 201.074C197.028 201.364 197.028 201.653 197.028 201.943C197.028 202.29 197.028 202.638 197.028 202.928Z" fill="black"/>
<path opacity="0.2" d="M198.419 199.684C198.419 199.742 198.419 199.742 198.419 199.8C198.419 199.742 198.419 199.684 198.361 199.626C198.129 198.409 197.724 197.251 197.202 196.15C196.681 195.05 196.043 193.949 195.174 193.08C196.101 193.949 196.797 194.934 197.376 196.092C197.724 196.788 198.071 197.599 198.303 198.352C198.361 198.757 198.419 199.22 198.419 199.684Z" fill="black"/>
<path opacity="0.2" d="M179.24 196.208C178.777 196.73 178.371 197.309 178.024 197.946C177.734 198.525 177.444 199.105 177.27 199.684C177.27 199.394 177.27 199.105 177.328 198.815C177.502 198.467 177.676 198.178 177.85 197.83C178.255 197.193 178.661 196.614 179.24 196.208Z" fill="black"/>
<path opacity="0.2" d="M179.762 193.37C179.298 193.892 178.893 194.355 178.487 194.877C178.661 194.587 178.835 194.297 179.009 194.007C179.182 193.776 179.472 193.544 179.762 193.37Z" fill="black"/>
<path opacity="0.2" d="M179.762 200.089C180.747 200.437 181.674 200.784 182.659 201.074C183.644 201.364 184.629 201.595 185.672 201.769C187.7 202.117 189.786 202.233 191.756 201.711C190.771 202.117 189.786 202.29 188.743 202.29C187.7 202.348 186.657 202.233 185.614 202.059C184.571 201.885 183.586 201.595 182.601 201.248C181.616 200.958 180.631 200.553 179.762 200.089Z" fill="black"/>
<path opacity="0.2" d="M179.762 202.638C180.747 203.044 181.732 203.333 182.717 203.623C183.702 203.854 184.745 204.086 185.788 204.202C186.831 204.376 187.874 204.376 188.916 204.376L189.67 204.318L190.423 204.202C190.944 204.144 191.466 204.028 191.987 203.97C191.002 204.26 189.959 204.55 188.916 204.608C187.874 204.665 186.831 204.665 185.788 204.55C184.745 204.434 183.702 204.202 182.717 203.912C181.616 203.507 180.631 203.101 179.762 202.638Z" fill="black"/>
<path opacity="0.2" d="M179.993 204.781C180.92 205.187 181.848 205.534 182.833 205.824C183.818 206.114 184.803 206.287 185.788 206.403C186.309 206.461 186.773 206.519 187.294 206.519C187.816 206.519 188.279 206.519 188.801 206.519C189.786 206.461 190.771 206.287 191.756 206.114C190.771 206.403 189.786 206.693 188.801 206.751C187.816 206.867 186.773 206.809 185.73 206.693C184.745 206.577 183.702 206.345 182.775 205.998C181.79 205.708 180.863 205.303 179.993 204.781Z" fill="black"/>
<path opacity="0.2" d="M180.399 206.403C181.268 206.809 182.137 207.156 183.064 207.388C183.992 207.678 184.919 207.851 185.846 207.967C186.773 208.083 187.7 208.141 188.685 208.083L189.38 208.025L190.075 207.909C190.539 207.851 191.002 207.678 191.466 207.62C190.597 207.967 189.67 208.257 188.685 208.315C187.758 208.431 186.773 208.431 185.788 208.315C184.861 208.199 183.876 207.967 183.007 207.678C182.137 207.33 181.21 206.925 180.399 206.403Z" fill="black"/>
</g>
<path d="M66.8914 183.117C66.8914 183.117 68.9773 180.047 72.6276 179.815C76.2779 179.583 79.4067 184.275 79.4067 184.275H78.2479C78.2479 184.275 75.2929 181.09 73.149 181.09C71.0052 181.09 68.9773 183.696 68.9773 183.696L66.8914 183.117Z" fill="#263238"/>
<path d="M35.7769 207.562C37.0516 205.418 51.2473 206.809 54.492 205.534L56.2302 208.488C56.2302 208.488 53.7967 209.821 49.6828 209.357C45.569 208.894 39.4851 208.72 37.8628 210.168L35.7769 207.562Z" fill="#263238"/>
<path opacity="0.3" d="M35.7769 207.562C37.0516 205.418 51.2473 206.809 54.492 205.534L56.2302 208.488C56.2302 208.488 53.7967 209.821 49.6828 209.357C45.569 208.894 39.4851 208.72 37.8628 210.168L35.7769 207.562Z" fill="black"/>
<path d="M95.6304 201.132C95.5145 201.653 95.3986 202.117 95.2248 202.638C94.066 206.577 92.2698 209.763 90.9951 210.284H54.1442C53.1013 210.284 52.1163 209.821 51.5369 209.01C51.5369 209.01 51.5369 209.01 51.4789 208.952C51.363 208.778 51.2472 208.604 51.1313 208.373C48.5818 203.043 46.0324 192.443 49.6248 187.577C49.9724 187.056 50.436 186.592 50.8995 186.187C50.9574 186.187 50.9574 186.129 51.0154 186.129C51.7686 185.492 52.5798 185.028 53.5069 184.565C56.0563 183.407 59.1851 182.885 62.1981 182.654C63.0672 182.596 63.9364 182.538 64.8055 182.538C67.0652 182.48 69.1511 182.538 70.8314 182.596C76.7414 182.769 81.4347 184.507 84.5635 184.218C85.8383 184.102 86.9971 184.218 88.04 184.507C88.3877 184.623 88.6774 184.681 89.025 184.855C90.3577 185.376 91.6324 186.187 93.023 187.288C96.7892 190.126 96.8472 196.034 95.6304 201.132Z" fill="#263238"/>
<path opacity="0.1" d="M95.6304 201.132C95.5145 201.653 95.3986 202.117 95.2248 202.638C94.066 206.577 92.2698 209.763 90.9951 210.284H54.1442C53.1013 210.284 52.1163 209.821 51.5369 209.01C51.5369 209.01 51.5369 209.01 51.4789 208.952C51.363 208.778 51.2472 208.604 51.1313 208.373C48.5818 203.043 46.0324 192.443 49.6248 187.577C49.9724 187.056 50.436 186.592 50.8995 186.187C50.9574 186.187 50.9574 186.129 51.0154 186.129C51.7686 185.492 52.5798 185.028 53.5069 184.565C56.0563 183.407 59.1851 182.885 62.1981 182.654C63.0672 182.596 63.9364 182.538 64.8055 182.538C67.0652 182.48 69.1511 182.538 70.8314 182.596C76.7414 182.769 81.4347 184.507 84.5635 184.218C85.8383 184.102 86.9971 184.218 88.04 184.507C88.3877 184.623 88.6774 184.681 89.025 184.855C90.3577 185.376 91.6324 186.187 93.023 187.288C96.7892 190.126 96.8472 196.034 95.6304 201.132Z" fill="white"/>
<path opacity="0.2" d="M90.0101 200.726C87.3448 200.726 82.0721 202.001 74.308 200.263C69.2671 199.162 65.385 199.684 63.2411 200.205C63.1832 199.046 63.0673 197.772 62.9514 196.382C62.2561 186.998 56.8676 183.001 53.6228 184.565C52.6378 185.028 51.8267 185.55 51.1314 186.129C51.0734 186.129 51.0734 186.187 51.0155 186.187C50.5519 186.592 50.0884 187.056 49.7408 187.577C46.1484 192.443 48.6978 203.043 51.2472 208.372C51.3631 208.604 51.479 208.778 51.5949 208.952C51.5949 208.952 51.5949 208.952 51.6528 209.01C52.2902 209.705 53.1593 210.168 54.1443 210.168H60.6338C63.2991 210.168 63.6467 207.677 63.357 202.406C63.8206 202.116 64.4 201.827 64.9794 201.421C66.6017 200.379 72.9753 200.9 75.7565 201.943C78.5377 202.985 85.7225 203.449 89.199 202.87C91.6325 202.464 94.0081 202.638 95.2249 202.754C95.3408 202.29 95.5146 201.769 95.6305 201.248C94.4137 201.016 91.9222 200.726 90.0101 200.726Z" fill="black"/>
<path opacity="0.2" d="M66.0223 187.461C67.6447 193.312 68.7456 195.339 69.1511 195.918C69.5567 196.498 81.2609 197.888 83.4627 197.888C85.6645 197.888 89.3727 197.54 90.9951 197.135C92.5016 196.729 92.9651 189.257 89.1989 184.739C88.8513 184.623 88.5616 184.507 88.2139 184.391C90.2419 188.967 90.2998 194.586 90.068 195.397C89.7204 196.498 86.3018 196.324 84.6795 196.324C83.0571 196.324 73.0912 195.687 72.0482 195.281C71.0053 194.876 70.4259 194.297 69.6147 193.254C68.8035 192.211 68.6876 188.678 67.2391 185.608C66.7176 184.507 65.7905 183.407 64.8635 182.48C63.9943 182.48 63.1252 182.538 62.2561 182.596C63.8205 183.522 65.327 184.971 66.0223 187.461Z" fill="black"/>
<path d="M54.434 192.849L51.2473 193.659C51.2473 193.659 48.9875 200.205 50.3202 202.928C51.7108 205.65 41.0495 209.473 35.7769 207.562L37.8628 210.226C37.8628 210.226 50.494 209.415 52.8696 204.607C55.3032 199.8 51.8267 199.047 51.5949 197.714C51.3631 196.382 54.434 192.849 54.434 192.849Z" fill="#263238"/>
<path opacity="0.1" d="M54.434 192.849L51.2473 193.659C51.2473 193.659 48.9875 200.205 50.3202 202.928C51.7108 205.65 41.0495 209.473 35.7769 207.562L37.8628 210.226C37.8628 210.226 50.494 209.415 52.8696 204.607C55.3032 199.8 51.8267 199.047 51.5949 197.714C51.3631 196.382 54.434 192.849 54.434 192.849Z" fill="white"/>
<path d="M82.8254 58.1142C82.8254 58.1142 70.426 51.1632 67.8765 49.3675C65.2692 47.5718 51.537 34.0751 50.7838 33.7275C50.7838 33.7275 51.3052 32.1635 50.1464 31.2947C48.9876 30.3678 44.5261 27.4716 43.8308 27.4716C43.1355 27.4716 41.5131 33.7275 41.8028 35.2336C42.0346 36.7976 48.3502 37.1451 48.3502 37.1451C48.3502 37.1451 61.445 52.3796 63.473 54.5229C65.5009 56.6661 79.5228 65.7604 79.5228 65.7604L82.8254 58.1142Z" fill="#E4897B"/>
<path d="M87.9242 59.3877C87.9242 59.3877 90.6474 64.8907 84.0421 73.5795L69.4988 62.8633L75.2929 52.3208L87.9242 59.3877Z" fill="#EDE059"/>
<path opacity="0.6" d="M84.0422 73.5791L77.1471 68.5396L76.2201 67.9024L72.338 65.064L69.4409 62.9208L71.5848 59.0398L72.8015 56.8386L75.293 52.3783L77.6686 53.7106L79.6966 54.8691L87.8663 59.4452C87.8663 59.4452 88.214 60.1403 88.3299 61.4147C88.6775 63.6738 88.2719 67.9603 84.0422 73.5791Z" fill="white"/>
<path opacity="0.2" d="M84.0422 73.5795L77.1472 68.54C79.5228 63.6743 85.6067 61.9365 88.3879 61.4152C88.6776 63.6743 88.272 67.9608 84.0422 73.5795Z" fill="black"/>
<g opacity="0.2">
<path opacity="0.2" d="M79.6966 54.8124L77.6687 56.0289V53.6539L79.6966 54.8124Z" fill="white"/>
<path opacity="0.2" d="M75.235 57.5342L72.6856 61.1255L71.5847 58.9823L72.8015 56.7811L75.235 57.5342Z" fill="white"/>
<path opacity="0.2" d="M77.147 62.9791L76.22 67.8449L72.3379 65.0065L77.147 62.9791Z" fill="white"/>
<path opacity="0.2" d="M78.9434 60.1408L80.3339 63.848L83.3469 59.7932L78.9434 60.1408Z" fill="white"/>
</g>
<path d="M114.925 56.7811C114.925 56.7811 127.325 49.83 129.874 48.0343C132.423 46.2386 146.156 32.742 146.967 32.3944C146.967 32.3944 146.445 30.8304 147.604 29.9615C148.763 29.0347 153.224 26.1384 153.92 26.1384C154.615 26.1384 156.237 32.4523 155.948 33.9584C155.716 35.5224 149.4 35.8699 149.4 35.8699C149.4 35.8699 136.305 51.1044 134.278 53.2477C132.25 55.3909 118.228 64.4852 118.228 64.4852L114.925 56.7811Z" fill="#E4897B"/>
<path d="M100.092 130.173C100.092 130.173 99.8024 134.575 99.3968 140.368C99.1071 144.017 98.8174 148.188 98.4697 152.243C98.0062 157.688 97.4268 162.901 96.9053 166.145C96.3838 169.099 89.7205 205.998 89.7205 205.998H85.259C86.6496 171.59 88.8514 158.267 88.9673 156.24C89.0252 155.602 89.0252 154.676 89.0252 153.575C89.0832 149.636 89.1991 143.438 89.257 138.92C89.3149 135.676 89.3149 133.301 89.3149 133.301L100.092 130.173Z" fill="#E4897B"/>
<path d="M117.417 158.035C117.243 161.047 115.447 205.94 115.447 205.94H110.522C108.03 170.2 108.957 157.803 108.494 155.313C108.494 155.313 108.494 155.313 108.494 155.255C107.74 151.026 106.987 145.523 106.524 141.411C106.118 138.109 105.886 135.734 105.886 135.734L115.91 131.389C115.91 131.389 116.547 136.603 116.953 142.859C117.185 145.987 117.359 149.404 117.417 152.532C117.532 154.444 117.532 156.355 117.417 158.035Z" fill="#E4897B"/>
<path opacity="0.2" d="M89.199 138.978L99.4546 140.368C99.1649 144.017 98.8752 148.188 98.5276 152.243L89.0251 153.575C89.0831 149.694 89.141 143.496 89.199 138.978Z" fill="black"/>
<path opacity="0.2" d="M117.474 152.474L108.493 155.255C107.74 151.026 106.987 145.523 106.523 141.411L117.011 142.859C117.243 145.929 117.416 149.288 117.474 152.474Z" fill="black"/>
<path d="M90.7633 204.665H84.8533C84.6794 204.665 84.5056 204.781 84.4477 205.013L83.4627 209.357C83.4047 209.763 83.6365 210.11 84.0421 210.226C84.1 210.226 84.158 210.226 84.2159 210.226C86.128 210.168 87.5186 210.052 89.9521 210.052C91.4586 210.052 95.9201 210.226 97.9481 210.226C99.976 210.226 100.266 208.199 99.3966 208.025C95.6304 207.214 92.7913 206.056 91.6324 205.013C91.3427 204.781 91.053 204.665 90.7633 204.665Z" fill="#EDE059"/>
<path d="M115.852 204.55H109.942C109.768 204.55 109.594 204.665 109.537 204.897L108.552 209.242C108.494 209.647 108.725 209.995 109.131 210.11C109.189 210.11 109.247 210.11 109.305 210.11C111.217 210.053 112.607 209.937 115.041 209.937C116.547 209.937 121.009 210.11 123.037 210.11C125.065 210.11 125.355 208.083 124.485 207.909C120.719 207.098 117.88 205.94 116.721 204.897C116.432 204.607 116.142 204.55 115.852 204.55Z" fill="#EDE059"/>
<path d="M100.498 149.752C100.556 149.346 100.613 148.941 100.613 148.478C101.193 142.569 101.83 135.444 102.352 128.551C104.38 133.938 105.191 141.469 106.234 149.752H118.402C117.417 128.435 114.751 111.058 113.361 103.643H87.5187C87.4608 106.308 87.171 132.027 86.5337 149.752H100.498Z" fill="#263238"/>
<path opacity="0.2" d="M100.498 149.752C100.556 149.346 100.613 148.941 100.613 148.478C101.193 142.569 101.83 135.444 102.352 128.551C104.38 133.938 105.191 141.469 106.234 149.752H118.402C117.417 128.435 114.751 111.058 113.361 103.643H87.5187C87.4608 106.308 87.171 132.027 86.5337 149.752H100.498Z" fill="white"/>
<path d="M104.09 50.8157C104.032 51.0474 103.974 51.2791 103.858 51.5109C103.395 52.8431 102.526 53.9437 101.425 54.6968C101.135 54.9285 100.845 55.1022 100.556 55.2181C98.9332 56.0291 97.0211 56.2028 95.2829 55.4498C94.5876 55.1602 93.8923 54.6968 93.2549 54.0596C90.8214 51.5688 90.8793 48.7304 90.5896 43.9226C90.5317 42.8799 90.7055 41.8373 91.0531 40.9105C92.4437 37.5508 96.3258 35.9289 99.6864 37.377C104.496 39.3465 105.133 46.5292 104.09 50.8157Z" fill="#E4897B"/>
<path opacity="0.2" d="M101.425 54.7538C101.135 54.9855 100.845 55.1592 100.555 55.2751C98.933 56.086 97.021 56.2598 95.2827 55.5068C95.6304 54.58 96.1518 53.8849 96.1518 53.8849C96.1518 53.8849 99.0489 53.4215 101.425 54.7538Z" fill="black"/>
<path d="M91.7483 60.9517C94.1239 63.095 99.9181 62.284 99.9181 62.284C99.9181 62.284 103.568 61.2993 102.757 60.1407C100.613 59.7932 99.5704 58.8085 99.1648 57.5341C98.9331 56.7811 98.8751 55.9701 98.9331 55.1012C98.991 54.6378 99.0489 54.1744 99.1069 53.711L91.9221 48.3818C92.9071 51.9732 94.066 58.4609 91.7483 60.9517Z" fill="#E4897B"/>
<path d="M101.425 46.4703L102.468 46.8758L101.946 44.7326C101.946 44.7326 103.453 42.4735 101.946 40.3881C101.946 40.3881 106.118 39.1138 103.8 36.9126C102.931 36.1016 101.83 36.9126 98.9332 35.6382C97.3687 34.9431 92.4437 34.8852 92.2119 36.9126C92.2119 36.9126 88.6775 36.9126 88.2719 42.9369C87.8663 48.9611 92.0381 52.4367 92.0381 52.4367C92.0381 52.4367 96.3258 53.4214 98.4117 51.7416C100.44 50.0038 101.425 46.4703 101.425 46.4703Z" fill="#263238"/>
<path d="M98.7015 46.8179C98.9912 47.8606 99.5706 48.6136 100.324 48.9611C101.309 49.3666 101.946 47.9764 101.83 46.5283C101.714 45.2539 101.019 43.4582 99.9762 43.6899C98.8753 43.9216 98.3538 45.4856 98.7015 46.8179Z" fill="#E4897B"/>
<path opacity="0.2" d="M102.41 128.551C101.888 135.386 101.251 142.569 100.672 148.478C99.8024 139.905 98.7015 133.822 98.7015 133.822C98.7015 133.822 97.7165 133.011 94.9353 128.551C92.1541 124.091 94.9353 115.865 94.9353 115.865C94.8194 123.512 102.41 128.551 102.41 128.551Z" fill="black"/>
<path d="M119.387 148.767L118.865 150.794H105.886V148.941L119.387 148.767Z" fill="#EDE059"/>
<path d="M101.135 149.057L100.787 150.91H86.0701L85.2009 149.057H101.135Z" fill="#EDE059"/>
<path d="M102.931 59.5616C102.931 59.5616 100.845 56.2019 95.5145 55.9702C90.1839 55.7385 89.7783 59.3878 89.7783 59.3878L102.931 59.5616Z" fill="#EDE059"/>
<path opacity="0.5" d="M102.931 59.5616C102.931 59.5616 100.845 56.2019 95.5145 55.9702C90.1839 55.7385 89.7783 59.3878 89.7783 59.3878L102.931 59.5616Z" fill="white"/>
<path d="M83.8685 57.5342C83.8685 57.5342 86.5917 82.2685 83.2891 111.695L114.404 109.783C114.056 78.0399 109.768 57.9976 109.768 57.9976C109.768 57.9976 101.714 59.6774 95.225 59.4457C89.1412 59.272 83.8685 57.5342 83.8685 57.5342Z" fill="#EDE059"/>
<path d="M109.826 58.0556C109.826 58.0556 113.998 67.7871 114.462 77.6345C114.925 87.4819 97.5427 100.979 97.5427 100.979C97.5427 100.979 84.1582 91.7684 73.8446 92.6372C63.531 93.5061 60.3442 97.1554 60.3442 97.1554C60.3442 97.1554 68.3402 80.0094 82.3041 74.0431C82.3041 74.0431 79.407 64.1378 83.8685 57.6501C83.8685 57.5343 93.5447 60.6623 109.826 58.0556Z" fill="#EDE059"/>
<path opacity="0.6" d="M114.462 77.5765C114.462 77.8661 114.462 78.0978 114.462 78.3874C114.462 78.7929 114.404 79.2563 114.288 79.6618C114.114 80.6465 113.824 81.5734 113.419 82.5581C112.376 85.1068 110.58 87.7135 108.61 90.0884C107.625 91.3049 106.582 92.4634 105.539 93.506C101.483 97.7925 97.5427 100.805 97.5427 100.805C97.5427 100.805 92.6177 97.3871 86.4179 94.9542C85.2012 94.4908 83.9844 94.0274 82.7097 93.6798C79.7547 92.8109 76.6838 92.2896 73.8446 92.4634C70.2522 92.753 67.471 93.3902 65.4431 94.0853C64.9796 94.2591 64.516 94.4329 64.1684 94.6066C64.0525 94.6646 63.9366 94.7225 63.8207 94.7804C62.7198 95.3017 61.9087 95.7652 61.3292 96.1706C61.2713 96.2286 61.1554 96.2865 61.0975 96.3444C60.9237 96.4603 60.8078 96.5761 60.6919 96.634C60.6339 96.692 60.576 96.692 60.576 96.7499C60.5181 96.8078 60.5181 96.8078 60.4601 96.8657C60.4022 96.8657 60.4022 96.9237 60.4022 96.9237L60.3442 96.9816C60.3442 96.9816 60.4022 96.8078 60.5181 96.634C60.576 96.5761 60.6339 96.4603 60.6919 96.2865C60.8657 95.9389 61.0975 95.5335 61.3872 95.0121C61.4451 94.9542 61.4451 94.8383 61.5031 94.7804C61.561 94.6646 61.619 94.5487 61.7348 94.3749C61.7928 94.2591 61.9087 94.0853 61.9666 93.9695C62.3143 93.3902 62.7198 92.6951 63.1254 92C65.0375 88.9878 67.8766 84.991 71.527 81.3996C72.6858 80.299 73.8446 79.1984 75.1193 78.2137C77.3211 76.5338 79.6967 75.0278 82.3041 73.8692C82.3041 73.8692 81.2611 70.3358 81.377 66.1072C81.377 65.2962 81.435 64.4853 81.6088 63.6164C81.8985 61.4731 82.5938 59.3299 83.8685 57.4183C83.8685 57.4183 85.375 57.8817 88.2141 58.3451C89.7785 58.5768 91.6906 58.8086 94.0083 58.9244C97.253 59.0982 101.135 59.0403 105.712 58.5189C107.045 58.4031 108.378 58.1714 109.826 57.9397C109.826 57.9397 109.884 58.0555 109.942 58.2872C110.29 59.1561 111.333 61.8207 112.318 65.3542C112.55 66.281 112.839 67.2657 113.071 68.3084C113.303 69.2352 113.477 70.2778 113.708 71.2626C114.114 73.3479 114.346 75.4912 114.462 77.5765Z" fill="white"/>
<g opacity="0.2">
<path opacity="0.2" d="M110.464 85.5122L108.609 90.2042C107.624 91.4206 106.582 92.5791 105.539 93.6218L101.83 86.6707L110.464 85.5122Z" fill="white"/>
<path opacity="0.2" d="M78.9433 80.9941L71.5847 81.3995C72.7435 80.2989 73.9024 79.1984 75.1771 78.2136L78.9433 80.9941Z" fill="white"/>
<path opacity="0.2" d="M87.4029 62.4579L86.5917 70.1041L81.377 66.1651C81.377 65.3542 81.4349 64.5432 81.6087 63.6743L87.4029 62.4579Z" fill="white"/>
<path opacity="0.2" d="M89.8364 82.616L87.4028 75.3173L94.7614 73.9271L89.8364 82.616Z" fill="white"/>
<path opacity="0.2" d="M102.41 75.6069V81.1099L107.682 79.2563L102.41 75.6069Z" fill="white"/>
<path opacity="0.2" d="M88.9094 91.5366L86.4179 95.0121C85.2011 94.5487 83.9843 94.0853 82.7096 93.7377L80.8555 89.5092L88.9094 91.5366Z" fill="white"/>
<path opacity="0.2" d="M70.0784 86.2653L73.9025 87.8872L70.0784 90.4938V86.2653Z" fill="white"/>
<path opacity="0.2" d="M65.5009 94.2011C61.7348 95.5334 60.4021 97.0395 60.4021 97.0395C60.4021 97.0395 61.3871 94.9541 63.1833 92.0579L65.5009 94.2011Z" fill="white"/>
<path opacity="0.2" d="M96.3839 87.0763L93.1392 90.4939L98.0642 91.3049L96.3839 87.0763Z" fill="white"/>
<path opacity="0.2" d="M96.3838 65.8754L100.208 71.0308L102.931 65.1803L96.3838 65.8754Z" fill="white"/>
<path opacity="0.2" d="M113.708 71.3205L108.783 68.0766L112.318 65.3541C112.839 67.2077 113.361 69.2351 113.708 71.3205Z" fill="white"/>
<path opacity="0.2" d="M114.462 78.4453C114.404 79.7776 113.998 81.2257 113.419 82.616L111.391 77.5764L114.462 78.4453Z" fill="white"/>
<path opacity="0.2" d="M110 58.3455L106.929 61.5314L105.77 58.5772C107.103 58.4613 108.436 58.2296 109.884 57.9979C109.826 58.0559 109.884 58.1717 110 58.3455Z" fill="white"/>
<path opacity="0.2" d="M94.0083 58.9829L91.7485 63.7908L88.2141 58.4037C89.7785 58.6933 91.7486 58.925 94.0083 58.9829Z" fill="white"/>
</g>
<path opacity="0.2" d="M114.462 77.5765C114.462 77.8661 114.462 78.0978 114.462 78.3874C114.462 78.7929 114.404 79.2563 114.288 79.6618C110.232 73.232 111.217 67.4395 111.217 67.4395L113.129 68.3663C113.361 69.2931 113.534 70.3357 113.766 71.3205C114.114 73.3479 114.346 75.4911 114.462 77.5765Z" fill="black"/>
<path d="M98.0062 32.4516C104.901 30.0767 106.582 39.2289 99.8024 45.427C92.9653 51.625 85.1431 52.378 84.2161 49.2501C83.347 46.1221 87.5187 36.043 98.0062 32.4516Z" fill="#EDE059"/>
<path d="M91.1112 31.9889C94.6457 31.9889 99.6286 35.5803 99.6286 35.5803C99.6286 35.5803 100.324 39.4034 96.8474 42.7631C93.313 46.1228 90.1842 46.6441 88.2141 45.3697C86.2441 44.0954 85.7227 38.9979 85.7227 38.9979C85.7227 38.9979 86.2441 37.0284 88.2141 36.3912C88.2141 36.3912 88.7936 31.9889 91.1112 31.9889Z" fill="#EDE059"/>
<path opacity="0.2" d="M96.9053 42.7631C93.3709 46.1228 90.242 46.6441 88.272 45.3698C87.9244 45.1381 87.6346 44.8484 87.4029 44.443C86.1282 42.5314 85.7805 38.998 85.7805 38.998C89.1411 43.0527 93.0232 38.8821 93.5447 36.0437C93.8344 34.4218 93.4288 33.0316 92.6176 32.1627C94.9353 32.6841 97.4847 34.1322 98.7594 35.0011C99.3388 35.3486 99.6286 35.5803 99.6286 35.5803C99.6286 35.5803 100.382 39.4034 96.9053 42.7631Z" fill="black"/>
<path opacity="0.6" d="M96.9052 42.763C93.3708 46.1227 90.242 46.644 88.272 45.3697C87.9243 45.138 87.6346 44.8483 87.4028 44.4429C90.9373 45.4855 95.109 43.7478 97.3688 40.6198C98.8173 38.5924 98.9911 36.507 98.8173 35.001C99.3967 35.3485 99.6864 35.5802 99.6864 35.5802C99.6864 35.5802 100.382 39.4033 96.9052 42.763Z" fill="white"/>
<path d="M109.826 58.0555C109.826 58.0555 107.103 63.5584 113.708 72.2473L128.251 61.531L122.457 50.9885L109.826 58.0555Z" fill="#EDE059"/>
<path opacity="0.6" d="M128.31 61.5306L124.485 64.311L118.865 68.4237L113.708 72.1889C113.361 71.7255 113.071 71.32 112.781 70.9145C112.144 69.9877 111.622 69.0609 111.159 68.2499C109.652 65.3537 109.247 62.9787 109.247 61.2409C109.247 59.1556 109.826 57.9971 109.826 57.9971L113.071 56.2014L118.633 53.1313L121.067 51.7991L122.457 51.046L128.31 61.5306Z" fill="white"/>
<g opacity="0.2">
<path opacity="0.2" d="M124.485 64.3115L118.865 68.4822L116.374 62.9792L124.485 64.3115Z" fill="white"/>
<path opacity="0.2" d="M123.964 55.4494L118.807 57.5347L118.633 53.1323L121.125 51.8L123.964 55.4494Z" fill="white"/>
<path opacity="0.2" d="M114.925 59.7933L109.305 61.2414C109.305 59.1561 109.884 57.9976 109.884 57.9976L113.129 56.2019L114.925 59.7933Z" fill="white"/>
<path opacity="0.2" d="M113.708 66.8022L112.781 70.915C112.144 69.9882 111.622 69.0613 111.159 68.2504L113.708 66.8022Z" fill="white"/>
</g>
<path d="M141.509 155.432L148.729 155.998L151.548 120.022L144.328 119.457L141.509 155.432Z" stroke="#263238" stroke-width="3" stroke-miterlimit="10"/>
<path d="M143.374 205.534C143.548 205.534 144.301 205.592 144.533 205.65C145.808 205.765 146.793 206.866 146.677 208.14C146.561 209.415 145.46 210.342 144.128 210.284C143.954 210.284 143.201 210.226 142.969 210.168C141.694 210.052 140.709 208.951 140.825 207.677C140.941 206.345 142.042 205.418 143.374 205.534Z" fill="#263238"/>
<path opacity="0.1" d="M140.825 207.62C140.709 208.894 141.694 210.052 142.969 210.168C144.244 210.284 145.402 209.299 145.518 208.025C145.634 206.751 144.649 205.592 143.374 205.476C142.1 205.36 140.941 206.287 140.825 207.62Z" fill="white"/>
<path d="M137.059 205.012C137.233 205.012 137.986 205.07 138.218 205.128C139.492 205.244 140.477 206.345 140.361 207.619C140.245 208.893 139.145 209.82 137.812 209.762C137.638 209.762 136.885 209.704 136.653 209.646C135.378 209.531 134.393 208.43 134.509 207.156C134.625 205.881 135.726 204.954 137.059 205.012Z" fill="#263238"/>
<path opacity="0.2" d="M134.509 207.098C134.393 208.373 135.378 209.531 136.653 209.647C137.928 209.763 139.087 208.778 139.203 207.504C139.318 206.229 138.333 205.071 137.059 204.955C135.726 204.839 134.625 205.824 134.509 207.098Z" fill="white"/>
<path d="M135.958 205.708L144.939 206.403C145.808 206.461 146.561 205.824 146.619 204.955L150.907 150.505C150.965 149.636 150.327 148.883 149.458 148.825L140.477 148.13C139.608 148.072 138.855 148.709 138.797 149.578L134.509 204.028C134.451 204.897 135.089 205.65 135.958 205.708Z" fill="#263238"/>
<path opacity="0.2" d="M140.419 206.056L144.939 206.403C145.808 206.461 146.561 205.824 146.619 204.955L150.907 150.505C150.965 149.636 150.327 148.883 149.458 148.825L144.939 148.477C144.07 148.419 143.316 149.057 143.258 149.926L138.971 204.376C138.971 205.245 139.608 205.998 140.419 206.056Z" fill="white"/>
<path d="M144.128 120.499L151.66 121.079C152.297 121.137 152.877 120.673 152.935 120.036L152.993 119.341C153.051 118.704 152.587 118.124 151.95 118.066L144.417 117.487C143.78 117.429 143.201 117.893 143.143 118.53L143.085 119.225C143.027 119.862 143.49 120.441 144.128 120.499Z" fill="#263238"/>
<path opacity="0.2" d="M144.128 120.499L151.66 121.079C152.297 121.137 152.877 120.673 152.935 120.036L152.993 119.341C153.051 118.704 152.587 118.124 151.95 118.066L144.417 117.487C143.78 117.429 143.201 117.893 143.143 118.53L143.085 119.225C143.027 119.862 143.49 120.441 144.128 120.499Z" fill="white"/>
<path opacity="0.2" d="M144.128 120.499L144.765 120.557C145.402 120.615 145.982 120.152 145.982 119.515L146.04 118.819C146.098 118.182 145.634 117.603 144.997 117.545L144.359 117.487C143.722 117.429 143.142 117.893 143.085 118.53L143.027 119.225C143.027 119.862 143.49 120.441 144.128 120.499Z" fill="black"/>
<path d="M167.536 154.618L163.654 203.854C163.538 205.65 161.916 207.04 160.12 206.866L142.158 205.476C140.883 205.36 139.956 204.26 140.014 202.985L144.012 151.837C144.128 150.563 145.229 149.636 146.503 149.694L164.465 151.084C166.319 151.2 167.71 152.822 167.536 154.618Z" fill="#EDE059"/>
<path opacity="0.2" d="M167.536 154.618L163.654 203.854C163.538 205.65 161.916 207.04 160.12 206.866L142.158 205.476C140.883 205.36 139.956 204.26 140.014 202.985L144.012 151.837C144.128 150.563 145.229 149.636 146.503 149.694L164.465 151.084C166.319 151.2 167.71 152.822 167.536 154.618Z" fill="white"/>
<path opacity="0.2" d="M155.195 150.331V150.389L154.557 150.331C153.282 150.215 152.182 151.2 152.066 152.474L148.068 203.623C148.01 204.723 148.647 205.65 149.632 205.998L142.158 205.418C140.883 205.303 139.956 204.202 140.014 202.928L144.012 151.779C144.128 150.505 145.229 149.578 146.503 149.636L155.195 150.331Z" fill="black"/>
<path opacity="0.2" d="M151.023 203.565H150.733C150.385 203.565 150.154 203.217 150.154 202.87L154.094 152.706C154.094 152.358 154.441 152.127 154.789 152.127H155.079C155.426 152.127 155.658 152.474 155.658 152.822L151.718 202.985C151.66 203.333 151.37 203.623 151.023 203.565Z" fill="black"/>
<path opacity="0.2" d="M154.615 204.086H154.325C153.978 204.086 153.746 203.739 153.746 203.391L157.686 153.227C157.686 152.88 158.034 152.648 158.381 152.648H158.671C159.019 152.648 159.25 152.996 159.25 153.343L155.31 203.507C155.252 203.854 154.963 204.144 154.615 204.086Z" fill="black"/>
<path opacity="0.2" d="M158.207 204.318H157.918C157.57 204.318 157.338 203.97 157.338 203.623L161.278 153.459C161.278 153.111 161.626 152.88 161.973 152.88H162.263C162.611 152.88 162.843 153.227 162.843 153.575L158.903 203.739C158.845 204.086 158.555 204.318 158.207 204.318Z" fill="black"/>
<path opacity="0.2" d="M161.8 204.492H161.51C161.162 204.492 160.931 204.144 160.931 203.797L164.871 153.633C164.871 153.285 165.218 153.054 165.566 153.054H165.856C166.203 153.054 166.435 153.401 166.435 153.749L162.495 203.912C162.437 204.26 162.147 204.55 161.8 204.492Z" fill="black"/>
</g>
<defs>
<clipPath id="clip0_420_2847">
<rect width="289.708" height="215.831" fill="white" transform="translate(0.954102 0.708984)"/>
</clipPath>
</defs>
</svg>
