<svg width="322" height="316" viewBox="0 0 322 316" fill="none" xmlns="http://www.w3.org/2000/svg">
<g clip-path="url(#clip0_1228_1773)">
<path d="M68.4081 63.4513C68.8968 59.6819 63.5917 56.5408 59.5432 56.1917C57.5887 56.0521 55.6342 56.3313 53.8194 55.7031C49.9104 54.3071 48.3049 49.2114 44.4658 47.6059C41.6039 46.4193 38.2534 47.4663 35.4612 48.8624C32.6691 50.2585 29.9468 52.0035 26.8057 52.2129C24.0834 52.3526 21.1517 51.3753 18.7784 52.7016C17.0333 53.6788 16.0561 55.7031 14.4506 56.8898C12.8452 58.0764 10.7511 58.2858 8.7966 58.4254C6.84212 58.6349 4.74804 58.6349 3.00297 59.4725C1.1881 60.3101 -0.277758 62.1948 0.0712553 64.1493L68.4081 63.4513Z" fill="#EBEBEB"/>
<path d="M239.843 6.91051C243.752 2.30349 254.013 5.23523 261.063 8.93481C261.063 8.93481 265.879 11.2383 267.694 12.425H267.764L284.167 10.4007C285.494 10.2611 286.82 10.4705 288.076 11.0987L289.403 11.7968C290.101 12.1458 290.031 13.123 289.333 13.4022L277.257 18.5677C277.257 18.6375 277.257 18.6375 277.257 18.7073C283.679 22.8955 289.193 26.5253 289.193 26.5253C289.263 26.5951 289.333 26.5951 289.403 26.6649C291.636 28.1307 294.359 28.6194 297.011 28.2006L303.433 27.0837C303.782 27.0139 304.061 27.0139 304.41 27.1535C305.527 27.6421 305.736 29.108 304.829 29.8758L297.36 36.0185C296.173 36.9958 294.568 37.2052 293.242 36.577L289.752 34.9715L272.231 26.5951L274.255 36.577C274.325 36.9958 273.976 37.3448 273.557 37.3448H272.72C271.603 37.275 270.556 36.6468 269.997 35.6695L262.947 22.1975L242.216 12.425C239.494 11.0987 238.516 8.7254 239.843 6.91051Z" fill="#E0E0E0"/>
<path d="M98.9798 12.076C99.3288 9.49329 95.6991 7.32938 92.907 7.11997C91.5807 6.98036 90.2545 7.18977 88.998 6.77095C86.2757 5.86351 85.2287 2.37334 82.5762 1.25649C80.6217 0.418845 78.3182 1.18668 76.4335 2.09413C74.5488 3.07137 72.6642 4.25803 70.5003 4.39764C68.6156 4.53725 66.6611 3.83921 64.9859 4.74666C63.7992 5.44469 63.171 6.84076 62.0542 7.60859C60.9373 8.44624 59.5413 8.58584 58.215 8.65565C56.8888 8.72545 55.4927 8.72545 54.2362 9.28388C52.9798 9.8423 52.0026 11.1686 52.212 12.4948L98.9798 12.076Z" fill="#EBEBEB"/>
<path d="M256.248 245.08C256.179 245.149 255.55 244.8 254.922 244.242C254.224 243.684 253.736 243.195 253.805 243.125C253.875 243.055 254.503 243.404 255.132 243.963C255.83 244.451 256.318 245.01 256.248 245.08Z" fill="#E0E0E0"/>
<path d="M274.607 217.577C274.746 214.994 274.816 212.412 273.979 209.969C273.141 207.525 271.256 205.292 268.743 204.803C265.882 204.175 262.95 205.99 261.344 208.503C259.739 210.946 259.18 213.947 258.692 216.809C255.411 236.773 254.224 257.016 255.062 277.189L266.789 278.865C272.024 257.714 273.699 239.286 274.607 217.577Z" fill="#EBEBEB"/>
<path d="M267.138 204.663C267.138 204.663 267.138 204.733 267.068 204.873C266.998 205.012 266.929 205.222 266.859 205.431C266.649 205.92 266.44 206.618 266.091 207.456C265.951 207.874 265.742 208.363 265.532 208.921C265.323 209.48 265.183 210.038 264.974 210.667C264.765 211.295 264.555 211.993 264.346 212.691C264.136 213.459 263.927 214.227 263.718 214.994C262.81 218.275 262.112 222.184 261.414 226.652C260.786 231.049 260.367 235.935 260.018 241.101C259.39 251.362 259.32 260.716 259.041 267.487C258.901 270.837 258.831 273.629 258.692 275.514C258.622 276.421 258.552 277.189 258.552 277.678C258.552 277.887 258.482 278.097 258.482 278.236C258.482 278.376 258.482 278.446 258.482 278.446C258.482 278.446 258.482 278.376 258.482 278.236C258.482 278.097 258.482 277.887 258.482 277.678C258.482 277.119 258.552 276.421 258.552 275.514C258.622 273.629 258.692 270.907 258.762 267.487C258.971 260.716 258.971 251.362 259.599 241.101C259.948 235.935 260.367 231.049 260.995 226.652C261.693 222.254 262.461 218.275 263.369 214.994C263.578 214.157 263.787 213.389 263.997 212.691C264.276 211.993 264.485 211.295 264.695 210.667C264.904 210.038 265.114 209.41 265.323 208.921C265.533 208.363 265.742 207.874 265.882 207.456C266.231 206.618 266.51 205.92 266.719 205.431C266.789 205.222 266.859 205.082 266.929 204.943C267.138 204.733 267.138 204.663 267.138 204.663Z" fill="#E0E0E0"/>
<path d="M268.254 204.663C268.254 204.663 268.952 205.431 269.719 207.107C270.487 208.782 270.906 211.434 270.766 214.715C270.487 221.207 269.859 230.142 269.091 240.054C268.323 249.896 267.486 258.831 266.788 265.323C266.439 268.534 266.159 271.186 265.95 272.931C265.81 273.769 265.741 274.467 265.671 275.025C265.671 275.235 265.601 275.444 265.601 275.584C265.601 275.723 265.601 275.793 265.531 275.793C265.531 275.793 265.531 275.723 265.531 275.584C265.531 275.444 265.531 275.235 265.601 275.025C265.671 274.537 265.741 273.839 265.81 272.931C266.02 271.116 266.229 268.464 266.578 265.253C267.207 258.761 267.974 249.896 268.812 239.984C269.58 230.142 270.208 221.137 270.627 214.715C270.767 211.504 270.348 208.852 269.719 207.176C268.882 205.501 268.184 204.733 268.254 204.663Z" fill="#E0E0E0"/>
<path d="M276.422 235.098C276.352 235.237 275.374 234.958 274.188 234.539C273.001 234.12 272.094 233.702 272.094 233.562C272.164 233.422 273.141 233.702 274.327 234.12C275.514 234.539 276.422 234.958 276.422 235.098Z" fill="#E0E0E0"/>
<path d="M277.817 223.092C277.887 223.231 276.91 223.72 275.723 224.278C274.536 224.837 273.489 225.186 273.42 225.046C273.35 224.906 274.327 224.418 275.514 223.859C276.7 223.371 277.747 223.022 277.817 223.092Z" fill="#E0E0E0"/>
<path d="M277.049 213.319C277.049 213.459 276.281 213.459 275.304 213.389C274.326 213.319 273.559 213.179 273.559 213.04C273.559 212.9 274.326 212.9 275.304 212.97C276.281 213.11 277.049 213.249 277.049 213.319Z" fill="#E0E0E0"/>
<path d="M264.974 207.107C264.904 207.176 264.346 206.548 263.857 205.641C263.299 204.803 262.95 204.035 263.089 203.965C263.159 203.896 263.718 204.524 264.206 205.431C264.695 206.269 265.044 207.037 264.974 207.107Z" fill="#E0E0E0"/>
<path d="M260.925 212.97C260.925 213.11 260.157 213.179 259.249 213.11C258.342 213.11 257.574 212.97 257.574 212.83C257.574 212.691 258.342 212.621 259.249 212.691C260.227 212.761 260.925 212.9 260.925 212.97Z" fill="#E0E0E0"/>
<path d="M258.064 224.837C257.994 224.976 257.226 224.697 256.319 224.348C255.411 223.999 254.644 223.58 254.713 223.51C254.783 223.371 255.551 223.65 256.458 223.999C257.366 224.348 258.134 224.697 258.064 224.837Z" fill="#E0E0E0"/>
<path d="M257.784 234.749C257.784 234.888 257.156 235.098 256.318 235.307C255.481 235.516 254.783 235.516 254.713 235.447C254.713 235.307 255.341 235.098 256.179 234.888C257.016 234.679 257.714 234.609 257.784 234.749Z" fill="#E0E0E0"/>
<path d="M256.388 251.013C256.388 251.152 255.69 251.362 254.783 251.501C253.875 251.641 253.177 251.711 253.107 251.571C253.107 251.432 253.805 251.222 254.713 251.083C255.62 250.943 256.388 250.873 256.388 251.013Z" fill="#E0E0E0"/>
<path d="M255.481 260.018C255.55 260.087 254.922 260.506 254.154 260.925C253.386 261.344 252.688 261.623 252.619 261.484C252.549 261.414 253.177 260.995 253.945 260.576C254.783 260.157 255.481 259.878 255.481 260.018Z" fill="#E0E0E0"/>
<path d="M262.809 270.209C262.74 270.279 262.181 269.581 261.623 268.603C261.064 267.696 260.715 266.858 260.855 266.788C260.925 266.719 261.483 267.417 262.042 268.394C262.6 269.301 262.949 270.139 262.809 270.209Z" fill="#E0E0E0"/>
<path d="M264.973 253.247C265.043 253.316 264.485 254.014 263.717 254.782C262.949 255.55 262.251 256.109 262.111 256.039C262.042 255.969 262.6 255.271 263.368 254.503C264.136 253.735 264.903 253.177 264.973 253.247Z" fill="#E0E0E0"/>
<path d="M264.485 244.382C264.415 244.451 263.856 244.033 263.298 243.404C262.739 242.776 262.321 242.218 262.39 242.148C262.46 242.078 263.019 242.497 263.577 243.125C264.205 243.753 264.554 244.312 264.485 244.382Z" fill="#E0E0E0"/>
<path d="M265.952 233.004C266.022 233.073 265.533 233.771 264.905 234.539C264.207 235.307 263.578 235.866 263.509 235.796C263.439 235.726 263.927 235.028 264.556 234.26C265.254 233.492 265.882 232.934 265.952 233.004Z" fill="#E0E0E0"/>
<path d="M266.788 224.767C266.718 224.837 266.02 224.348 265.322 223.58C264.554 222.882 264.066 222.184 264.136 222.114C264.205 222.044 264.903 222.533 265.601 223.301C266.299 223.999 266.858 224.697 266.788 224.767Z" fill="#E0E0E0"/>
<path d="M268.395 213.668C268.465 213.738 268.186 214.506 267.627 215.343C267.139 216.181 266.65 216.879 266.511 216.809C266.441 216.74 266.72 215.972 267.278 215.134C267.767 214.227 268.256 213.598 268.395 213.668Z" fill="#E0E0E0"/>
<path d="M271.394 203.337C271.464 203.407 271.185 204.105 270.696 205.013C270.208 205.85 269.789 206.548 269.649 206.478C269.579 206.409 269.859 205.711 270.347 204.803C270.836 203.896 271.255 203.267 271.394 203.337Z" fill="#E0E0E0"/>
<path d="M274.816 208.014C274.886 208.084 274.397 208.433 273.769 208.782C273.141 209.061 272.582 209.271 272.513 209.131C272.443 209.061 272.931 208.712 273.56 208.363C274.258 208.084 274.746 207.874 274.816 208.014Z" fill="#E0E0E0"/>
<path d="M274.886 245.08C274.886 245.219 273.769 245.01 272.583 244.521C271.396 244.033 270.559 243.335 270.559 243.265C270.628 243.195 271.536 243.684 272.722 244.172C273.979 244.661 274.956 244.94 274.886 245.08Z" fill="#E0E0E0"/>
<path d="M273.49 252.898C273.49 253.037 272.792 253.247 271.884 253.386C270.977 253.526 270.279 253.596 270.209 253.526C270.209 253.386 270.907 253.177 271.814 253.037C272.722 252.828 273.49 252.828 273.49 252.898Z" fill="#E0E0E0"/>
<path d="M271.816 266.37C271.746 266.439 270.838 265.811 270.001 264.834C269.163 263.787 268.744 262.81 268.884 262.74C269.023 262.67 269.512 263.578 270.35 264.555C271.118 265.532 271.885 266.3 271.816 266.37Z" fill="#E0E0E0"/>
<path d="M252.897 272.512C252.827 272.443 253.316 271.884 253.944 271.326C254.642 270.767 255.201 270.348 255.271 270.488C255.34 270.558 254.852 271.116 254.224 271.675C253.595 272.233 252.967 272.652 252.897 272.512Z" fill="#E0E0E0"/>
<path d="M247.453 243.125C246.685 240.752 245.219 237.96 242.776 237.89C241.31 237.89 239.984 238.937 239.286 240.263C238.588 241.589 238.309 243.125 238.309 244.591C238.588 254.433 240.263 265.672 243.683 275.863H252.828C252.758 264.555 250.943 254.014 247.453 243.125Z" fill="#EBEBEB"/>
<path d="M230.91 228.117C229.653 223.022 225.814 220.23 221.347 219.95C217.298 220.648 215.693 224.627 215.274 228.746C214.785 232.864 216.042 236.913 217.298 240.822C221.347 253.386 225.326 266.021 229.374 278.585C233.144 278.166 236.983 277.748 240.752 277.329C237.122 260.506 235.098 244.87 230.91 228.117Z" fill="#EBEBEB"/>
<path d="M242.776 237.96C242.845 237.96 242.427 238.379 242.008 239.286C241.589 240.193 241.449 241.59 241.589 243.335C241.798 245.08 241.938 247.174 242.287 249.477C242.566 251.781 242.985 254.294 243.543 256.946C244.59 262.181 245.777 266.928 246.475 270.418C246.824 272.163 247.103 273.559 247.313 274.537C247.383 274.955 247.452 275.374 247.522 275.654C247.592 275.933 247.592 276.072 247.592 276.072C247.592 276.072 247.522 275.933 247.452 275.723C247.383 275.444 247.313 275.095 247.173 274.606C246.964 273.559 246.615 272.233 246.196 270.558C245.358 267.138 244.172 262.391 243.125 257.156C242.636 254.503 242.217 251.99 241.938 249.687C241.798 248.5 241.729 247.453 241.589 246.406C241.519 245.359 241.38 244.451 241.31 243.544C241.17 241.799 241.449 240.333 241.868 239.426C242.287 238.309 242.776 237.96 242.776 237.96Z" fill="#E0E0E0"/>
<path d="M221.486 219.671C221.555 219.671 220.857 220.23 220.09 221.556C219.322 222.812 218.484 224.837 218.344 227.559C218.205 230.211 218.763 233.353 219.741 236.773C220.718 240.193 221.835 243.893 223.021 247.802C225.325 255.62 227.349 262.67 228.885 267.905C229.583 270.418 230.211 272.512 230.63 273.978C230.839 274.676 230.979 275.235 231.049 275.653C231.118 276.002 231.188 276.212 231.188 276.212C231.188 276.212 231.118 276.002 230.979 275.653C230.839 275.235 230.7 274.676 230.42 273.978C230.002 272.512 229.373 270.418 228.536 267.905C227 262.74 224.906 255.69 222.602 247.872C221.486 243.963 220.369 240.193 219.391 236.843C218.414 233.422 217.856 230.211 218.065 227.559C218.275 224.837 219.112 222.742 219.95 221.556C220.788 220.16 221.486 219.671 221.486 219.671Z" fill="#E0E0E0"/>
<path d="M238.239 276.142C238.239 276.142 238.169 275.933 237.96 275.584C237.82 275.235 237.541 274.676 237.331 273.978C236.773 272.582 236.075 270.488 235.377 267.905C234.679 265.323 233.911 262.181 233.283 258.691C232.655 255.201 231.887 251.362 231.119 247.313C230.351 243.265 229.444 239.495 228.397 236.075C227.35 232.655 226.233 229.723 225.046 227.28C223.929 224.837 222.812 223.022 221.975 221.765C221.556 221.137 221.207 220.648 220.997 220.299C220.788 219.95 220.648 219.811 220.648 219.811C220.648 219.811 220.788 219.95 221.067 220.299C221.277 220.648 221.695 221.067 222.114 221.695C222.952 222.952 224.139 224.767 225.325 227.21C226.512 229.653 227.699 232.585 228.746 236.005C229.793 239.426 230.7 243.195 231.468 247.244C232.236 251.292 232.934 255.131 233.562 258.622C234.26 262.112 234.888 265.253 235.586 267.836C236.284 270.418 236.912 272.512 237.401 273.908C237.61 274.606 237.82 275.165 237.96 275.514C238.239 275.933 238.309 276.142 238.239 276.142Z" fill="#E0E0E0"/>
<path d="M217.506 238.937C217.506 239.077 216.878 239.286 216.11 239.495C215.343 239.705 214.645 239.775 214.645 239.635C214.645 239.495 215.203 239.286 216.041 239.077C216.808 238.937 217.437 238.867 217.506 238.937Z" fill="#E0E0E0"/>
<path d="M216.251 231.189C216.251 231.328 215.413 231.328 214.296 231.398C213.249 231.468 212.412 231.468 212.342 231.328C212.342 231.189 213.179 230.979 214.226 230.979C215.413 230.91 216.251 231.049 216.251 231.189Z" fill="#E0E0E0"/>
<path d="M217.576 224.069C217.506 224.139 216.878 223.72 216.18 223.161C215.482 222.603 214.993 222.045 215.063 221.975C215.133 221.905 215.761 222.254 216.459 222.882C217.157 223.441 217.646 223.999 217.576 224.069Z" fill="#E0E0E0"/>
<path d="M221.068 217.507C221.207 217.507 221.138 218.066 221.138 218.764C221.138 219.462 221.138 220.02 220.998 220.02C220.858 220.02 220.719 219.462 220.719 218.764C220.719 217.996 220.928 217.438 221.068 217.507Z" fill="#E0E0E0"/>
<path d="M228.118 220.579C228.188 220.648 227.909 221.207 227.49 221.835C227.071 222.463 226.652 222.882 226.513 222.882C226.443 222.812 226.722 222.254 227.141 221.626C227.629 220.997 228.048 220.509 228.118 220.579Z" fill="#E0E0E0"/>
<path d="M232.793 228.606C232.863 228.746 232.235 229.025 231.467 229.374C230.699 229.723 230.001 229.862 230.001 229.723C229.932 229.583 230.56 229.304 231.328 228.955C232.026 228.676 232.724 228.466 232.793 228.606Z" fill="#E0E0E0"/>
<path d="M235.586 236.843C235.656 236.913 234.818 237.401 233.771 237.611C232.724 237.89 231.816 237.82 231.816 237.68C231.816 237.541 232.654 237.471 233.701 237.192C234.678 236.982 235.516 236.703 235.586 236.843Z" fill="#E0E0E0"/>
<path d="M222.742 234.47C222.602 234.47 222.742 233.841 222.951 233.213C223.161 232.515 223.44 232.026 223.51 232.096C223.649 232.096 223.51 232.724 223.3 233.353C223.091 234.051 222.812 234.539 222.742 234.47Z" fill="#E0E0E0"/>
<path d="M224.488 244.87C224.348 244.8 224.627 244.033 224.976 243.125C225.395 242.218 225.744 241.52 225.884 241.59C226.024 241.659 225.744 242.427 225.395 243.335C224.976 244.242 224.627 244.87 224.488 244.87Z" fill="#E0E0E0"/>
<path d="M220.091 247.662C220.021 247.802 219.323 247.593 218.415 247.313C217.508 247.034 216.81 246.755 216.88 246.685C216.88 246.546 217.648 246.615 218.555 246.895C219.463 247.244 220.091 247.593 220.091 247.662Z" fill="#E0E0E0"/>
<path d="M222.602 256.109C222.672 256.178 222.183 256.667 221.485 257.156C220.787 257.644 220.229 257.923 220.159 257.854C220.089 257.784 220.578 257.295 221.276 256.807C221.974 256.388 222.532 256.039 222.602 256.109Z" fill="#E0E0E0"/>
<path d="M224.696 264.555C224.696 264.694 224.138 264.904 223.37 265.113C222.602 265.323 221.974 265.392 221.904 265.253C221.904 265.113 222.463 264.904 223.231 264.694C223.998 264.485 224.627 264.415 224.696 264.555Z" fill="#E0E0E0"/>
<path d="M235.795 243.893C235.865 243.963 235.306 244.382 234.608 244.661C233.841 244.94 233.212 245.01 233.143 244.87C233.143 244.731 233.701 244.521 234.399 244.242C235.167 244.033 235.725 243.753 235.795 243.893Z" fill="#E0E0E0"/>
<path d="M237.401 256.946C237.331 257.086 236.703 256.876 236.005 256.527C235.307 256.178 234.749 255.829 234.818 255.76C234.888 255.62 235.516 255.829 236.214 256.178C236.912 256.527 237.401 256.876 237.401 256.946Z" fill="#E0E0E0"/>
<path d="M240.193 266.37C240.123 266.509 239.356 266.23 238.378 265.881C237.401 265.532 236.703 265.113 236.703 264.974C236.773 264.834 237.541 265.113 238.518 265.462C239.495 265.881 240.193 266.23 240.193 266.37Z" fill="#E0E0E0"/>
<path d="M225.116 273.699C225.046 273.559 225.814 273.071 226.651 272.443C227.489 271.745 228.187 271.186 228.257 271.256C228.327 271.326 227.768 272.094 226.861 272.792C226.023 273.42 225.186 273.769 225.116 273.699Z" fill="#E0E0E0"/>
<path d="M232.515 268.952C232.375 268.952 232.236 268.324 231.957 267.626C231.677 266.858 231.398 266.3 231.468 266.23C231.538 266.16 232.026 266.649 232.375 267.486C232.655 268.185 232.655 268.883 232.515 268.952Z" fill="#E0E0E0"/>
<path d="M230.56 257.644C230.49 257.714 230.002 257.505 229.513 257.156C229.025 256.807 228.606 256.388 228.676 256.318C228.745 256.248 229.234 256.458 229.723 256.807C230.281 257.156 230.63 257.575 230.56 257.644Z" fill="#E0E0E0"/>
<path d="M247.871 239.984C247.941 240.054 247.452 240.542 246.824 241.031C246.195 241.52 245.567 241.799 245.567 241.729C245.497 241.659 245.986 241.171 246.614 240.682C247.173 240.193 247.801 239.914 247.871 239.984Z" fill="#E0E0E0"/>
<path d="M250.453 247.104C250.453 247.243 249.755 247.383 248.847 247.243C247.94 247.174 247.242 246.825 247.311 246.755C247.311 246.615 248.079 246.755 248.917 246.825C249.755 246.964 250.453 246.964 250.453 247.104Z" fill="#E0E0E0"/>
<path d="M239.285 248.709C239.285 248.849 238.657 249.058 237.749 249.128C236.842 249.198 236.144 249.058 236.214 248.919C236.214 248.779 236.912 248.779 237.749 248.709C238.517 248.64 239.215 248.57 239.285 248.709Z" fill="#E0E0E0"/>
<path d="M240.194 241.938C240.194 242.078 239.496 242.078 238.728 241.729C237.96 241.38 237.541 240.891 237.611 240.752C237.681 240.682 238.239 241.031 238.867 241.31C239.635 241.659 240.264 241.869 240.194 241.938Z" fill="#E0E0E0"/>
<path d="M251.432 254.713C251.362 254.782 250.664 254.503 249.896 253.945C249.128 253.456 248.5 252.968 248.57 252.828C248.64 252.758 249.338 253.037 250.105 253.596C250.873 254.154 251.501 254.643 251.432 254.713Z" fill="#E0E0E0"/>
<path d="M278.654 274.746H218.973V285.356H278.654V274.746Z" fill="#E0E0E0"/>
<path d="M223.439 283.192L230.699 314.813H266.298L274.256 283.192H223.439Z" fill="#E0E0E0"/>
<path d="M278.654 285.286C278.654 285.426 265.182 285.496 248.569 285.496C231.956 285.496 218.484 285.426 218.484 285.286C218.484 285.147 231.956 285.077 248.569 285.077C265.182 285.077 278.654 285.217 278.654 285.286Z" fill="#EBEBEB"/>
<path d="M245.499 248.919C245.429 248.989 245.01 248.5 244.591 247.872C244.172 247.244 243.963 246.615 244.033 246.615C244.103 246.545 244.521 247.034 244.94 247.662C245.359 248.291 245.568 248.849 245.499 248.919Z" fill="#E0E0E0"/>
<path d="M245.498 257.435C245.359 257.365 245.498 256.667 245.777 255.829C246.057 254.992 246.406 254.294 246.475 254.363C246.615 254.433 246.475 255.131 246.196 255.969C245.917 256.807 245.638 257.505 245.498 257.435Z" fill="#E0E0E0"/>
<path d="M248.429 266.37C248.359 266.44 247.87 265.672 247.451 264.764C247.033 263.857 246.753 263.019 246.823 263.019C246.893 262.949 247.382 263.717 247.8 264.625C248.219 265.532 248.498 266.3 248.429 266.37Z" fill="#E0E0E0"/>
<path d="M242.077 273.559C242.007 273.49 242.356 272.931 242.845 272.303C243.404 271.675 243.892 271.256 243.962 271.326C244.032 271.396 243.683 271.954 243.194 272.582C242.705 273.21 242.217 273.629 242.077 273.559Z" fill="#E0E0E0"/>
<path d="M240.752 260.506C240.752 260.646 240.124 260.646 239.495 260.506C238.797 260.367 238.239 260.227 238.309 260.087C238.309 259.948 238.937 259.948 239.565 260.087C240.263 260.227 240.822 260.436 240.752 260.506Z" fill="#E0E0E0"/>
<path d="M316.765 315.302C316.765 315.372 246.404 315.511 159.639 315.511C72.8045 315.511 2.44336 315.442 2.44336 315.302C2.44336 315.162 72.8045 315.093 159.639 315.093C246.404 315.093 316.765 315.162 316.765 315.302Z" fill="#263238"/>
<path d="M285.005 193.704L202.219 171.716L234.747 48.8624L317.603 70.8505C320.744 71.6881 322.628 74.8991 321.791 78.1101L292.264 189.516C291.427 192.657 288.146 194.542 285.005 193.704Z" fill="#5A623A"/>
<path d="M264.901 147.006C263.295 147.006 261.69 146.797 260.085 146.378C255.059 145.051 250.871 141.771 248.288 137.164C245.705 132.557 245.077 127.112 246.473 121.946C249.335 111.197 260.085 104.635 270.415 107.427C275.441 108.754 279.629 112.034 282.212 116.641C284.795 121.248 285.423 126.693 284.027 131.859C282.631 137.094 279.42 141.422 274.883 144.214C271.811 146.029 268.391 147.006 264.901 147.006ZM265.599 108.125C257.502 108.125 250.033 113.779 247.799 122.226C246.543 127.112 247.101 132.138 249.475 136.466C251.848 140.793 255.757 143.795 260.364 145.051C265.041 146.308 269.857 145.54 274.115 143.027C278.303 140.444 281.374 136.396 282.631 131.51C283.887 126.623 283.329 121.597 280.956 117.27C278.582 112.942 274.673 109.94 270.066 108.684C268.6 108.265 267.065 108.125 265.599 108.125Z" fill="white"/>
<path d="M247.213 120.815L246.855 122.164L283.29 131.822L283.648 130.472L247.213 120.815Z" fill="white"/>
<path d="M269.034 107.693L259.051 145.343L260.4 145.701L270.383 108.051L269.034 107.693Z" fill="white"/>
<path d="M260.014 146.098L259.316 144.842C264.552 141.98 268.112 139.188 270.694 135.907C273.766 131.998 275.58 126.205 275.162 121.388C274.743 116.502 271.951 112.104 269.438 108.265L270.624 107.497C273.207 111.546 276.069 116.083 276.558 121.248C276.977 126.414 275.162 132.487 271.811 136.745C268.321 141.282 263.435 144.214 260.014 146.098Z" fill="white"/>
<path d="M259.177 145.959C256.455 142.05 253.802 137.652 252.965 132.277C252.127 126.972 253.523 120.76 256.524 116.432C259.456 112.174 264.761 109.382 269.019 107.148L269.647 108.405C265.529 110.569 260.433 113.221 257.711 117.27C254.989 121.248 253.663 127.182 254.43 132.068C255.198 137.164 257.781 141.352 260.433 145.191L259.177 145.959Z" fill="white"/>
<path d="M277.185 120.271C268.53 120.271 259.874 117.479 252.824 112.383L253.662 111.267C261.968 117.339 272.509 119.992 282.7 118.526L282.909 119.922C280.955 120.132 279.07 120.271 277.185 120.271Z" fill="white"/>
<path d="M276.557 142.329C267.343 135.558 256.733 132.487 247.45 133.813L247.24 132.417C256.873 131.021 267.832 134.232 277.395 141.212L276.557 142.329Z" fill="white"/>
<path d="M208.641 172.554C208.571 172.554 215.761 145.121 224.696 111.267C233.631 77.4818 241.03 50.0491 241.099 50.1189C241.169 50.1189 233.98 77.5516 225.045 111.406C216.04 145.191 208.711 172.624 208.641 172.554Z" fill="#263238"/>
<path d="M277.815 175.625C277.815 175.695 267.135 172.973 254.012 169.483C240.889 165.992 230.279 163.131 230.279 162.991C230.279 162.921 240.959 165.643 254.082 169.134C267.205 172.624 277.815 175.556 277.815 175.625Z" fill="white"/>
<path d="M270.766 178.557C270.766 178.627 262.808 176.672 253.106 174.09C243.403 171.507 235.516 169.343 235.516 169.273C235.516 169.203 243.473 171.158 253.176 173.741C262.878 176.323 270.766 178.487 270.766 178.557Z" fill="white"/>
<path d="M268.044 74.7595L266.787 79.5061L266.159 79.3665L266.718 77.2724L264.275 76.6442L263.716 78.7383L263.088 78.5987L264.344 73.8521L264.973 73.9917L264.414 76.016L266.857 76.6442L267.416 74.6199L268.044 74.7595Z" fill="white"/>
<path d="M271.254 79.9947L271.114 80.5531L268.043 79.7155L269.299 74.9689L272.301 75.7367L272.161 76.2951L269.788 75.6669L269.369 77.1328L271.463 77.6912L271.324 78.2496L269.23 77.6912L268.811 79.2269L271.254 79.9947Z" fill="white"/>
<path d="M275.095 80.4135L272.861 79.7853L272.093 80.8323L271.465 80.6927L274.606 76.5045L275.234 76.6441L275.932 81.8794L275.304 81.7398L275.095 80.4135ZM275.025 79.7853L274.746 77.2025L273.21 79.2966L275.025 79.7853Z" fill="white"/>
<path d="M277.745 77.3422L278.373 77.4818L277.257 81.6002L279.56 82.2284L279.421 82.7868L276.559 82.019L277.745 77.3422Z" fill="white"/>
<path d="M281.655 78.9477L280.189 78.5987L280.329 78.0403L283.819 78.9477L283.68 79.5062L282.214 79.1571L281.097 83.2755L280.469 83.1359L281.655 78.9477Z" fill="white"/>
<path d="M288.147 80.0645L286.891 84.8112L286.263 84.6716L286.821 82.5775L284.378 81.9492L283.82 84.0433L283.191 83.9037L284.448 79.1571L285.076 79.2967L284.518 81.321L286.961 81.9492L287.519 79.9249L288.147 80.0645Z" fill="white"/>
<path d="M256.805 82.8566C256.386 84.3225 255.13 85.0205 253.594 84.6017L252.547 84.3225L252.128 85.9978L250.453 85.579L252.198 79.0175L254.851 79.7155C256.386 80.2041 257.154 81.3908 256.805 82.8566ZM255.13 82.4378C255.27 81.8096 255.06 81.3908 254.362 81.1814L253.385 80.972L252.896 82.8566L253.804 83.0661C254.502 83.2755 254.921 82.9962 255.13 82.4378Z" fill="white"/>
<path d="M260.435 86.9053L257.992 86.277L257.224 87.3939L255.549 86.9751L259.877 81.1116L261.482 81.5304L262.32 88.7201L260.575 88.2315L260.435 86.9053ZM260.295 85.3696L260.086 83.0661L258.76 84.9508L260.295 85.3696Z" fill="white"/>
<path d="M262.529 88.1617L263.437 86.9751C263.856 87.4637 264.554 87.9523 265.182 88.1617C265.88 88.3711 266.159 88.2315 266.299 87.8825C266.578 86.8355 263.018 86.6959 263.716 84.3225C263.995 83.1359 265.112 82.4379 266.857 82.8567C267.625 83.0661 268.323 83.4849 268.812 83.9735L267.904 85.23C267.416 84.7414 266.927 84.4622 266.438 84.3225C265.74 84.1131 265.391 84.3225 265.321 84.6716C265.042 85.6488 268.602 85.7884 267.904 88.2315C267.625 89.3484 266.508 90.1162 264.763 89.6276C263.786 89.2786 262.948 88.7202 262.529 88.1617Z" fill="white"/>
<path d="M267.904 89.6276L268.812 88.4409C269.231 88.9295 269.929 89.4181 270.557 89.6276C271.255 89.837 271.534 89.6974 271.674 89.3483C271.953 88.3013 268.393 88.1617 269.091 85.7884C269.37 84.6017 270.487 83.9037 272.232 84.3225C273 84.5319 273.698 84.9507 274.187 85.4394L273.279 86.6958C272.79 86.2072 272.302 85.928 271.813 85.7884C271.115 85.579 270.766 85.7884 270.696 86.1374C270.417 87.1146 273.977 87.2542 273.279 89.6974C273 90.8142 271.883 91.5821 270.138 91.0934C269.231 90.7444 268.323 90.186 267.904 89.6276Z" fill="white"/>
<path d="M279.911 88.9993C279.492 90.4652 278.305 91.1633 276.7 90.7444L275.653 90.4652L275.234 92.1405L273.559 91.7217L275.304 85.1602L277.956 85.8582C279.562 86.3468 280.329 87.5335 279.911 88.9993ZM278.235 88.5805C278.375 87.9523 278.166 87.5335 277.468 87.3241L276.56 87.1147L276.071 88.9993L276.979 89.2088C277.677 89.4182 278.096 89.139 278.235 88.5805Z" fill="white"/>
<path d="M280.33 90.0464C280.818 88.0919 282.633 87.0448 284.448 87.5334C286.333 88.0221 287.31 89.837 286.821 91.7915C286.333 93.7459 284.518 94.793 282.703 94.3044C280.748 93.746 279.771 92.0009 280.33 90.0464ZM285.146 91.3028C285.425 90.186 284.937 89.2785 284.029 88.9993C283.122 88.7899 282.284 89.3483 281.935 90.4652C281.656 91.582 282.145 92.4895 283.052 92.7687C283.959 92.9781 284.797 92.4197 285.146 91.3028Z" fill="white"/>
<path d="M289.821 94.1648L288.914 93.9554L288.425 95.7004L286.75 95.2816L288.495 88.7201L291.148 89.4181C292.753 89.837 293.521 91.0236 293.102 92.5593C292.823 93.5365 292.264 94.095 291.427 94.3044L292.125 96.6777L290.38 96.1891L289.821 94.1648ZM290.729 90.8142L289.821 90.6048L289.333 92.4895L290.24 92.6989C290.938 92.9083 291.357 92.6291 291.497 92.0009C291.636 91.4424 291.427 91.0236 290.729 90.8142Z" fill="white"/>
<path d="M295.475 92.1405L293.66 91.6519L294.079 90.186L299.314 91.5821L298.895 93.048L297.081 92.5594L295.754 97.655L294.079 97.2362L295.475 92.1405Z" fill="white"/>
<path d="M260.644 74.7595C260.644 74.8293 258.899 74.4802 256.805 73.9218C254.711 73.3634 253.036 72.8748 253.106 72.7352C253.106 72.6654 254.851 73.0144 256.945 73.5728C259.039 74.1312 260.714 74.6897 260.644 74.7595Z" fill="white"/>
<path d="M259.946 76.6441C259.946 76.7139 258.271 76.3649 256.247 75.8762C254.223 75.3178 252.617 74.8292 252.617 74.7594C252.617 74.6896 254.292 75.0386 256.317 75.5272C258.341 76.0158 260.016 76.5045 259.946 76.6441Z" fill="white"/>
<path d="M299.594 85.0904C299.594 85.1602 297.848 84.8112 295.754 84.2528C293.66 83.6943 291.985 83.2057 292.055 83.0661C292.055 82.9963 293.8 83.3453 295.894 83.9037C297.988 84.4622 299.663 85.0206 299.594 85.0904Z" fill="white"/>
<path d="M298.896 86.9751C298.896 87.0449 297.22 86.6959 295.196 86.2073C293.172 85.6489 291.566 85.1602 291.566 85.0904C291.566 85.0206 293.242 85.3697 295.266 85.8583C297.29 86.3469 298.896 86.8355 298.896 86.9751Z" fill="white"/>
<path d="M297.708 138.35C297.708 138.35 295.125 143.167 289.82 140.514C289.82 140.444 292.822 135.698 297.708 138.35Z" fill="white"/>
<path d="M292.961 145.4C292.961 145.4 289.401 148.541 285.841 144.772C285.771 144.772 289.68 141.771 292.961 145.4Z" fill="white"/>
<path d="M287.308 150.147C287.308 150.147 282.701 152.381 280.188 147.425C280.118 147.425 285.005 145.47 287.308 150.147Z" fill="white"/>
<path d="M286.61 136.675C286.61 136.675 290.239 139.816 287.028 143.865C286.959 143.865 283.469 140.444 286.61 136.675Z" fill="white"/>
<path d="M284.236 141.98C284.236 141.98 285.562 145.331 281.863 146.936C281.793 146.936 280.676 143.376 284.236 141.98Z" fill="white"/>
<path d="M297.219 131.789C297.219 131.789 296.591 136.047 291.914 135.558C291.914 135.558 292.891 131.16 297.219 131.789Z" fill="white"/>
<path d="M291.914 125.855C291.914 125.855 295.125 128.368 292.472 132.208C292.403 132.208 289.262 129.415 291.914 125.855Z" fill="white"/>
<path d="M288.075 131.37C288.075 131.37 292.751 133.185 290.937 138.35C290.937 138.35 286.26 136.117 288.075 131.37Z" fill="white"/>
<path d="M276.418 147.844C276.558 147.844 276.627 147.844 276.697 147.844C276.837 147.844 277.116 147.844 277.465 147.844C278.093 147.844 279.07 147.704 280.187 147.495C281.304 147.215 282.63 146.727 283.957 146.029C284.655 145.68 285.283 145.261 285.981 144.702C286.121 144.563 286.33 144.423 286.47 144.284C286.539 144.214 286.609 144.144 286.749 144.074C286.819 144.004 286.888 143.935 286.958 143.865C287.098 143.725 287.307 143.586 287.447 143.446C287.586 143.306 287.726 143.167 287.935 142.957C288.005 142.888 288.075 142.818 288.145 142.748C288.215 142.678 288.284 142.608 288.354 142.469C288.494 142.329 288.633 142.12 288.773 141.98C288.913 141.84 289.052 141.631 289.192 141.491C289.262 141.422 289.332 141.352 289.401 141.212C289.471 141.142 289.541 141.073 289.611 140.933C289.75 140.793 289.82 140.584 289.96 140.444C290.099 140.305 290.169 140.095 290.239 139.956C290.309 139.886 290.309 139.816 290.379 139.677C290.448 139.607 290.448 139.537 290.518 139.397C290.588 139.258 290.728 139.048 290.797 138.909C291.495 137.582 291.914 136.256 292.193 135.139C292.473 134.023 292.542 133.115 292.612 132.417C292.612 132.068 292.612 131.859 292.612 131.649C292.612 131.579 292.612 131.51 292.612 131.44C292.612 131.37 292.612 131.37 292.612 131.37C292.612 131.37 292.612 131.37 292.612 131.44C292.612 131.51 292.612 131.579 292.612 131.649C292.612 131.789 292.612 132.068 292.612 132.417C292.542 133.045 292.473 134.023 292.263 135.139C291.984 136.256 291.565 137.582 290.867 138.909C290.797 139.048 290.658 139.258 290.588 139.397C290.518 139.467 290.518 139.537 290.448 139.677C290.379 139.746 290.379 139.816 290.309 139.956C290.239 140.095 290.099 140.305 290.03 140.444C289.89 140.584 289.82 140.793 289.681 140.933C289.611 141.003 289.541 141.073 289.471 141.212C289.401 141.282 289.331 141.352 289.262 141.491C289.122 141.631 288.982 141.84 288.843 141.98C288.703 142.12 288.564 142.329 288.424 142.469C288.354 142.539 288.284 142.608 288.215 142.748C288.145 142.818 288.075 142.888 288.005 142.957C287.866 143.097 287.726 143.237 287.517 143.446C287.377 143.586 287.168 143.725 287.028 143.865C286.958 143.935 286.888 144.004 286.819 144.074C286.749 144.144 286.679 144.214 286.539 144.284C286.4 144.423 286.19 144.563 286.051 144.702C285.353 145.191 284.725 145.61 284.026 146.029C282.7 146.727 281.374 147.215 280.257 147.495C279.14 147.774 278.233 147.844 277.535 147.844C277.186 147.844 276.976 147.844 276.767 147.844C276.558 147.844 276.488 147.844 276.418 147.844Z" fill="white"/>
<path d="M231.465 120.76C231.465 120.76 231.326 126.205 237.259 126.554C237.329 126.554 237.049 120.969 231.465 120.76Z" fill="white"/>
<path d="M232.164 129.276C232.164 129.276 233.7 133.813 238.656 132.277C238.656 132.277 236.771 127.74 232.164 129.276Z" fill="white"/>
<path d="M234.678 136.256C234.678 136.256 237.609 140.444 242.216 137.443C242.216 137.443 239.006 133.325 234.678 136.256Z" fill="white"/>
<path d="M241.935 124.878C241.935 124.878 237.259 125.786 238.027 130.882C238.096 130.882 242.843 129.625 241.935 124.878Z" fill="white"/>
<path d="M241.379 130.602C241.379 130.602 238.586 132.836 241.03 136.117C241.03 136.117 243.752 133.604 241.379 130.602Z" fill="white"/>
<path d="M235.164 115.315C235.164 115.315 233.559 119.364 237.887 121.179C237.887 121.249 239.213 116.991 235.164 115.315Z" fill="white"/>
<path d="M242.702 112.802C242.702 112.802 238.654 113.361 239.142 118.038C239.073 118.038 243.261 117.2 242.702 112.802Z" fill="white"/>
<path d="M243.261 119.503C243.261 119.503 238.305 118.805 237.328 124.11C237.328 124.11 242.494 124.529 243.261 119.503Z" fill="white"/>
<path d="M245.286 139.607C245.216 139.537 245.147 139.537 245.077 139.467C244.937 139.397 244.728 139.258 244.449 139.118C243.89 138.769 243.122 138.211 242.285 137.443C241.447 136.675 240.54 135.628 239.772 134.302C239.353 133.674 239.004 132.976 238.655 132.208C238.585 131.998 238.515 131.789 238.445 131.649C238.376 131.579 238.376 131.44 238.306 131.37C238.236 131.3 238.236 131.161 238.236 131.091C238.166 130.881 238.096 130.672 238.027 130.463C237.957 130.253 237.887 130.044 237.887 129.834C237.887 129.695 237.817 129.625 237.817 129.485C237.817 129.346 237.747 129.276 237.747 129.136C237.678 128.927 237.678 128.718 237.608 128.508C237.608 128.299 237.538 128.089 237.538 127.88C237.538 127.81 237.538 127.67 237.468 127.601C237.468 127.531 237.468 127.391 237.468 127.321C237.468 127.112 237.468 126.903 237.398 126.693C237.398 126.484 237.398 126.274 237.398 126.065C237.398 125.995 237.398 125.856 237.398 125.786C237.398 125.716 237.398 125.576 237.398 125.507C237.398 125.297 237.398 125.088 237.398 124.948C237.468 123.412 237.747 122.086 238.096 120.969C238.445 119.852 238.794 119.015 239.074 118.456C239.213 118.177 239.353 117.968 239.423 117.828C239.493 117.758 239.493 117.689 239.493 117.689C239.493 117.619 239.493 117.619 239.493 117.619C239.493 117.619 239.493 117.619 239.493 117.689C239.493 117.758 239.423 117.758 239.423 117.828C239.353 117.968 239.213 118.177 239.074 118.456C238.794 119.015 238.376 119.852 238.096 120.969C237.747 122.086 237.468 123.412 237.398 124.948C237.398 125.158 237.398 125.297 237.398 125.507C237.398 125.576 237.398 125.716 237.398 125.786C237.398 125.856 237.398 125.995 237.398 126.065C237.398 126.274 237.398 126.484 237.398 126.693C237.398 126.903 237.398 127.112 237.468 127.321C237.468 127.391 237.468 127.531 237.468 127.601C237.468 127.67 237.468 127.81 237.538 127.88C237.538 128.089 237.608 128.299 237.608 128.508C237.678 128.718 237.678 128.927 237.747 129.136C237.747 129.276 237.817 129.346 237.817 129.485C237.817 129.625 237.887 129.695 237.887 129.834C237.957 130.044 238.027 130.253 238.027 130.463C238.096 130.672 238.166 130.881 238.236 131.091C238.236 131.161 238.306 131.3 238.306 131.37C238.376 131.44 238.376 131.579 238.445 131.649C238.515 131.859 238.585 132.068 238.655 132.208C239.004 132.976 239.353 133.674 239.772 134.302C240.54 135.628 241.447 136.675 242.285 137.443C243.122 138.211 243.89 138.769 244.449 139.118C244.728 139.258 244.937 139.397 245.077 139.467C245.147 139.537 245.216 139.537 245.286 139.607Z" fill="white"/>
<path d="M202.289 243.055L119.712 242.986C109.8 242.986 101.703 234.958 101.703 224.976L101.773 17.9395C101.773 8.02737 109.8 -0.0698242 119.782 -0.0698242L202.359 -2.08169e-05C212.271 -2.08169e-05 220.368 8.02737 220.368 18.0093L220.298 225.046C220.298 235.028 212.201 243.055 202.289 243.055Z" fill="#263238"/>
<path d="M202.288 7.39911H186.303C184.139 7.39911 182.394 9.214 182.394 11.4477V14.3794C182.394 16.6132 180.649 18.428 178.485 18.428H147.283C145.119 18.428 143.374 16.6132 143.374 14.3794V11.4477C143.374 9.214 141.629 7.39911 139.465 7.39911H133.811H119.781C112.801 7.39911 107.146 13.0532 107.146 19.9637L107.216 221.975C107.216 228.955 112.87 234.539 119.781 234.609L202.218 234.679C209.198 234.679 214.852 229.025 214.852 222.114L214.922 20.0335C214.852 12.9834 209.198 7.39911 202.288 7.39911Z" fill="white"/>
<path d="M214.854 19.9638C214.854 12.9834 209.2 7.39915 202.289 7.32935H186.304C184.14 7.32935 182.395 9.14423 182.395 11.3779V14.3097C182.395 16.5434 180.65 18.3583 178.486 18.3583H147.285C145.121 18.3583 143.376 16.5434 143.376 14.3097V11.3779C143.376 9.14423 141.63 7.32935 139.467 7.32935H133.813H119.782C112.802 7.32935 107.148 12.9834 107.148 19.894L107.078 39.2295H214.714L214.854 19.9638Z" fill="#F5F5F5"/>
<path d="M125.158 128.019V131.928H129.067V128.019V124.11H125.158V128.019Z" fill="#263238"/>
<path d="M129.067 104.565H125.158V108.474H129.067V104.565Z" fill="#263238"/>
<path d="M153.219 147.634H149.311V151.543H153.219V147.634Z" fill="#263238"/>
<path d="M129.067 112.383V116.292H125.158V120.201H129.067V124.11H132.976H136.885V128.019H140.794V124.11H144.703V120.201V116.292H140.794V120.201H136.885H132.976V116.292V112.383V108.474H129.067V112.383Z" fill="#263238"/>
<path d="M136.886 104.565H132.977V108.474H136.886H140.794V104.565H136.886Z" fill="#263238"/>
<path d="M154.475 135.977H156.569V132.068H154.475H152.381V135.977H154.475Z" fill="#263238"/>
<path d="M144.702 108.474H140.793V112.383H144.702V108.474Z" fill="#263238"/>
<path d="M172.067 124.11H168.158V128.019H172.067V124.11Z" fill="#263238"/>
<path d="M175.975 81.1813H172.066V85.0903H175.975V81.1813Z" fill="#263238"/>
<path d="M152.521 112.383V108.474H156.43V104.565H152.521V100.656H148.612V104.565H144.703V108.474H148.612V112.383V116.292V120.201V124.11H152.521V120.201V116.292H156.43V112.383H152.521Z" fill="#263238"/>
<path d="M172.067 151.473H175.976V147.564H172.067H168.158V151.473H172.067Z" fill="#263238"/>
<path d="M168.157 81.1813H164.248V85.0903H168.157V81.1813Z" fill="#263238"/>
<path d="M167.18 112.383V108.474H163.271V104.565H159.362V108.474V112.383H155.453V116.292H159.362H163.271V112.383H167.18Z" fill="#263238"/>
<path d="M189.239 104.565H185.33V108.474H189.239V104.565Z" fill="#263238"/>
<path d="M148.753 124.11H144.844V128.019H148.753V124.11Z" fill="#263238"/>
<path d="M164.248 100.656V96.7475H168.157V92.8385H172.065H175.974V88.9295H172.065V85.0205H168.157V88.9295H164.248V92.8385H160.339V96.7475H156.43V100.656H160.339H164.248Z" fill="#263238"/>
<path d="M164.248 128.019V124.11H168.157V120.201H164.248H160.339V124.11H156.43V128.019H160.339H164.248Z" fill="#263238"/>
<path d="M175.975 143.655V139.746H172.066H168.157V135.837H164.248V139.746H160.339V143.655H156.43H152.521V147.564H156.43H160.339H164.248V143.655H168.157V147.564H172.066V143.655H175.975Z" fill="#263238"/>
<path d="M160.338 85.0205V81.1813H156.429H152.52V85.0205H148.611V88.9295H152.52H156.429V85.0205H160.338Z" fill="#263238"/>
<path d="M160.339 88.9294H156.43V92.8384H160.339V88.9294Z" fill="#263238"/>
<path d="M170.11 104.565H166.201V108.474V112.383V116.292H170.11H174.019V112.383H170.11V108.474H174.019V104.565H177.928V100.656H174.019V96.7474H170.11V100.656V104.565Z" fill="#263238"/>
<path d="M156.43 92.8384H152.521V96.7474H156.43V92.8384Z" fill="#263238"/>
<path d="M168.158 131.928V135.837H172.067H175.976V131.928H179.885H183.794V128.019H179.885H175.976H172.067V131.928H168.158Z" fill="#263238"/>
<path d="M189.239 116.292H185.33V120.201H189.239V116.292Z" fill="#263238"/>
<path d="M175.975 120.201H172.066V124.11H175.975V120.201Z" fill="#263238"/>
<path d="M185.748 108.474H181.839H177.93V112.383H181.839V116.292H185.748V112.383V108.474Z" fill="#263238"/>
<path d="M183.792 120.201H179.883V124.11H183.792V120.201Z" fill="#263238"/>
<path d="M140.794 143.725H152.521V128.019H136.816V131.928H132.977V135.837H136.816V139.746H132.977V143.655H136.816V143.725H136.886V147.564H132.977V151.473V155.382H136.886V151.473H140.794V147.564V143.725ZM149.52 131.021V140.793H139.747V131.021H149.52Z" fill="#263238"/>
<path d="M191.611 128.019H195.52V124.11H191.611H187.702H183.793V128.019H187.702H191.611Z" fill="#263238"/>
<path d="M191.611 112.383H195.52V108.474V104.565H191.611V108.474V112.383Z" fill="#263238"/>
<path d="M160.479 132.068H156.57V135.977V139.886H160.479V135.977V132.068Z" fill="#263238"/>
<path d="M199.428 128.019H195.52V131.928H199.428V128.019Z" fill="#263238"/>
<path d="M199.428 120.201V116.292H195.52V120.201V124.11H199.428V120.201Z" fill="#263238"/>
<path d="M129.067 147.564H125.158V151.473V155.382H129.067V151.473V147.564Z" fill="#263238"/>
<path d="M199.428 100.656V81.1115H179.883V100.656H199.428ZM182.815 97.7247V84.0432H196.496V97.7247H182.815Z" fill="#263238"/>
<path d="M193.564 86.975H185.746V94.7929H193.564V86.975Z" fill="#263238"/>
<path d="M199.428 135.837H179.883V155.382H199.428V135.837ZM182.815 152.45V138.769H196.496V152.45H182.815Z" fill="#263238"/>
<path d="M193.564 141.701H185.746V149.519H193.564V141.701Z" fill="#263238"/>
<path d="M125.158 81.1813V100.726H144.703V81.1813H125.158ZM141.771 84.0432V97.7247H128.09V84.0432H141.771Z" fill="#263238"/>
<path d="M138.839 86.975H131.021V94.7929H138.839V86.975Z" fill="#263238"/>
<path d="M119.573 94.7929C119.573 90.1859 119.573 85.509 119.573 80.902C119.573 79.5758 119.783 78.3891 120.69 77.342C121.667 76.2252 123.063 75.7366 124.459 75.7366C126.972 75.7366 129.485 75.7366 131.998 75.7366C134.371 75.7366 136.675 75.7366 139.048 75.7366C139.607 75.7366 139.607 74.8989 139.048 74.8989C134.232 74.8989 129.415 74.8989 124.599 74.8989C123.343 74.8989 122.156 75.1083 121.109 75.8064C119.573 76.8534 118.666 78.5287 118.666 80.3436C118.596 82.6471 118.666 84.8808 118.666 87.1843C118.666 89.6973 118.666 92.2102 118.666 94.7231C118.666 95.3513 119.573 95.3513 119.573 94.7929Z" fill="#EDE059"/>
<path d="M137.792 162.014C133.185 162.014 128.508 162.014 123.901 162.014C122.575 162.014 121.389 161.804 120.342 160.897C119.225 159.919 118.736 158.523 118.736 157.127C118.736 154.614 118.736 152.102 118.736 149.589C118.736 147.215 118.736 144.912 118.736 142.538C118.736 141.98 117.898 141.98 117.898 142.538C117.898 147.355 117.898 152.171 117.898 156.988C117.898 158.244 118.108 159.431 118.806 160.478C119.853 162.014 121.528 162.921 123.343 162.921C125.647 162.991 127.88 162.921 130.184 162.921C132.697 162.921 135.21 162.921 137.722 162.921C138.351 162.851 138.351 162.014 137.792 162.014Z" fill="#EDE059"/>
<path d="M204.595 142.329C204.595 146.936 204.595 151.613 204.595 156.22C204.595 157.546 204.386 158.733 203.478 159.78C202.501 160.897 201.105 161.385 199.709 161.385C197.196 161.385 194.683 161.385 192.17 161.385C189.797 161.385 187.493 161.385 185.12 161.385C184.562 161.385 184.562 162.223 185.12 162.223C189.936 162.223 194.753 162.223 199.569 162.223C200.826 162.223 202.012 162.014 203.059 161.316C204.595 160.269 205.502 158.593 205.502 156.778C205.572 154.475 205.502 152.241 205.502 149.938C205.502 147.425 205.502 144.912 205.502 142.399C205.433 141.771 204.595 141.771 204.595 142.329Z" fill="#EDE059"/>
<path d="M185.328 75.8064C189.935 75.8064 194.612 75.8064 199.219 75.8064C200.545 75.8064 201.732 76.0158 202.779 76.9232C203.896 77.9005 204.385 79.2966 204.385 80.6926C204.385 83.2055 204.385 85.7185 204.385 88.2314C204.385 90.6047 204.385 92.9082 204.385 95.2815C204.385 95.84 205.222 95.84 205.222 95.2815C205.222 90.4651 205.222 85.6487 205.222 80.8322C205.222 79.5758 205.013 78.3891 204.315 77.3421C203.268 75.8064 201.592 74.8989 199.778 74.8989C197.474 74.8291 195.24 74.8989 192.937 74.8989C190.424 74.8989 187.911 74.8989 185.398 74.8989C184.77 74.8989 184.77 75.8064 185.328 75.8064Z" fill="#EDE059"/>
<path d="M133.532 49.5604V54.2373H133.043V52.0733H130.112V54.2373H129.623V49.5604H130.112V51.6545H133.043V49.5604H133.532Z" fill="#263238"/>
<path d="M138.347 53.8184V54.2373H135.066V49.5604H138.277V49.9792H135.555V51.6545H137.998V52.0733H135.555V53.8184H138.347Z" fill="#263238"/>
<path d="M142.468 52.9808H139.885L139.327 54.2373H138.838L141.002 49.5604H141.49L143.654 54.2373H143.166L142.468 52.9808ZM142.258 52.6318L141.141 50.1189L140.025 52.6318H142.258Z" fill="#263238"/>
<path d="M144.281 49.5604H144.769V53.8184H147.352V54.2373H144.211V49.5604H144.281Z" fill="#263238"/>
<path d="M148.679 50.049H147.004V49.5604H150.773V49.9792H149.098V54.2373H148.679V50.049Z" fill="#263238"/>
<path d="M155.52 49.5604V54.2373H155.032V52.0733H152.1V54.2373H151.611V49.5604H152.1V51.6545H155.032V49.5604H155.52Z" fill="#263238"/>
<path d="M162.431 51.1659C162.431 52.1432 161.733 52.7714 160.546 52.7714H159.289V54.2373H158.801V49.5604H160.546C161.733 49.5604 162.431 50.1887 162.431 51.1659ZM161.942 51.1659C161.942 50.3981 161.453 49.9792 160.546 49.9792H159.289V52.3526H160.546C161.453 52.3526 161.942 51.9337 161.942 51.1659Z" fill="#263238"/>
<path d="M166.2 52.9808H163.617L163.059 54.2373H162.57L164.734 49.5604H165.223L167.387 54.2373H166.898L166.2 52.9808ZM166.06 52.6318L164.944 50.1189L163.827 52.6318H166.06Z" fill="#263238"/>
<path d="M167.596 53.6788L167.805 53.3298C168.154 53.6788 168.713 53.8882 169.341 53.8882C170.248 53.8882 170.597 53.5392 170.597 53.0506C170.597 51.7941 167.735 52.562 167.735 50.8169C167.735 50.1189 168.294 49.5604 169.48 49.5604C170.039 49.5604 170.527 49.7 170.946 49.9792L170.807 50.3981C170.388 50.1188 169.969 49.9792 169.55 49.9792C168.713 49.9792 168.294 50.3283 168.294 50.8169C168.294 52.0733 171.156 51.3055 171.156 53.0506C171.156 53.7486 170.597 54.3071 169.411 54.3071C168.643 54.3071 167.945 54.0278 167.596 53.6788Z" fill="#263238"/>
<path d="M171.713 53.6788L171.922 53.3298C172.271 53.6788 172.83 53.8882 173.458 53.8882C174.365 53.8882 174.714 53.5392 174.714 53.0506C174.714 51.7941 171.852 52.562 171.852 50.8169C171.852 50.1189 172.411 49.5604 173.598 49.5604C174.156 49.5604 174.645 49.7 175.063 49.9792L174.924 50.3981C174.505 50.1188 174.086 49.9792 173.667 49.9792C172.83 49.9792 172.411 50.3283 172.411 50.8169C172.411 52.0733 175.273 51.3055 175.273 53.0506C175.273 53.7486 174.714 54.3071 173.528 54.3071C172.76 54.3071 172.062 54.0278 171.713 53.6788Z" fill="#263238"/>
<path d="M179.95 51.1659C179.95 52.1432 179.252 52.7714 178.065 52.7714H176.809V54.2373H176.32V49.5604H178.065C179.182 49.5604 179.95 50.1887 179.95 51.1659ZM179.392 51.1659C179.392 50.3981 178.903 49.9792 177.996 49.9792H176.739V52.3526H177.996C178.903 52.3526 179.392 51.9337 179.392 51.1659Z" fill="#263238"/>
<path d="M180.648 51.9337C180.648 50.6075 181.695 49.5604 183.092 49.5604C184.488 49.5604 185.535 50.5377 185.535 51.9337C185.535 53.3298 184.488 54.3071 183.092 54.3071C181.695 54.3071 180.648 53.26 180.648 51.9337ZM185.046 51.9337C185.046 50.8169 184.208 49.9792 183.092 49.9792C181.975 49.9792 181.137 50.8169 181.137 51.9337C181.137 53.0506 181.975 53.8882 183.092 53.8882C184.208 53.8882 185.046 53.0506 185.046 51.9337Z" fill="#263238"/>
<path d="M189.862 54.2373L188.815 52.7714C188.675 52.7714 188.605 52.7714 188.466 52.7714H187.209V54.2373H186.721V49.5604H188.466C189.652 49.5604 190.35 50.1887 190.35 51.1659C190.35 51.9337 189.932 52.4224 189.303 52.6318L190.42 54.2373H189.862ZM189.792 51.1659C189.792 50.3981 189.303 49.9792 188.396 49.9792H187.14V52.3526H188.396C189.303 52.3526 189.792 51.9337 189.792 51.1659Z" fill="#263238"/>
<path d="M192.307 50.049H190.701V49.5604H194.471V49.9792H192.865V54.2373H192.376V50.049H192.307Z" fill="#263238"/>
<path d="M195.867 192.587H127.53C121.388 192.587 116.432 187.631 116.432 181.489C116.432 175.346 121.388 170.39 127.53 170.39H195.867C202.01 170.39 206.966 175.346 206.966 181.489C206.896 187.631 201.94 192.587 195.867 192.587Z" fill="#EDE059"/>
<path d="M144.074 178.487H145.121V183.722H144.074V178.487Z" fill="white"/>
<path d="M150.496 183.722V180.581L149.1 183.164H148.612L147.216 180.651V183.722H146.238V178.487H147.146L148.891 181.698L150.636 178.487H151.543V183.722H150.496Z" fill="white"/>
<path d="M156.85 183.722V180.581L155.454 183.164H154.965L153.569 180.651V183.722H152.592V178.487H153.499L155.244 181.698L156.989 178.487H157.897V183.722H156.85Z" fill="white"/>
<path d="M158.941 181.419V178.487H159.988V181.349C159.988 182.326 160.407 182.745 161.035 182.745C161.664 182.745 162.083 182.326 162.083 181.349V178.487H163.13V181.419C163.13 182.955 162.362 183.792 161.035 183.792C159.709 183.792 158.941 182.955 158.941 181.419Z" fill="white"/>
<path d="M168.504 178.487V183.722H167.597L165.293 180.581V183.722H164.246V178.487H165.154L167.457 181.628V178.487H168.504Z" fill="white"/>
<path d="M169.553 178.487H170.6V183.722H169.553V178.487Z" fill="white"/>
<path d="M172.763 179.464H171.297V178.487H175.345V179.464H173.81V183.653H172.763V179.464Z" fill="white"/>
<path d="M177.999 181.838V183.653H176.952V181.768L175.137 178.417H176.254L177.51 180.721L178.766 178.417H179.813L177.999 181.838Z" fill="white"/>
<path d="M145.051 62.6135C145.051 60.8685 146.237 59.612 147.843 59.612C148.82 59.612 149.518 60.0308 150.077 60.6591L149.169 61.5665C148.82 61.1477 148.471 60.8685 147.982 60.8685C147.145 60.8685 146.586 61.4967 146.586 62.4739C146.586 63.4512 147.145 64.0794 147.982 64.0794C148.471 64.0794 148.89 63.87 149.169 63.3814L150.077 64.2888C149.588 64.9869 148.82 65.3359 147.843 65.3359C146.307 65.5453 145.051 64.3586 145.051 62.6135Z" fill="#EDE059"/>
<path d="M150.355 62.6135C150.355 60.8685 151.542 59.612 153.217 59.612C154.823 59.612 156.079 60.8685 156.079 62.6135C156.079 64.3586 154.893 65.6151 153.217 65.6151C151.612 65.5453 150.355 64.2888 150.355 62.6135ZM154.613 62.6135C154.613 61.6363 153.985 61.0081 153.217 61.0081C152.45 61.0081 151.821 61.6363 151.821 62.6135C151.821 63.5908 152.45 64.219 153.217 64.219C153.985 64.219 154.613 63.5908 154.613 62.6135Z" fill="#EDE059"/>
<path d="M161.872 59.7516L159.708 65.4755H158.312L156.148 59.7516H157.684L159.08 63.4512L160.476 59.7516H161.872Z" fill="#EDE059"/>
<path d="M162.152 59.7516H163.618V65.4755H162.152V59.7516Z" fill="#EDE059"/>
<path d="M164.596 59.7516H167.039C168.714 59.7516 169.901 60.8685 169.901 62.6136C169.901 64.3587 168.714 65.4755 167.039 65.4755H164.596V59.7516ZM166.969 64.1493C167.807 64.1493 168.435 63.5908 168.435 62.6136C168.435 61.6363 167.876 61.0779 166.969 61.0779H166.062V64.2191H166.969V64.1493Z" fill="#EDE059"/>
<path d="M170.529 62.5438H172.693V63.7304H170.529V62.5438Z" fill="#EDE059"/>
<path d="M175.275 59.7516V65.4755H173.809V61.0081H172.832V59.7516H175.275Z" fill="#EDE059"/>
<path d="M180.301 62.4042C180.301 64.4285 179.184 65.5453 177.579 65.5453C177.02 65.5453 176.462 65.4057 176.113 65.1265L176.671 63.9398C176.95 64.1493 177.299 64.2191 177.648 64.2191C178.346 64.2191 178.835 63.7304 178.905 62.8928C178.626 63.172 178.207 63.3116 177.788 63.3116C176.811 63.3116 176.043 62.6136 176.043 61.4967C176.043 60.3101 176.95 59.5422 178.067 59.5422C179.394 59.612 180.301 60.5893 180.301 62.4042ZM178.765 61.4967C178.765 61.0779 178.486 60.7987 178.067 60.7987C177.648 60.7987 177.369 61.0779 177.369 61.4967C177.369 61.9155 177.648 62.1948 178.067 62.1948C178.486 62.1948 178.765 61.9155 178.765 61.4967Z" fill="#EDE059"/>
<path d="M174.577 211.434C174.507 211.434 174.576 210.248 174.088 208.293C173.878 207.316 173.39 206.129 172.622 204.873C171.854 203.616 170.807 202.36 169.341 201.243C167.875 200.126 166.061 199.219 163.966 198.87C161.872 198.521 159.499 198.591 157.265 199.428C156.149 199.847 155.032 200.406 154.054 201.173C153.566 201.522 153.077 201.941 152.589 202.43C152.17 202.918 151.681 203.337 151.332 203.896C149.797 205.99 148.889 208.642 148.889 211.434C148.889 214.227 149.797 216.879 151.332 218.973C151.681 219.532 152.17 219.95 152.589 220.439C153.077 220.858 153.496 221.347 154.054 221.696C155.032 222.463 156.149 223.022 157.265 223.441C159.499 224.278 161.872 224.348 163.966 223.999C166.061 223.65 167.875 222.743 169.341 221.626C170.807 220.509 171.854 219.252 172.622 217.996C173.39 216.739 173.809 215.553 174.088 214.576C174.646 212.551 174.507 211.434 174.577 211.434C174.577 211.434 174.577 211.504 174.577 211.644C174.577 211.783 174.577 211.993 174.577 212.272C174.577 212.551 174.577 212.9 174.507 213.249C174.437 213.668 174.437 214.087 174.227 214.576C174.018 215.553 173.529 216.809 172.831 218.066C172.064 219.322 171.017 220.648 169.551 221.765C168.085 222.882 166.2 223.859 164.106 224.208C161.942 224.557 159.569 224.557 157.265 223.65C156.079 223.231 154.962 222.673 153.985 221.905C153.426 221.556 153.007 221.067 152.519 220.648C152.1 220.16 151.611 219.671 151.262 219.113C149.657 216.949 148.749 214.227 148.68 211.365C148.68 208.503 149.587 205.78 151.262 203.616C151.611 203.058 152.1 202.569 152.519 202.081C153.007 201.662 153.496 201.173 153.985 200.824C155.032 200.057 156.149 199.428 157.265 199.079C159.569 198.242 162.012 198.172 164.106 198.521C166.27 198.94 168.085 199.847 169.551 200.964C171.017 202.081 172.064 203.407 172.831 204.664C173.529 205.92 174.018 207.107 174.227 208.154C174.367 208.642 174.437 209.131 174.507 209.48C174.577 209.899 174.577 210.178 174.577 210.457C174.577 210.736 174.577 210.946 174.577 211.085C174.577 211.365 174.577 211.434 174.577 211.434Z" fill="#EDE059"/>
<path d="M161.175 216.809L154.963 211.435L156.848 209.271L161.036 212.831L167.597 206.06L169.621 208.014L161.175 216.809Z" fill="#EDE059"/>
<path d="M206.128 27.0837C206.128 27.1535 204.174 27.2233 201.8 27.2233C199.427 27.2233 197.473 27.2233 197.473 27.1535C197.473 27.0837 199.427 27.0139 201.8 27.0139C204.174 26.9441 206.128 27.0139 206.128 27.0837Z" fill="#263238"/>
<path d="M206.128 29.2476C206.128 29.3174 204.174 29.3872 201.8 29.3872C199.427 29.3872 197.473 29.3872 197.473 29.3174C197.473 29.2476 199.427 29.1778 201.8 29.1778C204.174 29.1778 206.128 29.2476 206.128 29.2476Z" fill="#263238"/>
<path d="M206.128 31.4813C206.128 31.5511 204.174 31.6209 201.8 31.6209C199.427 31.6209 197.473 31.6209 197.473 31.5511C197.473 31.4813 199.427 31.4115 201.8 31.4115C204.174 31.4115 206.128 31.4115 206.128 31.4813Z" fill="#263238"/>
<path d="M135.626 170.739H132.834V235.237H135.626V170.739Z" fill="#263238"/>
<path d="M112.452 173.112H109.66V237.611H112.452V173.112Z" fill="#263238"/>
<path d="M136.325 176.533H132.137V170.32C132.137 170.111 131.997 169.971 131.788 169.971H113.43C113.22 169.971 113.081 170.111 113.081 170.32V175.486H108.893V170.32C108.893 167.807 110.917 165.783 113.43 165.783H131.788C134.301 165.783 136.325 167.807 136.325 170.32V176.533Z" fill="#455A64"/>
<path d="M109.45 310.904C109.45 313.278 107.496 315.232 105.123 315.232C102.749 315.232 100.795 313.278 100.795 310.904C100.795 308.531 102.749 306.577 105.123 306.577C107.496 306.577 109.45 308.531 109.45 310.904Z" fill="#263238"/>
<path d="M146.865 310.904C146.865 313.278 144.91 315.232 142.537 315.232C140.163 315.232 138.209 313.278 138.209 310.904C138.209 308.531 140.163 306.577 142.537 306.577C144.91 306.577 146.865 308.531 146.865 310.904Z" fill="#263238"/>
<path d="M153.355 278.306V246.406C155.17 246.406 156.706 247.872 156.706 249.757V275.025C156.706 276.77 155.17 278.306 153.355 278.306Z" fill="#263238"/>
<path d="M145.12 308.81H101.493C96.1183 308.81 91.7207 304.413 91.7207 299.038V229.374C91.7207 223.999 96.1183 219.602 101.493 219.602H145.12C150.495 219.602 154.892 223.999 154.892 229.374V299.038C154.892 304.482 150.495 308.81 145.12 308.81Z" fill="#455A64"/>
<path d="M154.822 230.84C154.822 230.91 140.722 231.049 123.272 231.049C105.821 231.049 91.7207 230.98 91.7207 230.84C91.7207 230.7 105.821 230.631 123.272 230.631C140.652 230.631 154.822 230.7 154.822 230.84Z" fill="#263238"/>
<path d="M154.822 240.263C154.822 240.333 140.722 240.473 123.272 240.473C105.821 240.473 91.7207 240.403 91.7207 240.263C91.7207 240.124 105.821 240.054 123.272 240.054C140.652 240.054 154.822 240.124 154.822 240.263Z" fill="#263238"/>
<path d="M154.822 249.687C154.822 249.757 140.722 249.896 123.272 249.896C105.821 249.896 91.7207 249.826 91.7207 249.687C91.7207 249.617 105.821 249.477 123.272 249.477C140.652 249.477 154.822 249.547 154.822 249.687Z" fill="#263238"/>
<path d="M154.822 259.04C154.822 259.11 140.722 259.25 123.272 259.25C105.821 259.25 91.7207 259.18 91.7207 259.04C91.7207 258.971 105.821 258.831 123.272 258.831C140.652 258.901 154.822 258.971 154.822 259.04Z" fill="#263238"/>
<path d="M154.822 268.464C154.822 268.534 140.722 268.673 123.272 268.673C105.821 268.673 91.7207 268.604 91.7207 268.464C91.7207 268.394 105.821 268.255 123.272 268.255C140.652 268.324 154.822 268.394 154.822 268.464Z" fill="#263238"/>
<path d="M154.822 277.887C154.822 277.957 140.722 278.097 123.272 278.097C105.821 278.097 91.7207 278.027 91.7207 277.887C91.7207 277.748 105.821 277.678 123.272 277.678C140.652 277.748 154.822 277.818 154.822 277.887Z" fill="#263238"/>
<path d="M154.822 287.311C154.822 287.381 140.722 287.52 123.272 287.52C105.821 287.52 91.7207 287.45 91.7207 287.311C91.7207 287.171 105.821 287.101 123.272 287.101C140.652 287.171 154.822 287.241 154.822 287.311Z" fill="#263238"/>
<path d="M154.822 296.734C154.822 296.804 140.722 296.944 123.272 296.944C105.821 296.944 91.7207 296.874 91.7207 296.734C91.7207 296.665 105.821 296.525 123.272 296.525C140.652 296.525 154.822 296.665 154.822 296.734Z" fill="#263238"/>
<path d="M130.393 244.382H116.293V246.964H130.393V244.382Z" fill="white"/>
<path d="M44.673 53.8184C44.673 53.8184 43.4863 55.4239 43.4863 58.3556C43.4863 59.8913 44.5334 63.1023 47.3255 63.2419C46.5577 67.7093 49.4894 71.0599 54.2359 71.0599C59.0523 71.0599 64.497 62.8231 68.9643 61.078L81.8778 57.6576C82.9947 57.3784 83.4833 55.9823 83.4833 54.8655C83.4833 53.6788 83.1343 52.4922 83.5531 51.3753C84.1115 49.9094 85.8566 49.0718 86.415 47.6059C87.113 45.9306 86.066 44.0459 84.8794 42.7197C83.6927 41.3934 82.2269 40.0672 81.8778 38.3221C81.5288 36.7166 82.157 34.8319 81.3194 33.4358C80.3422 31.6209 77.6897 31.4115 76.503 29.806C75.9446 29.0382 75.7352 27.9912 75.1768 27.1535C74.1995 25.7575 72.2451 25.4084 70.5698 25.6178C68.8945 25.8273 67.2891 26.3857 65.6138 26.5253C63.3103 26.6649 60.937 25.9669 58.7033 26.5951C56.2602 27.3629 54.7944 29.5268 53.1889 31.6209L51.0948 34.0641C50.676 34.4829 50.1874 34.8319 49.6988 35.1809C48.7913 35.7393 47.8141 36.1582 47.0463 36.8562C45.4408 38.3919 45.5804 41.3934 47.3255 42.7895C45.5106 43.3479 44.2542 45.2326 44.3938 47.1173C44.3938 47.1173 44.1844 49.2812 45.5106 50.1886C45.5106 50.1188 43.5561 51.5847 44.673 53.8184Z" fill="#263238"/>
<path d="M53.3274 58.2161C52.2804 54.9353 51.2333 51.6546 50.7447 48.2342C50.2561 44.8138 50.3957 41.2539 51.5823 38.0429C51.7917 37.5543 53.3274 34.2735 53.816 34.3433C54.165 34.4131 53.2576 37.4147 53.3972 37.7637C55.2121 40.835 55.7007 44.5346 55.3517 48.0946C55.0725 51.5848 54.3744 54.7957 53.3274 58.2161Z" fill="#263238"/>
<path d="M61.7736 88.1617C54.1651 87.1845 53.3275 74.9689 53.3275 74.9689L52.9785 45.0232C52.6992 36.4374 57.4458 29.0383 66.1014 29.0383L66.8692 29.1081C74.8965 29.5269 81.2485 36.0186 81.458 44.046C81.6674 51.515 81.807 59.7518 81.5278 63.7306C80.9693 71.9674 72.6628 72.805 72.6628 72.805C72.6628 72.805 72.4534 74.6897 72.593 77.1328C73.0816 85.9978 63.9375 88.3712 61.7736 88.1617Z" fill="#FFBE9D"/>
<path d="M72.6628 72.8749C72.6628 72.8749 67.4275 72.8749 62.0527 69.1055C62.0527 69.1055 64.3562 75.2482 72.6628 74.969V72.8749Z" fill="#EB996E"/>
<path d="M79.2932 50.8867C79.2932 51.5149 78.7348 52.0035 78.1066 52.0035C77.4783 52.0035 76.9199 51.5149 76.9199 50.8867C76.9199 50.2585 77.4783 49.7698 78.1066 49.7698C78.8046 49.7 79.2932 50.2585 79.2932 50.8867Z" fill="#263238"/>
<path d="M79.5045 47.3965C79.3649 47.5361 78.4574 46.8381 77.201 46.7683C75.9445 46.6985 74.9673 47.2569 74.8277 47.1173C74.7579 47.0475 74.8975 46.7683 75.3163 46.4891C75.7351 46.2098 76.4332 46.0004 77.201 46.0004C77.9688 46.0702 78.6668 46.3494 79.0159 46.6985C79.5045 47.0475 79.5743 47.3267 79.5045 47.3965Z" fill="#263238"/>
<path d="M67.3577 50.8867C67.3577 51.5149 66.7992 52.0035 66.171 52.0035C65.5428 52.0035 64.9844 51.5149 64.9844 50.8867C64.9844 50.2585 65.5428 49.7698 66.171 49.7698C66.869 49.7 67.3577 50.2585 67.3577 50.8867Z" fill="#263238"/>
<path d="M67.0787 47.2569C66.9391 47.3965 66.0317 46.6985 64.7752 46.6287C63.5188 46.5589 62.5415 47.1173 62.4019 46.9777C62.3321 46.9079 62.4717 46.6287 62.8905 46.3495C63.3093 46.0703 64.0074 45.8608 64.7752 45.8608C65.543 45.9306 66.2411 46.2099 66.5901 46.5589C67.0089 46.9079 67.1485 47.1871 67.0787 47.2569Z" fill="#263238"/>
<path d="M71.1285 57.2388C71.1285 57.169 71.8963 57.0992 73.2226 56.9596C73.5716 56.9596 73.8508 56.8898 73.9206 56.6804C73.9904 56.471 73.9206 56.122 73.781 55.7031C73.5018 54.9353 73.2226 54.0976 72.9434 53.1902C71.8265 49.6302 70.9889 46.6985 71.1285 46.6287C71.2681 46.5589 72.3151 49.4208 73.432 53.0506C73.7112 53.958 73.9904 54.7957 74.1998 55.5635C74.2696 55.9125 74.479 56.4012 74.2696 56.82C74.1998 57.0294 73.9206 57.2388 73.7112 57.2388C73.5018 57.3086 73.2924 57.3086 73.1528 57.3086C71.8963 57.3784 71.1285 57.3086 71.1285 57.2388Z" fill="#263238"/>
<path d="M67.289 57.9369C67.4984 57.9369 67.4286 59.333 68.5454 60.38C69.6623 61.4271 71.1281 61.3573 71.1281 61.5667C71.1281 61.6365 70.7791 61.8459 70.1509 61.7761C69.5227 61.7761 68.685 61.4969 67.987 60.8686C67.289 60.2404 67.0098 59.4028 67.0098 58.8443C67.0796 58.2859 67.2192 57.9369 67.289 57.9369Z" fill="#263238"/>
<path d="M67.2886 42.0915C67.149 42.4405 65.8926 42.2311 64.3569 42.3009C62.8911 42.3707 61.6346 42.7197 61.4252 42.4405C61.3554 42.3009 61.5648 41.9519 62.0534 41.6726C62.542 41.3934 63.3099 41.1142 64.2173 41.0444C65.1247 40.9746 65.8926 41.184 66.451 41.4632C67.0792 41.6726 67.3584 41.9519 67.2886 42.0915Z" fill="#263238"/>
<path d="M79.2258 43.1385C79.0164 43.4177 78.1089 43.0687 77.0619 42.9989C76.0148 42.8593 75.1074 43.0687 74.898 42.7895C74.8282 42.6499 74.9678 42.3707 75.3866 42.0915C75.8054 41.8123 76.4337 41.6727 77.1317 41.7425C77.8297 41.8123 78.4579 42.0915 78.8069 42.4405C79.2258 42.7197 79.3654 43.0687 79.2258 43.1385Z" fill="#263238"/>
<path d="M53.3279 51.2357C53.1883 51.1659 47.7437 49.2812 47.6041 54.9353C47.4645 60.5894 53.1883 59.5423 53.1883 59.4027C53.2581 59.1933 53.3279 51.2357 53.3279 51.2357Z" fill="#FFBE9D"/>
<path d="M51.5129 57.169C51.5129 57.169 51.4431 57.2388 51.2337 57.3086C51.0941 57.3784 50.8149 57.4482 50.4659 57.3086C49.9074 57.0992 49.4188 56.1219 49.4188 55.0749C49.4188 54.5863 49.5584 54.0976 49.698 53.6788C49.9074 53.26 50.1867 52.9808 50.4659 52.911C50.7451 52.8412 50.9545 53.0506 51.0243 53.1902C51.0941 53.3298 51.0243 53.4694 51.0941 53.4694C51.0941 53.4694 51.2337 53.3996 51.1639 53.1204C51.1639 52.9808 51.0941 52.8412 50.9545 52.7714C50.8149 52.6318 50.6055 52.6318 50.3961 52.6318C49.9772 52.6318 49.5584 53.0506 49.349 53.4694C49.1396 53.8882 49 54.4467 49 55.0051C49 56.1219 49.5584 57.2388 50.3961 57.4482C50.8149 57.5878 51.0941 57.4482 51.3035 57.3086C51.5129 57.3086 51.5827 57.169 51.5129 57.169Z" fill="#EB996E"/>
<path d="M77.9691 34.6923C78.8765 34.2037 76.1542 31.2021 73.9205 30.1551C70.57 28.5496 65.3348 27.5724 62.1937 28.41C58.4243 29.4571 55.2134 31.2719 53.3287 34.6923C51.3742 38.1127 50.6064 42.0915 50.6762 46.0005C50.6762 47.1871 50.8158 48.4436 51.444 49.4906C52.2119 50.7471 53.7475 51.5847 53.6079 53.26C53.6079 53.8883 53.7475 54.5165 54.1664 55.0051C55.2134 56.122 56.4698 55.0749 57.0283 54.0977C58.2847 51.864 58.4941 49.2812 58.6337 46.6985C58.7035 44.8836 58.8431 43.0687 58.3545 41.3236C58.0753 40.3464 57.6565 39.5087 57.4471 38.5315C57.2377 37.5543 57.3075 36.5072 57.8659 35.7394C57.9357 35.5998 58.1451 35.4601 58.3545 35.2507C59.96 33.8547 62.1937 33.5057 64.2179 34.2037C67.3591 35.3903 72.8037 37.1354 74.2695 36.0884C76.3636 34.5527 76.8522 33.5755 76.8522 33.5755L77.9691 34.6923Z" fill="#263238"/>
<path d="M62.5415 27.6422C65.6826 26.6649 69.1728 26.7347 72.1045 28.2704C73.6401 29.108 75.0362 30.3645 75.455 32.0398C75.8738 33.7151 75.1758 35.7394 73.5703 36.4374L73.4307 36.5072C70.9876 37.275 69.452 36.926 67.0787 36.0884C65.0544 35.3903 63.3093 34.0641 61.285 33.366C59.1212 32.5982 56.7479 32.5284 54.584 33.0868C56.6781 30.6437 59.4004 28.6194 62.5415 27.6422Z" fill="#263238"/>
<path d="M51.7927 33.2264C51.8625 33.2962 52.2813 32.7378 53.1887 32.1096C53.6773 31.8304 54.2358 31.4814 54.9338 31.2021C55.6318 30.9229 56.3996 30.7833 57.2373 30.7833C58.9125 30.9229 60.3086 31.6908 61.1462 32.3888C62.0537 33.0868 62.4027 33.6453 62.4725 33.6453C62.4725 33.6453 62.4027 33.5056 62.1933 33.2264C61.9839 32.9472 61.7047 32.5982 61.2858 32.2492C60.4482 31.4814 58.9824 30.6437 57.1675 30.4343C56.26 30.3645 55.4224 30.5739 54.7244 30.8531C54.0264 31.1323 53.4679 31.5512 52.9793 31.9002C52.1417 32.5982 51.7229 33.1566 51.7927 33.2264Z" fill="#455A64"/>
<path d="M68.9648 27.0837C68.9648 27.1535 69.5233 27.2931 70.4307 27.6422C71.3381 27.9912 72.5248 28.6194 73.7114 29.5967C74.8283 30.5739 75.7357 31.621 76.2243 32.4586C76.7827 33.2962 76.9922 33.8547 77.062 33.8547C77.1318 33.8547 76.9223 33.2264 76.4337 32.3888C75.9451 31.4814 75.1075 30.3645 73.9208 29.3873C72.7342 28.41 71.4777 27.7818 70.5005 27.5026C69.5931 27.0837 68.9648 27.0837 68.9648 27.0837Z" fill="#455A64"/>
<path d="M48.8623 285.635L35.181 296.664C35.181 296.664 42.7197 313.417 40.4162 315.721L17.1719 290.801L37.7637 272.792L48.8623 285.635Z" fill="#EDE059"/>
<g opacity="0.6">
<g opacity="0.6">
<g opacity="0.6">
<g opacity="0.6">
<g opacity="0.6">
<g opacity="0.6">
<g opacity="0.6">
<g opacity="0.6">
<g opacity="0.6">
<path opacity="0.6" d="M29.3865 287.729C28.8281 287.38 27.9905 287.52 27.5716 288.009C27.1528 288.567 27.2924 289.405 27.8509 289.824C28.4093 290.242 29.4563 290.103 29.8053 289.475C30.1543 288.916 29.9449 287.869 29.3167 287.59" fill="white"/>
</g>
</g>
</g>
</g>
</g>
</g>
</g>
</g>
</g>
<g opacity="0.6">
<g opacity="0.6">
<g opacity="0.6">
<g opacity="0.6">
<g opacity="0.6">
<g opacity="0.6">
<g opacity="0.6">
<g opacity="0.6">
<path opacity="0.6" d="M17.1016 290.801L19.1956 288.986L40.8345 313.836C40.8345 313.836 41.2533 314.953 40.3459 316L17.1016 290.801Z" fill="white"/>
</g>
</g>
</g>
</g>
</g>
</g>
</g>
</g>
<path d="M35.6697 296.943C35.5301 297.013 34.9717 296.455 33.9944 296.176C33.087 295.896 32.2494 296.036 32.1796 295.896C32.1098 295.757 33.0172 295.268 34.134 295.617C35.3207 295.966 35.8093 296.874 35.6697 296.943Z" fill="#263238"/>
<path d="M36.8565 300.643C36.7867 300.783 36.0887 300.434 35.1812 300.434C34.2738 300.434 33.5758 300.853 33.506 300.713C33.3664 300.643 34.0644 299.875 35.1812 299.875C36.2981 299.805 36.9961 300.504 36.8565 300.643Z" fill="#263238"/>
<path d="M34.9707 304.971C34.8311 304.901 35.3197 304.133 36.297 303.854C37.2742 303.575 38.042 303.924 37.9722 304.063C37.9024 304.203 37.2044 304.133 36.4366 304.412C35.6688 304.622 35.1103 305.041 34.9707 304.971Z" fill="#263238"/>
<path d="M38.4612 294.082C38.3216 294.151 37.9726 293.384 37.3444 292.755C36.7161 292.057 35.9483 291.708 36.0181 291.569C36.0181 291.429 36.9953 291.569 37.7632 292.336C38.531 293.104 38.6706 294.082 38.4612 294.082Z" fill="#263238"/>
<g opacity="0.3">
<g opacity="0.3">
<g opacity="0.3">
<g opacity="0.3">
<g opacity="0.3">
<g opacity="0.3">
<g opacity="0.3">
<g opacity="0.3">
<path opacity="0.3" d="M46.1392 287.799L43.6961 289.754L32.0391 277.748L34.9708 275.165L46.1392 287.799Z" fill="black"/>
</g>
</g>
</g>
</g>
</g>
</g>
</g>
</g>
<path d="M41.1832 291.848C41.1134 291.918 40.6248 291.499 40.0663 290.522C39.7871 290.033 39.5079 289.474 39.2985 288.846C39.2287 288.497 39.0891 288.148 39.0193 287.799C39.0193 287.59 38.9495 287.38 39.0193 287.171C39.0193 286.892 39.2985 286.543 39.6475 286.543C39.9267 286.473 40.2758 286.682 40.4154 286.822C40.555 287.031 40.6946 287.171 40.7644 287.38C40.9738 287.729 41.1134 288.078 41.1832 288.427C41.3926 289.125 41.4624 289.754 41.4624 290.312C41.3926 291.359 41.1134 291.987 41.0436 291.987C40.9738 291.987 41.1134 291.359 41.0436 290.312C40.9738 289.823 40.904 289.195 40.6946 288.567C40.555 288.288 40.4852 287.939 40.2758 287.66C40.1361 287.311 39.9267 287.101 39.7173 287.101C39.6475 287.101 39.6475 287.101 39.5777 287.241C39.5777 287.38 39.5777 287.52 39.5777 287.729C39.6475 288.078 39.7173 288.427 39.7871 288.776C39.9267 289.405 40.206 289.963 40.4154 290.452C40.904 291.289 41.253 291.778 41.1832 291.848Z" fill="#263238"/>
<path d="M40.9029 291.848C40.8331 291.848 41.1123 291.15 41.8802 290.452C42.299 290.103 42.7876 289.684 43.4158 289.405C43.7648 289.265 44.1138 289.125 44.4629 289.056C44.8817 288.986 45.3703 288.846 45.8589 289.335C46.0683 289.614 46.0683 289.963 45.9985 290.173C45.9287 290.382 45.7891 290.522 45.6495 290.731C45.3703 291.01 45.0911 291.289 44.8119 291.499C44.1836 291.918 43.5554 292.057 42.997 292.127C41.8802 292.197 41.3217 291.778 41.3217 291.778C41.3217 291.708 41.95 291.918 42.9272 291.708C43.4158 291.638 43.9742 291.429 44.4629 291.08C44.7421 290.871 44.9515 290.661 45.1609 290.382C45.3703 290.103 45.5099 289.824 45.4401 289.754C45.3005 289.614 44.9515 289.614 44.6025 289.684C44.2534 289.754 43.9044 289.824 43.6252 289.963C42.997 290.173 42.5084 290.522 42.0896 290.801C41.3217 291.359 40.9727 291.848 40.9029 291.848Z" fill="#263238"/>
<path d="M48.0248 287.869L49.3511 305.39C49.3511 305.39 31.9702 311.323 31.9004 314.604L65.9641 314.534L64.9869 287.171L48.0248 287.869Z" fill="#EDE059"/>
<g opacity="0.6">
<g opacity="0.6">
<g opacity="0.6">
<g opacity="0.6">
<g opacity="0.6">
<g opacity="0.6">
<g opacity="0.6">
<g opacity="0.6">
<g opacity="0.6">
<path opacity="0.6" d="M59.8205 303.505C60.5185 303.645 60.9373 304.412 60.8675 305.041C60.7279 305.739 60.0299 306.227 59.3319 306.088C58.6338 305.948 58.0754 305.11 58.2848 304.412C58.4942 303.784 59.4017 303.226 59.9601 303.505" fill="white"/>
</g>
</g>
</g>
</g>
</g>
</g>
</g>
</g>
</g>
<g opacity="0.6">
<g opacity="0.6">
<g opacity="0.6">
<g opacity="0.6">
<g opacity="0.6">
<g opacity="0.6">
<g opacity="0.6">
<g opacity="0.6">
<path opacity="0.6" d="M65.9631 314.534L65.8933 311.742L33.0162 312.928C33.0162 312.928 31.8994 313.417 31.7598 314.813L65.9631 314.534Z" fill="white"/>
</g>
</g>
</g>
</g>
</g>
</g>
</g>
</g>
<path d="M48.7924 305.25C48.7924 305.39 49.63 305.46 50.4676 305.948C51.3053 306.437 51.7939 307.135 51.9335 307.065C52.0731 306.995 51.7939 306.018 50.7468 305.46C49.7696 304.831 48.7226 305.11 48.7924 305.25Z" fill="#263238"/>
<path d="M45.3008 306.856C45.3008 306.995 45.9988 307.274 46.627 307.972C47.2553 308.601 47.3949 309.369 47.6043 309.369C47.7439 309.369 47.8137 308.391 47.1156 307.554C46.278 306.716 45.3008 306.716 45.3008 306.856Z" fill="#263238"/>
<path d="M43.4159 311.183C43.5555 311.183 43.7649 310.346 43.2763 309.508C42.7877 308.601 42.0199 308.252 41.9501 308.391C41.8803 308.531 42.3689 309.02 42.7877 309.718C43.2065 310.485 43.2763 311.183 43.4159 311.183Z" fill="#263238"/>
<path d="M48.9302 301.201C49 301.341 49.7678 301.062 50.6753 301.132C51.6525 301.132 52.3505 301.411 52.4203 301.271C52.4901 301.132 51.7921 300.573 50.6753 300.573C49.6282 300.503 48.8604 301.062 48.9302 301.201Z" fill="#263238"/>
<g opacity="0.3">
<g opacity="0.3">
<g opacity="0.3">
<g opacity="0.3">
<g opacity="0.3">
<g opacity="0.3">
<g opacity="0.3">
<g opacity="0.3">
<path opacity="0.3" d="M48.791 297.921L49.0004 301.062L65.4739 300.713L65.4041 297.432L48.791 297.921Z" fill="black"/>
</g>
</g>
</g>
</g>
</g>
</g>
</g>
</g>
<path d="M48.7207 297.711C48.7207 297.781 49.3489 297.851 50.396 297.641C50.8846 297.502 51.5128 297.362 52.141 297.013C52.49 296.874 52.7693 296.664 53.1183 296.455C53.2579 296.315 53.4673 296.245 53.6069 296.036C53.8163 295.827 53.8861 295.408 53.6767 295.129C53.4673 294.849 53.1881 294.78 52.9089 294.78C52.6296 294.78 52.49 294.849 52.2806 294.919C51.9316 295.059 51.5826 295.198 51.2336 295.338C50.6054 295.687 50.0469 296.036 49.6979 296.455C48.9301 297.223 48.7207 297.851 48.7207 297.851C48.7905 297.921 49.1395 297.362 49.9073 296.734C50.3262 296.385 50.8148 296.106 51.3732 295.827C51.6524 295.687 52.0014 295.547 52.3504 295.478C52.6994 295.338 53.0485 295.338 53.1183 295.478C53.1881 295.547 53.1881 295.547 53.1183 295.687C53.0485 295.757 52.9089 295.896 52.7693 295.966C52.49 296.176 52.2108 296.385 51.8618 296.525C51.3034 296.874 50.745 297.083 50.2564 297.223C49.3489 297.502 48.7207 297.572 48.7207 297.711Z" fill="#263238"/>
<path d="M48.932 297.921C49.0018 297.921 49.281 297.362 49.3508 296.245C49.3508 295.687 49.281 295.059 49.0716 294.361C48.932 294.012 48.7924 293.663 48.583 293.314C48.3736 292.965 48.0944 292.546 47.4662 292.476C47.1171 292.476 46.8379 292.755 46.7681 292.965C46.6983 293.174 46.6285 293.384 46.6285 293.593C46.5587 294.012 46.6285 294.361 46.6983 294.71C46.8379 295.408 47.1869 296.036 47.4662 296.455C48.1642 297.293 48.8622 297.502 48.8622 297.432C48.932 297.362 48.3038 297.083 47.7454 296.245C47.4662 295.827 47.2567 295.268 47.1171 294.64C47.0473 294.361 47.0473 294.012 47.1171 293.663C47.1869 293.314 47.2567 293.034 47.3963 293.034C47.536 293.034 47.885 293.314 48.0246 293.593C48.234 293.872 48.3736 294.221 48.5132 294.5C48.7226 295.129 48.8622 295.687 48.932 296.176C49.0018 297.292 48.8622 297.921 48.932 297.921Z" fill="#263238"/>
<path d="M35.3203 161.804C35.3203 161.804 39.0199 214.227 40.4857 226.233C41.3931 233.911 45.7907 298.13 45.7907 298.13L67.988 297.432L64.428 195.659V164.457L35.3203 161.804Z" fill="#263238"/>
<path d="M32.3887 274.048L47.0472 288.986C47.0472 288.986 91.5814 245.568 93.3963 242.287C95.2111 239.007 94.6527 198.87 94.6527 198.87L93.3265 162.851L61.4964 164.457L64.6375 200.266L68.8955 233.213L32.3887 274.048Z" fill="#263238"/>
<path d="M72.8044 263.647C72.8044 263.647 72.6648 263.787 72.3157 264.136C71.9667 264.485 71.5479 264.904 70.9895 265.532C69.8028 266.719 68.0578 268.464 65.8241 270.697C61.3567 275.165 54.9349 281.447 47.2566 289.126L47.117 289.265L46.9774 289.126C42.51 284.588 37.554 279.563 32.249 274.257L32.1094 274.118L32.249 273.978C36.0183 269.79 39.9971 265.323 44.1154 260.716C53.1898 250.664 61.6359 241.171 68.8954 233.143L68.8256 233.283C67.4994 222.045 66.3825 212.691 65.6147 206.06C65.2657 202.779 64.9167 200.196 64.7072 198.451C64.6374 197.613 64.5676 196.915 64.4978 196.427C64.4978 196.217 64.428 196.008 64.428 195.938C64.428 195.798 64.428 195.729 64.428 195.729C64.428 195.729 64.428 195.798 64.428 195.868C64.428 196.008 64.4978 196.147 64.4978 196.357C64.5676 196.845 64.6374 197.474 64.7771 198.381C64.9865 200.126 65.3355 202.709 65.7543 205.99C66.5919 212.551 67.7088 221.905 69.1048 233.143V233.213L69.035 233.283C61.8453 241.31 53.3294 250.804 44.3249 260.855C40.2065 265.462 36.2277 269.93 32.4584 274.118V273.908C37.7634 279.283 42.7194 284.309 47.1868 288.846H46.9774C54.7255 281.238 61.1473 274.955 65.6845 270.558C67.9182 268.394 69.733 266.649 70.9197 265.462C71.5479 264.904 71.9667 264.415 72.3157 264.136C72.595 263.787 72.8044 263.647 72.8044 263.647Z" fill="#455A64"/>
<path d="M75.9449 236.354C75.8751 236.424 74.479 235.796 72.734 234.958C70.9889 234.121 69.5929 233.353 69.6627 233.213C69.7325 233.143 71.1285 233.771 72.8736 234.609C74.6187 235.517 76.0147 236.284 75.9449 236.354Z" fill="#455A64"/>
<path d="M67.1492 193.984C67.1492 193.984 66.6606 194.053 65.8229 194.123C64.9155 194.193 63.659 194.263 62.263 194.333H62.1234V194.193C62.1234 192.308 62.1234 190.075 62.0536 187.631C61.9838 184.49 61.8442 181.628 61.7744 179.534C61.7046 178.557 61.7046 177.719 61.6348 177.091C61.6348 176.533 61.6348 176.184 61.6348 176.184C61.6348 176.184 61.7046 176.533 61.7744 177.091C61.8442 177.65 61.914 178.487 61.9838 179.534C62.1234 181.628 62.3328 184.49 62.3328 187.631C62.4026 190.075 62.4026 192.308 62.3328 194.193L62.1932 194.053C63.659 194.053 64.8457 193.984 65.7531 193.984C66.6606 193.914 67.1492 193.914 67.1492 193.984Z" fill="#455A64"/>
<path d="M65.6147 177.301C65.6147 177.301 65.7543 177.231 65.9637 177.231C66.1731 177.231 66.5221 177.37 66.8013 177.65C67.0805 177.929 67.3597 178.417 67.3597 179.046C67.2899 179.674 66.8013 180.232 66.1731 180.372C65.5449 180.581 64.8468 180.442 64.428 179.953C64.079 179.464 64.0092 178.906 64.079 178.557C64.1488 178.138 64.3582 177.859 64.5676 177.719C64.777 177.58 64.8468 177.51 64.8468 177.58C64.9166 177.65 64.428 177.859 64.3582 178.627C64.2884 178.976 64.428 179.464 64.7072 179.813C64.9864 180.162 65.5449 180.302 66.1033 180.093C66.5919 179.953 67.0107 179.534 67.0805 179.046C67.1503 178.557 66.9409 178.138 66.7315 177.929C66.1731 177.301 65.6147 177.37 65.6147 177.301Z" fill="#455A64"/>
<path d="M52.8405 75.597C52.8405 75.597 58.6341 81.9492 73.7813 76.8535L83.3442 90.884L93.1864 170.599L60.9376 175.765L35.8086 171.786L43.8359 90.884L52.8405 75.597Z" fill="#E0E0E0"/>
<path d="M54.2367 76.4347C55.4931 79.157 58.4248 85.4393 58.4248 85.4393C58.4248 85.4393 50.9559 135.139 50.1183 143.027C49.2807 151.683 54.5857 182.326 54.5857 182.326L28.3398 178.208L35.7389 97.2361L32.179 81.6002C32.179 81.6002 38.6008 78.9476 44.9529 77.6214L50.4673 76.8535L52.003 74.3406L53.05 72.8049L54.2367 76.4347Z" fill="#EDE059"/>
<g opacity="0.3">
<g opacity="0.3">
<path opacity="0.3" d="M55.5638 137.024C52.3528 136.954 42.9993 139.677 39.7884 140.026C36.5076 140.375 34.2739 140.793 31.5516 142.748L31.1328 147.006C33.0175 147.913 35.1116 148.123 37.1358 148.472C39.1601 148.821 41.4636 148.542 43.0691 147.146C43.9067 146.447 44.6047 145.4 45.582 144.842C46.4894 144.284 47.4667 143.446 48.4439 143.655C56.2618 145.121 58.2163 138.42 55.5638 137.024Z" fill="black"/>
</g>
</g>
<path d="M51.0957 77.342C51.0957 77.342 51.2354 77.6213 51.3052 78.0401C51.4448 78.5287 51.6542 79.2267 51.8636 80.0644C52.2824 81.7397 52.8408 84.113 53.469 86.7655C53.6784 87.7428 53.8878 88.6502 54.0973 89.4878H53.7482C53.9577 88.5106 54.3765 87.6031 54.7255 86.9051C55.1443 86.2071 55.4933 85.509 56.0517 85.16C56.3309 84.9506 56.6101 84.8808 56.8894 84.8808C57.1686 84.8808 57.378 85.0204 57.5176 85.0902C57.7968 85.2996 57.7968 85.5788 57.727 85.5788C57.727 85.5788 57.6572 85.3694 57.4478 85.2298C57.1686 85.0902 56.68 84.9506 56.1913 85.3694C55.7725 85.7185 55.3537 86.4165 55.0047 87.1145C54.6557 87.8824 54.3067 88.72 54.0973 89.6972L53.9577 90.3953L53.818 89.6972C53.6086 88.8596 53.3992 87.9522 53.1898 86.9749C52.5616 84.3922 52.073 82.0189 51.6542 80.2738C51.4448 79.4361 51.3052 78.7381 51.2354 78.2495C51.0957 77.6213 51.0259 77.342 51.0957 77.342Z" fill="#263238"/>
<path d="M35.1098 144.353L41.7411 146.308C41.7411 146.308 43.905 151.334 44.254 157.127C44.6728 162.921 42.0901 204.943 42.0901 204.943L20.8003 204.035L20.172 202.081C19.823 201.104 19.6834 200.057 19.823 199.009C20.3815 192.099 21.2889 168.156 26.4543 154.196C28.8974 147.564 35.1098 144.353 35.1098 144.353Z" fill="#455A64"/>
<path d="M42.5086 77.6911C42.5086 77.6911 44.5329 81.5303 44.3235 89.9067C44.1141 98.2831 32.457 156.848 32.457 156.848L39.8561 157.476C39.8561 157.476 47.3948 108.893 47.8136 104.007C48.2324 99.1208 50.9548 81.3209 47.8136 77.4119C47.8136 77.4119 44.6725 76.0856 42.5086 77.6911Z" fill="#455A64"/>
<path d="M29.7346 148.751C29.7346 148.751 21.9167 158.523 19.334 176.882L22.7543 177.65L29.7346 148.751Z" fill="#455A64"/>
<path d="M34.2728 152.939C34.2728 152.939 34.2728 153.079 34.2728 153.288C34.203 153.567 34.203 153.916 34.1332 154.265C33.9936 155.173 33.7842 156.429 33.5748 157.965C33.0861 161.106 32.6673 165.504 31.8297 170.25C31.6203 171.437 31.3411 172.624 31.0619 173.741C30.7827 174.857 30.3638 175.905 29.7356 176.812C29.1074 177.719 27.9905 178.208 27.0831 178.208C26.1059 178.208 25.2682 177.999 24.5004 177.929C22.8949 177.65 21.7083 177.301 20.8009 177.161C20.382 177.091 20.033 177.021 19.8236 176.952C19.6142 176.882 19.4746 176.882 19.4746 176.882C19.4746 176.882 19.6142 176.882 19.8236 176.882C20.033 176.882 20.382 176.952 20.8707 177.021C21.7781 177.161 23.0345 177.44 24.5702 177.719C25.338 177.789 26.2455 177.999 27.1529 177.999C28.0603 177.999 28.9678 177.51 29.596 176.742C30.2242 175.905 30.5732 174.857 30.8525 173.81C31.1317 172.694 31.3411 171.577 31.5505 170.39C32.4579 165.643 32.8767 161.246 33.4352 158.105C33.7144 156.499 33.9238 155.243 34.1332 154.405C34.203 153.986 34.2728 153.707 34.3426 153.428C34.203 153.079 34.203 152.939 34.2728 152.939Z" fill="#263238"/>
<path d="M41.8794 146.657C41.8794 146.657 41.8794 147.076 41.8096 147.774C41.7398 148.542 41.6002 149.658 41.5304 150.915C41.4606 151.613 41.3908 152.311 41.321 153.079C41.2512 153.847 41.1814 154.684 40.972 155.592C40.7626 156.429 40.274 157.337 39.4363 157.965C38.6685 158.593 37.5516 158.872 36.5046 158.593C35.4576 158.314 34.5501 157.616 34.2011 156.709C33.7823 155.801 33.8521 154.754 33.9219 153.916C34.1313 152.171 34.3407 150.636 34.6199 149.309C34.8991 147.983 35.1086 146.936 35.318 146.238C35.5274 145.54 35.667 145.121 35.667 145.121C35.667 145.121 35.5972 145.54 35.4576 146.238C35.318 146.936 35.1086 147.983 34.8991 149.309C34.6897 150.636 34.4803 152.171 34.3407 153.916C34.2709 154.754 34.2011 155.731 34.6199 156.569C34.9689 157.407 35.7368 158.035 36.714 158.244C37.6215 158.454 38.5987 158.244 39.3665 157.686C40.1344 157.127 40.5532 156.36 40.7626 155.522C40.972 154.684 41.0418 153.847 41.1116 153.079C41.1814 152.311 41.321 151.613 41.3908 150.915C41.5304 149.658 41.67 148.611 41.8096 147.774C41.8096 147.076 41.8794 146.657 41.8794 146.657Z" fill="#263238"/>
<path d="M42.1604 204.943C42.1604 204.943 41.8812 204.664 41.3926 204.175C40.904 203.686 40.2059 202.918 39.2985 202.081C38.3911 201.173 37.344 200.196 36.0876 199.079C35.4594 198.521 34.7613 197.962 34.0633 197.404C33.3653 196.846 32.5974 196.287 31.69 196.078C31.2712 196.008 30.7826 196.008 30.3638 196.147C29.9449 196.287 29.5959 196.566 29.2469 196.846C28.5489 197.404 27.9207 198.032 27.2924 198.521C26.036 199.568 24.9191 200.545 23.9419 201.383C23.0345 202.151 22.2666 202.779 21.6384 203.267C21.08 203.686 20.8008 203.965 20.8008 203.965C20.8008 203.965 21.08 203.686 21.5686 203.198C22.127 202.709 22.8949 202.011 23.8023 201.173C24.7795 200.336 25.8964 199.358 27.083 198.242C27.7113 197.683 28.3395 197.125 29.0375 196.497C29.3865 196.217 29.8053 195.938 30.294 195.729C30.7826 195.589 31.2712 195.519 31.7598 195.659C32.7371 195.868 33.5747 196.497 34.2727 197.055C34.9707 197.613 35.6688 198.172 36.297 198.73C37.5534 199.847 38.6005 200.894 39.5079 201.802C40.4154 202.709 41.0436 203.477 41.5322 203.965C41.951 204.594 42.1604 204.943 42.1604 204.943Z" fill="#263238"/>
<path d="M36.1575 158.872C36.2273 158.872 35.1803 167.109 33.7842 177.301C32.3881 187.492 31.1317 195.729 31.0619 195.659C30.9921 195.659 32.0391 187.422 33.4352 177.231C34.8312 167.109 36.0877 158.872 36.1575 158.872Z" fill="#263238"/>
<path d="M39.3669 154.894C39.3669 154.894 39.2971 154.754 39.2273 154.405C39.1575 154.126 38.9481 153.707 38.5293 153.428C38.1105 153.149 37.4822 152.939 36.854 153.218C36.2258 153.428 35.6674 154.126 35.7372 154.894C35.7372 155.661 36.2956 156.36 36.854 156.569C37.4822 156.778 38.1105 156.639 38.5293 156.36C38.9481 156.08 39.1575 155.661 39.2273 155.382C39.3669 155.033 39.3669 154.894 39.3669 154.894C39.3669 154.894 39.4367 155.033 39.3669 155.382C39.2971 155.661 39.1575 156.15 38.6689 156.499C38.2501 156.848 37.4822 157.127 36.7144 156.848C35.9466 156.639 35.3184 155.801 35.3184 154.894C35.3184 153.986 35.9466 153.149 36.7144 152.939C37.4822 152.66 38.2501 152.869 38.6689 153.288C39.1575 153.637 39.2971 154.126 39.3669 154.405C39.4367 154.684 39.3669 154.894 39.3669 154.894Z" fill="#263238"/>
<path d="M131.229 156.848L142.048 165.155L141.001 173.671L140.792 174.997L137.162 177.231H130.81C130.81 177.231 129.763 174.648 132.136 174.857C132.136 174.857 131.02 173.112 134.23 172.694C137.441 172.275 138.07 171.158 138.07 171.158L137.79 169.622L136.604 168.156L135.487 167.039L129.414 160.199L131.229 156.848Z" fill="#FFBE9D"/>
<path d="M111.057 146.866C111.057 146.936 123.621 159.85 123.621 159.85L131.23 156.848L122.085 138.071L114.477 135.349L111.057 141.422V146.866Z" fill="#FFBE9D"/>
<path d="M123.271 159.291C123.271 159.291 125.366 162.572 127.041 164.178C128.716 165.783 131.578 167.249 131.578 167.249C131.578 167.249 134.091 173.95 135.766 173.671C137.441 173.392 138 172.484 137.092 170.669C136.115 168.854 133.951 162.153 133.951 162.153L129.903 154.196L123.271 159.291Z" fill="#FFBE9D"/>
<path d="M91.2328 82.019C91.2328 82.019 95.8398 83.4151 98.5621 89.6276C101.284 95.8401 111.894 118.177 111.894 118.177L123.202 138.56C123.202 138.56 118.107 138.56 114.338 141.422C110.568 144.284 110.987 148.123 110.987 148.123C110.987 148.123 107.706 147.425 107.218 145.47C106.729 143.446 107.218 141.701 107.218 141.701L103.169 136.605L100.726 131.719L93.0477 118.805L87.8125 98.1436L91.2328 82.019Z" fill="#EDE059"/>
<path d="M97.654 185.328C97.654 185.328 93.5356 142.678 93.7451 142.19C93.9545 141.701 93.3262 117.27 93.7451 116.851C94.1639 116.502 91.302 82.019 91.302 82.019L76.085 77.3422H76.2944L72.8042 73.6426C72.8042 73.6426 68.5463 87.7429 68.6161 87.9523C69.8725 92.7687 74.2701 164.945 74.2701 164.945C74.2701 165.434 76.0152 185.328 76.0152 185.328H97.654Z" fill="#EDE059"/>
<path d="M93.0467 119.085C93.0467 119.085 92.9071 119.224 92.5581 119.503C92.1393 119.783 91.6507 120.132 91.0225 120.55H90.9527H90.8829C88.9982 119.643 86.2061 118.317 82.7857 116.641L82.7159 116.572V116.502C82.5065 113.849 82.2971 110.918 82.0877 107.776C81.8783 104.845 81.6689 102.053 81.5293 99.5396V99.4H81.6689C85.159 98.6322 88.2304 99.051 90.3244 99.4698C91.3715 99.6792 92.1393 99.9584 92.6977 100.168C93.2562 100.377 93.5354 100.517 93.5354 100.517C93.5354 100.517 93.2562 100.447 92.6977 100.238C92.1393 100.098 91.3715 99.8188 90.3244 99.6792C88.3002 99.2604 85.2288 98.9812 81.8085 99.749L81.9481 99.6094C82.1575 102.122 82.3669 104.914 82.5763 107.846C82.7857 110.987 82.9951 113.919 83.2046 116.572L83.1348 116.432C86.4853 118.107 89.2774 119.573 91.1621 120.481H91.0923C91.7205 120.062 92.2789 119.713 92.6977 119.503C92.8373 119.224 93.0467 119.085 93.0467 119.085Z" fill="#263238"/>
<path d="M93.3258 94.2346C93.3258 94.2346 93.3956 94.5836 93.4654 95.2817C93.5352 95.9797 93.5352 96.8872 93.605 98.1436C93.6748 100.517 93.7446 103.867 93.6748 107.497C93.6748 111.127 93.605 114.408 93.6748 116.851C93.6748 117.968 93.6748 118.945 93.6748 119.713C93.6748 120.411 93.6748 120.76 93.6748 120.76C93.6748 120.76 93.605 120.411 93.5352 119.713C93.4654 119.015 93.4654 118.107 93.3956 116.851C93.3258 114.478 93.256 111.127 93.3258 107.497C93.3258 103.867 93.3956 100.587 93.3258 98.1436C93.3258 97.0268 93.3258 96.0495 93.3258 95.2817C93.256 94.5836 93.256 94.2346 93.3258 94.2346Z" fill="#263238"/>
<path d="M116.989 132.277C116.989 132.347 116.221 132.557 115.035 133.045C113.848 133.604 112.312 134.511 110.916 135.907C109.52 137.303 108.613 138.839 108.054 139.956C107.496 141.142 107.287 141.91 107.217 141.91C107.217 141.91 107.217 141.701 107.287 141.352C107.356 141.003 107.496 140.514 107.775 139.886C108.264 138.699 109.171 137.094 110.637 135.628C112.033 134.232 113.639 133.255 114.895 132.766C115.523 132.557 116.012 132.347 116.361 132.277C116.78 132.277 116.989 132.208 116.989 132.277Z" fill="#263238"/>
<path d="M113.5 131.44C113.57 131.579 111.615 132.277 109.661 133.883C107.707 135.419 106.52 137.164 106.45 137.094C106.38 137.094 106.659 136.605 107.148 135.977C107.637 135.279 108.405 134.441 109.452 133.674C110.429 132.906 111.476 132.277 112.244 131.998C113.012 131.51 113.5 131.37 113.5 131.44Z" fill="#263238"/>
<path d="M76.2939 77.3422C76.2939 77.3422 76.2939 77.6912 76.2241 78.3194C76.1543 78.9476 76.0845 79.7853 75.9449 80.9021C75.6657 83.066 75.3166 86.0676 74.828 89.3483C74.6186 90.535 74.479 91.6519 74.2696 92.6989L74.1998 93.1875L73.9904 92.6989C73.432 91.5821 72.8037 90.6048 72.2453 89.7672C71.9661 89.3484 71.6869 88.9295 71.4077 88.5805C71.1285 88.2315 70.9191 87.8825 70.6399 87.6731C70.3606 87.4637 70.0116 87.324 69.8022 87.324C69.523 87.324 69.3136 87.4637 69.174 87.6033C68.8948 87.8825 68.9646 88.1617 68.9646 88.1617C68.9646 88.1617 68.825 87.8825 69.1042 87.5335C69.2438 87.3939 69.4532 87.1844 69.8022 87.1146C70.1512 87.0448 70.5002 87.1844 70.8493 87.4637C71.1983 87.6731 71.4775 88.0221 71.6869 88.4409C71.9661 88.7899 72.2453 89.2087 72.5245 89.6276C73.083 90.4652 73.7112 91.5123 74.3394 92.6291L73.9904 92.6989C74.13 91.6519 74.3394 90.535 74.5488 89.3483C75.0374 86.0676 75.4562 83.066 75.8053 80.9719C75.9449 79.9249 76.0845 79.0872 76.1543 78.3892C76.1543 77.6912 76.2241 77.3422 76.2939 77.3422Z" fill="#263238"/>
<g opacity="0.3">
<g opacity="0.3">
<path opacity="0.3" d="M73.9903 92.4197C73.7111 93.4668 73.5017 94.444 73.2225 95.4911C72.5244 93.4668 71.7566 91.4425 71.0586 89.3484C70.919 88.9295 70.7794 88.5107 70.5002 88.2315C70.221 87.8825 69.8719 87.6033 69.4531 87.6033C69.4531 87.6033 70.1511 86.626 70.9888 87.6033C71.8962 88.5805 73.9903 92.4197 73.9903 92.4197Z" fill="black"/>
</g>
</g>
<g opacity="0.3">
<g opacity="0.3">
<path opacity="0.3" d="M93.6049 119.364C95.4896 112.523 95.1405 104.007 93.2559 97.1664L93.6049 119.364Z" fill="black"/>
</g>
</g>
<path d="M93.327 103.518C93.327 103.588 92.6988 103.449 91.6518 103.309C90.6047 103.169 89.2087 103.03 87.673 102.89C86.1374 102.82 84.6715 102.82 83.6245 102.82C82.5774 102.82 81.9492 102.89 81.9492 102.82C81.9492 102.751 82.5774 102.681 83.6245 102.541C84.6715 102.471 86.0676 102.402 87.673 102.471C89.2785 102.541 90.6745 102.751 91.7216 102.96C92.6988 103.309 93.327 103.518 93.327 103.518Z" fill="#263238"/>
<path d="M94.0246 153.428C94.0246 153.428 93.7454 153.358 93.3265 153.079C92.9077 152.869 92.2795 152.52 91.5117 152.102C90.0458 151.194 87.9517 149.938 85.8577 148.332C83.6938 146.727 81.8789 145.191 80.6224 144.004C79.9942 143.446 79.5056 142.957 79.1566 142.608C78.8076 142.259 78.668 142.05 78.668 142.05C78.668 142.05 78.8774 142.19 79.2962 142.539C79.715 142.888 80.2734 143.376 80.8319 143.865C82.1581 144.982 83.973 146.517 86.1369 148.123C88.2309 149.728 90.2552 151.055 91.7211 151.962C92.4191 152.381 92.9775 152.73 93.4662 153.079C93.8152 153.218 94.0246 153.358 94.0246 153.428Z" fill="#263238"/>
<path d="M32.8065 81.3209C32.8065 81.3209 29.5258 81.9492 26.4544 88.4409C23.3831 94.9326 15.3558 116.572 14.8672 118.038L31.1312 128.857L40.3452 101.564L32.8065 81.3209Z" fill="#EDE059"/>
<path d="M41.2529 140.095L41.3925 130.881L30.8523 127.321L32.8068 120.76L16.6824 113.081C16.6824 113.081 9.42288 132.068 9.49269 135.558C9.49269 136.815 12.4244 143.376 18.4274 144.004C22.3364 144.353 31.2711 144.912 37.2044 145.121C39.9267 145.191 42.0208 142.748 41.2529 140.095Z" fill="#EDE059"/>
<path d="M38.3208 106.171C38.3906 106.171 36.9945 110.987 35.1098 116.921C33.2252 122.854 31.6895 127.601 31.6197 127.531C31.5499 127.531 32.9459 122.714 34.8306 116.781C36.6455 110.918 38.1811 106.101 38.3208 106.171Z" fill="#263238"/>
<path d="M36.0162 128.997C36.0162 128.997 35.737 128.997 35.3182 128.857C34.8994 128.717 34.2712 128.578 33.5033 128.299C32.7355 128.089 31.8281 127.67 30.8508 127.461C29.8038 127.182 28.687 126.972 27.5003 126.833C25.0572 126.623 22.8933 126.972 21.3577 127.531C19.822 128.019 18.9844 128.578 18.9844 128.508C18.9844 128.508 19.1938 128.368 19.5428 128.089C19.9616 127.88 20.52 127.531 21.2879 127.252C22.8235 126.693 25.0572 126.204 27.5701 126.484C30.083 126.693 32.1771 127.531 33.643 128.089C34.4108 128.368 35.039 128.578 35.4578 128.717C35.8068 128.857 36.0162 128.997 36.0162 128.997Z" fill="#263238"/>
<path d="M25.6152 121.528C25.6152 121.458 26.1039 121.598 26.8717 121.877C27.6395 122.226 28.5469 122.784 29.4544 123.692C30.292 124.599 30.9202 125.507 31.2693 126.274C31.6183 127.042 31.6881 127.531 31.6183 127.531C31.4787 127.601 30.9202 125.646 29.1752 123.971C27.4999 122.226 25.6152 121.667 25.6152 121.528Z" fill="#263238"/>
<path d="M38.182 97.0965C38.1122 97.0965 38.2518 96.1891 38.182 94.793C38.182 93.3969 37.9028 91.4424 37.1349 89.488C36.3671 87.4637 35.3201 85.8582 34.4126 84.7413C33.5052 83.6943 32.877 83.066 32.877 83.066C32.877 83.066 33.0864 83.2056 33.3656 83.4151C33.6448 83.6943 34.0636 84.0433 34.5522 84.6017C35.0408 85.1601 35.5295 85.7884 36.0879 86.626C36.5765 87.4637 37.0651 88.3711 37.4839 89.3483C37.833 90.3954 38.1122 91.3726 38.2518 92.3499C38.3914 93.2573 38.4612 94.1648 38.4612 94.8628C38.4612 95.5608 38.3914 96.1193 38.3216 96.5381C38.2518 96.8871 38.182 97.0965 38.182 97.0965Z" fill="#263238"/>
<g opacity="0.3">
<g opacity="0.3">
<path opacity="0.3" d="M24.7102 125.157C22.2671 125.227 19.8938 126.135 18.0092 127.67C17.8696 127.81 17.6602 127.95 17.6602 128.159C17.6602 128.438 17.9394 128.648 18.2186 128.648C18.4978 128.648 18.777 128.508 18.9864 128.368C22.686 126.414 27.2231 126.065 31.2019 127.391L31.4113 127.182C29.5964 125.786 27.1533 125.088 24.7102 125.157Z" fill="black"/>
</g>
</g>
<path d="M41.3933 141.98C41.3933 141.98 41.3933 142.05 41.3933 142.259C41.3933 142.399 41.3235 142.678 41.1839 142.957C40.9745 143.516 40.4161 144.353 39.3691 144.912C38.8804 145.191 38.2522 145.331 37.5542 145.331C36.926 145.331 36.2279 145.331 35.4601 145.331C33.9943 145.261 32.3888 145.261 30.7135 145.121C27.363 144.912 24.2917 144.702 22.058 144.493C20.9411 144.423 20.0337 144.284 19.4753 144.214C18.8471 144.144 18.498 144.074 18.498 144.074C18.498 144.074 18.8471 144.074 19.4753 144.074C20.1733 144.144 21.0109 144.144 22.1278 144.214C24.4313 144.353 27.4328 144.563 30.7833 144.772C32.4586 144.842 34.0641 144.912 35.5299 144.982C36.2279 144.982 36.926 145.051 37.624 145.051C38.2522 145.121 38.8106 144.912 39.2993 144.702C40.2765 144.284 40.8349 143.516 41.1141 142.957C41.2537 142.678 41.3235 142.469 41.3933 142.329C41.3933 142.05 41.3933 141.98 41.3933 141.98Z" fill="#263238"/>
<path d="M43.6258 141.422L52.7001 141.771C53.6076 141.771 54.4452 141.003 54.864 139.677L61.9839 114.757C62.4027 113.012 61.4953 111.616 59.9596 111.546L47.9536 110.778C45.9991 110.778 45.0218 111.616 44.6728 113.082L39.996 132.836C38.8792 136.954 40.7639 141.352 43.6258 141.422Z" fill="#263238"/>
<path d="M35.8086 129.625L38.2517 124.529L42.2304 123.203L41.0438 128.089C42.5795 128.857 44.9528 129.206 46.279 128.508C47.6053 127.74 52.9103 122.505 53.8875 122.994C54.8647 123.482 55.7722 124.669 54.8647 125.856C53.9573 126.972 49.0013 130.602 50.0484 131.649C51.0954 132.696 56.7494 128.089 58.4247 128.438C60.0999 128.787 61.147 129.765 60.1697 130.463C59.2623 131.161 56.9588 133.464 56.54 134.511C56.6098 135.768 57.238 137.583 56.6796 137.862C55.842 138.35 53.0499 139.258 52.4914 139.328C52.2122 139.328 50.0484 140.165 48.0939 140.933C45.93 141.841 43.4869 141.841 41.2532 141.073L40.1364 140.654C38.3913 140.026 37.2046 138.35 37.2046 136.466L37.2745 132.696L35.8086 129.625Z" fill="#FFBE9D"/>
<path d="M41.9514 128.508C41.9514 128.508 42.091 128.089 42.3702 127.321C42.5796 126.484 42.9286 125.367 43.2776 123.971C43.6266 122.575 44.1153 120.9 44.5341 119.015C44.7435 118.107 45.0227 117.13 45.3019 116.083C45.5811 115.106 45.7207 113.919 46.4188 113.221C47.1168 112.453 48.3034 112.453 49.2807 112.453C50.3277 112.523 51.305 112.593 52.2822 112.663C54.1669 112.802 55.9119 112.942 57.3778 113.012C58.7738 113.082 59.9605 113.151 60.7981 113.221C61.6358 113.291 62.0546 113.291 62.0546 113.221C62.0546 113.221 61.6358 113.151 60.7981 113.012C59.8907 112.942 58.7738 112.802 57.3778 112.663C55.9119 112.523 54.1669 112.384 52.2822 112.244C51.305 112.174 50.3277 112.104 49.2807 111.965C48.7222 111.965 48.2336 111.965 47.6752 112.035C47.1168 112.104 46.5584 112.384 46.1395 112.802C45.7207 113.221 45.5113 113.78 45.3717 114.338C45.2321 114.896 45.0925 115.385 44.9529 115.874C44.6737 116.921 44.4643 117.898 44.2549 118.805C43.8361 120.62 43.4172 122.296 43.0682 123.762C42.789 125.088 42.5098 126.274 42.3004 127.112C42.0212 128.02 41.8816 128.438 41.9514 128.508Z" fill="#455A64"/>
<path d="M52.8398 116.432C52.8398 116.921 53.2587 117.34 53.7473 117.34C54.2359 117.34 54.6547 116.921 54.6547 116.432C54.6547 115.943 54.2359 115.525 53.7473 115.525C53.2587 115.525 52.8398 115.943 52.8398 116.432Z" fill="white"/>
</g>
<defs>
<clipPath id="clip0_1228_1773">
<rect width="322" height="316" fill="white"/>
</clipPath>
</defs>
</svg>
