<svg width="337" height="345" viewBox="0 0 337 345" fill="none" xmlns="http://www.w3.org/2000/svg">
<g clip-path="url(#clip0_1229_3032)">
<path d="M80.2184 319.024C95.404 308.874 99.0931 289.607 98.8358 272.233C98.75 269.308 99.1789 266.298 97.8062 263.717C96.4335 261.137 93.2591 259.331 90.5995 260.535C88.4546 261.481 87.4251 263.975 86.1382 266.04C84.5081 268.792 82.0201 271.028 79.1889 272.405C77.3014 273.351 74.9849 273.867 73.1833 272.835C70.6952 271.458 70.4378 267.932 70.5236 265.093C70.6094 259.761 70.781 254.342 70.8668 249.009C70.9526 246.17 70.9526 243.16 70.0947 240.408C69.2367 237.655 67.2635 235.075 64.518 234.301C61.7726 233.526 58.3408 234.989 57.6545 237.827C57.3971 239.031 57.6545 240.236 57.4829 241.44C57.3971 242.644 56.7966 243.934 55.6812 244.278C54.4801 244.622 53.3648 243.762 52.5068 242.902C49.5898 239.978 47.5308 236.193 45.7291 232.408C43.8416 228.624 42.1257 224.839 39.3803 221.571C36.7207 218.388 32.9457 215.808 28.8276 215.464C24.6237 215.206 20.1624 217.614 19.0471 221.657C17.9317 225.699 20.2482 229.828 22.822 233.182C26.597 238.085 31.1441 242.472 36.1201 246.17C37.0639 246.859 38.0076 247.547 38.3508 248.579C38.9513 250.471 37.0639 252.363 35.1764 252.966C33.0315 253.654 30.6293 253.396 28.3986 253.654C26.168 253.912 23.68 254.858 22.7362 256.922C21.5351 259.847 23.9373 262.943 26.3396 265.007C31.1441 269.136 36.7207 272.405 42.6405 274.641C44.7854 275.415 47.016 276.189 48.7319 277.651C50.4478 279.2 51.4773 281.78 50.362 283.758C49.2467 285.737 46.587 286.425 44.3564 285.909C42.1257 285.479 40.1525 284.188 38.0076 283.414C34.0611 281.866 28.8276 282.038 26.2538 285.479C24.5379 287.715 24.3663 290.811 25.1385 293.478C25.9106 296.144 27.6265 298.467 29.4282 300.617C35.6912 308.186 43.8416 314.293 53.0216 317.562C62.3732 321.174 70.9526 322.206 80.2184 319.024Z" fill="#EBEBEB"/>
<path d="M78.0744 325.733C77.5596 318.852 78.246 316.874 75.7579 308.1C73.2699 299.327 69.8381 289.865 65.8058 280.146C64.7762 277.737 63.8325 275.329 62.803 272.921C61.8592 270.598 60.8297 268.19 59.7144 266.04C57.5695 261.567 55.0815 257.438 52.6793 253.568C50.277 249.697 47.789 246.17 45.4725 242.816C43.1561 239.461 40.9254 236.451 38.7806 233.785C34.4909 228.366 30.5443 224.409 27.7131 221.829C26.3404 220.538 25.1393 219.506 24.3671 218.904C24.024 218.56 23.6808 218.302 23.5092 218.13C23.3376 217.958 23.166 217.872 23.166 217.872C23.166 217.872 23.2518 217.958 23.4234 218.13C23.595 218.302 23.9382 218.56 24.2813 218.904C25.0535 219.592 26.1688 220.538 27.5415 221.915C30.3727 224.581 34.2335 228.538 38.5232 233.957C40.6681 236.623 42.8129 239.719 45.1294 242.988C47.4458 246.343 49.848 249.869 52.2503 253.74C54.6525 257.61 57.0548 261.739 59.2854 266.126C60.4007 268.362 61.3445 270.684 62.2882 273.007C63.2319 275.329 64.2615 277.737 65.291 280.232C69.2375 289.951 72.7551 299.327 75.2431 308.1C77.7312 316.874 77.0448 318.766 77.6454 325.647" fill="#E0E0E0"/>
<path d="M59.7129 266.04C59.7129 266.04 59.8845 265.609 59.9703 264.835C60.1419 264.061 60.3135 262.857 60.5708 261.481C60.9998 258.642 61.5146 254.686 62.0293 250.299C62.5441 245.912 63.1447 241.956 63.6594 239.117C63.9168 237.655 64.0884 236.537 64.26 235.763C64.4316 234.989 64.5174 234.559 64.4316 234.559C64.4316 234.559 64.26 234.989 64.0884 235.763C63.9168 236.537 63.5736 237.655 63.3163 239.117C62.7157 241.956 62.1151 245.912 61.6004 250.299C61.0856 254.6 60.6566 258.556 60.2277 261.481C60.0561 262.857 59.8845 263.975 59.7987 264.835C59.7987 265.523 59.7129 265.953 59.7129 266.04Z" fill="#E0E0E0"/>
<path d="M22.4785 258.556C22.4785 258.556 22.6501 258.556 22.8217 258.642C23.1649 258.642 23.508 258.728 23.937 258.728C24.8808 258.814 26.2535 258.986 27.9693 259.158C31.4011 259.588 36.1198 260.277 41.2675 261.309C46.4151 262.341 51.048 263.545 54.394 264.405C56.0241 264.835 57.3968 265.265 58.3405 265.523C58.7695 265.609 59.1127 265.781 59.3701 265.867C59.6274 265.953 59.7132 265.953 59.7132 265.953C59.7132 265.953 59.6274 265.867 59.3701 265.781C59.1127 265.695 58.7695 265.523 58.3405 265.351C57.3968 265.007 56.1099 264.577 54.4798 264.061C51.1338 263.029 46.5867 261.825 41.3533 260.793C36.2056 259.761 31.4869 259.072 28.0551 258.728C26.3393 258.556 24.9665 258.47 23.937 258.384C23.508 258.384 23.1649 258.384 22.8217 258.384C22.5643 258.47 22.4785 258.47 22.4785 258.556Z" fill="#E0E0E0"/>
<path d="M75.4141 307.326C75.4141 307.326 75.4999 307.154 75.6714 306.896C75.843 306.552 76.0146 306.122 76.3578 305.52C76.9584 304.402 77.7305 302.681 78.5884 300.531C80.4759 296.316 82.8782 290.381 85.3662 283.844C87.94 277.307 90.2565 271.372 92.0582 267.158C92.9161 265.093 93.6882 263.373 94.203 262.169C94.4604 261.653 94.632 261.137 94.8036 260.793C94.8894 260.449 94.9752 260.277 94.9752 260.277C94.9752 260.277 94.8894 260.449 94.7178 260.707C94.5462 261.051 94.3746 261.481 94.0314 261.997C93.4309 263.115 92.6587 264.835 91.8008 266.986C89.9133 271.2 87.5111 277.135 85.023 283.672C82.4492 290.209 80.1328 296.144 78.3311 300.359C77.4731 302.423 76.701 304.143 76.1862 305.348C75.9288 305.864 75.7572 306.38 75.5856 306.724C75.4999 307.154 75.4141 307.326 75.4141 307.326Z" fill="#E0E0E0"/>
<path d="M25.9102 290.812C25.9102 290.812 26.0817 290.898 26.4249 290.984C26.7681 291.07 27.2829 291.242 27.8834 291.5C29.1703 291.93 30.972 292.532 33.2027 293.306C37.664 294.768 43.8412 296.918 50.6189 299.327C57.3967 301.735 63.5739 303.8 68.1209 305.262C70.3516 305.95 72.2391 306.552 73.4402 306.896C74.0408 307.068 74.5555 307.24 74.8987 307.326C75.2419 307.412 75.4135 307.498 75.4135 307.412C75.4135 307.412 75.2419 307.326 74.8987 307.24C74.5555 307.154 74.0408 306.982 73.4402 306.724C72.1533 306.294 70.3516 305.692 68.1209 304.918C63.6596 303.456 57.4825 301.305 50.7047 298.897C43.927 296.488 37.7498 294.424 33.2027 292.962C30.972 292.274 29.0845 291.672 27.8834 291.328C27.2829 291.156 26.7681 290.984 26.4249 290.898C26.1675 290.812 25.996 290.725 25.9102 290.812Z" fill="#E0E0E0"/>
<path d="M333.568 276.447L257.125 313.003C254.122 314.465 250.519 313.175 249.146 310.165L227.526 264.663C226.067 261.653 227.354 258.04 230.357 256.664L306.8 220.108C309.803 218.646 313.406 219.936 314.779 222.947L336.399 268.448C337.857 271.372 336.57 274.985 333.568 276.447Z" fill="#EBEBEB"/>
<path d="M316.825 229.418L229.543 271.121L234.71 281.991L321.992 240.288L316.825 229.418Z" fill="#E0E0E0"/>
<path d="M275.634 267.242L240.938 283.819L242.709 287.546L277.405 270.969L275.634 267.242Z" fill="#E0E0E0"/>
<path d="M311.682 259.241L276.986 275.818L278.758 279.545L313.454 262.968L311.682 259.241Z" fill="#E0E0E0"/>
<path d="M286.104 288.22L251.408 304.798L253.18 308.525L287.876 291.947L286.104 288.22Z" fill="#E0E0E0"/>
<path d="M286.806 261.87L278.209 265.978L279.981 269.705L288.577 265.597L286.806 261.87Z" fill="#E0E0E0"/>
<path d="M319.619 246.238L289.26 260.744L291.031 264.471L321.39 249.965L319.619 246.238Z" fill="#E0E0E0"/>
<path d="M274.853 277.032L244.494 291.537L246.266 295.264L276.625 280.759L274.853 277.032Z" fill="#E0E0E0"/>
<path d="M266.219 112.592H315.207C315.207 112.592 315.207 101.324 309.459 101.324C301.823 101.324 300.451 108.291 300.451 108.291C300.451 108.291 300.451 87.3037 289.898 90.4002C279.946 93.3246 278.831 106.743 278.831 106.743C278.831 106.743 277.029 99.9477 271.624 103.818C266.219 107.603 266.219 112.592 266.219 112.592Z" fill="#EBEBEB"/>
<path d="M13.8125 118.44H36.2906C36.2906 118.44 36.2906 113.28 33.631 113.28C30.1134 113.28 29.5129 116.462 29.5129 116.462C29.5129 116.462 29.5129 106.829 24.7084 108.205C20.1613 109.581 19.6465 115.688 19.6465 115.688C19.6465 115.688 18.7886 112.592 16.3863 114.312C13.8125 116.204 13.8125 118.44 13.8125 118.44Z" fill="#EBEBEB"/>
<path d="M19.6479 233.527C14.4144 233.527 9.18097 231.462 5.32023 227.334C1.71687 223.463 -0.170605 218.474 0.000983618 213.227C0.172572 207.981 2.40322 203.078 6.17817 199.465C14.0712 192.068 26.5114 192.412 33.8897 200.325C35.5198 202.046 36.8067 204.024 37.6647 206.174C37.7505 206.346 39.4664 210.733 39.209 214.002C39.1232 219.42 36.9783 224.409 33.0318 228.108C29.2568 231.72 24.4524 233.527 19.6479 233.527ZM19.6479 194.993C15.015 194.993 10.4679 196.713 6.77873 200.067C3.08958 203.508 1.03052 208.153 0.858927 213.227C0.687338 218.216 2.48902 223.033 5.92079 226.732C13.0417 234.301 24.8813 234.645 32.4312 227.592C36.2062 224.065 38.2652 219.248 38.351 214.088C38.6084 211.077 36.8925 206.69 36.8925 206.69C36.0346 204.626 34.8335 202.734 33.2892 201.099C29.6 196.971 24.6239 194.993 19.6479 194.993Z" fill="#263238"/>
<path d="M17.9311 220.453L11.7539 213.83L13.7272 211.937L18.0169 216.496L26.9395 207.723L28.827 209.615L17.9311 220.453Z" fill="#263238"/>
<path d="M63.6589 129.364L136.756 218.474C139.415 221.743 138.986 226.56 135.726 229.226L104.411 255.03C101.151 257.696 96.3466 257.266 93.687 253.998L20.5044 164.888C17.8448 161.619 18.2738 156.803 21.5339 154.136L52.8489 128.332C56.1091 125.58 60.9993 126.096 63.6589 129.364Z" fill="white"/>
<path d="M63.6592 129.364C63.6592 129.364 63.5734 129.278 63.4876 129.192C63.4018 129.106 63.2302 128.934 62.9728 128.676C62.5439 128.246 61.7717 127.644 60.7422 127.214C59.6269 126.784 58.1684 126.44 56.4525 126.698C55.5945 126.87 54.7366 127.128 53.8786 127.73C53.0207 128.246 52.2486 129.02 51.3906 129.708C44.3555 135.557 34.2317 143.901 21.7058 154.308C20.1615 155.598 19.132 157.577 19.0462 159.641C18.9604 160.673 19.132 161.705 19.5609 162.738C19.9041 163.77 20.5905 164.63 21.2768 165.49C24.108 168.931 27.025 172.457 30.0278 176.156C36.1192 183.553 42.5538 191.466 49.4173 199.809C63.0586 216.41 78.0726 234.731 93.8588 253.912C94.3735 254.514 94.8883 255.03 95.4889 255.46C96.0894 255.89 96.7758 256.148 97.5479 256.406C99.0064 256.836 100.551 256.75 101.923 256.32C103.382 255.89 104.497 254.858 105.698 253.912C106.9 252.966 108.015 252.02 109.216 250.987C113.849 247.117 118.482 243.332 123.029 239.634C125.259 237.741 127.49 235.935 129.721 234.129C130.836 233.183 131.951 232.322 133.067 231.376L134.697 230C135.212 229.57 135.812 229.14 136.241 228.624C138.214 226.646 138.815 223.635 137.957 221.055C137.785 220.453 137.442 219.85 137.099 219.248C136.756 218.732 136.241 218.216 135.812 217.614C134.954 216.582 134.096 215.55 133.238 214.432C119.597 197.745 107.328 182.779 97.0332 170.221C86.7379 157.577 78.4158 147.427 72.6676 140.374C69.8364 136.848 67.6057 134.095 66.0614 132.203C65.2893 131.257 64.7745 130.569 64.3455 130.052C63.8308 129.622 63.6592 129.364 63.6592 129.364C63.6592 129.364 63.8308 129.622 64.2598 130.052C64.6887 130.569 65.2035 131.257 65.9756 132.117C67.5199 134.009 69.7506 136.675 72.6676 140.202C78.5016 147.255 86.8237 157.405 97.2048 169.963C107.5 182.521 119.854 197.487 133.496 214.174C134.354 215.206 135.212 216.238 136.07 217.27C136.499 217.786 136.928 218.302 137.356 218.904C137.7 219.506 138.043 220.109 138.3 220.797C139.244 223.463 138.558 226.732 136.499 228.796C135.984 229.312 135.469 229.742 134.868 230.172L133.238 231.548C132.123 232.494 131.008 233.355 129.892 234.301C127.662 236.107 125.431 237.999 123.2 239.806C118.653 243.504 114.106 247.289 109.388 251.159C108.186 252.106 107.071 253.052 105.87 254.084C105.269 254.6 104.755 255.03 104.068 255.546C103.468 255.976 102.696 256.406 102.009 256.664C100.551 257.18 98.8349 257.18 97.3764 256.75C96.6042 256.492 95.9178 256.234 95.2315 255.804C94.5451 255.374 93.9446 254.858 93.4298 254.17C77.6437 234.989 62.7155 216.668 49.0742 199.981C42.2964 191.638 35.776 183.725 29.6846 176.328C26.6818 172.629 23.7648 169.017 20.9336 165.576C20.2473 164.716 19.5609 163.77 19.132 162.738C18.703 161.705 18.6172 160.587 18.6172 159.469C18.703 157.319 19.8183 155.254 21.3626 153.964C33.9744 143.643 44.0981 135.299 51.1332 129.536C51.9912 128.848 52.8491 128.074 53.7071 127.558C54.565 127.042 55.5087 126.698 56.3667 126.526C58.0826 126.268 59.6269 126.612 60.7422 127.042C61.8575 127.558 62.5439 128.16 62.9728 128.59C63.4876 129.106 63.6592 129.364 63.6592 129.364Z" fill="#263238"/>
<path d="M21.7914 153.706L50.8757 189.058L104.755 254.514L102.181 256.578C99.6926 258.556 96.1751 258.212 94.116 255.718L18.7028 163.684C16.558 161.017 16.9869 157.061 19.8182 155.082L21.7914 153.706Z" fill="#EDE059"/>
<path d="M87.0804 158.179C87.1662 158.265 79.0158 165.232 68.9778 173.747C58.9399 182.349 50.7037 189.144 50.6179 189.058C50.5321 188.972 58.6825 182.005 68.7205 173.489C78.7584 164.974 86.9946 158.093 87.0804 158.179Z" fill="#263238"/>
<path d="M66.2764 168.667C72.4205 162.004 72.0141 151.61 65.3686 145.45C58.7231 139.29 48.355 139.698 42.2109 146.36C36.0667 153.023 36.4732 163.417 43.1187 169.577C49.7642 175.737 60.1323 175.329 66.2764 168.667Z" fill="white"/>
<path d="M57.7377 141.492C57.7377 141.492 57.6519 141.492 57.4803 141.492C57.3087 141.492 57.0513 141.406 56.7082 141.406C56.365 141.32 55.936 141.32 55.4212 141.32C54.9065 141.32 54.3917 141.234 53.7054 141.32C52.4184 141.32 50.8741 141.578 49.0725 142.18C47.3566 142.783 45.4691 143.729 43.6674 145.277C41.9515 146.739 40.3214 148.803 39.2919 151.298C38.2624 153.792 37.7476 156.717 38.1766 159.727C38.3482 161.275 38.7771 162.738 39.4635 164.2C39.7209 164.974 40.1499 165.662 40.5788 166.35C41.0078 167.038 41.5226 167.726 42.0373 168.329C44.1822 170.823 47.2708 172.629 50.7026 173.489C54.1343 174.177 57.6519 173.833 60.6547 172.457C61.4268 172.113 62.1132 171.683 62.7995 171.339C63.4859 170.909 64.1723 170.393 64.687 169.877C65.8881 168.845 66.9177 167.64 67.6898 166.35C69.3199 163.77 70.0921 160.931 70.1779 158.179C70.2637 155.427 69.6631 152.932 68.7194 150.868C67.7756 148.803 66.4887 147.083 65.116 145.793C63.7433 144.503 62.4564 143.643 61.2553 143.041C60.6547 142.697 60.1399 142.524 59.711 142.352C59.282 142.18 58.853 142.008 58.5098 141.922C58.1667 141.836 57.9951 141.75 57.7377 141.664C57.8235 141.492 57.7377 141.492 57.7377 141.492C57.7377 141.492 57.8235 141.492 57.9951 141.578C58.1667 141.664 58.424 141.664 58.7672 141.75C59.1104 141.836 59.5394 141.922 59.9683 142.094C60.3973 142.266 60.9979 142.438 61.5984 142.783C62.7996 143.299 64.1723 144.245 65.545 145.449C66.9177 146.739 68.2904 148.373 69.2341 150.524C70.1779 152.674 70.8642 155.168 70.7784 158.007C70.6926 160.759 69.9205 163.77 68.2046 166.35C67.4324 167.64 66.3171 168.931 65.116 169.963C64.5154 170.565 63.8291 170.995 63.1427 171.425C62.4564 171.855 61.6842 172.285 60.9121 172.629C57.8235 174.005 54.1343 174.435 50.6168 173.661C47.0992 172.887 43.9248 170.995 41.7799 168.415C41.1794 167.812 40.7504 167.124 40.2357 166.436C39.8067 165.748 39.3777 164.974 39.1203 164.286C38.434 162.824 38.005 161.275 37.8334 159.727C37.4044 156.631 38.005 153.62 39.0345 151.04C40.0641 148.459 41.7799 146.395 43.5816 144.933C45.3833 143.385 47.2708 142.438 49.0725 141.836C50.8741 141.234 52.4184 141.062 53.7911 141.062C54.4775 141.062 54.9923 141.062 55.507 141.148C56.0218 141.148 56.4508 141.234 56.7939 141.32C57.1371 141.406 57.3945 141.406 57.5661 141.492C57.6519 141.492 57.7377 141.492 57.7377 141.492Z" fill="#263238"/>
<path d="M41.2674 156.028C41.2674 156.028 40.6669 158.179 44.1844 158.609L47.7878 159.125L52.4207 170.307L54.1366 170.393L54.2224 159.985L63.6597 160.157L65.9762 161.791L66.6625 156.028L64.1745 157.319L54.7371 155.512L56.453 145.535L54.8229 145.191L47.9594 155.082L44.8708 154.48C44.8708 154.394 41.7822 153.362 41.2674 156.028Z" fill="#EDE059"/>
<path d="M105.012 57.027L164.983 195.939C166.698 199.809 164.897 204.368 161.036 206.002L109.731 228.28C105.87 230 101.323 228.194 99.6931 224.323L39.637 85.4114C37.9212 81.5408 39.7228 76.9821 43.5836 75.3478L94.8886 53.0703C98.8351 51.3501 103.382 53.1564 105.012 57.027Z" fill="#455A64"/>
<path d="M82.3636 115.946C78.846 115.946 75.4142 115.086 72.2398 113.366C61.9445 107.775 58.0838 94.7869 63.6604 84.4653C69.237 74.1437 82.192 70.2731 92.4873 75.864C102.783 81.4548 106.643 94.4429 101.067 104.764C98.3213 109.753 93.86 113.452 88.455 115.086C86.4817 115.602 84.4226 115.946 82.3636 115.946ZM82.4494 74.1437C75.1569 74.1437 68.1217 78.0143 64.4326 84.8954C59.1133 94.7869 62.8025 107.259 72.6688 112.678C82.5352 118.011 94.9753 114.312 100.38 104.42C105.7 94.5289 102.01 82.0569 92.1441 76.6381C89.0555 74.9178 85.7096 74.1437 82.4494 74.1437Z" fill="#E0E0E0"/>
<path d="M67.0906 87.9059C67.0906 87.9059 65.6321 90.3142 69.7502 92.1205L73.9541 93.9268L75.7558 109.237L77.8149 109.925L81.5898 97.1953L93.0863 100.722L95.4027 103.56L98.2339 96.6792L94.7164 97.3673L83.8205 91.8625L89.4829 80.2507L87.5954 79.2185L75.7558 88.938L72.1525 87.1317C72.0667 87.2178 68.7207 84.8954 67.0906 87.9059Z" fill="#E0E0E0"/>
<path d="M129.085 112.917L64.1133 142.138L64.4644 142.922L129.436 113.702L129.085 112.917Z" fill="#E0E0E0"/>
<path d="M243.827 344.484L165.582 319.282C160.434 317.648 157.517 312.057 159.233 306.81L196.382 190.95C198.012 185.789 203.589 182.865 208.822 184.585L287.067 209.787C292.214 211.421 295.131 217.012 293.416 222.259L256.267 338.119C254.551 343.366 249.06 346.204 243.827 344.484Z" fill="#263238"/>
<path d="M227.698 294.94C225.724 294.94 223.665 294.768 221.692 294.338C205.048 291.07 194.066 275.243 197.155 259.073C198.699 251.245 203.246 244.45 210.024 239.978C216.802 235.505 224.952 233.957 233.017 235.505C241.082 237.053 248.117 241.612 252.75 248.235C257.383 254.944 259.098 262.943 257.554 270.77L257.125 270.684L257.554 270.77C254.809 285.049 242.025 294.94 227.698 294.94ZM226.926 235.763C221.092 235.763 215.429 237.397 210.453 240.666C203.847 244.966 199.386 251.589 197.927 259.245C194.839 274.985 205.563 290.382 221.778 293.564C223.751 293.908 225.724 294.166 227.612 294.166C241.596 294.166 253.951 284.533 256.61 270.684C258.069 263.029 256.439 255.288 251.892 248.837C247.345 242.386 240.567 237.913 232.76 236.451C230.872 235.935 228.899 235.763 226.926 235.763Z" fill="#EDE059"/>
<path d="M229.842 288.575C226.582 288.575 223.15 288.059 219.461 286.769C197.069 278.856 197.841 255.288 197.927 255.03V254.858L198.013 254.772C198.184 254.6 211.997 236.537 233.875 244.45C255.752 252.364 256.696 273.867 256.696 274.125V274.297L256.61 274.383C256.439 274.555 246.229 288.575 229.842 288.575ZM198.699 255.202C198.699 257.094 198.785 278.598 219.719 285.909C240.652 293.306 254.551 275.587 255.752 273.953C255.666 272.061 253.951 252.622 233.532 245.225C213.112 237.913 199.9 253.74 198.699 255.202Z" fill="#EDE059"/>
<path d="M237.735 279.974C233.702 279.974 228.898 279.2 223.321 277.135C199.385 268.362 198.184 256.492 198.184 255.976V255.718L198.355 255.546C198.441 255.46 210.967 247.031 230.785 254.084C250.604 261.137 255.237 272.491 255.494 272.921L255.58 273.179L255.408 273.351C255.237 273.523 249.574 279.974 237.735 279.974ZM199.042 256.148C199.385 257.868 202.13 268.448 223.665 276.361C243.226 283.586 253.092 274.469 254.55 273.007C253.778 271.286 248.373 261.223 230.528 254.858C212.425 248.579 200.757 255.116 199.042 256.148Z" fill="#EDE059"/>
<path d="M198.722 255.546L198.457 256.364L254.918 274.768L255.183 273.95L198.722 255.546Z" fill="#EDE059"/>
<path d="M220.233 293.564C219.032 293.564 218.26 293.478 218.174 293.478L218.003 293.392C217.831 293.306 198.356 281.35 206.42 259.417C211.139 246.687 218.946 241.096 224.695 238.601C230.958 235.935 236.019 236.279 236.191 236.279H236.363L236.448 236.365C236.62 236.537 255.752 251.504 247.087 273.695C242.54 285.221 234.99 290.038 229.327 291.93C225.638 293.306 222.292 293.564 220.233 293.564ZM218.432 292.618C219.89 292.79 238.25 294.166 246.401 273.437C254.465 252.708 237.649 238.429 236.191 237.225C234.475 237.139 215.772 237.139 207.364 259.847C199.728 280.318 217.145 291.758 218.432 292.618Z" fill="#EDE059"/>
<path d="M218.09 293.478L217.918 293.306C217.832 293.22 207.794 282.296 215.001 262.427C223.323 239.462 235.592 236.451 236.106 236.279L236.364 236.193L236.535 236.365C236.621 236.451 245.629 247.977 238.251 268.878C229.672 292.962 218.69 293.392 218.175 293.392L218.09 293.478ZM236.106 237.225C234.305 237.827 223.323 242.042 215.859 262.685C212.17 272.835 213.113 280.49 214.572 285.049C215.945 289.349 217.918 291.93 218.433 292.532C219.891 292.36 229.758 290.382 237.479 268.62C241.254 257.955 240.653 249.955 239.452 245.052C238.423 240.666 236.707 237.999 236.106 237.225Z" fill="#EDE059"/>
<path d="M235.91 236.623L217.945 292.902L218.762 293.164L236.728 236.886L235.91 236.623Z" fill="#EDE059"/>
<path d="M223.7 309.813L206.467 304.258L205.679 306.715L222.913 312.27L223.7 309.813Z" fill="white"/>
<path d="M169.014 320.4C168.928 320.4 178.795 290.295 191.235 253.224C203.589 216.152 213.713 186.133 213.885 186.219C213.97 186.219 204.104 216.324 191.664 253.396C179.224 290.467 169.1 320.4 169.014 320.4Z" fill="#263238"/>
<path d="M267.735 226.048L214.973 209.04L213.555 213.461L266.317 230.47L267.735 226.048Z" fill="white"/>
<path d="M154.001 117.752C154.001 117.752 155.374 126.096 155.889 127.988C156.489 129.794 159.235 137.278 158.377 141.836C157.519 146.395 155.202 148.803 150.741 148.373L150.655 145.793C150.655 145.793 155.374 145.793 155.546 142.008C155.717 138.224 154.688 132.203 152.457 130.052C152.457 130.052 151.771 129.192 150.055 129.02V117.752H154.001Z" fill="#455A64"/>
<path d="M215.173 14.1061C215.173 14.1061 191.494 12.9879 186.003 13.0739C180.512 13.246 174.85 13.418 167.986 14.9662C161.123 16.5145 156.404 18.4928 153.916 20.8151L155.632 15.2243C155.632 15.2243 167.729 0.515959 174.249 0.171905C180.77 -0.172149 192.609 2.40825 199.816 5.84879C207.108 9.28933 215.173 14.1061 215.173 14.1061Z" fill="#EDE059"/>
<path opacity="0.3" d="M215.173 14.1061C215.173 14.1061 191.494 12.9879 186.003 13.0739C180.512 13.246 174.85 13.418 167.986 14.9662C161.123 16.5145 156.404 18.4928 153.916 20.8151L155.632 15.2243C155.632 15.2243 167.729 0.515959 174.249 0.171905C180.77 -0.172149 192.609 2.40825 199.816 5.84879C207.108 9.28933 215.173 14.1061 215.173 14.1061Z" fill="black"/>
<path d="M266.221 186.133L248.118 161.189L223.152 130.74L200.416 100.894L173.648 68.0365C173.648 68.0365 161.98 55.9086 154.516 59.9512C154.516 59.9512 152.371 62.1016 152.629 65.2841L153.658 75.6917C153.573 74.9176 162.152 85.5833 162.152 85.5833L191.151 124.203L221.693 162.393C221.693 162.393 248.804 194.476 251.292 197.487C253.78 200.497 257.727 204.97 261.759 202.734C265.792 200.497 265.963 196.197 265.105 193.874C264.247 191.638 266.221 186.133 266.221 186.133Z" fill="#EDE059"/>
<path opacity="0.3" d="M266.221 186.133L248.118 161.189L223.152 130.74L200.416 100.894L173.648 68.0365C173.648 68.0365 161.98 55.9086 154.516 59.9512C154.516 59.9512 152.371 62.1016 152.629 65.2841L153.658 75.6917C153.573 74.9176 162.152 85.5833 162.152 85.5833L191.151 124.203L221.693 162.393C221.693 162.393 248.804 194.476 251.292 197.487C253.78 200.497 257.727 204.97 261.759 202.734C265.792 200.497 265.963 196.197 265.105 193.874C264.247 191.638 266.221 186.133 266.221 186.133Z" fill="black"/>
<path d="M279.604 172.715C279.433 171.683 279.347 170.995 279.347 170.995L272.827 141.492L261.502 89.2819C261.502 89.2819 254.381 57.887 252.15 52.1241C249.92 46.4472 233.104 26.234 226.669 21.3313C224.61 19.783 219.548 16.3425 216.975 14.8803C216.975 14.8803 199.644 4.30062 187.376 1.72021C175.107 -0.860192 170.474 -2.15039 159.836 10.4936L158.463 13.5041C158.463 13.5041 170.646 2.83839 172.447 2.06427C174.335 1.29014 184.03 1.89224 191.236 4.12859C198.443 6.36494 214.229 14.8803 214.229 14.9663C218.004 17.2886 227.442 23.3956 228.557 25.804C229.93 28.9005 230.788 30.3627 231.645 35.7815C232.761 42.8346 235.506 52.1241 237.136 59.0052C237.136 59.0052 243.828 89.798 244.515 92.2924C248.118 105.022 255.754 151.212 255.754 151.212C255.754 151.212 262.875 189.832 263.046 191.982C263.304 194.132 264.934 200.583 259.529 203.336L280.033 198.605C280.033 198.605 281.835 198.089 281.921 194.218C282.093 190.864 280.291 177.446 279.604 172.715Z" fill="#EDE059"/>
<path d="M77.9883 136.59V325.733H220.922V136.59H77.9883ZM121.143 151.126H107.244C105.7 151.126 104.413 149.836 104.413 148.287C104.413 146.739 105.7 145.449 107.244 145.449H121.143C122.687 145.449 123.974 146.739 123.974 148.287C123.974 149.836 122.687 151.126 121.143 151.126ZM150.57 151.126C148.511 151.126 146.795 149.406 146.795 147.341C146.795 145.277 148.511 143.557 150.57 143.557C152.629 143.557 154.345 145.277 154.345 147.341C154.259 149.406 152.629 151.126 150.57 151.126ZM193.725 151.126H179.826C178.282 151.126 176.995 149.836 176.995 148.287C176.995 146.739 178.282 145.449 179.826 145.449H193.725C195.269 145.449 196.556 146.739 196.556 148.287C196.556 149.836 195.269 151.126 193.725 151.126Z" fill="white"/>
<path d="M193.725 151.126C193.725 151.04 194.412 151.212 195.355 150.524C195.784 150.18 196.213 149.577 196.385 148.803C196.556 148.029 196.299 147.083 195.613 146.395C195.269 146.051 194.755 145.793 194.24 145.707C193.725 145.621 193.125 145.707 192.524 145.707C191.323 145.707 190.036 145.707 188.663 145.707C185.918 145.707 182.915 145.707 179.826 145.707C179.14 145.707 178.368 146.051 177.939 146.567C177.424 147.083 177.253 147.771 177.253 148.459C177.253 149.147 177.596 149.749 178.111 150.266C178.625 150.696 179.226 150.954 179.912 150.954C182.572 150.954 185.06 150.954 187.119 151.04C189.092 151.04 190.808 151.126 192.009 151.126C192.524 151.126 192.953 151.126 193.296 151.126C193.554 151.126 193.725 151.126 193.725 151.126C193.725 151.126 193.554 151.126 193.296 151.212C192.953 151.212 192.524 151.212 192.009 151.212C190.808 151.212 189.178 151.212 187.119 151.298C185.06 151.298 182.572 151.298 179.912 151.384C179.226 151.384 178.454 151.126 177.853 150.61C177.253 150.094 176.909 149.319 176.824 148.545C176.738 147.771 177.081 146.911 177.596 146.309C178.111 145.707 178.969 145.277 179.826 145.363C183.001 145.363 185.918 145.363 188.663 145.363C190.036 145.363 191.323 145.363 192.524 145.363C193.125 145.363 193.725 145.363 194.326 145.449C194.926 145.535 195.441 145.879 195.784 146.223C196.556 146.997 196.814 148.029 196.642 148.889C196.471 149.749 195.956 150.352 195.527 150.696C195.012 151.04 194.583 151.126 194.24 151.212C193.897 151.126 193.725 151.126 193.725 151.126Z" fill="#263238"/>
<path d="M150.571 151.126C150.571 151.126 150.914 151.126 151.429 150.954C151.943 150.782 152.801 150.438 153.402 149.578C154.002 148.803 154.346 147.427 153.917 146.137C153.488 144.847 152.115 143.815 150.571 143.815C149.026 143.815 147.654 144.847 147.225 146.137C146.71 147.427 147.053 148.717 147.739 149.578C148.34 150.438 149.112 150.782 149.713 150.954C150.227 151.04 150.571 151.04 150.571 151.126C150.571 151.126 150.485 151.126 150.313 151.126C150.142 151.126 149.884 151.126 149.627 151.04C149.026 150.954 148.168 150.524 147.482 149.664C146.796 148.803 146.367 147.341 146.881 145.965C147.31 144.589 148.855 143.299 150.571 143.299C152.372 143.299 153.831 144.503 154.26 145.965C154.774 147.427 154.346 148.803 153.659 149.664C152.973 150.524 152.115 150.868 151.514 151.04C151.257 151.126 151 151.126 150.828 151.126C150.656 151.126 150.571 151.126 150.571 151.126Z" fill="#263238"/>
<path d="M121.143 151.126C121.143 151.04 121.829 151.212 122.773 150.524C123.202 150.18 123.631 149.577 123.803 148.803C123.974 148.029 123.717 147.083 123.031 146.395C122.687 146.051 122.173 145.793 121.658 145.707C121.143 145.621 120.543 145.707 119.942 145.707C118.741 145.707 117.454 145.707 116.081 145.707C113.336 145.707 110.333 145.707 107.244 145.707C106.558 145.707 105.786 146.051 105.357 146.567C104.842 147.083 104.671 147.771 104.671 148.459C104.671 149.147 105.014 149.749 105.529 150.266C106.043 150.696 106.644 150.954 107.33 150.954C109.99 150.954 112.478 150.954 114.537 151.04C116.51 151.04 118.226 151.126 119.427 151.126C119.942 151.126 120.371 151.126 120.714 151.126C120.972 151.126 121.143 151.126 121.143 151.126C121.143 151.126 120.972 151.126 120.714 151.212C120.371 151.212 119.942 151.212 119.427 151.212C118.226 151.212 116.596 151.212 114.537 151.298C112.478 151.298 109.99 151.298 107.33 151.384C106.644 151.384 105.872 151.126 105.271 150.61C104.671 150.094 104.327 149.319 104.242 148.545C104.156 147.771 104.499 146.911 105.014 146.309C105.529 145.707 106.387 145.277 107.244 145.363C110.419 145.363 113.336 145.363 116.081 145.363C117.454 145.363 118.741 145.363 119.942 145.363C120.543 145.363 121.143 145.363 121.744 145.449C122.344 145.535 122.859 145.879 123.202 146.223C123.974 146.997 124.232 148.029 124.06 148.889C123.889 149.749 123.374 150.352 122.945 150.696C122.43 151.04 122.001 151.126 121.658 151.212C121.315 151.126 121.143 151.126 121.143 151.126Z" fill="#263238"/>
<path d="M77.9879 136.59C79.5322 136.59 134.526 136.503 220.921 136.417H221.093V136.59C221.093 190.09 221.093 255.374 221.093 325.733V325.991H220.835C169.445 325.991 120.713 325.991 77.9021 325.991H77.7305V325.819C77.9021 213.658 77.9879 138.396 77.9879 136.59C77.9879 138.396 78.0736 213.658 78.1594 325.733L77.9879 325.561C120.799 325.561 169.53 325.561 220.921 325.561L220.664 325.819C220.664 255.46 220.664 190.176 220.664 136.676L220.835 136.848C134.44 136.676 79.4464 136.59 77.9879 136.59Z" fill="#263238"/>
<path d="M199.901 223.893C197.671 223.893 195.783 222.087 195.783 219.764C195.783 217.442 197.585 215.636 199.901 215.636C202.132 215.636 204.019 217.442 204.019 219.764C204.019 222.087 202.218 223.893 199.901 223.893ZM199.901 216.496C198.1 216.496 196.641 217.958 196.641 219.764C196.641 221.571 198.1 223.033 199.901 223.033C201.703 223.033 203.162 221.571 203.162 219.764C203.162 217.958 201.703 216.496 199.901 216.496Z" fill="#EDE059"/>
<path d="M203.247 238.171C204.242 238.171 205.049 237.362 205.049 236.365C205.049 235.367 204.242 234.559 203.247 234.559C202.252 234.559 201.445 235.367 201.445 236.365C201.445 237.362 202.252 238.171 203.247 238.171Z" fill="#EDE059"/>
<path d="M109.99 180.026L107.244 177.274L109.99 174.521L112.735 177.274L109.99 180.026ZM108.531 177.274L110.075 178.822L111.62 177.274L110.075 175.725L108.531 177.274Z" fill="#EDE059"/>
<path d="M101.152 279.372L104.413 281.178L107.758 282.984L104.498 284.962L101.324 286.941L101.238 283.156L101.152 279.372Z" fill="#EDE059"/>
<path d="M172.792 255.46L172.706 255.546L169.789 249.525L169.36 249.439L168.502 263.975L169.103 269.394C173.821 267.588 178.626 265.351 178.283 264.147C178.111 263.459 175.88 259.675 173.306 255.288C172.963 255.46 172.706 255.546 172.706 255.546C172.706 255.546 172.706 255.546 172.792 255.46Z" fill="#EBEBEB"/>
<path d="M163.697 209.959C163.783 211.851 161.895 213.572 159.922 213.572C157.949 213.572 156.233 212.109 155.289 210.389V216.84C155.461 216.84 155.546 216.84 155.546 216.84C164.984 217.442 171.933 221.571 177.167 228.71C177.167 228.71 185.231 239.892 189.178 246.429L188.063 247.031C188.063 247.117 188.148 247.117 188.148 247.203C189.006 246.773 189.607 246.515 189.607 246.601C189.607 246.601 189.092 246.945 188.234 247.461C188.749 248.493 189.349 249.525 189.864 250.557C189.95 249.611 189.95 248.751 189.95 247.805C189.95 231.72 180.513 217.872 166.957 211.507C165.928 211.421 164.898 210.991 164.04 210.303C163.954 210.045 163.869 209.959 163.697 209.959Z" fill="#EBEBEB"/>
<path d="M139.589 216.754C139.589 216.754 139.675 216.754 139.847 216.754C139.761 214.518 139.675 211.421 139.589 210.045L139.504 209.357C139.418 209.357 139.075 209.271 138.56 209.185C127.407 212.539 118.312 220.539 113.594 231.032L121.658 224.925C128.265 220.109 132.554 217.098 139.589 216.754Z" fill="#EBEBEB"/>
<path d="M128.179 258.815C129.037 260.363 129.723 261.223 129.723 261.223C129.723 261.223 129.466 261.051 129.123 260.621C128.78 260.191 128.351 259.589 127.836 258.729C127.321 257.869 126.721 256.922 126.12 255.804C125.605 254.6 125.434 253.138 125.434 251.676C125.434 251.59 125.434 251.59 125.434 251.504C125.348 250.041 125.605 248.579 126.12 246.945L121.573 250.213C121.487 250.213 120.801 249.439 119.514 248.063C119.428 247.977 119.256 247.805 119.171 247.633C116.597 249.181 113.594 250.729 110.248 252.278C111.707 264.836 118.913 275.587 129.123 281.866L129.809 261.051C129.294 260.363 128.694 259.589 128.179 258.815Z" fill="#EBEBEB"/>
<path d="M190.979 252.536C190.636 251.848 190.293 251.073 189.949 250.385C189.435 249.353 188.92 248.321 188.319 247.289C186.861 248.149 184.201 249.611 181.284 251.159C177.595 253.138 174.506 254.686 173.22 255.288C175.793 259.589 178.024 263.459 178.196 264.147C178.539 265.352 173.82 267.502 169.016 269.394L170.388 282.038C170.646 281.866 170.903 281.78 171.16 281.608C181.542 275.415 188.92 264.836 190.979 252.536Z" fill="#FFBE9D"/>
<path d="M114.709 242.902C112.821 240.838 111.105 238.946 109.904 237.569C109.389 236.881 108.875 236.365 108.617 235.935C106.301 237.569 104.757 238.429 104.585 237.827C101.754 226.043 102.526 210.991 102.955 205.228C103.298 204.712 103.641 204.196 104.07 203.594C104.585 202.906 105.186 202.304 105.872 201.788C106.73 201.186 107.845 200.411 108.617 200.239C109.561 199.981 109.733 198.691 108.875 198.433C108.017 198.089 105.443 198.777 103.041 200.842C100.638 202.906 101.582 198.089 101.925 196.283C102.269 194.563 103.041 189.058 102.526 188.542C101.84 187.768 100.896 188.37 100.638 190.176C100.381 191.982 99.0941 197.229 98.2362 196.971C97.2924 196.799 99.0941 187.854 99.0941 187.854C99.0941 187.854 99.7805 185.961 98.7509 185.703C96.8635 185.273 95.6623 194.907 95.5766 195.767C95.4908 196.369 94.4612 196.197 94.6328 195.509C94.7186 194.821 96.6061 186.649 94.7186 186.133C93.2601 185.789 93.6891 194.046 92.3164 195.595C90.9437 197.143 92.6595 189.23 91.201 188.972C90.6863 188.886 90.2573 188.886 89.9141 193.444C89.7425 195.939 89.9999 200.67 90.3431 204.626C89.0562 217.356 87.6835 261.223 104.156 254.944C106.387 254.084 108.446 253.224 110.333 252.364C113.765 250.815 116.682 249.267 119.256 247.719C118.055 246.429 116.51 244.708 114.709 242.902Z" fill="#FFBE9D"/>
<path d="M161.382 285.221C161.296 284.619 162.068 284.619 162.068 284.619C162.068 284.619 161.21 283.758 161.725 283.156C162.24 282.554 163.269 283.5 163.269 283.5C163.269 283.5 163.527 282.812 163.87 282.898C164.299 282.898 164.642 284.016 164.642 284.016C164.642 284.016 164.899 283.586 165.243 283.672C165.328 283.758 165.586 284.016 165.672 284.447C167.302 283.758 168.932 282.898 170.476 282.038L169.103 269.394L168.503 263.975L169.361 249.439L169.79 249.525L172.707 255.546L172.793 255.46C173.393 255.03 176.825 253.052 181.115 250.815C182.144 250.213 183.174 249.697 184.117 249.181L188.15 246.945L189.265 246.343C185.319 239.806 177.254 228.624 177.254 228.624C172.02 221.485 165.071 217.356 155.634 216.754C155.634 216.84 154.776 217.184 153.403 217.528C151.945 217.872 149.971 218.216 147.655 218.216C145.424 218.216 143.365 217.872 141.907 217.528C140.448 217.184 139.59 216.84 139.676 216.754C132.641 217.012 128.265 220.022 121.745 224.839L113.68 230.946L108.189 235.075C108.275 235.075 108.962 235.849 110.249 237.225C111.45 238.601 113.166 240.408 115.139 242.472C117.026 244.536 118.742 246.429 119.943 247.805C120.544 248.493 120.973 249.095 121.316 249.525C121.659 249.955 121.745 250.213 121.745 250.213L126.292 246.945C125.777 248.579 125.52 250.041 125.606 251.503C125.606 250.815 125.691 250.127 125.777 249.525C125.863 248.837 126.12 248.149 126.292 247.547C126.721 246.343 127.322 245.31 127.922 244.536C128.523 243.762 128.952 243.16 129.381 242.73C129.724 242.3 129.981 242.128 129.981 242.128C130.067 242.214 129.209 243.074 128.18 244.622C127.665 245.396 127.15 246.429 126.721 247.547C126.292 248.751 126.12 250.041 126.035 251.503C126.035 252.966 126.12 254.342 126.635 255.46C127.15 256.578 127.751 257.61 128.18 258.384C128.18 258.47 128.265 258.556 128.265 258.556C128.78 259.245 129.295 260.019 129.981 260.793L129.295 281.608V282.296C130.925 283.242 132.727 284.016 134.443 284.705C134.528 284.36 135.129 284.36 135.129 284.36C135.129 284.36 134.271 283.5 134.786 282.898C135.3 282.296 136.33 283.242 136.33 283.242C136.33 283.242 136.587 282.554 136.931 282.64C137.36 282.64 137.703 283.758 137.703 283.758C137.703 283.758 137.96 283.328 138.303 283.414C138.561 283.5 139.161 284.877 138.904 286.081C142.336 286.941 145.853 287.457 149.542 287.457C149.628 287.457 149.714 287.457 149.885 287.457C154.175 287.457 158.208 286.769 162.068 285.565C161.725 285.737 161.468 285.479 161.382 285.221ZM164.042 272.319C163.613 272.319 163.613 271.63 164.042 271.63C164.471 271.63 164.471 272.319 164.042 272.319ZM171.849 240.752C171.763 240.752 171.763 240.752 171.677 240.752C171.42 240.752 171.42 240.322 171.677 240.322C171.763 240.322 171.763 240.322 171.849 240.322C172.192 240.236 172.192 240.752 171.849 240.752ZM177.34 249.783C177.34 249.783 177.082 249.955 176.739 249.525C176.739 249.525 176.911 250.471 176.396 250.815C175.881 251.159 175.538 250.471 175.538 250.471C175.538 250.471 175.195 251.589 174.423 251.417C173.651 251.245 174.079 249.869 174.079 249.869C174.079 249.869 173.393 249.955 173.222 249.611C173.05 249.267 173.908 248.407 173.908 248.407C173.908 248.407 173.393 248.321 173.307 247.977C173.307 247.633 174.766 246.084 176.224 246.257C176.653 245.396 176.911 244.794 176.996 244.794C177.082 244.794 176.825 245.482 176.482 246.343C176.825 246.515 178.283 248.321 177.34 249.783ZM183.688 244.622C183.259 244.622 183.259 243.934 183.688 243.934C184.117 243.934 184.117 244.622 183.688 244.622ZM173.908 232.408C174.423 231.806 175.452 232.752 175.452 232.752C175.452 232.752 175.71 232.064 176.053 232.15C176.482 232.15 176.825 233.269 176.825 233.269C176.825 233.269 177.082 232.838 177.425 232.924C177.769 233.01 178.455 235.075 177.683 236.365C178.283 237.053 178.712 237.655 178.712 237.655C178.627 237.655 178.198 237.225 177.597 236.537C177.34 236.709 175.023 237.225 174.165 235.763C174.165 235.763 174.079 235.419 174.68 235.333C174.68 235.333 173.736 235.075 173.65 234.473C173.565 233.871 174.337 233.871 174.337 233.871C174.337 233.871 173.393 233.01 173.908 232.408ZM166.873 223.377C167.216 223.377 167.216 223.893 166.873 223.893C166.53 223.893 166.53 223.377 166.873 223.377ZM165.586 231.204C165.929 231.204 165.929 231.72 165.586 231.72C165.243 231.72 165.243 231.204 165.586 231.204ZM164.556 252.277C164.728 252.449 164.642 252.88 164.299 252.88H164.213C164.042 252.88 163.956 252.794 163.956 252.622V252.536C163.87 252.191 164.299 252.105 164.556 252.277ZM160.61 242.214C161.039 242.214 161.039 242.816 160.61 242.816C160.267 242.902 160.267 242.214 160.61 242.214ZM156.063 222.087C156.063 222.087 156.32 221.915 156.663 222.345C156.663 222.345 156.577 221.399 157.092 221.055C157.607 220.711 157.95 221.485 157.95 221.485C157.95 221.485 158.379 220.366 159.151 220.625C159.923 220.883 159.409 222.173 159.409 222.173C159.409 222.173 160.095 222.087 160.267 222.517C160.438 222.861 159.494 223.635 159.494 223.635C159.494 223.635 160.009 223.721 160.009 224.065C160.009 224.409 158.465 225.871 157.006 225.613C156.577 226.473 156.234 227.076 156.234 227.076C156.148 227.076 156.406 226.387 156.749 225.613C156.492 225.269 155.119 223.463 156.063 222.087ZM149.371 260.621C149.457 260.621 149.457 260.621 149.542 260.621C149.8 260.707 149.8 261.051 149.542 261.137C149.457 261.137 149.457 261.137 149.371 261.137C148.942 261.223 148.942 260.535 149.371 260.621ZM148.856 238.343C148.856 238.257 148.856 238.257 148.856 238.171C148.856 237.741 149.457 237.741 149.457 238.171C149.457 238.257 149.457 238.257 149.457 238.343C149.542 238.773 148.77 238.773 148.856 238.343ZM147.569 283.414C147.826 283.414 147.998 283.672 147.826 283.93C147.826 283.93 147.826 283.93 147.826 284.016C147.655 284.188 147.483 284.188 147.312 284.016C147.312 284.016 147.312 284.016 147.312 283.93C147.14 283.758 147.397 283.414 147.569 283.414ZM147.569 251.073C147.998 251.073 147.998 251.761 147.569 251.761C147.14 251.761 147.14 251.073 147.569 251.073ZM147.054 271.458C147.054 271.803 146.454 271.803 146.454 271.458V271.372C146.454 271.028 146.968 271.028 147.054 271.458C147.054 271.372 147.054 271.458 147.054 271.458ZM145.853 226.99C145.939 227.506 145.167 227.506 145.253 226.99V226.903C145.338 226.645 145.853 226.645 145.853 226.99C145.853 226.903 145.853 226.903 145.853 226.99ZM132.555 267.33C132.812 267.33 132.812 267.674 132.555 267.674C132.298 267.674 132.298 267.33 132.555 267.33ZM130.324 254.256C130.324 254.17 130.324 254.17 130.41 254.084C130.496 253.826 130.753 253.826 130.839 254.084C130.839 254.17 130.839 254.17 130.925 254.256C131.011 254.686 130.153 254.686 130.324 254.256ZM128.523 235.419C128.608 235.161 128.952 235.161 129.037 235.333C129.037 235.333 129.037 235.333 129.037 235.419C129.295 236.021 128.18 236.021 128.523 235.419ZM128.18 226.903C128.523 226.903 128.523 227.506 128.18 227.506C127.836 227.42 127.836 226.903 128.18 226.903ZM116.597 239.806C116.254 239.806 116.254 239.203 116.597 239.203C117.026 239.289 117.026 239.806 116.597 239.806ZM118.399 234.473C118.399 234.473 118.313 234.129 118.914 234.043C118.914 234.043 117.97 233.785 117.884 233.182C117.798 232.58 118.571 232.58 118.571 232.58C118.571 232.58 117.713 231.72 118.227 231.118C118.742 230.516 119.772 231.462 119.772 231.462C119.772 231.462 120.029 230.774 120.372 230.86C120.801 230.86 121.144 231.978 121.144 231.978C121.144 231.978 121.402 231.548 121.745 231.634C122.088 231.72 122.774 233.785 122.002 235.075C122.603 235.763 123.032 236.365 123.032 236.365C122.946 236.365 122.517 235.935 121.917 235.247C121.488 235.333 119.257 235.849 118.399 234.473ZM124.576 247.117C124.576 247.117 124.319 247.289 123.976 246.859C123.976 246.859 124.147 247.805 123.632 248.149C123.118 248.493 122.774 247.805 122.774 247.805C122.774 247.805 122.431 248.923 121.659 248.751C120.887 248.579 121.316 247.203 121.316 247.203C121.316 247.203 120.63 247.289 120.458 246.945C120.286 246.601 121.144 245.74 121.144 245.74C121.144 245.74 120.63 245.654 120.544 245.31C120.544 244.966 122.002 243.418 123.461 243.59C123.89 242.73 124.147 242.128 124.233 242.128C124.319 242.128 124.061 242.816 123.718 243.676C123.976 243.848 125.434 245.654 124.576 247.117ZM134.871 226.215C134.443 227.076 134.099 227.678 134.099 227.678C134.014 227.678 134.271 226.99 134.614 226.215C134.357 225.957 132.984 224.151 133.928 222.775C133.928 222.775 134.185 222.603 134.528 223.033C134.528 223.033 134.443 222.087 134.957 221.743C135.472 221.399 135.815 222.173 135.815 222.173C135.815 222.173 136.244 221.055 137.016 221.313C137.788 221.571 137.274 222.861 137.274 222.861C137.274 222.861 137.96 222.775 138.132 223.205C138.303 223.549 137.36 224.323 137.36 224.323C137.36 224.323 137.874 224.409 137.874 224.753C137.96 225.011 136.33 226.387 134.871 226.215ZM136.244 234.817C136.244 234.817 135.386 233.957 135.901 233.354C136.416 232.752 137.445 233.699 137.445 233.699C137.445 233.699 137.703 233.01 138.046 233.096C138.475 233.096 138.818 234.215 138.818 234.215C138.818 234.215 139.075 233.785 139.419 233.871C139.762 233.957 140.448 236.021 139.676 237.311C140.277 237.999 140.705 238.601 140.705 238.601C140.62 238.601 140.191 238.171 139.59 237.483C139.333 237.655 137.016 238.171 136.158 236.709C136.158 236.709 136.073 236.365 136.673 236.279C136.673 236.279 135.729 236.021 135.644 235.419C135.386 234.817 136.244 234.817 136.244 234.817ZM139.333 242.73C139.333 242.644 139.247 242.644 139.247 242.558C139.075 242.214 139.59 241.956 139.762 242.3C139.762 242.386 139.762 242.386 139.848 242.472C140.019 242.816 139.504 243.074 139.333 242.73ZM135.987 253.396C135.901 253.396 136.158 252.708 136.502 251.933C136.244 251.675 134.871 249.869 135.815 248.493C135.815 248.493 136.073 248.321 136.416 248.751C136.416 248.751 136.33 247.805 136.845 247.461C137.36 247.117 137.703 247.891 137.703 247.891C137.703 247.891 138.132 246.773 138.904 247.031C139.676 247.289 139.161 248.579 139.161 248.579C139.161 248.579 139.848 248.493 140.019 248.923C140.191 249.267 139.247 250.041 139.247 250.041C139.247 250.041 139.762 250.127 139.762 250.471C139.762 250.815 138.217 252.277 136.759 252.019C136.416 252.794 136.073 253.396 135.987 253.396ZM138.475 277.823C138.389 277.823 138.389 277.823 138.303 277.909C138.046 277.995 137.874 277.565 138.132 277.393C138.217 277.393 138.217 277.307 138.303 277.307C138.561 277.049 138.904 277.651 138.475 277.823ZM137.617 265.782C137.617 265.782 137.531 265.438 138.132 265.352C138.132 265.352 137.188 265.093 137.102 264.491C137.016 263.889 137.788 263.889 137.788 263.889C137.788 263.889 136.931 263.029 137.445 262.427C137.96 261.825 138.99 262.771 138.99 262.771C138.99 262.771 139.247 262.083 139.59 262.169C140.019 262.169 140.362 263.287 140.362 263.287C140.362 263.287 140.62 262.857 140.963 262.943C141.306 263.029 141.992 265.093 141.22 266.384C141.821 267.072 142.25 267.674 142.25 267.674C142.164 267.674 141.735 267.244 141.134 266.556C140.791 266.642 138.561 267.158 137.617 265.782ZM154.433 275.243C154.433 275.587 152.888 277.049 151.43 276.791C151.001 277.651 150.658 278.254 150.658 278.254C150.572 278.254 150.829 277.565 151.172 276.791C150.915 276.533 149.542 274.727 150.486 273.351C150.486 273.351 150.743 273.179 151.087 273.609C151.087 273.609 151.001 272.663 151.516 272.319C152.03 271.975 152.374 272.749 152.374 272.749C152.374 272.749 152.802 271.631 153.575 271.889C154.347 272.147 153.832 273.437 153.832 273.437C153.832 273.437 154.518 273.351 154.69 273.781C154.862 274.125 153.918 274.899 153.918 274.899C153.918 274.899 154.347 274.813 154.433 275.243ZM156.577 250.471C156.577 250.815 155.033 252.277 153.575 252.019C153.146 252.88 152.802 253.482 152.802 253.482C152.717 253.482 152.974 252.794 153.317 252.019C153.06 251.761 151.687 249.955 152.631 248.579C152.631 248.579 152.888 248.407 153.231 248.837C153.231 248.837 153.146 247.891 153.66 247.547C154.175 247.203 154.518 247.977 154.518 247.977C154.518 247.977 154.947 246.859 155.719 247.117C156.492 247.375 155.977 248.665 155.977 248.665C155.977 248.665 156.663 248.579 156.835 249.009C157.006 249.439 156.063 250.127 156.063 250.127C156.063 250.127 156.577 250.127 156.577 250.471ZM155.119 236.795C155.119 236.795 155.033 236.451 155.634 236.365C155.634 236.365 154.69 236.107 154.604 235.505C154.433 234.817 155.291 234.817 155.291 234.817C155.291 234.817 154.433 233.957 154.947 233.354C155.462 232.752 156.492 233.699 156.492 233.699C156.492 233.699 156.749 233.01 157.092 233.096C157.521 233.096 157.864 234.215 157.864 234.215C157.864 234.215 158.122 233.785 158.465 233.871C158.808 233.957 159.494 236.021 158.722 237.311C159.323 237.999 159.752 238.601 159.752 238.601C159.666 238.601 159.237 238.171 158.636 237.483C158.293 237.655 155.977 238.171 155.119 236.795ZM158.208 282.038C157.779 282.038 157.779 281.35 158.208 281.35C158.636 281.35 158.636 282.038 158.208 282.038ZM159.58 264.921C159.58 264.921 159.494 264.577 160.095 264.491C160.095 264.491 159.151 264.233 159.065 263.631C158.98 263.029 159.752 263.029 159.752 263.029C159.752 263.029 158.894 262.169 159.409 261.567C159.923 260.965 160.953 261.911 160.953 261.911C160.953 261.911 161.21 261.223 161.554 261.309C161.982 261.309 162.326 262.427 162.326 262.427C162.326 262.427 162.583 261.997 162.926 262.083C163.269 262.169 163.956 264.233 163.184 265.524C163.784 266.212 164.213 266.814 164.213 266.814C164.127 266.814 163.698 266.384 163.098 265.696C162.755 265.782 160.438 266.298 159.58 264.921Z" fill="#EDE059"/>
<path d="M121.83 235.247C121.659 235.075 121.487 234.903 121.316 234.645C120.458 233.699 119.771 232.839 119.857 232.839C119.943 232.753 120.629 233.527 121.573 234.473C121.744 234.645 121.916 234.817 122.088 234.989C122.86 233.699 122.173 231.72 121.83 231.548C121.487 231.462 121.23 231.892 121.23 231.892C121.23 231.892 120.887 230.774 120.458 230.774C120.029 230.774 119.857 231.376 119.857 231.376C119.857 231.376 118.827 230.43 118.313 231.032C117.798 231.634 118.656 232.494 118.656 232.494C118.656 232.494 117.884 232.494 117.97 233.097C118.055 233.699 118.999 233.957 118.999 233.957C118.399 234.129 118.484 234.387 118.484 234.387C119.256 235.849 121.487 235.333 121.83 235.247Z" fill="#E0E0E0"/>
<path d="M119.857 232.839C119.771 232.925 120.457 233.699 121.315 234.645C121.487 234.817 121.659 235.075 121.83 235.247C122.431 235.935 122.945 236.365 122.945 236.365C123.031 236.365 122.602 235.763 121.916 235.075C121.744 234.903 121.573 234.731 121.401 234.559C120.629 233.527 119.857 232.753 119.857 232.839Z" fill="#263238"/>
<path d="M136.587 236.365C135.987 236.537 136.072 236.795 136.072 236.795C136.93 238.171 139.247 237.655 139.504 237.569C139.333 237.397 139.161 237.225 138.989 236.967C138.131 236.021 137.445 235.161 137.531 235.161C137.617 235.075 138.303 235.849 139.247 236.795C139.418 236.967 139.59 237.139 139.761 237.311C140.534 236.021 139.847 234.043 139.504 233.871C139.161 233.785 138.904 234.215 138.904 234.215C138.904 234.215 138.56 233.096 138.131 233.096C137.702 233.096 137.531 233.699 137.531 233.699C137.531 233.699 136.501 232.752 135.987 233.354C135.472 233.957 136.33 234.817 136.33 234.817C136.33 234.817 135.558 234.817 135.643 235.419C135.643 236.021 136.587 236.365 136.587 236.365Z" fill="#E0E0E0"/>
<path d="M137.531 235.161C137.445 235.247 138.131 236.021 138.989 236.967C139.161 237.139 139.332 237.397 139.504 237.569C140.105 238.257 140.619 238.687 140.619 238.687C140.705 238.687 140.276 238.085 139.59 237.397C139.418 237.225 139.247 237.053 139.075 236.881C138.303 235.849 137.616 235.075 137.531 235.161Z" fill="#263238"/>
<path d="M158.036 236.967C157.178 236.021 156.492 235.161 156.578 235.161C156.664 235.075 157.35 235.849 158.294 236.795C158.465 236.967 158.637 237.139 158.808 237.311C159.581 236.021 158.894 234.043 158.551 233.871C158.208 233.785 157.95 234.215 157.95 234.215C157.95 234.215 157.607 233.096 157.178 233.096C156.749 233.096 156.578 233.699 156.578 233.699C156.578 233.699 155.548 232.752 155.033 233.354C154.519 233.957 155.377 234.817 155.377 234.817C155.377 234.817 154.604 234.817 154.69 235.419C154.776 236.021 155.72 236.279 155.72 236.279C155.119 236.451 155.205 236.709 155.205 236.709C156.063 238.085 158.379 237.569 158.637 237.483C158.379 237.311 158.208 237.139 158.036 236.967Z" fill="#E0E0E0"/>
<path d="M156.578 235.161C156.492 235.247 157.178 236.021 158.036 236.967C158.208 237.139 158.379 237.397 158.551 237.569C159.151 238.257 159.666 238.687 159.666 238.687C159.752 238.687 159.323 238.085 158.637 237.397C158.465 237.225 158.293 237.053 158.122 236.881C157.35 235.849 156.663 235.075 156.578 235.161Z" fill="#263238"/>
<path d="M163.012 265.696C162.84 265.524 162.669 265.352 162.497 265.094C161.639 264.147 160.953 263.287 161.039 263.287C161.124 263.201 161.811 263.975 162.755 264.921C162.926 265.094 163.098 265.266 163.269 265.438C164.041 264.147 163.355 262.169 163.012 261.997C162.669 261.911 162.411 262.341 162.411 262.341C162.411 262.341 162.068 261.223 161.639 261.223C161.21 261.223 161.039 261.825 161.039 261.825C161.039 261.825 160.009 260.879 159.494 261.481C158.98 262.083 159.838 262.943 159.838 262.943C159.838 262.943 159.065 262.943 159.151 263.545C159.237 264.147 160.181 264.405 160.181 264.405C159.58 264.577 159.666 264.835 159.666 264.835C160.438 266.298 162.755 265.782 163.012 265.696Z" fill="#E0E0E0"/>
<path d="M161.039 263.287C160.953 263.373 161.639 264.147 162.497 265.093C162.669 265.265 162.84 265.523 163.012 265.695C163.612 266.384 164.127 266.814 164.127 266.814C164.213 266.814 163.784 266.212 163.098 265.523C162.926 265.351 162.754 265.179 162.583 265.007C161.811 263.975 161.124 263.201 161.039 263.287Z" fill="#263238"/>
<path d="M138.218 283.758C137.875 283.672 137.618 284.102 137.618 284.102C137.618 284.102 137.274 282.984 136.845 282.984C136.416 282.984 136.245 283.586 136.245 283.586C136.245 283.586 135.215 282.64 134.701 283.242C134.186 283.844 135.044 284.704 135.044 284.704C135.044 284.704 134.529 284.704 134.357 285.048C135.215 285.393 136.159 285.737 137.017 285.995C136.588 285.479 136.245 285.048 136.331 285.048C136.416 285.048 136.845 285.479 137.532 286.167C137.961 286.253 138.39 286.425 138.819 286.511C139.076 285.221 138.476 283.844 138.218 283.758Z" fill="#E0E0E0"/>
<path d="M136.33 284.963C136.33 284.963 136.587 285.393 137.016 285.909C137.188 285.995 137.36 285.995 137.445 286.081C136.931 285.393 136.416 284.876 136.33 284.963Z" fill="#263238"/>
<path d="M176.568 246.343C176.482 246.601 176.396 246.773 176.311 247.031C175.796 248.235 175.367 249.181 175.281 249.181C175.195 249.181 175.538 248.149 176.053 246.945C176.139 246.687 176.225 246.515 176.311 246.343C174.852 246.171 173.308 247.633 173.394 248.063C173.394 248.407 173.994 248.493 173.994 248.493C173.994 248.493 173.136 249.267 173.308 249.697C173.479 250.041 174.166 249.955 174.166 249.955C174.166 249.955 173.737 251.331 174.509 251.503C175.281 251.675 175.624 250.557 175.624 250.557C175.624 250.557 175.967 251.245 176.482 250.901C176.997 250.557 176.825 249.611 176.825 249.611C177.169 250.041 177.426 249.869 177.426 249.869C178.284 248.321 176.825 246.515 176.568 246.343Z" fill="#E0E0E0"/>
<path d="M175.281 249.181C175.367 249.181 175.795 248.235 176.31 247.031C176.396 246.773 176.482 246.515 176.568 246.343C176.911 245.483 177.082 244.88 177.082 244.794C176.997 244.794 176.739 245.397 176.31 246.257C176.224 246.429 176.139 246.687 176.053 246.859C175.538 248.149 175.195 249.095 175.281 249.181Z" fill="#263238"/>
<path d="M123.718 243.676C123.633 243.934 123.547 244.106 123.461 244.364C122.946 245.568 122.517 246.515 122.432 246.515C122.346 246.515 122.689 245.482 123.204 244.278C123.289 244.02 123.375 243.848 123.461 243.676C122.003 243.504 120.458 244.966 120.544 245.396C120.544 245.74 121.145 245.826 121.145 245.826C121.145 245.826 120.287 246.601 120.458 247.031C120.63 247.375 121.316 247.289 121.316 247.289C121.316 247.289 120.887 248.665 121.659 248.837C122.432 249.009 122.775 247.891 122.775 247.891C122.775 247.891 123.118 248.579 123.633 248.235C124.147 247.891 123.976 246.945 123.976 246.945C124.319 247.375 124.576 247.203 124.576 247.203C125.434 245.654 123.976 243.848 123.718 243.676Z" fill="#E0E0E0"/>
<path d="M122.431 246.515C122.517 246.515 122.946 245.568 123.461 244.364C123.546 244.106 123.632 243.848 123.718 243.676C124.061 242.816 124.233 242.214 124.233 242.128C124.147 242.128 123.89 242.73 123.461 243.59C123.375 243.762 123.289 244.02 123.203 244.192C122.689 245.482 122.345 246.429 122.431 246.515Z" fill="#263238"/>
<path d="M173.65 234.473C173.736 235.075 174.679 235.333 174.679 235.333C174.079 235.505 174.165 235.763 174.165 235.763C175.022 237.139 177.339 236.623 177.596 236.537C177.425 236.365 177.253 236.193 177.082 235.935C176.224 234.989 175.537 234.129 175.623 234.129C175.709 234.043 176.395 234.817 177.339 235.763C177.51 235.935 177.682 236.107 177.854 236.279C178.626 234.989 177.939 233.01 177.596 232.838C177.253 232.752 176.996 233.182 176.996 233.182C176.996 233.182 176.653 232.064 176.224 232.064C175.795 232.064 175.623 232.666 175.623 232.666C175.623 232.666 174.593 231.72 174.079 232.322C173.564 232.924 174.422 233.784 174.422 233.784C174.422 233.784 173.478 233.871 173.65 234.473Z" fill="#E0E0E0"/>
<path d="M175.622 234.129C175.537 234.215 176.223 234.989 177.081 235.935C177.253 236.107 177.424 236.365 177.596 236.537C178.196 237.225 178.711 237.655 178.711 237.655C178.797 237.655 178.368 237.053 177.682 236.365C177.51 236.193 177.338 236.021 177.167 235.849C176.395 234.817 175.708 234.043 175.622 234.129Z" fill="#263238"/>
<path d="M141.049 266.47C140.877 266.298 140.706 266.126 140.534 265.868C139.676 264.922 138.99 264.061 139.076 264.061C139.162 263.975 139.848 264.75 140.792 265.696C140.963 265.868 141.135 266.04 141.306 266.212C142.079 264.922 141.392 262.943 141.049 262.771C140.706 262.685 140.448 263.115 140.448 263.115C140.448 263.115 140.105 261.997 139.676 261.997C139.247 261.997 139.076 262.599 139.076 262.599C139.076 262.599 138.046 261.653 137.531 262.255C137.017 262.857 137.875 263.717 137.875 263.717C137.875 263.717 137.103 263.717 137.188 264.319C137.274 264.922 138.218 265.18 138.218 265.18C137.617 265.352 137.703 265.61 137.703 265.61C138.561 267.158 140.792 266.642 141.049 266.47Z" fill="#E0E0E0"/>
<path d="M139.076 264.061C138.99 264.147 139.676 264.921 140.534 265.868C140.706 266.04 140.877 266.298 141.049 266.47C141.649 267.158 142.164 267.588 142.164 267.588C142.25 267.588 141.821 266.986 141.135 266.298C140.963 266.126 140.791 265.954 140.62 265.782C139.934 264.749 139.161 264.061 139.076 264.061Z" fill="#263238"/>
<path d="M165.242 283.672C164.899 283.586 164.642 284.016 164.642 284.016C164.642 284.016 164.299 282.898 163.87 282.898C163.441 282.898 163.269 283.5 163.269 283.5C163.269 283.5 162.24 282.554 161.725 283.156C161.21 283.758 162.068 284.618 162.068 284.618C162.068 284.618 161.296 284.618 161.382 285.221C161.467 285.479 161.639 285.737 161.896 285.823C162.497 285.651 163.012 285.479 163.612 285.221C163.441 285.049 163.355 284.876 163.355 284.876C163.355 284.876 163.527 284.962 163.784 285.221C164.384 284.962 165.071 284.704 165.671 284.446C165.586 284.016 165.414 283.758 165.242 283.672Z" fill="#E0E0E0"/>
<path d="M163.613 285.307C163.699 285.307 163.699 285.307 163.784 285.221C163.527 285.048 163.441 284.876 163.355 284.876C163.355 284.962 163.441 285.048 163.613 285.307Z" fill="#263238"/>
<path d="M139.762 250.299C139.762 249.955 139.247 249.869 139.247 249.869C139.247 249.869 140.105 249.095 140.019 248.751C139.848 248.407 139.161 248.407 139.161 248.407C139.161 248.407 139.676 247.117 138.904 246.859C138.132 246.601 137.703 247.719 137.703 247.719C137.703 247.719 137.36 246.945 136.845 247.289C136.33 247.633 136.416 248.579 136.416 248.579C136.073 248.063 135.815 248.321 135.815 248.321C134.872 249.697 136.244 251.589 136.502 251.761C136.588 251.503 136.673 251.331 136.845 251.073C137.36 249.869 137.874 249.009 137.96 249.009C138.046 249.009 137.617 250.041 137.102 251.245C137.016 251.503 136.931 251.675 136.759 251.847C138.303 252.106 139.848 250.729 139.762 250.299Z" fill="#E0E0E0"/>
<path d="M137.961 249.095C137.875 249.095 137.36 249.955 136.845 251.159C136.759 251.417 136.588 251.675 136.502 251.847C136.159 252.708 135.902 253.31 135.987 253.31C136.073 253.31 136.416 252.708 136.759 251.847C136.845 251.675 136.931 251.417 137.103 251.245C137.617 250.127 138.046 249.095 137.961 249.095Z" fill="#263238"/>
<path d="M154.603 273.609C154.432 273.265 153.745 273.265 153.745 273.265C153.745 273.265 154.26 271.974 153.488 271.716C152.716 271.458 152.287 272.577 152.287 272.577C152.287 272.577 151.944 271.802 151.429 272.146C150.914 272.491 151 273.437 151 273.437C150.657 272.921 150.399 273.179 150.399 273.179C149.456 274.555 150.828 276.447 151.086 276.619C151.172 276.361 151.257 276.189 151.429 275.931C151.944 274.727 152.458 273.867 152.544 273.867C152.63 273.867 152.201 274.899 151.686 276.103C151.6 276.361 151.515 276.533 151.343 276.705C152.802 276.963 154.346 275.501 154.346 275.157C154.346 274.813 153.831 274.727 153.831 274.727C153.831 274.727 154.689 274.039 154.603 273.609Z" fill="#E0E0E0"/>
<path d="M152.545 273.953C152.459 273.953 151.944 274.813 151.429 276.017C151.343 276.275 151.172 276.533 151.086 276.705C150.743 277.565 150.486 278.168 150.571 278.168C150.657 278.168 151 277.565 151.343 276.705C151.429 276.533 151.515 276.275 151.687 276.103C152.287 274.985 152.63 274.039 152.545 273.953Z" fill="#263238"/>
<path d="M137.873 224.581C137.873 224.237 137.358 224.151 137.358 224.151C137.358 224.151 138.216 223.377 138.131 223.033C137.959 222.689 137.273 222.689 137.273 222.689C137.273 222.689 137.787 221.399 137.015 221.141C136.243 220.883 135.814 222.001 135.814 222.001C135.814 222.001 135.471 221.227 134.956 221.571C134.441 221.915 134.527 222.861 134.527 222.861C134.184 222.345 133.927 222.603 133.927 222.603C132.983 223.979 134.356 225.871 134.613 226.043C134.699 225.785 134.785 225.613 134.956 225.355C135.471 224.151 135.986 223.291 136.072 223.291C136.157 223.291 135.728 224.323 135.214 225.527C135.128 225.785 135.042 225.957 134.87 226.129C136.329 226.388 137.959 225.011 137.873 224.581Z" fill="#E0E0E0"/>
<path d="M136.072 223.377C135.986 223.377 135.471 224.237 134.957 225.441C134.871 225.699 134.699 225.957 134.613 226.129C134.27 226.989 134.013 227.592 134.099 227.592C134.184 227.592 134.528 226.989 134.871 226.129C134.957 225.957 135.042 225.699 135.214 225.527C135.729 224.409 136.158 223.377 136.072 223.377Z" fill="#263238"/>
<path d="M156.748 248.923C156.576 248.579 155.89 248.579 155.89 248.579C155.89 248.579 156.405 247.289 155.632 247.031C154.86 246.773 154.431 247.891 154.431 247.891C154.431 247.891 154.088 247.117 153.573 247.461C153.059 247.805 153.144 248.751 153.144 248.751C152.801 248.235 152.544 248.493 152.544 248.493C151.6 249.869 152.973 251.761 153.23 251.933C153.316 251.675 153.402 251.503 153.573 251.245C154.088 250.041 154.603 249.181 154.689 249.181C154.775 249.181 154.346 250.213 153.831 251.417C153.745 251.675 153.659 251.847 153.488 252.019C154.946 252.277 156.49 250.815 156.49 250.471C156.49 250.127 155.976 250.041 155.976 250.041C155.976 250.041 156.919 249.267 156.748 248.923Z" fill="#E0E0E0"/>
<path d="M154.775 249.267C154.689 249.267 154.174 250.127 153.66 251.331C153.574 251.589 153.402 251.848 153.317 252.02C152.973 252.88 152.716 253.482 152.802 253.482C152.888 253.482 153.231 252.88 153.574 252.02C153.66 251.848 153.746 251.589 153.917 251.417C154.432 250.213 154.861 249.267 154.775 249.267Z" fill="#263238"/>
<path d="M156.663 225.527C156.749 225.269 156.835 225.097 157.007 224.839C157.521 223.635 158.036 222.775 158.122 222.775C158.208 222.775 157.779 223.807 157.264 225.011C157.178 225.269 157.092 225.441 156.921 225.613C158.379 225.871 159.924 224.409 159.924 224.065C159.924 223.721 159.409 223.635 159.409 223.635C159.409 223.635 160.267 222.861 160.181 222.517C160.009 222.173 159.323 222.173 159.323 222.173C159.323 222.173 159.838 220.883 159.066 220.625C158.294 220.367 157.865 221.485 157.865 221.485C157.865 221.485 157.521 220.711 157.007 221.055C156.492 221.399 156.578 222.345 156.578 222.345C156.234 221.829 155.977 222.087 155.977 222.087C155.119 223.463 156.492 225.269 156.663 225.527Z" fill="#E0E0E0"/>
<path d="M158.121 222.775C158.035 222.775 157.52 223.635 157.005 224.839C156.92 225.097 156.748 225.355 156.662 225.527C156.319 226.387 156.062 226.99 156.147 226.99C156.233 226.99 156.576 226.387 156.92 225.527C157.005 225.355 157.091 225.097 157.263 224.925C157.778 223.721 158.207 222.775 158.121 222.775Z" fill="#263238"/>
<path d="M155.376 216.754C155.033 216.84 154.261 217.012 153.317 217.184C151.859 217.442 149.885 217.7 147.655 217.7C145.424 217.7 143.451 217.442 141.992 217.184C140.963 217.012 140.276 216.84 139.933 216.754C139.762 216.754 139.676 216.754 139.676 216.754C139.676 216.84 140.534 217.184 141.906 217.528C143.365 217.872 145.338 218.216 147.655 218.216C149.885 218.216 151.944 217.872 153.403 217.528C154.861 217.184 155.719 216.84 155.634 216.754C155.634 216.754 155.548 216.754 155.376 216.754Z" fill="#263238"/>
<path d="M189.694 246.515C189.694 246.515 189.18 246.687 188.236 247.117C187.206 247.633 185.834 248.321 184.118 249.267C183.174 249.783 182.144 250.299 181.115 250.901C176.911 253.138 173.393 255.116 172.793 255.546C172.707 255.632 172.707 255.632 172.707 255.632C172.707 255.632 172.964 255.546 173.308 255.374C174.509 254.772 177.683 253.224 181.372 251.245C184.375 249.697 186.949 248.235 188.407 247.375C189.18 246.859 189.694 246.515 189.694 246.515Z" fill="#263238"/>
<path d="M114.71 242.902C116.425 244.708 117.97 246.428 119.171 247.719C119.257 247.891 119.428 247.977 119.514 248.149C120.715 249.525 121.487 250.385 121.573 250.299C121.573 250.299 121.401 250.041 121.144 249.611C120.801 249.181 120.372 248.579 119.771 247.891C118.57 246.514 116.94 244.622 114.967 242.558C113.079 240.494 111.278 238.687 110.077 237.311C108.876 235.935 108.103 235.075 108.018 235.161C108.018 235.161 108.189 235.419 108.447 235.849C108.447 235.849 108.447 235.935 108.532 235.935C108.876 236.365 109.304 236.881 109.819 237.569C111.106 238.945 112.822 240.838 114.71 242.902Z" fill="#263238"/>
<path d="M126.12 255.89C126.72 257.094 127.321 257.954 127.836 258.814C128.35 259.589 128.779 260.277 129.122 260.707C129.466 261.137 129.723 261.309 129.723 261.309C129.809 261.309 129.122 260.449 128.179 258.9C128.179 258.814 128.093 258.728 128.093 258.728C127.664 257.868 127.063 256.922 126.549 255.804C126.034 254.686 125.948 253.31 125.948 251.847C125.948 250.385 126.205 249.009 126.634 247.891C127.063 246.687 127.578 245.74 128.093 244.966C129.122 243.418 129.895 242.472 129.895 242.472C129.895 242.472 129.637 242.644 129.294 243.074C128.951 243.504 128.436 244.02 127.836 244.88C127.321 245.654 126.634 246.687 126.205 247.891C125.948 248.493 125.776 249.181 125.691 249.869C125.605 250.557 125.519 251.159 125.519 251.847C125.519 251.933 125.519 251.933 125.519 252.019C125.433 253.224 125.605 254.686 126.12 255.89Z" fill="#263238"/>
<path d="M145.339 226.903C145.253 227.42 146.025 227.506 145.939 226.99V226.903C145.853 226.645 145.339 226.645 145.339 226.903Z" fill="#263238"/>
<path d="M128.179 227.419C128.522 227.419 128.522 226.817 128.179 226.817C127.836 226.903 127.836 227.419 128.179 227.419Z" fill="#263238"/>
<path d="M129.038 235.419C128.952 235.161 128.609 235.161 128.523 235.333C128.523 235.333 128.523 235.333 128.523 235.419C128.18 236.021 129.295 236.021 129.038 235.419Z" fill="#263238"/>
<path d="M116.597 239.29C116.254 239.29 116.254 239.892 116.597 239.892C117.026 239.806 117.026 239.29 116.597 239.29Z" fill="#263238"/>
<path d="M149.457 238.343C149.457 238.257 149.457 238.257 149.457 238.171C149.457 237.741 148.856 237.741 148.856 238.171C148.856 238.257 148.856 238.257 148.856 238.343C148.77 238.773 149.543 238.773 149.457 238.343Z" fill="#263238"/>
<path d="M130.409 254.084C130.409 254.17 130.409 254.17 130.324 254.256C130.152 254.686 131.01 254.686 130.838 254.256C130.838 254.17 130.838 254.17 130.753 254.084C130.753 253.826 130.495 253.826 130.409 254.084Z" fill="#263238"/>
<path d="M139.247 242.644C139.247 242.73 139.333 242.73 139.333 242.816C139.505 243.16 139.934 242.816 139.848 242.558C139.848 242.472 139.848 242.472 139.762 242.386C139.676 242.042 139.076 242.3 139.247 242.644Z" fill="#263238"/>
<path d="M147.568 251.761C147.997 251.761 147.997 251.073 147.568 251.073C147.139 251.073 147.139 251.761 147.568 251.761Z" fill="#263238"/>
<path d="M160.609 242.902C161.038 242.902 161.038 242.3 160.609 242.3C160.266 242.214 160.266 242.902 160.609 242.902Z" fill="#263238"/>
<path d="M164.212 252.88C164.212 252.88 164.298 252.88 164.212 252.88C164.556 252.966 164.727 252.535 164.556 252.277C164.384 252.105 163.955 252.191 163.955 252.535V252.622C163.955 252.708 164.041 252.794 164.212 252.88Z" fill="#263238"/>
<path d="M171.677 240.236C171.42 240.236 171.42 240.666 171.677 240.666C171.763 240.666 171.763 240.666 171.849 240.666C172.192 240.666 172.192 240.15 171.849 240.15C171.849 240.236 171.763 240.236 171.677 240.236Z" fill="#263238"/>
<path d="M165.586 231.72C165.929 231.72 165.929 231.204 165.586 231.204C165.242 231.204 165.242 231.72 165.586 231.72Z" fill="#263238"/>
<path d="M166.873 223.893C167.216 223.893 167.216 223.377 166.873 223.377C166.529 223.377 166.529 223.893 166.873 223.893Z" fill="#263238"/>
<path d="M183.689 243.934C183.26 243.934 183.26 244.622 183.689 244.622C184.118 244.622 184.118 243.934 183.689 243.934Z" fill="#263238"/>
<path d="M149.371 261.137C149.456 261.137 149.456 261.137 149.542 261.137C149.8 261.051 149.8 260.707 149.542 260.621C149.456 260.621 149.456 260.621 149.371 260.621C148.942 260.535 148.942 261.223 149.371 261.137Z" fill="#263238"/>
<path d="M132.554 267.674C132.812 267.674 132.812 267.33 132.554 267.33C132.297 267.33 132.297 267.674 132.554 267.674Z" fill="#263238"/>
<path d="M138.217 277.308C138.131 277.308 138.131 277.394 138.045 277.394C137.788 277.566 137.96 277.996 138.217 277.91C138.303 277.91 138.303 277.91 138.388 277.824C138.903 277.652 138.56 277.049 138.217 277.308Z" fill="#263238"/>
<path d="M146.453 271.373C146.453 271.373 146.453 271.459 146.453 271.373C146.453 271.803 147.054 271.803 147.054 271.459V271.373C146.968 271.028 146.453 271.028 146.453 271.373Z" fill="#263238"/>
<path d="M147.31 283.93C147.482 284.188 147.739 284.188 147.825 284.016C147.825 284.016 147.825 284.016 147.825 283.93C147.997 283.758 147.739 283.414 147.568 283.414C147.396 283.414 147.139 283.758 147.31 283.93Z" fill="#263238"/>
<path d="M158.206 281.35C157.778 281.35 157.778 282.038 158.206 282.038C158.635 282.038 158.635 281.35 158.206 281.35Z" fill="#263238"/>
<path d="M164.04 271.63C163.612 271.63 163.612 272.319 164.04 272.319C164.469 272.319 164.469 271.63 164.04 271.63Z" fill="#263238"/>
<path d="M154.945 175.898C155.031 175.812 155.632 176.328 156.232 177.36C159.578 181.488 159.836 186.907 158.634 191.036C158.892 191.552 159.149 192.326 159.235 193.186C159.492 196.197 157.777 197.057 156.232 197.143C156.232 197.229 156.232 197.229 156.232 197.315C156.232 197.659 156.232 198.089 156.49 198.347C156.747 198.691 157.176 198.863 157.691 198.863C158.205 198.863 158.634 198.605 158.806 198.261C159.063 197.917 159.063 197.487 159.063 197.143C158.978 196.455 158.549 196.197 158.634 196.111C158.634 196.025 159.149 196.283 159.407 197.057C159.492 197.401 159.492 197.917 159.235 198.433C158.978 198.949 158.377 199.207 157.777 199.207C157.176 199.207 156.575 198.949 156.232 198.433C155.975 198.003 155.889 197.487 155.975 197.057V196.971C155.717 196.971 155.546 196.971 155.288 196.971L155.374 210.131C156.232 211.851 158.034 213.313 160.007 213.313C161.98 213.313 163.868 211.679 163.782 209.701C163.782 209.615 163.782 209.529 163.782 209.443C163.954 209.615 164.039 209.701 164.211 209.873C164.983 210.561 166.013 210.991 167.128 211.077C167.814 211.163 168.415 211.077 169.101 210.905C170.903 210.389 172.362 208.669 172.705 206.776C174.335 206.776 176.308 206.604 176.909 205.056C177.338 203.766 176.394 202.39 175.279 201.702C174.764 201.358 174.163 201.1 173.563 200.841C172.705 200.755 171.761 200.239 171.16 199.551C170.302 198.691 169.788 197.487 169.616 196.197C169.616 195.767 169.616 195.337 169.702 194.907C169.616 193.272 169.874 191.724 170.045 190.09C170.474 186.907 170.56 183.553 169.616 180.456C169.445 179.94 169.273 179.51 169.101 178.994C168.329 178.134 167.643 177.532 167.214 177.102C166.528 176.414 166.099 176.07 166.099 176.07C166.099 176.07 166.184 176.156 166.442 176.242C166.613 176.414 166.957 176.586 167.3 176.93C167.729 177.274 168.243 177.704 168.758 178.22C167.643 175.984 165.841 174.177 163.525 173.317C160.522 172.199 156.747 173.059 155.031 175.64C155.117 175.726 155.117 175.726 155.203 175.812C154.945 175.984 154.945 175.898 154.945 175.898Z" fill="#263238"/>
<path d="M133.84 175.898C135.728 174.779 138.902 173.489 142.763 173.489C144.564 173.489 146.452 173.747 148.168 174.091C152.887 175.123 155.375 177.79 155.375 185.359V189.402C156.318 189.316 157.863 189.488 158.721 191.122C160.007 186.993 159.664 181.488 156.318 177.446C156.49 177.79 156.661 178.134 156.747 178.65C157.262 180.37 156.661 181.832 156.576 181.746C156.404 181.746 156.747 180.37 156.318 178.736C155.975 177.446 155.289 176.5 155.117 176.156C155.031 176.07 155.031 176.07 154.946 175.984L154.86 175.898C154.688 176.07 154.602 176.156 154.602 176.156C154.602 176.156 154.602 175.984 154.688 175.726C152.458 173.747 149.197 172.285 144.822 171.769C141.047 171.339 138.387 171.769 136.414 172.715C137.186 172.543 137.701 172.543 137.701 172.629C137.701 172.715 136.929 172.801 135.813 173.231C135.47 173.317 135.127 173.489 134.784 173.747C132.896 175.209 132.038 177.102 131.695 178.478C132.038 177.36 132.811 176.5 133.84 175.898Z" fill="#263238"/>
<path d="M139.589 209.357C139.589 209.357 144.136 209.529 148.511 206.432C148.511 206.432 146.452 211.421 139.675 211.077L139.589 210.045C139.675 211.421 139.76 214.517 139.846 216.754C140.189 216.84 140.962 217.012 141.905 217.184C143.364 217.442 145.337 217.7 147.568 217.7C149.798 217.7 151.772 217.442 153.23 217.184C154.26 217.012 154.946 216.84 155.289 216.754V210.303L155.203 197.143C154.689 197.057 154.345 196.971 154.345 196.971C154.345 196.885 154.345 194.906 154.345 192.928C150.485 191.208 145.337 184.155 145.337 184.155L146.538 187.337C141.305 188.369 137.959 184.671 137.959 184.671L139.074 186.219C134.527 185.703 132.554 183.897 131.782 182.004C131.61 186.993 131.267 196.713 131.524 201.701C131.782 207.12 136.586 208.755 138.645 209.271C139.16 209.357 139.503 209.357 139.589 209.357ZM143.707 190.52C143.707 190.004 144.136 189.66 144.565 189.66C145.08 189.66 145.423 190.09 145.423 190.52C145.423 191.036 144.994 191.38 144.565 191.38C144.05 191.38 143.707 190.95 143.707 190.52ZM142.763 189.143C143.021 188.885 143.535 188.627 144.136 188.627C144.737 188.627 145.251 188.799 145.509 189.057C145.852 189.316 145.938 189.488 145.852 189.574C145.766 189.66 145.08 189.23 144.136 189.23C143.192 189.23 142.592 189.832 142.42 189.66C142.42 189.66 142.506 189.402 142.763 189.143ZM140.533 200.325C140.618 199.723 141.047 199.207 141.562 199.035C141.82 198.949 142.163 198.863 142.506 198.949C142.677 198.519 142.677 198.175 142.763 198.175C142.849 198.175 142.935 198.433 142.935 198.863C142.935 198.949 142.935 199.035 142.849 199.121C143.106 199.379 143.278 199.723 143.278 200.067C143.192 200.497 142.763 200.841 142.334 200.927C141.991 201.013 141.648 200.927 141.305 200.927C141.047 201.013 140.704 201.099 140.533 201.099C140.104 201.099 139.846 201.013 139.846 200.927C139.846 200.841 140.189 200.841 140.533 200.755C140.533 200.583 140.447 200.497 140.533 200.325ZM134.441 191.122C133.926 191.122 133.583 190.692 133.583 190.262C133.583 189.746 134.012 189.402 134.441 189.402C134.956 189.402 135.299 189.832 135.299 190.262C135.299 190.778 134.956 191.122 134.441 191.122ZM135.642 189.402C135.557 189.488 134.87 189.057 133.926 189.057C132.983 189.057 132.382 189.66 132.211 189.488C132.125 189.402 132.211 189.23 132.554 188.971C132.811 188.713 133.326 188.455 133.926 188.455C134.527 188.455 135.042 188.627 135.299 188.885C135.557 189.057 135.642 189.316 135.642 189.402ZM138.045 197.745C137.873 197.745 137.701 197.573 137.616 197.401C137.444 197.057 137.53 196.713 137.616 196.369C137.787 195.767 137.873 195.078 138.045 194.304C138.731 191.466 139.331 189.143 139.417 189.143C139.503 189.143 139.074 191.552 138.388 194.39C138.216 195.078 138.045 195.767 137.873 196.369C137.787 196.713 137.701 196.971 137.787 197.143C137.873 197.315 138.045 197.315 138.302 197.315C139.246 197.315 139.846 197.315 139.846 197.401C139.846 197.487 139.246 197.573 138.302 197.573C138.302 197.745 138.216 197.745 138.045 197.745Z" fill="#FFBE9D"/>
<path d="M134.528 189.402C134.013 189.402 133.67 189.746 133.67 190.262C133.67 190.778 134.013 191.122 134.528 191.122C135.043 191.122 135.386 190.778 135.386 190.262C135.386 189.746 134.957 189.402 134.528 189.402Z" fill="#263238"/>
<path d="M135.214 188.886C134.956 188.628 134.441 188.456 133.841 188.456C133.24 188.456 132.811 188.714 132.468 188.972C132.211 189.23 132.125 189.402 132.125 189.488C132.211 189.574 132.897 189.058 133.841 189.058C134.785 188.972 135.471 189.488 135.557 189.402C135.643 189.316 135.557 189.058 135.214 188.886Z" fill="#263238"/>
<path d="M145.423 190.52C145.423 190.004 145.08 189.66 144.565 189.66C144.05 189.66 143.707 190.004 143.707 190.52C143.707 191.036 144.05 191.38 144.565 191.38C144.994 191.38 145.423 191.036 145.423 190.52Z" fill="#263238"/>
<path d="M144.136 189.23C145.08 189.144 145.766 189.66 145.852 189.574C145.937 189.488 145.766 189.316 145.509 189.058C145.251 188.8 144.736 188.628 144.136 188.628C143.535 188.628 143.106 188.886 142.763 189.144C142.506 189.402 142.42 189.574 142.42 189.66C142.592 189.832 143.192 189.23 144.136 189.23Z" fill="#263238"/>
<path d="M138.387 197.487C138.13 197.487 137.958 197.487 137.872 197.315C137.786 197.143 137.872 196.885 137.958 196.541C138.13 195.939 138.301 195.251 138.473 194.562C139.159 191.724 139.588 189.316 139.502 189.316C139.417 189.316 138.816 191.552 138.13 194.476C137.958 195.165 137.786 195.853 137.701 196.541C137.615 196.799 137.529 197.143 137.701 197.573C137.786 197.745 137.958 197.831 138.13 197.917C138.301 197.917 138.387 197.917 138.559 197.917C139.502 197.831 140.103 197.745 140.103 197.745C139.931 197.487 139.331 197.487 138.387 197.487Z" fill="#263238"/>
<path d="M148.512 206.432C144.051 209.529 139.59 209.357 139.59 209.357L139.676 210.045L139.761 211.077C146.368 211.507 148.512 206.432 148.512 206.432Z" fill="#EB996E"/>
<path d="M141.82 199.981C142.163 199.637 142.421 199.207 142.506 198.863C142.163 198.777 141.906 198.777 141.563 198.949C141.048 199.207 140.619 199.723 140.533 200.239V200.325C140.533 200.411 140.533 200.497 140.619 200.583C140.962 200.583 141.391 200.411 141.82 199.981Z" fill="#EB996E"/>
<path d="M141.391 200.927C141.734 201.013 142.077 201.013 142.42 200.927C142.849 200.841 143.278 200.497 143.364 200.067C143.45 199.723 143.192 199.379 142.935 199.121C142.849 199.551 142.592 199.981 142.249 200.411C141.905 200.669 141.648 200.841 141.391 200.927Z" fill="#EB996E"/>
<path d="M140.618 200.669C140.189 200.756 139.932 200.842 139.932 200.842C139.932 200.928 140.189 201.014 140.618 201.014C140.875 201.014 141.133 200.928 141.39 200.842C141.648 200.755 141.991 200.583 142.248 200.325C142.677 199.895 142.849 199.465 142.934 199.035C142.934 198.949 142.934 198.863 143.02 198.777C143.02 198.347 142.934 198.089 142.849 198.089C142.763 198.089 142.763 198.433 142.591 198.863C142.505 199.207 142.248 199.551 141.905 199.981C141.39 200.411 140.961 200.583 140.618 200.669Z" fill="#263238"/>
<path d="M155.89 197.143C156.062 196.455 156.577 196.197 156.577 196.283C156.662 196.369 156.319 196.627 156.233 197.143C157.692 197.057 159.494 196.283 159.236 193.186C159.15 192.24 158.893 191.552 158.636 191.036C157.778 189.402 156.319 189.23 155.29 189.316V193.186C155.032 193.1 154.689 193.014 154.432 192.842C154.432 194.735 154.432 196.799 154.432 196.885C154.432 196.885 154.775 197.057 155.29 197.057C155.461 197.143 155.633 197.143 155.89 197.143ZM155.89 191.036C155.976 190.95 156.148 190.864 156.405 190.864C156.834 190.864 157.177 191.208 157.434 191.552C157.692 191.896 157.863 192.412 157.863 192.928C157.949 193.96 157.52 194.993 156.748 195.251C156.405 195.337 156.062 195.337 155.89 195.165C155.719 195.079 155.719 194.907 155.719 194.907C155.719 194.907 155.804 194.993 155.976 194.993C156.148 195.079 156.405 195.079 156.662 194.907C157.177 194.649 157.52 193.788 157.52 192.842C157.52 192.412 157.349 191.982 157.177 191.638C157.005 191.294 156.748 191.036 156.405 191.036C156.148 191.036 155.976 191.208 155.89 191.294C155.804 191.466 155.89 191.552 155.89 191.552C155.89 191.552 155.804 191.466 155.804 191.294C155.804 191.294 155.804 191.208 155.89 191.036Z" fill="#FFBE9D"/>
<path d="M155.89 191.724C155.89 191.724 155.89 191.638 155.89 191.466C155.976 191.294 156.148 191.122 156.405 191.208C156.662 191.208 156.92 191.466 157.177 191.81C157.349 192.154 157.52 192.584 157.52 193.014C157.606 193.96 157.177 194.82 156.662 195.079C156.405 195.165 156.148 195.165 155.976 195.165C155.805 195.079 155.719 195.079 155.719 195.079C155.719 195.079 155.719 195.165 155.89 195.337C156.062 195.423 156.405 195.509 156.748 195.423C157.435 195.165 157.864 194.132 157.864 193.1C157.864 192.584 157.692 192.068 157.435 191.724C157.177 191.38 156.834 191.036 156.405 191.036C156.234 191.036 156.062 191.122 155.89 191.208C155.805 191.294 155.719 191.466 155.719 191.552C155.719 191.638 155.805 191.724 155.89 191.724Z" fill="#EB996E"/>
<path d="M138.988 186.219L137.872 184.671C137.872 184.671 141.218 188.37 146.452 187.337L145.251 184.155C145.251 184.155 150.398 191.208 154.259 192.928C154.602 193.1 154.86 193.186 155.117 193.272V189.402V185.359C155.117 177.79 152.715 175.124 147.91 174.091C146.194 173.747 144.393 173.489 142.505 173.489C138.645 173.489 135.47 174.865 133.583 175.898C132.553 176.5 131.867 177.36 131.438 178.392C131.18 179.166 131.009 179.94 131.18 180.8C131.266 181.144 131.352 181.575 131.524 181.919C132.553 183.811 134.441 185.703 138.988 186.219Z" fill="#263238"/>
<path d="M154.518 176.07C154.518 176.07 154.603 175.984 154.775 175.812C155.118 175.295 155.89 174.263 157.006 173.231C158.55 171.855 160.18 171.339 160.18 171.167C160.18 171.081 158.378 171.425 156.748 172.887C155.547 173.919 154.947 175.037 154.689 175.64C154.518 175.898 154.518 176.07 154.518 176.07Z" fill="#263238"/>
<path d="M167.129 177.188C166.786 176.844 166.443 176.672 166.271 176.5C166.099 176.328 165.928 176.242 165.928 176.328C165.928 176.328 166.271 176.672 167.043 177.36C167.558 177.876 168.244 178.478 168.931 179.252C169.188 179.596 169.531 179.94 169.788 180.284C170.818 181.661 171.933 183.467 172.362 185.703C172.534 186.821 172.62 188.026 172.277 189.23C172.105 189.832 171.933 190.434 171.59 190.95C171.333 191.552 170.904 192.068 170.561 192.584C170.217 193.186 169.874 193.702 169.617 194.391C169.531 194.649 169.445 194.821 169.445 195.079C169.36 195.509 169.36 195.939 169.36 196.369C169.445 197.659 170.046 198.863 170.904 199.723C171.59 200.411 172.448 200.928 173.306 201.014C173.478 201.014 173.735 201.014 173.907 201.014C175.022 200.928 175.966 200.325 176.395 199.465C176.824 198.605 176.738 197.659 176.395 197.057C175.966 196.455 175.365 196.197 174.85 196.111C174.336 196.025 173.907 196.197 173.735 196.283C173.478 196.455 173.392 196.541 173.392 196.541C173.392 196.627 173.821 196.111 174.765 196.283C175.194 196.369 175.794 196.627 176.137 197.229C176.48 197.831 176.48 198.605 176.137 199.379C175.794 200.153 174.936 200.67 173.907 200.67C172.963 200.756 171.933 200.239 171.161 199.465C170.389 198.691 169.874 197.573 169.788 196.369C169.617 195.165 170.132 193.96 170.904 192.842C171.247 192.326 171.59 191.724 171.933 191.122C172.277 190.52 172.448 189.918 172.62 189.316C172.877 188.026 172.877 186.821 172.62 185.617C172.191 183.295 170.99 181.402 169.874 180.112C169.36 179.51 168.845 178.994 168.416 178.478C167.987 177.962 167.558 177.532 167.129 177.188Z" fill="#263238"/>
<path d="M154.945 175.898C154.945 175.898 154.945 175.984 155.031 176.07C155.203 176.414 155.889 177.36 156.232 178.65C156.661 180.284 156.318 181.661 156.49 181.661C156.575 181.747 157.176 180.284 156.661 178.564C156.575 178.134 156.404 177.704 156.232 177.36C155.717 176.328 155.031 175.812 154.945 175.898Z" fill="#EDE059"/>
<path d="M155.889 197.143V197.229C155.804 197.573 155.804 198.089 156.147 198.605C156.404 199.121 157.005 199.379 157.691 199.379C158.292 199.379 158.892 199.035 159.15 198.605C159.407 198.089 159.407 197.659 159.321 197.229C159.15 196.455 158.549 196.197 158.549 196.283C158.463 196.369 158.892 196.627 158.978 197.315C158.978 197.659 158.978 198.089 158.721 198.433C158.463 198.777 158.034 199.035 157.605 199.035C157.091 199.035 156.662 198.863 156.404 198.519C156.147 198.175 156.147 197.745 156.147 197.487C156.147 197.401 156.147 197.401 156.147 197.315C156.233 196.799 156.576 196.541 156.49 196.455C156.576 196.283 156.061 196.455 155.889 197.143Z" fill="#EDE059"/>
<path d="M137.616 172.543C137.616 172.543 137.101 172.457 136.329 172.629C136.071 172.715 135.814 172.715 135.557 172.801C134.355 173.231 132.725 174.091 131.524 175.639C130.323 177.188 129.808 178.994 129.723 180.284C129.637 181.574 129.894 182.349 129.894 182.349C129.98 182.349 129.894 181.574 130.066 180.37C130.237 179.166 130.752 177.446 131.867 175.984C132.725 174.951 133.669 174.177 134.613 173.661C134.956 173.489 135.299 173.317 135.642 173.145C136.844 172.715 137.616 172.629 137.616 172.543Z" fill="#263238"/>
<path d="M79.1894 317.906C80.4763 309.304 89.6563 303.714 98.4073 303.37C107.073 302.939 115.48 306.38 123.717 309.046C131.953 311.799 141.047 313.863 149.283 311.025C159.664 307.326 165.842 296.832 174.164 289.693C186.69 278.856 205.393 275.759 220.75 282.038V325.819H77.9883L79.1894 317.906Z" fill="#EDE059"/>
<path d="M176.051 295.714H128.35V298.295H176.051V295.714Z" fill="#263238"/>
<path d="M191.922 301.649H112.562V304.23H191.922V301.649Z" fill="#263238"/>
<path d="M77.9883 136.589C85.4524 146.051 100.638 152.674 112.735 153.534C120.714 154.05 128.778 152.416 136.757 151.642C144.736 150.868 153.23 151.212 160.179 155.34C168.673 160.415 173.22 170.135 180.77 176.586C191.837 186.047 209.511 186.649 221.179 177.962V135.127L77.9883 136.589ZM121.143 151.126H107.244C105.7 151.126 104.413 149.835 104.413 148.287C104.413 146.739 105.7 145.449 107.244 145.449H121.143C122.687 145.449 123.974 146.739 123.974 148.287C123.974 149.835 122.687 151.126 121.143 151.126ZM150.57 151.126C148.511 151.126 146.795 149.405 146.795 147.341C146.795 145.277 148.511 143.557 150.57 143.557C152.629 143.557 154.345 145.277 154.345 147.341C154.259 149.405 152.629 151.126 150.57 151.126ZM193.725 151.126H179.826C178.282 151.126 176.995 149.835 176.995 148.287C176.995 146.739 178.282 145.449 179.826 145.449H193.725C195.269 145.449 196.556 146.739 196.556 148.287C196.556 149.835 195.269 151.126 193.725 151.126Z" fill="#EDE059"/>
<path opacity="0.5" d="M77.9883 136.589C85.4524 146.051 100.638 152.674 112.735 153.534C120.714 154.05 128.778 152.416 136.757 151.642C144.736 150.868 153.23 151.212 160.179 155.34C168.673 160.415 173.22 170.135 180.77 176.586C191.837 186.047 209.511 186.649 221.179 177.962V135.127L77.9883 136.589ZM121.143 151.126H107.244C105.7 151.126 104.413 149.835 104.413 148.287C104.413 146.739 105.7 145.449 107.244 145.449H121.143C122.687 145.449 123.974 146.739 123.974 148.287C123.974 149.835 122.687 151.126 121.143 151.126ZM150.57 151.126C148.511 151.126 146.795 149.405 146.795 147.341C146.795 145.277 148.511 143.557 150.57 143.557C152.629 143.557 154.345 145.277 154.345 147.341C154.259 149.405 152.629 151.126 150.57 151.126ZM193.725 151.126H179.826C178.282 151.126 176.995 149.835 176.995 148.287C176.995 146.739 178.282 145.449 179.826 145.449H193.725C195.269 145.449 196.556 146.739 196.556 148.287C196.556 149.835 195.269 151.126 193.725 151.126Z" fill="white"/>
<path d="M156.232 115.946H144.907C139.931 115.946 135.898 111.903 135.898 106.915C135.898 101.926 139.931 97.8833 144.907 97.8833H156.232C161.208 97.8833 165.24 101.926 165.24 106.915C165.154 111.903 161.208 115.946 156.232 115.946ZM144.821 101.324C141.732 101.324 139.244 103.818 139.244 106.915C139.244 110.011 141.732 112.506 144.821 112.506H156.146C159.234 112.506 161.723 110.011 161.723 106.915C161.723 103.818 159.234 101.324 156.146 101.324H144.821Z" fill="#263238"/>
<path d="M147.567 117.752C147.567 117.752 146.195 126.096 145.68 127.988C145.079 129.794 142.334 137.277 143.192 141.836C144.05 146.395 146.366 148.803 150.828 148.373L150.913 145.793C150.913 145.793 146.195 145.793 146.023 142.008C145.852 138.224 146.881 132.203 149.112 130.052C149.112 130.052 149.798 129.192 151.514 129.02V117.752H147.567Z" fill="#455A64"/>
<path d="M148.081 124.719H143.706C142.076 124.719 140.703 126.096 140.703 127.73C140.703 129.364 142.076 130.74 143.706 130.74H147.052L148.081 124.719Z" fill="#455A64"/>
<path d="M146.107 111.646V116.72H147.137V118.699H153.915V117.064H155.03V111.646H146.107Z" fill="#263238"/>
<path d="M153.4 109.839H147.395V112.85H153.4V109.839Z" fill="#263238"/>
<path d="M142.677 103.904L141.476 62.7037C141.476 62.7037 141.132 50.6618 141.561 41.0283C141.819 34.8353 142.591 30.4486 145.594 26.32C149.026 21.6752 165.498 5.16064 165.498 5.16064C165.498 5.16064 159.664 17.8046 159.492 25.1158C159.321 33.9752 159.578 39.566 159.921 50.3177C160.093 56.9408 160.694 64.5959 160.951 69.3267C161.208 75.6057 161.723 90.0559 161.723 90.0559V103.904H142.677Z" fill="#EDE059"/>
</g>
<defs>
<clipPath id="clip0_1229_3032">
<rect width="337" height="345" fill="white"/>
</clipPath>
</defs>
</svg>
