<svg width="12" height="13" viewBox="0 0 12 13" fill="none" xmlns="http://www.w3.org/2000/svg">
<path d="M6 12.5C2.69141 12.5 0 9.80859 0 6.5C0 3.19141 2.69141 0.5 6 0.5C9.30859 0.5 12 3.19141 12 6.5C12 9.80859 9.30859 12.5 6 12.5ZM5.48438 11.4688C5.49023 11.4688 5.49414 11.4688 5.5 11.4688C5.51758 11.207 5.73438 11 6 11C6.26562 11 6.48242 11.207 6.5 11.4688C8.86914 11.2363 10.7363 9.36914 10.9688 7C10.707 6.98242 10.5 6.76562 10.5 6.5C10.5 6.23438 10.707 6.01758 10.9688 6C10.7363 3.63086 8.86914 1.76367 6.5 1.53125C6.48242 1.79297 6.26562 2 6 2C5.73438 2 5.51758 1.79297 5.5 1.53125C3.13086 1.76367 1.26367 3.63086 1.03125 6C1.29297 6.01758 1.5 6.23438 1.5 6.5C1.5 6.76562 1.29297 6.98242 1.03125 7C1.26367 9.36523 3.12305 11.2305 5.48438 11.4688ZM5.5 10V6.29688L5.64062 6.14062L7.64062 4.14062L8.35938 4.85938L6.5 6.71875V10H5.5Z" fill="black"/>
</svg>
