<svg width="14" height="11" viewBox="0 0 14 11" fill="none" xmlns="http://www.w3.org/2000/svg">
<path d="M13.6 8.6625L10.5333 5.5L13.6 2.3375C14.1333 1.7875 14.1333 0.9625 13.6 0.4125C13.0667 -0.1375 12.2667 -0.1375 11.7333 0.4125L7.73333 4.5375C7.2 5.0875 7.2 5.9125 7.73333 6.4625L11.7333 10.5875C12 10.8625 12.2667 11 12.6667 11C13.0667 11 13.3333 10.8625 13.6 10.5875C14 10.0375 14 9.2125 13.6 8.6625ZM3.2 5.5L6.26667 2.3375C6.8 1.7875 6.8 0.9625 6.26667 0.4125C5.73333 -0.1375 4.93333 -0.1375 4.4 0.4125L0.4 4.5375C-0.133333 5.0875 -0.133333 5.9125 0.4 6.4625L4.4 10.5875C4.66667 10.8625 4.93333 11 5.33333 11C5.73333 11 6 10.8625 6.26667 10.5875C6.8 10.0375 6.8 9.2125 6.26667 8.6625L3.2 5.5Z" fill="#EDE059"/>
</svg>
