<svg width="18" height="18" viewBox="0 0 18 18" fill="none" xmlns="http://www.w3.org/2000/svg">
<path d="M9 0C4.03832 0 0 4.03832 0 9C0 13.9617 4.03832 18 9 18C13.9617 18 18 13.9617 18 9C18 4.03832 13.9617 0 9 0ZM9 1.5C13.151 1.5 16.5 4.84898 16.5 9C16.5 12.7705 13.7338 15.871 10.1162 16.4092V11.187H12.252L12.5874 9.01758H10.1162V7.83252C10.1162 6.93177 10.4121 6.13184 11.2544 6.13184H12.6079V4.23926C12.3702 4.20701 11.867 4.13672 10.916 4.13672C8.93002 4.13672 7.7666 5.18521 7.7666 7.57471V9.01758H5.72461V11.187H7.7666V16.3901C4.20664 15.803 1.5 12.7298 1.5 9C1.5 4.84898 4.84898 1.5 9 1.5Z" fill="#333333"/>
</svg>
