<svg width="18" height="20" viewBox="0 0 18 20" fill="none" xmlns="http://www.w3.org/2000/svg">
<path d="M9 0.25C7.7666 0.25 6.75 1.2666 6.75 2.5V8.00781L0.445312 10.8203L0 11.0078V14.5938L6.75 13.8438V15.2266L4.82812 16.5156L4.5 16.7266V19.9141L5.39062 19.7266L9 19L12.6094 19.7266L13.5 19.9141V16.7266L13.1719 16.5156L11.25 15.2266V13.8438L18 14.5938V11.0078L17.5547 10.8203L11.25 8.00781V2.5C11.25 1.2666 10.2334 0.25 9 0.25ZM9 1.75C9.4248 1.75 9.75 2.0752 9.75 2.5V8.99219L10.1953 9.17969L16.5 11.9922V12.9062L9.75 12.1562V16.0469L10.0781 16.2578L12 17.5469V18.0859L9.14062 17.5234L9 17.4766L8.85938 17.5234L6 18.0859V17.5469L7.92188 16.2578L8.25 16.0469V12.1562L1.5 12.9062V11.9922L7.80469 9.17969L8.25 8.99219V2.5C8.25 2.0752 8.5752 1.75 9 1.75Z" fill="#5A623A"/>
</svg>
