<svg width="18" height="18" viewBox="0 0 18 18" fill="none" xmlns="http://www.w3.org/2000/svg">
<path d="M9 0C4.03711 0 0 4.03711 0 9C0 13.9629 4.03711 18 9 18C13.9629 18 18 13.9629 18 9C18 4.03711 13.9629 0 9 0ZM8.22656 1.54688C8.23535 1.54688 8.24121 1.54688 8.25 1.54688C8.27637 1.93945 8.60156 2.25 9 2.25C9.39844 2.25 9.72363 1.93945 9.75 1.54688C13.3037 1.89551 16.1045 4.69629 16.4531 8.25C16.0605 8.27637 15.75 8.60156 15.75 9C15.75 9.39844 16.0605 9.72363 16.4531 9.75C16.1045 13.3037 13.3037 16.1045 9.75 16.4531C9.72363 16.0605 9.39844 15.75 9 15.75C8.60156 15.75 8.27637 16.0605 8.25 16.4531C4.69629 16.1045 1.89551 13.3037 1.54688 9.75C1.93945 9.72363 2.25 9.39844 2.25 9C2.25 8.60156 1.93945 8.27637 1.54688 8.25C1.89551 4.70215 4.68457 1.9043 8.22656 1.54688ZM8.25 3.75V9.30469L8.46094 9.53906L11.4609 12.5391L12.5391 11.4609L9.75 8.67188V3.75H8.25Z" fill="#5A623A"/>
</svg>
