<svg width="12" height="13" viewBox="0 0 12 13" fill="none" xmlns="http://www.w3.org/2000/svg">
<path d="M2 0.5L1 1.5L2 2.5L3 1.5L2 0.5ZM3 1.5L4 2.5L5 1.5L4 0.5L3 1.5ZM5 1.5L6 2.5L7 1.5L6 0.5L5 1.5ZM7 1.5L8 2.5L9 1.5L8 0.5L7 1.5ZM9 1.5L10 2.5L11 1.5L10 0.5L9 1.5ZM10 2.5H0.5V12.5H11.5V2.5H10ZM1.5 3.5H10.5V11.5H7.5V9H4.5V11.5H1.5V3.5ZM2.5 4.5V5.5H3.5V4.5H2.5ZM4.5 4.5V5.5H5.5V4.5H4.5ZM6.5 4.5V5.5H7.5V4.5H6.5ZM8.5 4.5V5.5H9.5V4.5H8.5ZM2.5 6V7H3.5V6H2.5ZM4.5 6V7H5.5V6H4.5ZM6.5 6V7H7.5V6H6.5ZM8.5 6V7H9.5V6H8.5ZM2.5 7.5V8.5H3.5V7.5H2.5ZM4.5 7.5V8.5H5.5V7.5H4.5ZM6.5 7.5V8.5H7.5V7.5H6.5ZM8.5 7.5V8.5H9.5V7.5H8.5ZM2.5 9V10H3.5V9H2.5ZM8.5 9V10H9.5V9H8.5ZM5.5 10H6.5V11.5H5.5V10Z" fill="black"/>
</svg>
