<svg width="10" height="14" viewBox="0 0 10 14" fill="none" xmlns="http://www.w3.org/2000/svg">
<path d="M5 0C2.52148 0 0.5 2.02148 0.5 4.5C0.5 5.20312 0.785156 6.00977 1.17188 6.89062C1.55859 7.77148 2.05664 8.70703 2.5625 9.57812C3.57422 11.3223 4.59375 12.7812 4.59375 12.7812L5 13.375L5.40625 12.7812C5.40625 12.7812 6.42578 11.3223 7.4375 9.57812C7.94336 8.70703 8.44141 7.77148 8.82812 6.89062C9.21484 6.00977 9.5 5.20312 9.5 4.5C9.5 2.02148 7.47852 0 5 0ZM5 1C6.93945 1 8.5 2.56055 8.5 4.5C8.5 4.90039 8.28516 5.6582 7.92188 6.48438C7.55859 7.31055 7.05664 8.22656 6.5625 9.07812C5.77734 10.4336 5.28906 11.1504 5 11.5781C4.71094 11.1504 4.22266 10.4336 3.4375 9.07812C2.94336 8.22656 2.44141 7.31055 2.07812 6.48438C1.71484 5.6582 1.5 4.90039 1.5 4.5C1.5 2.56055 3.06055 1 5 1ZM5 3.5C4.44727 3.5 4 3.94727 4 4.5C4 5.05273 4.44727 5.5 5 5.5C5.55273 5.5 6 5.05273 6 4.5C6 3.94727 5.55273 3.5 5 3.5Z" fill="black"/>
</svg>
