<svg width="33" height="31" viewBox="0 0 33 31" fill="none" xmlns="http://www.w3.org/2000/svg">
<path d="M12.75 0C10.6938 0 9 1.69379 9 3.75V12.5C9 14.5562 10.6938 16.25 12.75 16.25C14.8062 16.25 16.5 14.5562 16.5 12.5V8.75H14V12.5C14 13.2063 13.4563 13.75 12.75 13.75C12.0437 13.75 11.5 13.2063 11.5 12.5V6.25H30.25V9.00391C28.117 9.57435 26.5 11.4455 26.5 13.75C26.5 16.0545 28.117 17.9257 30.25 18.4961V21.25H2.75V18.4961C4.88295 17.9257 6.5 16.0545 6.5 13.75C6.5 11.4455 4.88295 9.57435 2.75 9.00391V6.25H6.5V3.75H0.25V11.25H1.5C2.89583 11.25 4 12.3542 4 13.75C4 15.1458 2.89583 16.25 1.5 16.25H0.25V23.75H32.75V16.25H31.5C30.1042 16.25 29 15.1458 29 13.75C29 12.3542 30.1042 11.25 31.5 11.25H32.75V3.75H16.5C16.5 1.69379 14.8062 0 12.75 0ZM12.75 2.5C13.4563 2.5 14 3.04371 14 3.75H11.5C11.5 3.04371 12.0437 2.5 12.75 2.5ZM3.47021 25L29.8472 30.2197L30.8799 25H28.3311L27.8794 27.2803L16.3535 25H3.47021Z" fill="#697A80"/>
</svg>
