<svg width="105" height="129" viewBox="0 0 105 129" fill="none" xmlns="http://www.w3.org/2000/svg">
<path fill-rule="evenodd" clip-rule="evenodd" d="M71.577 26.0849C70.4931 26.2517 69.4368 26.3998 68.4078 26.5293L66.8907 26.7085L66.1414 26.7832L65.4147 26.8542C63.4929 27.0259 61.7061 27.1118 60.1065 27.0969C56.9111 27.067 54.4386 26.6264 53.15 25.6256C56.3267 25.9094 61.2865 25.4127 67.1903 24.5911C65.8328 20.0221 62.9538 16.0507 59.0281 13.3318C55.1024 10.6129 50.3644 9.30878 45.5954 9.63459C40.8264 9.9604 36.3112 11.8966 32.7943 15.124C29.2774 18.3514 26.9688 22.6773 26.2493 27.3882L27.021 27.4629L27.3694 27.4965C27.3694 27.4965 69.7002 33.4714 89.3073 22.4514C81.0396 28.9379 60.1702 37.5867 49.0106 40.4771C54.4078 41.9759 59.9213 43.0227 65.4934 43.6065C68.4715 43.7745 71.6669 43.8828 75.0983 43.9127C74.0208 46.2107 72.8139 48.4461 71.4834 50.6084C57.664 51.4337 51.3406 53.5361 47.396 55.463C51.4193 55.0261 57.3868 55.0299 67.5837 57.3078L61.5899 67.7155L61.0393 68.664C56.253 68.6204 51.5375 69.8171 47.3548 72.1369C51.0016 71.9625 54.6453 72.541 58.0574 73.8361L52.2135 83.9599C51.0896 85.8569 50.3067 88.7772 47.8268 89.3037C47.5706 89.3582 47.3095 89.3869 47.0476 89.3896C44.1481 89.4083 43.1854 85.73 42.1777 84.0346L39.7689 79.8185C42.1313 78.8953 44.6631 78.4817 47.1974 78.6048C44.2976 76.992 41.0213 76.1726 37.7011 76.2298L33.5317 68.9926C40.8853 65.6504 46.4407 64.2574 50.745 63.6712C46.4295 62.9243 40.3533 62.689 30.7821 64.2201L30.4262 63.6039L24.7509 53.7639C32.2168 49.4022 37.3452 48.0392 40.7392 47.6134C37.7873 46.706 32.6064 45.623 21.533 46.9076L20.6826 47.0832C19.1842 44.2793 18.0019 41.3185 17.1575 38.2551C14.9773 23.848 20.9036 13.881 24.5373 10.0533C41.8031 -8.20022 67.1829 1.81159 74.8324 17.5482C75.7028 19.3274 76.4003 21.1856 76.9152 23.0974C82.6317 22.1526 87.6553 21.1667 90.9855 20.0352C88.0598 22.6829 80.2118 24.7032 71.577 26.0849Z" fill="#95C12B"/>
<path fill-rule="evenodd" clip-rule="evenodd" d="M71.5772 26.0854C70.4933 26.2522 69.4369 26.4003 68.408 26.5298L66.8908 26.709L66.1416 26.7837L65.4148 26.8547C63.4931 27.0265 61.7062 27.1123 60.1066 27.0974C56.9112 27.0675 54.4388 26.6269 53.1501 25.6261C56.3268 25.9099 61.2867 25.4132 67.1905 24.5917C65.8346 20.0227 62.9573 16.0507 59.0331 13.3306C55.1088 10.6104 50.3719 9.30449 45.6033 9.6281C40.8346 9.95171 36.3189 11.8855 32.8007 15.1108C29.2824 18.336 26.9717 22.66 26.2494 27.37C22.4734 27.1646 19.3004 26.7912 17.2026 26.0443C18.2965 17.4889 21.9302 12.8359 24.5487 10.065C41.8145 -8.1885 67.1942 1.8233 74.8438 17.5599C75.7142 19.3391 76.4117 21.1973 76.9266 23.1091C82.6431 22.1643 87.6666 21.1785 90.9969 20.0469C88.06 22.6834 80.2119 24.7037 71.5772 26.0854ZM87.277 23.5087L88.2061 23.2921C88.6032 23.0083 88.9778 22.7282 89.3299 22.4519C88.6631 22.8228 87.9751 23.1751 87.2658 23.5087H87.277Z" fill="#EF7F1A"/>
<path fill-rule="evenodd" clip-rule="evenodd" d="M24.2383 54.2406L29.4341 62.8632C32.6145 61.2313 37.7317 61.6831 40.6012 59.6927C50.1125 53.0941 61.4632 51.3352 71.7238 50.9469L75.3275 44.1914C51.9257 44.2175 33.8695 47.2984 24.2383 54.2406Z" fill="#008895"/>
<path fill-rule="evenodd" clip-rule="evenodd" d="M62.5864 65.9087C52.2553 63.0018 41.4067 62.4113 30.8195 64.1797L27.3169 58.2869C43.1891 54.7504 56.6376 54.3658 67.5275 57.3944L62.5864 65.9087Z" fill="#0C54A0"/>
<path fill-rule="evenodd" clip-rule="evenodd" d="M33.5317 69.0089L37.7011 76.246C40.6193 74.8494 43.2229 74.4498 45.2795 73.5013C50.2821 71.1539 55.5912 69.5196 61.0505 68.6466L63.7402 63.9712C59.4446 63.2562 55.0683 63.1594 50.745 63.6837C44.7567 64.5196 38.9437 66.3167 33.5317 69.0051" fill="#6B5DA4"/>
<path fill-rule="evenodd" clip-rule="evenodd" d="M104.067 15.1437C103.265 15.6104 102.003 15.7001 101.13 16.0735L100.755 16.2042L100.467 16.6001C100.467 16.6486 100.493 16.6971 100.508 16.742L99.9198 17.5822L99.8936 17.6083C100.136 17.608 100.377 17.5728 100.609 17.5038C100.679 17.5635 100.729 17.643 100.752 17.7317C100.776 17.8204 100.772 17.9142 100.74 18.0004C100.658 18.1349 99.5901 18.1946 99.3204 18.1872C99.2755 18.2469 99.2305 18.3066 99.1893 18.3701L99.268 18.4336C99.2305 18.7137 98.9271 18.8817 98.8222 19.117L98.7847 19.1581C99.0507 19.1581 99.1931 19.0946 99.4366 19.0946C99.7587 19.5614 99.4366 19.6697 99.0058 19.722C98.8934 19.722 98.9271 19.6547 98.8222 19.6697C98.618 19.7219 98.4073 19.7446 98.1966 19.7369C98.013 20.0058 97.822 20.2784 97.6497 20.551L96.8517 20.6556C97.0855 20.2115 97.2617 19.7397 97.3762 19.2514H97.2189C97.2638 19.1319 97.4062 19.1506 97.4661 19.0573C97.526 18.9639 97.5635 18.7772 97.6085 18.6353H97.4287C97.4923 18.5569 97.6122 18.5382 97.6759 18.4635C97.7995 18.3216 97.7583 18.034 97.7546 17.795H97.5186C97.5822 17.7026 97.6742 17.6331 97.7808 17.5971V17.388H97.5298C97.5635 17.2984 97.6984 17.2312 97.7808 17.1901V17.0818C97.562 17.2464 97.3036 17.3507 97.0316 17.3843L96.7693 17.0407C96.4921 16.8801 95.9527 17.1079 95.6717 17.1714C94.6914 17.3535 93.6937 17.4249 92.6973 17.3843C92.4089 17.8212 92.1167 18.2581 91.8245 18.695V19.0498C91.6505 19.1522 91.4489 19.1979 91.2476 19.1805H91.2214C91.2401 18.9938 91.2588 18.8071 91.2738 18.6166L91.1052 17.3955C90.8805 17.3955 90.7756 17.3544 90.6894 17.2274C90.6894 17.0706 90.8767 17.0594 90.8842 16.9623L89.9852 15.842C89.8765 15.7748 89.7679 15.8681 89.633 15.842C89.5544 15.7822 89.6742 15.1511 89.6855 14.9905C89.8695 14.89 90.075 14.8349 90.2848 14.83C90.2661 15.0092 90.2511 15.2034 90.2324 15.3677L90.7156 15.6179C90.9142 15.6851 91.1165 15.4797 91.315 15.5507L93.1881 16.2714L95.2634 15.7598C95.6081 15.6739 96.7618 15.5283 96.9192 15.3154L96.7618 15.1175C96.6532 15.0354 96.5446 15.0354 96.3198 15.0391C96.3186 15.0304 96.3186 15.0216 96.3198 15.013C96.3947 14.9569 96.4697 14.9009 96.5408 14.8412C96.391 14.6022 96.0988 14.1354 95.7916 14.057H95.4395V14.0159L95.623 13.8964C95.2896 13.6574 95.2484 13.4408 94.6828 13.4483V13.4221C94.7259 13.364 94.7842 13.3188 94.8513 13.2914C94.8501 13.2827 94.8501 13.2739 94.8513 13.2653L92.8022 11.5587L93.6488 11.3906L95.7616 12.6342C96.1175 12.6342 96.2674 12.4512 96.6495 12.4512C96.7092 12.5235 96.75 12.6094 96.7683 12.7013C96.7866 12.7932 96.7818 12.8881 96.7543 12.9777C96.742 12.9948 96.7264 13.0092 96.7084 13.0201C96.6903 13.031 96.6703 13.0382 96.6495 13.0412L97.1215 13.2914C97.4248 13.5494 97.7675 13.7574 98.1367 13.9076C98.4214 13.9823 98.7735 13.7171 99.1144 13.7134C99.1659 13.7892 99.2018 13.8745 99.2198 13.9642C99.2378 14.054 99.2376 14.1465 99.2193 14.2362C99.1588 14.28 99.0877 14.3071 99.0132 14.3146L99.8336 14.7478L100.774 14.5275C101.503 14.309 102.243 14.1282 102.992 13.986C103.55 13.8964 104.808 14.0644 104.988 14.3594C104.951 14.6918 104.329 14.9868 104.074 15.1362" fill="#EF7F1A"/>
<path fill-rule="evenodd" clip-rule="evenodd" d="M36.169 73.5428C39.8545 72.6738 43.621 72.1907 47.4072 72.1014L47.3623 72.1238C47.6919 72.1238 48.0216 72.0977 48.3512 72.0977C49.5796 72.1005 50.8067 72.1753 52.0262 72.3217C54.0889 72.5922 56.1146 73.0932 58.0649 73.8155L52.221 83.9393C51.0971 85.8363 50.3142 88.7566 47.8343 89.2831C47.5781 89.3376 47.3171 89.3663 47.0551 89.369C44.1556 89.3877 43.1929 85.7094 42.1852 84.014L39.7689 79.8203C42.1313 78.8971 44.6631 78.4835 47.1975 78.6066C44.2976 76.9938 41.0213 76.1744 37.7011 76.2316L36.1465 73.5316L36.169 73.5428Z" fill="#C5356E"/>
<path fill-rule="evenodd" clip-rule="evenodd" d="M30.4485 48.7799C27.2418 49.3625 22.9563 50.7143 17.0974 54.0379L15.1045 50.494C23.4021 48.343 27.092 48.3654 30.4635 48.7799" fill="#95C12B"/>
<path fill-rule="evenodd" clip-rule="evenodd" d="M41.2338 65.0534C38.1321 65.4753 33.9402 66.5957 28.1225 69.6018L26.1108 66.0318C34.2174 64.3065 38.0983 64.5193 41.2488 65.0534" fill="#0C54A0"/>
<path fill-rule="evenodd" clip-rule="evenodd" d="M43.8187 78.4047C41.729 78.3063 39.6532 78.7913 37.825 79.8051L36.2666 77.0379C38.8686 76.6597 41.5232 77.1397 43.8262 78.4047" fill="#C5356E"/>
<path fill-rule="evenodd" clip-rule="evenodd" d="M62.3354 70.3156L60.3499 73.8856C57.97 72.5522 55.341 71.7197 52.6255 71.4396C55.7256 70.2972 59.0554 69.913 62.3354 70.3193" fill="#6B5DA4"/>
<path fill-rule="evenodd" clip-rule="evenodd" d="M55.0532 54.4439C57.9452 53.2414 62.6053 51.9979 72.8809 52.0651L70.1912 56.8974C62.4667 54.5746 58.0126 54.2833 55.0532 54.4439Z" fill="#008895"/>
<path fill-rule="evenodd" clip-rule="evenodd" d="M77.3723 37.3565C77.036 38.7567 76.6131 40.1348 76.1061 41.4829C60.8033 39.3917 56.5252 39.9369 54.1577 40.2506C56.529 39.0892 60.3687 37.2818 77.6644 35.1719L77.7656 35.3138C77.6644 36.0009 77.5333 36.6843 77.391 37.3565" fill="#95C12B"/>
<path d="M11.6148 105.435V104.107C11.6126 104.567 11.7061 105.022 11.8887 105.441C12.0647 105.849 12.3157 106.217 12.6277 106.525C12.9485 106.835 13.3207 107.083 13.7261 107.256C13.7943 107.282 13.8639 107.305 13.9347 107.324V115.621C13.8636 115.604 13.7939 115.581 13.7261 115.553C13.3207 115.38 12.9485 115.133 12.6277 114.822C12.3156 114.516 12.0646 114.148 11.8887 113.741C11.7061 113.322 11.6126 112.867 11.6148 112.407V105.435Z" fill="#9D9E9E"/>
<path d="M11.6151 101.949C12.2273 101.951 12.814 102.205 13.2469 102.656C13.6798 103.107 13.9236 103.718 13.9249 104.356V106.567C13.8539 106.549 13.7841 106.527 13.7163 106.499C13.3109 106.326 12.9388 106.078 12.6179 105.768C12.306 105.46 12.0549 105.092 11.879 104.684C11.6963 104.265 11.6028 103.81 11.605 103.35L11.6151 101.949Z" fill="#9D9E9E"/>
<path d="M2.58161 104.678V104.115H5.43184C5.64844 104.111 5.86318 104.157 6.06019 104.251C6.23059 104.34 6.38127 104.465 6.50256 104.618C6.6171 104.774 6.70236 104.952 6.7539 105.142C6.85535 105.709 6.8382 106.292 6.70363 106.852C6.66208 106.985 6.60465 107.111 6.53272 107.229H7.07059C7.55746 107.236 8.03599 107.362 8.46806 107.596L8.61635 107.674C8.93555 106.773 8.97828 105.246 8.65154 104.348C8.49073 103.901 8.25215 103.489 7.94778 103.133C7.64184 102.777 7.27215 102.487 6.85946 102.279C6.42494 102.056 5.94608 101.944 5.462 101.952H2.57156C1.95956 101.954 1.3732 102.208 0.940451 102.659C0.507702 103.11 0.263707 103.721 0.261719 104.358V115.16C0.263046 114.586 0.482466 114.036 0.871993 113.63C1.26152 113.224 1.78945 112.995 2.34032 112.994H2.56402C2.56402 112.535 2.5791 112.122 2.5791 112.014V104.681L2.58161 104.678Z" fill="#9D9E9E"/>
<path d="M7.12605 115.739C7.61013 115.746 8.08899 115.634 8.52351 115.411C8.93758 115.203 9.30825 114.912 9.61434 114.555C9.91694 114.198 10.1553 113.787 10.3181 113.342C10.6435 112.307 10.6435 111.19 10.3181 110.155C10.1554 109.709 9.91698 109.297 9.61434 108.939C9.307 108.583 8.93666 108.291 8.52351 108.08C8.0878 107.862 7.60949 107.752 7.12605 107.758H2.76777C2.76976 108.332 2.98974 108.882 3.37966 109.288C3.76959 109.694 4.29778 109.923 4.84888 109.924H7.08081C7.29378 109.918 7.50497 109.966 7.6966 110.063C7.86652 110.149 8.01656 110.272 8.13645 110.424C8.25624 110.58 8.34741 110.758 8.40538 110.948C8.5223 111.475 8.5223 112.022 8.40538 112.548C8.35384 112.738 8.26858 112.916 8.15404 113.072C8.03267 113.226 7.88096 113.351 7.70917 113.439C7.51284 113.535 7.29775 113.583 7.08081 113.578H2.47118C1.92031 113.579 1.39238 113.808 1.00285 114.214C0.613327 114.62 0.393906 115.17 0.392578 115.744L7.12605 115.739Z" fill="#9D9E9E"/>
<path d="M7.12605 115.739C7.61013 115.746 8.08899 115.634 8.52351 115.411C8.93758 115.203 9.30825 114.912 9.61434 114.555C9.91694 114.198 10.1553 113.787 10.3181 113.342C10.6435 112.307 10.6435 111.19 10.3181 110.155C10.1554 109.709 9.91698 109.297 9.61434 108.939C9.307 108.583 8.93666 108.291 8.52351 108.08C8.0878 107.862 7.60949 107.752 7.12605 107.758H2.76777C2.76976 108.332 2.98974 108.882 3.37966 109.288C3.76959 109.694 4.29778 109.923 4.84888 109.924H7.08081C7.29378 109.918 7.50497 109.966 7.6966 110.063C7.86652 110.149 8.01656 110.272 8.13645 110.424C8.25624 110.58 8.34741 110.758 8.40538 110.948C8.5223 111.475 8.5223 112.022 8.40538 112.548C8.35384 112.738 8.26858 112.916 8.15404 113.072C8.03267 113.226 7.88096 113.351 7.70916 113.439C7.51284 113.535 7.29775 113.583 7.08081 113.578H2.47118C1.92031 113.579 1.39238 113.808 1.00285 114.214C0.613327 114.62 0.393906 115.17 0.392578 115.744L7.12605 115.739Z" stroke="#FEFEFE" stroke-width="0.5" stroke-miterlimit="2.61"/>
<path d="M22.438 115.739C22.9213 115.746 23.3993 115.634 23.8329 115.411C24.247 115.203 24.6177 114.912 24.9238 114.555C25.2272 114.198 25.4657 113.788 25.6275 113.342C25.953 112.307 25.953 111.19 25.6275 110.155C25.4657 109.708 25.2272 109.296 24.9238 108.939C24.6164 108.583 24.2461 108.291 23.8329 108.08C23.3981 107.862 22.9206 107.752 22.438 107.758H20.5127C22.6416 107.758 22.5938 109.924 22.5938 109.924C22.7621 109.941 22.925 109.995 23.0725 110.081C23.22 110.167 23.3488 110.284 23.4509 110.424C23.5707 110.58 23.6619 110.758 23.7198 110.948C23.8368 111.475 23.8368 112.022 23.7198 112.548C23.6692 112.738 23.5839 112.916 23.4685 113.072C23.3476 113.227 23.1958 113.352 23.0236 113.439C22.8273 113.535 22.6122 113.583 22.3953 113.578H17.7856C17.2348 113.579 16.7068 113.808 16.3173 114.214C15.9278 114.62 15.7084 115.17 15.707 115.744L22.438 115.739Z" fill="#9D9E9E"/>
<path d="M22.438 115.739C22.9213 115.746 23.3993 115.634 23.8329 115.411C24.247 115.203 24.6177 114.912 24.9238 114.555C25.2272 114.198 25.4657 113.788 25.6275 113.342C25.953 112.307 25.953 111.19 25.6275 110.155C25.4657 109.708 25.2272 109.296 24.9238 108.939C24.6164 108.583 24.2461 108.291 23.8329 108.08C23.3981 107.862 22.9206 107.752 22.438 107.758H20.5127C22.6416 107.758 22.5938 109.924 22.5938 109.924C22.7621 109.941 22.925 109.995 23.0725 110.081C23.22 110.167 23.3488 110.284 23.4509 110.424C23.5707 110.58 23.6619 110.758 23.7198 110.948C23.8368 111.475 23.8368 112.022 23.7198 112.548C23.6692 112.738 23.5839 112.916 23.4685 113.072C23.3476 113.227 23.1958 113.352 23.0236 113.439C22.8273 113.535 22.6122 113.583 22.3953 113.578H17.7856C17.2348 113.579 16.7068 113.808 16.3173 114.214C15.9278 114.62 15.7084 115.17 15.707 115.744L22.438 115.739Z" stroke="#FEFEFE" stroke-width="0.5" stroke-miterlimit="2.61"/>
<path d="M19.1397 101.948C18.6556 101.941 18.1768 102.053 17.7422 102.275C17.3299 102.484 16.9604 102.774 16.6539 103.129C16.3504 103.486 16.112 103.898 15.9501 104.344C15.6247 105.38 15.6247 106.496 15.9501 107.532C16.1113 107.978 16.3499 108.389 16.6539 108.745C16.9594 109.102 17.3291 109.394 17.7422 109.604C18.1774 109.824 18.6559 109.935 19.1397 109.928H22.1005C22.0992 109.354 21.8797 108.804 21.4902 108.398C21.1007 107.992 20.5728 107.764 20.0219 107.762H19.1824C18.9685 107.766 18.7568 107.718 18.5641 107.621C18.3949 107.536 18.2457 107.414 18.1268 107.262C18.007 107.106 17.9158 106.929 17.8578 106.738C17.7397 106.212 17.7397 105.664 17.8578 105.138C17.9094 104.949 17.9946 104.771 18.1092 104.614C18.2314 104.461 18.3829 104.336 18.554 104.248C18.751 104.153 18.9658 104.107 19.1824 104.111H23.792C24.3429 104.11 24.8708 103.881 25.2604 103.475C25.6499 103.069 25.8693 102.519 25.8706 101.945H19.1397" fill="#9D9E9E"/>
<path d="M37.131 105.527C37.1243 105.023 37.232 104.524 37.4452 104.071C37.6464 103.641 37.9255 103.256 38.2671 102.937C38.6093 102.621 39.0036 102.373 39.4308 102.204C40.4244 101.864 41.496 101.864 42.4896 102.204C42.9179 102.372 43.3131 102.621 43.6559 102.937C43.9982 103.256 44.2782 103.641 44.4803 104.071C44.6895 104.525 44.7953 105.023 44.7894 105.527V107.533C44.7894 105.312 42.7108 105.365 42.7108 105.365C42.6939 105.189 42.6426 105.019 42.56 104.865C42.4774 104.711 42.3654 104.576 42.2308 104.469C42.0804 104.346 41.9102 104.252 41.7281 104.191C41.223 104.068 40.6974 104.068 40.1924 104.191C40.01 104.244 39.8392 104.333 39.6897 104.453C39.5413 104.579 39.4212 104.738 39.3378 104.917C39.246 105.122 39.2012 105.346 39.2071 105.572V113.573C39.2051 114.147 38.9851 114.698 38.5952 115.103C38.2053 115.509 37.6771 115.738 37.126 115.739L37.131 105.527Z" fill="#9D9E9E"/>
<path d="M37.131 105.527C37.1243 105.023 37.232 104.524 37.4452 104.071C37.6464 103.641 37.9255 103.256 38.2671 102.937C38.6093 102.621 39.0036 102.373 39.4308 102.204C40.4244 101.864 41.496 101.864 42.4896 102.204C42.9179 102.372 43.3131 102.621 43.6559 102.937C43.9982 103.256 44.2782 103.641 44.4803 104.071C44.6895 104.525 44.7953 105.023 44.7894 105.527V107.533C44.7894 105.312 42.7108 105.365 42.7108 105.365C42.6939 105.189 42.6426 105.019 42.56 104.865C42.4774 104.711 42.3654 104.576 42.2308 104.469C42.0804 104.346 41.9102 104.252 41.7281 104.191C41.223 104.068 40.6974 104.068 40.1924 104.191C40.01 104.244 39.8392 104.333 39.6897 104.453C39.5413 104.579 39.4212 104.738 39.3378 104.917C39.246 105.122 39.2012 105.346 39.2071 105.572V113.573C39.2051 114.147 38.9851 114.698 38.5952 115.103C38.2053 115.509 37.6771 115.738 37.126 115.739L37.131 105.527Z" stroke="#FEFEFE" stroke-width="0.5" stroke-miterlimit="2.61"/>
<path d="M50.3562 112.043C50.3629 112.548 50.2552 113.047 50.042 113.5C49.8417 113.929 49.5635 114.314 49.2227 114.634C48.8799 114.95 48.4847 115.198 48.0564 115.367C47.0628 115.706 45.9912 115.706 44.9976 115.367C44.5701 115.198 44.1757 114.95 43.8339 114.634C43.4931 114.314 43.2156 113.928 43.017 113.497C42.8058 113.043 42.6991 112.545 42.7053 112.041V105.901C43.2566 105.903 43.785 106.132 44.1746 106.538C44.5641 106.945 44.7833 107.496 44.7839 108.07V111.999C44.7805 112.222 44.8269 112.442 44.9197 112.643C45.001 112.82 45.1196 112.976 45.2665 113.099C45.4155 113.225 45.5861 113.32 45.7692 113.379C46.2743 113.502 46.7998 113.502 47.3049 113.379C47.4867 113.325 47.6573 113.237 47.8076 113.117C47.9545 112.99 48.0744 112.832 48.1595 112.654C48.251 112.449 48.2958 112.225 48.2902 111.999V104.115C48.2915 103.541 48.5109 102.991 48.9004 102.585C49.29 102.179 49.8179 101.951 50.3688 101.949V112.043" fill="#9D9E9E"/>
<path d="M33.1996 108.107V105.572C33.2056 105.362 33.1655 105.154 33.0823 104.962C32.9991 104.771 32.875 104.603 32.7195 104.469C32.5693 104.346 32.399 104.252 32.2168 104.191C31.7117 104.068 31.1862 104.068 30.6811 104.191C30.4989 104.244 30.3281 104.333 30.1784 104.453C30.0308 104.58 29.9108 104.738 29.8266 104.917C29.7347 105.122 29.69 105.346 29.6959 105.572V111.305C29.6959 109.943 29.6959 108.571 30.7942 107.984C31.0787 107.825 31.3992 107.749 31.7217 107.764C32.1507 107.776 32.5751 107.86 32.9784 108.013C33.0538 108.042 33.1267 108.073 33.1996 108.107ZM27.6198 105.527C27.6143 105.023 27.7219 104.524 27.9339 104.071C28.1351 103.641 28.4142 103.256 28.7558 102.937C29.0986 102.621 29.4938 102.372 29.9221 102.204C30.9149 101.864 31.9856 101.864 32.9784 102.204C33.4066 102.372 33.8018 102.621 34.1446 102.937C34.487 103.256 34.7669 103.641 34.969 104.071C35.1791 104.525 35.2858 105.023 35.2807 105.527V111.336V115.739C34.7296 115.738 34.2014 115.509 33.8115 115.103C33.4215 114.698 33.2016 114.147 33.1996 113.573V111.378C33.2051 111.153 33.1604 110.93 33.0689 110.726C32.9853 110.547 32.8652 110.389 32.717 110.263C32.5667 110.143 32.3961 110.054 32.2143 110.001C31.7092 109.878 31.1837 109.878 30.6786 110.001C30.4961 110.06 30.3257 110.154 30.1759 110.278C30.0305 110.404 29.9123 110.56 29.8291 110.737C29.7374 110.937 29.6918 111.157 29.6959 111.378V112.253V113.563C29.6939 114.137 29.4739 114.687 29.084 115.093C28.694 115.499 28.1659 115.727 27.6147 115.729L27.6198 105.527Z" fill="#9D9E9E"/>
<path d="M64.1382 115.737C64.6221 115.743 65.1007 115.631 65.5357 115.41C65.9486 115.201 66.3183 114.91 66.624 114.553C66.9283 114.197 67.1669 113.785 67.3277 113.338C67.6532 112.303 67.6532 111.186 67.3277 110.151C67.1663 109.705 66.9278 109.294 66.624 108.938C66.3189 108.58 65.9491 108.288 65.5357 108.079C65.1005 107.859 64.6219 107.747 64.1382 107.754H62.2154C64.3443 107.754 64.294 109.923 64.294 109.923C64.4628 109.939 64.6263 109.993 64.7743 110.079C64.9223 110.165 65.0515 110.282 65.1536 110.423C65.2729 110.579 65.3632 110.757 65.42 110.947C65.5381 111.473 65.5381 112.021 65.42 112.547C65.3685 112.737 65.2832 112.914 65.1687 113.071C65.0477 113.225 64.8959 113.351 64.7238 113.438C64.5282 113.533 64.3139 113.58 64.098 113.574H59.4883C58.9368 113.575 58.4082 113.804 58.0182 114.211C57.6282 114.617 57.4086 115.168 57.4072 115.743L64.1382 115.737Z" fill="#9D9E9E"/>
<path d="M64.1382 115.737C64.6221 115.743 65.1007 115.631 65.5357 115.41C65.9486 115.201 66.3183 114.91 66.624 114.553C66.9283 114.197 67.1669 113.785 67.3277 113.338C67.6532 112.303 67.6532 111.186 67.3277 110.151C67.1663 109.705 66.9278 109.294 66.624 108.938C66.3189 108.58 65.9491 108.288 65.5357 108.079C65.1005 107.859 64.6219 107.747 64.1382 107.754H62.2154C64.3443 107.754 64.294 109.923 64.294 109.923C64.4628 109.939 64.6263 109.993 64.7743 110.079C64.9223 110.165 65.0515 110.282 65.1536 110.423C65.2729 110.579 65.3632 110.757 65.42 110.947C65.5381 111.473 65.5381 112.021 65.42 112.547C65.3685 112.737 65.2832 112.914 65.1687 113.071C65.0477 113.225 64.8959 113.351 64.7238 113.438C64.5282 113.533 64.3139 113.58 64.098 113.574H59.4883C58.9368 113.575 58.4082 113.804 58.0182 114.211C57.6282 114.617 57.4086 115.168 57.4072 115.743L64.1382 115.737Z" stroke="#FEFEFE" stroke-width="0.5" stroke-miterlimit="2.61"/>
<path d="M60.8424 101.946C60.3584 101.94 59.8798 102.052 59.4449 102.273C59.032 102.482 58.6623 102.773 58.3566 103.13C58.0522 103.486 57.8136 103.898 57.6528 104.345C57.326 105.379 57.326 106.496 57.6528 107.53C57.8136 107.977 58.0522 108.389 58.3566 108.745C58.6623 109.103 59.032 109.394 59.4449 109.604C59.8804 109.823 60.3587 109.935 60.8424 109.929H63.8007C63.7994 109.355 63.58 108.804 63.1906 108.398C62.8011 107.992 62.2732 107.762 61.7221 107.76H60.8826C60.6696 107.766 60.4584 107.719 60.2668 107.622C60.0968 107.536 59.9467 107.412 59.8269 107.26C59.7075 107.104 59.6171 106.927 59.5605 106.736C59.4424 106.211 59.4424 105.664 59.5605 105.139C59.613 104.95 59.6982 104.772 59.8119 104.615C59.9339 104.462 60.0855 104.337 60.2567 104.248C60.4534 104.153 60.6684 104.106 60.8851 104.112H65.4947C66.0458 104.11 66.5738 103.881 66.9632 103.474C67.3527 103.068 67.572 102.518 67.5733 101.943H60.8424" fill="#9D9E9E"/>
<path d="M72.4444 101.946C71.9604 101.94 71.4818 102.052 71.0469 102.273C70.6334 102.482 70.2628 102.773 69.9561 103.13C69.6535 103.488 69.4151 103.899 69.2523 104.345C68.891 105.243 68.8508 106.245 69.1392 107.171C69.3025 107.616 69.5418 108.027 69.8455 108.384C69.8731 108.418 69.9008 108.449 69.931 108.481C70.22 108.167 70.5604 107.908 70.9363 107.719C71.3719 107.499 71.8502 107.388 72.3338 107.394H72.374C72.161 107.4 71.9498 107.352 71.7582 107.255C71.5878 107.17 71.4376 107.046 71.3184 106.894C71.1983 106.738 71.1071 106.56 71.0494 106.37C70.9263 105.969 71.0494 105.532 71.155 105.131C71.2065 104.941 71.2918 104.764 71.4063 104.607C71.5284 104.454 71.68 104.329 71.8512 104.24C72.0477 104.145 72.2628 104.098 72.4796 104.104H77.0892C77.6403 104.102 78.1682 103.873 78.5577 103.467C78.9471 103.06 79.1665 102.51 79.1678 101.936H72.4444" fill="#9D9E9E"/>
<path d="M72.4443 115.738C71.9603 115.744 71.4818 115.632 71.0468 115.411C70.6342 115.198 70.2654 114.904 69.961 114.544C69.6584 114.186 69.42 113.774 69.2573 113.328C68.9318 112.293 68.9318 111.176 69.2573 110.141C69.4206 109.696 69.6589 109.286 69.961 108.928C70.2672 108.57 70.6378 108.278 71.0518 108.069C71.487 107.849 71.9656 107.738 72.4493 107.744H75.4076C75.4063 108.319 75.187 108.869 74.7975 109.275C74.408 109.682 73.8801 109.911 73.329 109.913H72.4895C72.2758 109.908 72.0639 109.955 71.8712 110.052C71.702 110.138 71.5527 110.261 71.4339 110.413C71.3138 110.569 71.2227 110.747 71.165 110.937C71.0481 111.464 71.0481 112.011 71.165 112.537C71.2165 112.727 71.3018 112.905 71.4163 113.061C71.5384 113.215 71.6899 113.339 71.8612 113.428C72.0577 113.523 72.2728 113.57 72.4895 113.564H77.0992C77.6505 113.566 78.1788 113.795 78.5684 114.201C78.958 114.607 79.1771 115.158 79.1778 115.733H72.4443" fill="#9D9E9E"/>
<path d="M80.5606 105.435V104.107C80.5576 104.567 80.6502 105.022 80.8321 105.441C81.0087 105.848 81.2596 106.217 81.571 106.525C81.892 106.835 82.2641 107.081 82.6694 107.253C82.7373 107.281 82.8071 107.303 82.878 107.321V115.621C82.8071 115.603 82.7373 115.581 82.6694 115.553C82.264 115.38 81.8919 115.133 81.571 114.822C81.259 114.515 81.008 114.146 80.8321 113.738C80.6502 113.319 80.5576 112.864 80.5606 112.405V105.435Z" fill="#9D9E9E"/>
<path d="M80.5608 101.945C81.1728 101.947 81.7592 102.202 82.1919 102.653C82.6247 103.104 82.8687 103.715 82.8707 104.352V106.563C82.7994 106.546 82.7296 106.524 82.6621 106.495C82.2568 106.323 81.8846 106.076 81.5637 105.767C81.2523 105.458 81.0013 105.09 80.8247 104.682C80.6429 104.264 80.5503 103.809 80.5533 103.349L80.5608 101.945Z" fill="#9D9E9E"/>
<path d="M94.8997 111.339C94.9077 110.836 94.8027 110.337 94.593 109.883C94.2561 109.204 93.7306 108.646 93.085 108.283C92.711 108.072 92.3085 107.921 91.8911 107.835C91.7379 107.799 91.5825 107.774 91.4261 107.759H89.355C88.8039 107.761 88.276 107.99 87.8865 108.397C87.4971 108.803 87.2778 109.354 87.2764 109.928H90.5891H90.6545H91.504C91.6171 109.938 91.729 109.959 91.8383 109.991C92.0197 110.045 92.1901 110.134 92.341 110.253C92.4881 110.38 92.608 110.538 92.6929 110.716C92.7844 110.921 92.8291 111.145 92.8236 111.371V113.561C92.8255 114.135 93.0454 114.685 93.4353 115.092C93.8252 115.498 94.3533 115.727 94.9047 115.729V111.329L94.8997 111.339ZM91.4638 101.947C91.9477 101.941 92.4263 102.053 92.8613 102.275C93.2742 102.484 93.6439 102.774 93.9496 103.131C94.2539 103.488 94.4925 103.9 94.6533 104.346C94.9802 105.381 94.9802 106.497 94.6533 107.531C94.5296 107.875 94.3604 108.198 94.1506 108.493C93.5523 107.939 92.7768 107.638 91.9765 107.649C91.999 107.64 92.0208 107.63 92.0419 107.618C92.2119 107.532 92.362 107.409 92.4817 107.256C92.6022 107.101 92.6926 106.923 92.7482 106.732C92.8663 106.207 92.8663 105.66 92.7482 105.135C92.6956 104.946 92.6105 104.768 92.4968 104.611C92.3747 104.458 92.2232 104.333 92.0519 104.244C91.8553 104.149 91.6403 104.103 91.4236 104.108H86.814C86.2629 104.106 85.7349 103.877 85.3455 103.47C84.956 103.064 84.7367 102.514 84.7354 101.939L91.4638 101.947Z" fill="#9D9E9E"/>
<path d="M84.7354 105.435V104.107C84.7324 104.567 84.825 105.022 85.0069 105.441C85.1835 105.848 85.4344 106.217 85.7458 106.525C86.0672 106.834 86.4392 107.081 86.8442 107.253C86.9123 107.28 86.982 107.303 87.0528 107.321V115.621C86.982 115.603 86.9123 115.58 86.8442 115.553C86.4391 115.38 86.0671 115.132 85.7458 114.822C85.4338 114.515 85.1828 114.146 85.0069 113.738C84.825 113.319 84.7324 112.864 84.7354 112.405V105.435Z" fill="#9D9E9E"/>
<path d="M87.0527 112.131V113.459C87.0558 112.999 86.9632 112.545 86.7813 112.126C86.6047 111.717 86.3527 111.349 86.0398 111.042C85.7198 110.732 85.3485 110.485 84.944 110.313C84.8759 110.286 84.8062 110.263 84.7354 110.245V101.945C84.8062 101.963 84.8759 101.986 84.944 102.013C85.3522 102.189 85.7262 102.441 86.0474 102.757C86.3606 103.064 86.6126 103.433 86.7888 103.842C86.9698 104.255 87.0603 103.653 87.0603 104.127L87.0527 112.131Z" fill="#9D9E9E"/>
<path d="M30.6889 120.043H29.228V124H28.868V120.043H27.4072V119.735H30.6889V120.043ZM32.7585 121.128C32.6838 121.116 32.6046 121.11 32.5212 121.11C32.302 121.11 32.1168 121.17 31.9655 121.292C31.8142 121.414 31.7064 121.591 31.642 121.824V124H31.2925V120.83H31.6368L31.642 121.334C31.8281 120.958 32.1255 120.77 32.5342 120.77C32.6333 120.77 32.7107 120.783 32.7664 120.81L32.7585 121.128ZM35.3148 124C35.28 123.901 35.2574 123.753 35.247 123.557C35.1252 123.718 34.9687 123.843 34.7774 123.93C34.5879 124.015 34.3861 124.057 34.1722 124.057C33.8679 124.057 33.6209 123.973 33.4313 123.804C33.2435 123.634 33.1496 123.419 33.1496 123.16C33.1496 122.85 33.2783 122.606 33.5357 122.427C33.7931 122.248 34.1513 122.158 34.6105 122.158H35.2444V121.796C35.2444 121.57 35.1748 121.392 35.0357 121.263C34.8966 121.133 34.6931 121.068 34.4252 121.068C34.18 121.068 33.9774 121.13 33.8174 121.256C33.6574 121.381 33.5774 121.531 33.5774 121.707L33.2279 121.704C33.2279 121.452 33.3444 121.234 33.5774 121.05C33.8122 120.863 34.1009 120.77 34.4435 120.77C34.7966 120.77 35.0748 120.859 35.2783 121.037C35.4835 121.214 35.5887 121.461 35.5939 121.777V123.277C35.5939 123.583 35.6261 123.813 35.6905 123.966V124H35.3148ZM34.2139 123.747C34.4487 123.747 34.6583 123.69 34.8426 123.577C35.027 123.464 35.1609 123.313 35.2444 123.123V122.427H34.6183C34.2687 122.43 33.9948 122.495 33.7966 122.62C33.6 122.743 33.5018 122.913 33.5018 123.129C33.5018 123.308 33.5679 123.456 33.7 123.572C33.8322 123.689 34.0035 123.747 34.2139 123.747ZM37.5194 123.517L38.482 120.83H38.842L37.6603 124H37.376L36.1864 120.83H36.5464L37.5194 123.517ZM40.6422 124.057C40.3727 124.057 40.1283 123.991 39.9092 123.859C39.6918 123.727 39.5222 123.543 39.4005 123.306C39.2805 123.068 39.2205 122.801 39.2205 122.505V122.38C39.2205 122.076 39.2796 121.802 39.3979 121.558C39.5162 121.313 39.6805 121.121 39.8909 120.982C40.1031 120.841 40.3318 120.77 40.577 120.77C40.9614 120.77 41.2666 120.903 41.4927 121.167C41.7188 121.43 41.8318 121.788 41.8318 122.242V122.437H39.5701V122.505C39.5701 122.865 39.6727 123.165 39.8779 123.405C40.0849 123.643 40.344 123.763 40.6553 123.763C40.8431 123.763 41.0083 123.729 41.1509 123.661C41.2953 123.591 41.4266 123.482 41.5449 123.332L41.764 123.499C41.5066 123.871 41.1327 124.057 40.6422 124.057ZM40.577 121.07C40.3127 121.07 40.0901 121.167 39.9092 121.36C39.7301 121.553 39.6205 121.813 39.5805 122.14H41.4822V122.101C41.4718 121.797 41.3849 121.549 41.2214 121.357C41.0579 121.166 40.8431 121.07 40.577 121.07ZM42.9071 124H42.5549V119.5H42.9071V124ZM48.0557 122.805H46.1201L45.6818 124H45.3035L46.9157 119.735H47.2601L48.8748 124H48.4992L48.0557 122.805ZM46.2322 122.497H47.9435L47.0879 120.173L46.2322 122.497ZM49.2746 122.385C49.2746 121.89 49.3842 121.497 49.6033 121.206C49.8242 120.916 50.1233 120.77 50.5007 120.77C50.932 120.77 51.2599 120.943 51.4842 121.287L51.5025 120.83H51.8312V123.935C51.8312 124.343 51.7164 124.667 51.4868 124.905C51.259 125.143 50.9494 125.263 50.5581 125.263C50.3372 125.263 50.1268 125.213 49.9268 125.114C49.7268 125.017 49.5694 124.885 49.4546 124.72L49.6503 124.509C49.899 124.815 50.1938 124.968 50.5346 124.968C50.8285 124.968 51.0572 124.881 51.2207 124.707C51.3842 124.535 51.4694 124.296 51.4764 123.99V123.59C51.252 123.902 50.9242 124.057 50.4929 124.057C50.1259 124.057 49.8312 123.911 49.6085 123.619C49.3859 123.327 49.2746 122.931 49.2746 122.432V122.385ZM49.6294 122.448C49.6294 122.851 49.7103 123.17 49.872 123.405C50.0355 123.638 50.2642 123.755 50.5581 123.755C50.9894 123.755 51.2955 123.561 51.4764 123.173V121.699C51.3946 121.497 51.2764 121.343 51.1216 121.237C50.9668 121.13 50.7807 121.076 50.5633 121.076C50.2694 121.076 50.0399 121.191 49.8746 121.423C49.7112 121.654 49.6294 121.996 49.6294 122.448ZM54.7445 124C54.7097 123.901 54.6871 123.753 54.6767 123.557C54.5549 123.718 54.3984 123.843 54.2071 123.93C54.0175 124.015 53.8158 124.057 53.6019 124.057C53.2975 124.057 53.0506 123.973 52.861 123.804C52.6732 123.634 52.5793 123.419 52.5793 123.16C52.5793 122.85 52.708 122.606 52.9654 122.427C53.2228 122.248 53.581 122.158 54.0402 122.158H54.6741V121.796C54.6741 121.57 54.6045 121.392 54.4654 121.263C54.3262 121.133 54.1228 121.068 53.8549 121.068C53.6097 121.068 53.4071 121.13 53.2471 121.256C53.0871 121.381 53.0071 121.531 53.0071 121.707L52.6575 121.704C52.6575 121.452 52.7741 121.234 53.0071 121.05C53.2419 120.863 53.5306 120.77 53.8732 120.77C54.2262 120.77 54.5045 120.859 54.708 121.037C54.9132 121.214 55.0184 121.461 55.0236 121.777V123.277C55.0236 123.583 55.0558 123.813 55.1202 123.966V124H54.7445ZM53.6436 123.747C53.8784 123.747 54.088 123.69 54.2723 123.577C54.4567 123.464 54.5906 123.313 54.6741 123.123V122.427H54.048C53.6984 122.43 53.4245 122.495 53.2262 122.62C53.0297 122.743 52.9315 122.913 52.9315 123.129C52.9315 123.308 52.9975 123.456 53.1297 123.572C53.2619 123.689 53.4332 123.747 53.6436 123.747ZM56.2943 120.83L56.3074 121.373C56.4256 121.177 56.5735 121.027 56.7509 120.924C56.93 120.822 57.1265 120.77 57.3404 120.77C57.6813 120.77 57.9343 120.867 58.0996 121.06C58.2648 121.251 58.3491 121.538 58.3526 121.921V124H58.003V121.918C58.0013 121.635 57.9413 121.423 57.823 121.284C57.7048 121.145 57.5161 121.076 57.2569 121.076C57.0396 121.076 56.8474 121.143 56.6804 121.279C56.5135 121.415 56.39 121.598 56.31 121.83V124H55.9604V120.83H56.2943ZM60.4247 123.763C60.6699 123.763 60.8751 123.694 61.0404 123.557C61.2056 123.419 61.2943 123.241 61.3064 123.022H61.6456C61.6351 123.215 61.5743 123.391 61.463 123.551C61.3517 123.71 61.2038 123.834 61.0195 123.924C60.8351 124.013 60.6369 124.057 60.4247 124.057C60.009 124.057 59.6795 123.913 59.436 123.624C59.1943 123.336 59.0734 122.947 59.0734 122.458V122.354C59.0734 122.041 59.1273 121.764 59.2351 121.524C59.3447 121.284 59.5012 121.099 59.7047 120.969C59.9099 120.837 60.149 120.77 60.4221 120.77C60.7699 120.77 61.0569 120.874 61.283 121.081C61.509 121.288 61.6299 121.561 61.6456 121.9H61.3064C61.2908 121.651 61.2012 121.451 61.0377 121.3C60.876 121.147 60.6708 121.07 60.4221 121.07C60.1056 121.07 59.8595 121.185 59.6838 121.415C59.5099 121.643 59.423 121.963 59.423 122.375V122.477C59.423 122.88 59.5099 123.196 59.6838 123.423C59.8595 123.65 60.1064 123.763 60.4247 123.763ZM63.3515 123.497L64.2776 120.83H64.6558L63.3019 124.54L63.2315 124.704C63.0576 125.089 62.7898 125.281 62.428 125.281C62.3428 125.281 62.2524 125.267 62.1567 125.239L62.1541 124.95L62.3367 124.968C62.5089 124.968 62.648 124.925 62.7541 124.84C62.8602 124.755 62.9506 124.609 63.0254 124.402L63.1793 123.974L61.9845 120.83H62.368L63.3515 123.497Z" fill="#B3B3B3"/>
</svg>
