<svg width="189" height="28" viewBox="0 0 189 28" fill="none" xmlns="http://www.w3.org/2000/svg">
<path d="M2.002 16.2696C1.60664 16.2696 1.27186 16.1325 0.997655 15.8583C0.717075 15.5777 0.576785 15.2429 0.576785 14.8539V4.81043C0.576785 4.42145 0.717075 4.08667 0.997655 3.80609C1.27186 3.53188 1.60664 3.39478 2.002 3.39478C2.39099 3.39478 2.72577 3.53188 3.00635 3.80609C3.28055 4.08667 3.41765 4.42145 3.41765 4.81043V14.8539C3.41765 15.2429 3.28055 15.5777 3.00635 15.8583C2.72577 16.1325 2.39099 16.2696 2.002 16.2696ZM3.60896 18.6991C3.60896 19.1455 3.45273 19.5281 3.14026 19.847C2.8278 20.1594 2.44838 20.3157 2.002 20.3157C1.55563 20.3157 1.17302 20.1594 0.854176 19.847C0.541713 19.5281 0.385481 19.1455 0.385481 18.6991C0.385481 18.2528 0.541713 17.8733 0.854176 17.5609C1.17302 17.2484 1.55563 17.0922 2.002 17.0922C2.44838 17.0922 2.8278 17.2484 3.14026 17.5609C3.45273 17.8733 3.60896 18.2528 3.60896 18.6991ZM7.54497 16.2696C7.14961 16.2696 6.81483 16.1325 6.54062 15.8583C6.26004 15.5777 6.11975 15.2429 6.11975 14.8539V4.81043C6.11975 4.42145 6.26004 4.08667 6.54062 3.80609C6.81483 3.53188 7.14961 3.39478 7.54497 3.39478C7.93396 3.39478 8.26874 3.53188 8.54932 3.80609C8.82352 4.08667 8.96062 4.42145 8.96062 4.81043V14.8539C8.96062 15.2429 8.82352 15.5777 8.54932 15.8583C8.26874 16.1325 7.93396 16.2696 7.54497 16.2696ZM9.15193 18.6991C9.15193 19.1455 8.9957 19.5281 8.68323 19.847C8.37077 20.1594 7.99135 20.3157 7.54497 20.3157C7.09859 20.3157 6.71599 20.1594 6.39715 19.847C6.08468 19.5281 5.92845 19.1455 5.92845 18.6991C5.92845 18.2528 6.08468 17.8733 6.39715 17.5609C6.71599 17.2484 7.09859 17.0922 7.54497 17.0922C7.99135 17.0922 8.37077 17.2484 8.68323 17.5609C8.9957 17.8733 9.15193 18.2528 9.15193 18.6991ZM13.0879 16.2696C12.6926 16.2696 12.3578 16.1325 12.0836 15.8583C11.803 15.5777 11.6627 15.2429 11.6627 14.8539V4.81043C11.6627 4.42145 11.803 4.08667 12.0836 3.80609C12.3578 3.53188 12.6926 3.39478 13.0879 3.39478C13.4769 3.39478 13.8117 3.53188 14.0923 3.80609C14.3665 4.08667 14.5036 4.42145 14.5036 4.81043V14.8539C14.5036 15.2429 14.3665 15.5777 14.0923 15.8583C13.8117 16.1325 13.4769 16.2696 13.0879 16.2696ZM14.6949 18.6991C14.6949 19.1455 14.5387 19.5281 14.2262 19.847C13.9137 20.1594 13.5343 20.3157 13.0879 20.3157C12.6416 20.3157 12.259 20.1594 11.9401 19.847C11.6277 19.5281 11.4714 19.1455 11.4714 18.6991C11.4714 18.2528 11.6277 17.8733 11.9401 17.5609C12.259 17.2484 12.6416 17.0922 13.0879 17.0922C13.5343 17.0922 13.9137 17.2484 14.2262 17.5609C14.5387 17.8733 14.6949 18.2528 14.6949 18.6991ZM39.4763 17.1591C39.8653 17.1591 40.1969 17.2962 40.4711 17.5704C40.7516 17.8446 40.8919 18.1794 40.8919 18.5748C40.8919 18.9638 40.7516 19.2986 40.4711 19.5791C40.1969 19.8533 39.8653 19.9904 39.4763 19.9904C38.6728 19.9904 37.9777 19.8693 37.3911 19.627C37.3464 21.2403 36.9479 22.6049 36.1954 23.7209C35.5705 24.6328 34.7383 25.3278 33.6989 25.8061C32.6467 26.2907 31.4064 26.533 29.978 26.533C27.7334 26.533 25.9319 25.8507 24.5737 24.4861C23.4003 23.3128 22.8137 21.8812 22.8137 20.1913C22.8137 19.2794 22.9858 18.3357 23.3302 17.36C23.6745 16.3843 24.1369 15.5394 24.7172 14.8252C24.9595 14.5191 25.2751 14.347 25.6641 14.3087C26.0531 14.2641 26.4006 14.3629 26.7067 14.6052C27.0128 14.8539 27.1882 15.1728 27.2328 15.5617C27.2711 15.9507 27.169 16.2983 26.9267 16.6043C26.5569 17.0635 26.2508 17.631 26.0085 18.307C25.7725 18.9829 25.6514 19.6142 25.645 20.2009C25.645 21.1064 25.9543 21.8684 26.5728 22.487C27.3827 23.2968 28.5177 23.7017 29.978 23.7017C31.8464 23.7017 33.1345 23.1757 33.8424 22.1235C34.3589 21.3646 34.598 20.3348 34.5598 19.0339C34.5151 17.733 34.1995 16.3429 33.6128 14.8635C33.4725 14.5128 33.4757 14.162 33.6224 13.8113C33.7627 13.4542 34.005 13.1991 34.3493 13.0461C34.7001 12.8867 35.0603 12.8771 35.4302 13.0174C35.8001 13.1577 36.0647 13.4032 36.2241 13.7539C36.9128 15.2843 37.5218 16.2759 38.0511 16.7287C38.3827 17.0157 38.8577 17.1591 39.4763 17.1591ZM31.8432 13.7061C31.8432 14.1461 31.6711 14.5478 31.3267 14.9113C30.9824 15.262 30.6029 15.4374 30.1885 15.4374C29.7612 15.4374 29.3021 15.2652 28.8111 14.9209C28.4667 14.551 28.2945 14.1461 28.2945 13.7061C28.2945 13.3107 28.4795 12.9217 28.8493 12.5391C29.2256 12.1565 29.6241 11.9652 30.045 11.9652C30.4722 11.9652 30.8772 12.1438 31.2598 12.5009C31.6487 12.8643 31.8432 13.2661 31.8432 13.7061ZM51.8623 0.984348C52.111 1.28406 52.2194 1.62841 52.1876 2.01739C52.1557 2.40638 51.9899 2.72841 51.6902 2.98348C50.1151 4.31623 48.3678 5.44812 46.4484 6.37913C45.5365 6.81913 44.5099 7.25275 43.3684 7.68C43.9678 7.99884 44.6023 8.42927 45.2719 8.9713C46.0818 9.62174 46.7864 10.3136 47.3858 11.047C48.1 11.9206 48.5942 12.7751 48.8684 13.6104C49.2383 14.7328 49.2032 15.769 48.7632 16.7191C48.0681 18.1922 46.831 19.1614 45.0519 19.627C44.427 19.7928 43.7096 19.9012 42.8997 19.9522C42.5809 19.9713 42.2334 19.9841 41.8571 19.9904L41.3597 20H39.4658C39.0768 20 38.7421 19.8629 38.4615 19.5887C38.1873 19.3081 38.0502 18.9733 38.0502 18.5843C38.0502 18.189 38.1873 17.8542 38.4615 17.58C38.7421 17.3058 39.0768 17.1687 39.4658 17.1687C41.9464 17.1687 43.5342 17.0826 44.2293 16.9104C45.2113 16.6745 45.865 16.209 46.1902 15.5139C46.3623 15.1504 46.2986 14.669 45.9989 14.0696C45.8905 13.8464 45.7534 13.6136 45.5876 13.3713C45.4664 13.1928 45.3357 13.0174 45.1954 12.8452C44.7363 12.2841 44.1878 11.7452 43.5502 11.2287C42.9954 10.7696 42.4821 10.4188 42.0102 10.1765C41.6913 10.0043 41.4681 9.74609 41.3406 9.40174C41.2194 9.05739 41.229 8.71623 41.3693 8.37826C41.2609 8.40377 41.1525 8.41652 41.0441 8.41652C40.7444 8.41652 40.4734 8.33362 40.231 8.16783C39.9823 7.98927 39.807 7.75652 39.705 7.46956C39.5774 7.09971 39.5997 6.73623 39.7719 6.37913C39.9377 6.02841 40.2055 5.78927 40.5754 5.66174C42.5777 4.96667 44.1623 4.33536 45.3293 3.76783C46.9873 2.95797 48.4986 1.97594 49.8632 0.821739C50.1629 0.566666 50.5073 0.455072 50.8963 0.486957C51.2852 0.518841 51.6073 0.684638 51.8623 0.984348ZM56.6369 27.0496C56.0693 27.0496 55.6517 26.7977 55.3838 26.2939C55.1989 25.9496 55.1638 25.5893 55.2786 25.213C55.3934 24.8432 55.623 24.5658 55.9673 24.3809C57.5998 23.5136 58.7859 22.4104 59.5256 21.0713C60.4247 19.4516 60.8743 17.191 60.8743 14.2896C60.8743 13.8942 61.0114 13.5594 61.2856 13.2852C61.5598 13.0046 61.8946 12.8643 62.2899 12.8643C62.6789 12.8643 63.0137 13.0046 63.2943 13.2852C63.5685 13.5594 63.7056 13.8942 63.7056 14.2896C63.7056 17.6183 63.1635 20.2965 62.0795 22.3243C61.0656 24.2055 59.4714 25.7264 57.2969 26.887C57.0928 26.9954 56.8728 27.0496 56.6369 27.0496ZM69.1363 14.0887C68.7346 14.4968 68.5433 15.0835 68.5624 15.8487C68.5688 16.2441 68.7186 16.531 69.012 16.7096C69.2033 16.8371 69.4551 16.9359 69.7676 17.0061C70.1757 17.1017 70.6667 17.1496 71.2407 17.1496H72.092C71.9963 16.3461 71.7604 15.6064 71.3841 14.9304C70.9378 14.1461 70.434 13.7539 69.8728 13.7539C69.605 13.7539 69.3595 13.8655 69.1363 14.0887ZM75.1911 17.1687C75.5099 17.207 75.7873 17.3472 76.0233 17.5896C76.2911 17.8638 76.4218 18.1922 76.4154 18.5748C76.4154 18.9701 76.2783 19.3049 76.0041 19.5791C75.7299 19.8533 75.4589 19.9904 75.1911 19.9904H74.5311C74.4418 20.2774 74.3366 20.5612 74.2154 20.8417C73.8073 21.7919 73.2302 22.6655 72.4841 23.4626C71.0302 25.0058 69.2607 26.0101 67.1754 26.4757C67.0734 26.5012 66.9714 26.5139 66.8693 26.5139C66.5441 26.5139 66.2508 26.4119 65.9893 26.2078C65.7279 25.9974 65.5589 25.7296 65.4824 25.4043C65.3995 25.0217 65.4633 24.6646 65.6737 24.333C65.8841 24.0014 66.1807 23.7942 66.5633 23.7113C67.5708 23.4881 68.5146 23.0545 69.3946 22.4104C70.3256 21.7281 71.0238 20.9214 71.4893 19.9904H71.1641C69.0343 19.9904 67.507 19.4612 66.5824 18.4026C66.238 18.02 65.9893 17.5736 65.8363 17.0635C65.7215 16.6936 65.6578 16.3078 65.645 15.9061C65.6131 14.3501 66.0786 13.0812 67.0415 12.0991C67.8131 11.3084 68.7314 10.913 69.7963 10.913C70.6125 10.913 71.365 11.1426 72.0537 11.6017C72.7424 12.0672 73.3291 12.7304 73.8137 13.5913C74.4259 14.7072 74.7766 15.8997 74.8659 17.1687C75.0317 17.1687 75.1401 17.1687 75.1911 17.1687ZM75.192 20C74.803 20 74.4682 19.8629 74.1876 19.5887C73.9134 19.3081 73.7763 18.9733 73.7763 18.5843C73.7763 18.189 73.9134 17.8542 74.1876 17.58C74.4682 17.3058 74.803 17.1687 75.192 17.1687C76.6905 17.1687 77.6789 17.1241 78.1572 17.0348C78.8331 16.9072 79.2827 16.6586 79.5059 16.2887C79.5633 16.1994 79.5984 16.04 79.6111 15.8104C79.6302 15.5043 79.5984 15.1441 79.5155 14.7296C79.356 13.8878 79.05 13.0014 78.5972 12.0704C78.4314 11.7197 78.4123 11.3594 78.5398 10.9896C78.6673 10.6197 78.9065 10.3487 79.2572 10.1765C79.6143 10.0043 79.9778 9.98522 80.3476 10.1191C80.7175 10.2467 80.9853 10.4858 81.1511 10.8365C81.234 11.0023 81.3137 11.1745 81.3902 11.353C81.4923 11.589 81.5911 11.8249 81.6868 12.0609C81.9227 12.6986 82.1044 13.3075 82.232 13.8878C82.6018 15.5394 82.4998 16.8339 81.9259 17.7713C81.3265 18.747 80.3923 19.3974 79.1233 19.7226C78.6386 19.8438 78.0839 19.9235 77.4589 19.9617C77.2102 19.9809 76.8723 19.9936 76.445 20H75.192ZM76.6555 9.49739C76.4068 9.49739 76.1804 9.43043 75.9763 9.29652C75.7595 9.16261 75.6001 8.97768 75.4981 8.74174C75.3578 8.4229 75.3482 8.10087 75.4694 7.77565C75.5969 7.45043 75.8201 7.21768 76.1389 7.07739C76.8021 6.7713 77.6726 6.51623 78.7502 6.31217C79.5282 6.16551 80.4815 6.18464 81.6102 6.36956C81.9546 6.42696 82.2288 6.59913 82.4329 6.88609C82.6369 7.16667 82.7102 7.47913 82.6529 7.82348C82.5955 8.16783 82.4233 8.44203 82.1363 8.64609C81.8558 8.85014 81.5433 8.92348 81.1989 8.86609C80.3572 8.7258 79.6908 8.70667 79.1998 8.8087C78.4282 8.93623 77.7523 9.13072 77.172 9.39217C77.0062 9.46232 76.834 9.49739 76.6555 9.49739ZM97.0595 17.7426V17.6183C97.0595 16.8275 96.8554 16.0177 96.4473 15.1887C95.9818 14.2322 95.4366 13.7539 94.8116 13.7539C94.5374 13.7539 94.2919 13.8655 94.0751 14.0887C93.6734 14.4968 93.4789 15.0835 93.4916 15.8487C93.5044 16.2377 93.6479 16.5501 93.9221 16.7861C94.3493 17.1496 94.9424 17.2771 95.7012 17.1687C95.7713 17.1559 95.8415 17.1496 95.9116 17.1496C96.3963 17.1496 96.7789 17.3472 97.0595 17.7426ZM90.9951 26.2078C90.7337 25.9974 90.5679 25.7296 90.4977 25.4043C90.4084 25.0217 90.469 24.6646 90.6795 24.333C90.8899 24.0014 91.1864 23.7942 91.569 23.7113C92.6148 23.4754 93.5841 23.0226 94.4768 22.353C95.4334 21.6388 96.1348 20.7939 96.5812 19.8183C96.4345 19.8948 96.2783 19.9458 96.1125 19.9713C95.3473 20.0797 94.6139 20.0446 93.9125 19.8661C93.211 19.6939 92.6052 19.3878 92.0951 18.9478C91.1641 18.1635 90.6858 17.1496 90.6603 15.9061C90.6284 14.3501 91.0908 13.0812 92.0473 12.0991C92.8252 11.3084 93.7467 10.913 94.8116 10.913C95.6215 10.913 96.3739 11.1426 97.069 11.6017C97.7577 12.0672 98.3412 12.7304 98.8195 13.5913C99.54 14.8858 99.9003 16.2281 99.9003 17.6183C99.9003 18.7342 99.6771 19.8087 99.2308 20.8417C98.8226 21.7919 98.2424 22.6655 97.4899 23.4626C96.036 25.0058 94.2696 26.0101 92.1908 26.4757C92.0887 26.5012 91.9835 26.5139 91.8751 26.5139C91.5499 26.5139 91.2566 26.4119 90.9951 26.2078ZM101.238 27.0496C100.671 27.0496 100.253 26.7977 99.9854 26.2939C99.8005 25.9496 99.7654 25.5893 99.8802 25.213C99.995 24.8432 100.225 24.5658 100.569 24.3809C102.201 23.5136 103.387 22.4104 104.127 21.0713C105.026 19.4516 105.476 17.191 105.476 14.2896C105.476 13.8942 105.613 13.5594 105.887 13.2852C106.161 13.0046 106.496 12.8643 106.891 12.8643C107.28 12.8643 107.615 13.0046 107.896 13.2852C108.17 13.5594 108.307 13.8942 108.307 14.2896C108.307 17.6183 107.765 20.2965 106.681 22.3243C105.667 24.2055 104.073 25.7264 101.898 26.887C101.694 26.9954 101.474 27.0496 101.238 27.0496ZM124.54 20.0957C123.016 20.0957 121.734 19.9681 120.695 19.713C119.183 19.3368 118.055 18.68 117.308 17.7426C116.467 16.6841 116.122 15.5394 116.275 14.3087C116.409 13.2374 116.919 12.198 117.806 11.1904C118.061 10.8971 118.386 10.7409 118.781 10.7217C119.17 10.6962 119.512 10.8142 119.805 11.0757C120.098 11.3307 120.258 11.6559 120.283 12.0513C120.302 12.4403 120.184 12.7814 119.929 13.0748C119.426 13.6359 119.145 14.162 119.088 14.653C119.03 15.0994 119.177 15.5394 119.528 15.973C120.21 16.8339 121.881 17.2643 124.54 17.2643C126.702 17.2643 128.449 17.0635 129.781 16.6617C130.897 16.3301 131.577 15.922 131.819 15.4374C131.997 15.093 131.953 14.6116 131.685 13.993C131.577 13.7571 131.439 13.5052 131.274 13.2374C131.146 13.027 131.003 12.8133 130.843 12.5965C130.607 12.2841 130.518 11.9333 130.575 11.5443C130.633 11.1554 130.821 10.8461 131.14 10.6165C131.452 10.3806 131.803 10.2913 132.192 10.3487C132.581 10.4125 132.89 10.6006 133.12 10.913C133.91 11.9843 134.417 12.9887 134.641 13.9261C134.877 14.9464 134.781 15.8774 134.354 16.7191C133.678 18.0519 132.23 18.9925 130.011 19.5409C129.163 19.7449 128.2 19.8948 127.122 19.9904C126.3 20.0606 125.439 20.0957 124.54 20.0957ZM123.124 12.1948C122.875 12.1948 122.649 12.1278 122.445 11.9939C122.228 11.86 122.069 11.6751 121.967 11.4391C121.826 11.1203 121.817 10.7983 121.938 10.473C122.066 10.1478 122.289 9.91507 122.608 9.77478C123.271 9.4687 124.141 9.21362 125.219 9.00957C125.997 8.8629 126.95 8.88203 128.079 9.06696C128.423 9.12435 128.697 9.29652 128.901 9.58348C129.106 9.86406 129.179 10.1765 129.121 10.5209C129.064 10.8652 128.892 11.1394 128.605 11.3435C128.324 11.5475 128.012 11.6209 127.668 11.5635C126.826 11.4232 126.159 11.4041 125.668 11.5061C124.897 11.6336 124.221 11.8281 123.641 12.0896C123.475 12.1597 123.303 12.1948 123.124 12.1948ZM141.178 20C140.656 19.9936 140.308 19.9809 140.136 19.9617C139.696 19.9107 139.297 19.8151 138.94 19.6748C138.475 19.4835 138.076 19.2125 137.745 18.8617C137.305 18.4026 137.002 17.8191 136.836 17.1113C136.702 16.5501 136.638 14.9623 136.645 12.3478V11.4487V10.5304C136.638 9.84812 136.629 9.24551 136.616 8.72261C136.584 7.38986 136.511 6.35043 136.396 5.60435C136.338 5.21536 136.425 4.86145 136.654 4.54261C136.89 4.23014 137.199 4.04522 137.582 3.98783C137.971 3.93043 138.322 4.01652 138.634 4.24609C138.953 4.48203 139.141 4.7913 139.198 5.17391C139.326 6.01565 139.409 7.14116 139.447 8.55043C139.46 9.10522 139.469 9.7429 139.476 10.4635V13.6009C139.476 14.0728 139.479 14.4745 139.485 14.8061C139.505 15.6797 139.54 16.2313 139.591 16.4609C139.661 16.7542 139.782 16.9423 139.954 17.0252C140.145 17.1209 140.554 17.1687 141.178 17.1687C141.567 17.1687 141.899 17.3058 142.173 17.58C142.454 17.8542 142.594 18.189 142.594 18.5843C142.594 18.9733 142.454 19.3081 142.173 19.5887C141.899 19.8629 141.567 20 141.178 20ZM145.458 13.907C145.241 14.653 145.321 15.2875 145.697 15.8104C145.927 16.1357 146.214 16.4067 146.558 16.6235C146.979 16.4704 147.342 16.2568 147.649 15.9826C148.031 15.651 148.27 15.2684 148.366 14.8348C148.493 14.28 148.506 13.7922 148.404 13.3713C148.264 12.791 147.91 12.4212 147.342 12.2617C146.934 12.147 146.517 12.3351 146.089 12.8261C145.936 13.0046 145.796 13.2055 145.669 13.4287C145.56 13.62 145.49 13.7794 145.458 13.907ZM151.149 13.3809C151.258 14.4586 151.095 15.5012 150.662 16.5087C150.509 16.8722 150.311 17.2101 150.069 17.5226C150.075 17.5226 150.132 17.5258 150.241 17.5322C150.292 17.5386 150.34 17.5449 150.384 17.5513C150.442 17.5577 150.499 17.5609 150.556 17.5609C150.882 17.58 151.181 17.5672 151.455 17.5226C152.31 17.3696 152.849 16.9136 153.072 16.1548C153.2 15.7148 153.097 15.2365 152.766 14.72C152.409 14.1716 151.87 13.7252 151.149 13.3809ZM149.992 20.3635C149.067 20.3635 148.155 20.2359 147.256 19.9809C146.893 19.8788 146.549 19.7577 146.223 19.6174C145.49 19.7768 144.642 19.8852 143.679 19.9426C143.022 19.9809 142.184 20 141.163 20C140.774 20 140.44 19.8629 140.159 19.5887C139.885 19.3081 139.748 18.9733 139.748 18.5843C139.748 18.1954 139.885 17.8606 140.159 17.58C140.44 17.3058 140.774 17.1687 141.163 17.1687H141.603C141.775 17.1687 141.935 17.1655 142.082 17.1591C142.458 17.1591 142.805 17.1496 143.124 17.1304C142.563 16.1803 142.359 15.1154 142.512 13.9357C142.684 12.6157 143.245 11.5316 144.195 10.6835C144.297 10.5942 144.406 10.5081 144.521 10.4252C144.285 10.253 144.119 10.0299 144.023 9.75565C143.921 9.4687 143.912 9.18174 143.995 8.89478C144.097 8.51855 144.32 8.23478 144.664 8.04348C145.009 7.85217 145.369 7.81072 145.745 7.91913C146.102 8.02116 146.472 8.13275 146.855 8.25391C147.384 8.43246 147.904 8.62058 148.414 8.81826C149.791 9.35391 150.987 9.94058 152.001 10.5783C153.168 11.3116 154.06 12.0928 154.679 12.9217C155.502 14.0313 155.83 15.1919 155.664 16.4035C155.537 17.3281 155.151 18.1157 154.507 18.7661C153.863 19.4229 153.018 19.8788 151.972 20.1339C151.36 20.287 150.7 20.3635 149.992 20.3635ZM162.255 20C161.732 19.9936 161.384 19.9809 161.212 19.9617C160.772 19.9107 160.373 19.8151 160.016 19.6748C159.551 19.4835 159.152 19.2125 158.821 18.8617C158.381 18.4026 158.078 17.8191 157.912 17.1113C157.778 16.5501 157.714 14.9623 157.721 12.3478V11.4487V10.5304C157.714 9.84812 157.705 9.24551 157.692 8.72261C157.66 7.38986 157.587 6.35043 157.472 5.60435C157.415 5.21536 157.501 4.86145 157.73 4.54261C157.966 4.23014 158.275 4.04522 158.658 3.98783C159.047 3.93043 159.398 4.01652 159.71 4.24609C160.029 4.48203 160.217 4.7913 160.275 5.17391C160.402 6.01565 160.485 7.14116 160.523 8.55043C160.536 9.10522 160.546 9.7429 160.552 10.4635V13.6009C160.552 14.0728 160.555 14.4745 160.562 14.8061C160.581 15.6797 160.616 16.2313 160.667 16.4609C160.737 16.7542 160.858 16.9423 161.03 17.0252C161.222 17.1209 161.63 17.1687 162.255 17.1687C162.644 17.1687 162.975 17.3058 163.249 17.58C163.53 17.8542 163.67 18.189 163.67 18.5843C163.67 18.9733 163.53 19.3081 163.249 19.5887C162.975 19.8629 162.644 20 162.255 20ZM162.268 20C161.879 20 161.544 19.8629 161.264 19.5887C160.99 19.3081 160.853 18.9733 160.853 18.5843C160.853 18.189 160.99 17.8542 161.264 17.58C161.544 17.3058 161.879 17.1687 162.268 17.1687C163.767 17.1687 164.755 17.1241 165.233 17.0348C165.909 16.9072 166.359 16.6586 166.582 16.2887C166.639 16.1994 166.675 16.04 166.687 15.8104C166.706 15.5043 166.675 15.1441 166.592 14.7296C166.432 13.8878 166.126 13.0014 165.673 12.0704C165.508 11.7197 165.488 11.3594 165.616 10.9896C165.744 10.6197 165.983 10.3487 166.333 10.1765C166.69 10.0043 167.054 9.98522 167.424 10.1191C167.794 10.2467 168.061 10.4858 168.227 10.8365C168.31 11.0023 168.39 11.1745 168.466 11.353C168.568 11.589 168.667 11.8249 168.763 12.0609C168.999 12.6986 169.181 13.3075 169.308 13.8878C169.678 15.5394 169.576 16.8339 169.002 17.7713C168.403 18.747 167.468 19.3974 166.199 19.7226C165.715 19.8438 165.16 19.9235 164.535 19.9617C164.286 19.9809 163.948 19.9936 163.521 20H162.268ZM163.502 24.773C163.253 24.773 163.027 24.7061 162.823 24.5722C162.606 24.4383 162.447 24.2533 162.345 24.0174C162.204 23.6986 162.195 23.3765 162.316 23.0513C162.444 22.7261 162.667 22.4933 162.986 22.353C163.649 22.047 164.519 21.7919 165.597 21.5878C166.375 21.4412 167.328 21.4603 168.457 21.6452C168.801 21.7026 169.075 21.8748 169.279 22.1617C169.484 22.4423 169.557 22.7548 169.499 23.0991C169.442 23.4435 169.27 23.7177 168.983 23.9217C168.702 24.1258 168.39 24.1991 168.046 24.1417C167.204 24.0014 166.537 23.9823 166.046 24.0843C165.275 24.2119 164.599 24.4064 164.019 24.6678C163.853 24.738 163.681 24.773 163.502 24.773ZM177.475 17.7426V17.6183C177.475 16.8275 177.271 16.0177 176.863 15.1887C176.398 14.2322 175.853 13.7539 175.228 13.7539C174.953 13.7539 174.708 13.8655 174.491 14.0887C174.089 14.4968 173.895 15.0835 173.908 15.8487C173.92 16.2377 174.064 16.5501 174.338 16.7861C174.765 17.1496 175.358 17.2771 176.117 17.1687C176.187 17.1559 176.257 17.1496 176.328 17.1496C176.812 17.1496 177.195 17.3472 177.475 17.7426ZM171.411 26.2078C171.15 25.9974 170.984 25.7296 170.914 25.4043C170.824 25.0217 170.885 24.6646 171.095 24.333C171.306 24.0014 171.602 23.7942 171.985 23.7113C173.031 23.4754 174 23.0226 174.893 22.353C175.849 21.6388 176.551 20.7939 176.997 19.8183C176.851 19.8948 176.694 19.9458 176.529 19.9713C175.763 20.0797 175.03 20.0446 174.329 19.8661C173.627 19.6939 173.021 19.3878 172.511 18.9478C171.58 18.1635 171.102 17.1496 171.076 15.9061C171.044 14.3501 171.507 13.0812 172.463 12.0991C173.241 11.3084 174.163 10.913 175.228 10.913C176.037 10.913 176.79 11.1426 177.485 11.6017C178.174 12.0672 178.757 12.7304 179.235 13.5913C179.956 14.8858 180.316 16.2281 180.316 17.6183C180.316 18.7342 180.093 19.8087 179.647 20.8417C179.239 21.7919 178.658 22.6655 177.906 23.4626C176.452 25.0058 174.686 26.0101 172.607 26.4757C172.505 26.5012 172.4 26.5139 172.291 26.5139C171.966 26.5139 171.673 26.4119 171.411 26.2078ZM181.654 27.0496C181.087 27.0496 180.669 26.7977 180.401 26.2939C180.216 25.9496 180.181 25.5893 180.296 25.213C180.411 24.8432 180.641 24.5658 180.985 24.3809C182.617 23.5136 183.803 22.4104 184.543 21.0713C185.442 19.4516 185.892 17.191 185.892 14.2896C185.892 13.8942 186.029 13.5594 186.303 13.2852C186.577 13.0046 186.912 12.8643 187.308 12.8643C187.696 12.8643 188.031 13.0046 188.312 13.2852C188.586 13.5594 188.723 13.8942 188.723 14.2896C188.723 17.6183 188.181 20.2965 187.097 22.3243C186.083 24.2055 184.489 25.7264 182.314 26.887C182.11 26.9954 181.89 27.0496 181.654 27.0496Z" fill="white"/>
</svg>
