<svg width="20" height="23" viewBox="0 0 20 23" fill="none" xmlns="http://www.w3.org/2000/svg">
<path d="M0 0.75V20.25H7.78125L7.52344 21.6094L7.28906 22.7109L8.39062 22.4766L11.0156 21.9609L11.25 21.9141L11.4141 21.75L18.8203 14.3203C19.6846 13.4561 19.6846 12.0439 18.8203 11.1797C18.3867 10.7461 17.8242 10.5234 17.25 10.5234C16.6758 10.5234 16.1133 10.7461 15.6797 11.1797L15 11.8594V5.69531L14.7891 5.46094L10.2891 0.960938L10.0547 0.75H0ZM1.5 2.25H9V6.75H13.5V13.3594L8.25 18.5859L8.08594 18.75H1.5V2.25ZM10.5 3.32812L12.4219 5.25H10.5V3.32812ZM17.25 11.9766C17.4258 11.9766 17.5986 12.0674 17.7656 12.2344C18.0996 12.5684 18.0996 12.9316 17.7656 13.2656L10.5 20.5312L9.21094 20.7891L9.46875 19.5L16.6875 12.2578L16.7344 12.2344C16.9014 12.0674 17.0742 11.9766 17.25 11.9766Z" fill="#697A80"/>
</svg>
