<svg width="27" height="27" viewBox="0 0 27 27" fill="none" xmlns="http://www.w3.org/2000/svg">
<path d="M0.867877 6.60434C0.899127 6.92465 0.985065 7.25277 1.11788 7.57308L1.08663 7.57308C1.09053 7.58871 1.11397 7.61996 1.11788 7.63558C1.97335 10.0692 4.11788 14.7293 8.33663 18.9481C12.5866 23.1981 17.3327 25.2489 19.6804 26.1668L19.7116 26.1668C20.9265 26.5731 22.2429 26.284 23.1804 25.4793L23.2116 25.4481L23.2429 25.4481L26.2116 22.4481L26.3366 22.3231C27.1648 21.495 27.1648 20.0575 26.3366 19.2293L22.2429 15.1356C21.4148 14.3075 19.946 14.3075 19.1179 15.1356L17.1491 17.1043C16.4343 16.7606 14.6765 15.87 13.0241 14.2918C11.3835 12.7254 10.5476 10.9286 10.2429 10.2293L12.3054 8.16683L12.3679 8.07308C12.6804 7.60433 12.8562 7.06918 12.8366 6.51058C12.8171 5.98715 12.5593 5.44418 12.1179 5.04183L12.1491 5.01058L12.0554 4.94808L8.05538 0.916835C7.22725 0.0887102 5.7585 0.0887102 4.93038 0.916835L1.83663 4.01059C1.39913 4.44809 1.071 5.03793 0.930377 5.66684C0.863971 5.97152 0.836627 6.28402 0.867877 6.60434ZM2.86788 6.44808C2.84053 6.06918 3.00069 5.69027 3.24288 5.44809L6.33663 2.32309C6.5085 2.15121 6.446 2.15121 6.61788 2.32309L10.8054 6.51058C10.8015 6.50668 10.8327 6.51058 10.8366 6.60433C10.8405 6.68246 10.7741 6.79965 10.7116 6.91683L10.7116 6.97933L8.33663 9.32308L7.86788 9.79183L8.08663 10.3856C8.08663 10.3856 9.23507 13.4598 11.6491 15.7606C14.0163 18.0223 16.9304 19.2606 16.9304 19.2606L17.5554 19.5106L18.0554 19.0418L20.5554 16.5418C20.7273 16.37 20.6648 16.37 20.8366 16.5418L24.9304 20.6356C25.1023 20.8075 25.1023 20.745 24.9304 20.9168L21.8991 23.9793C21.8913 23.9871 21.8757 23.9715 21.8679 23.9793L21.8366 24.0106C21.403 24.3582 20.9421 24.4637 20.3991 24.2918C20.3874 24.2879 20.3796 24.2957 20.3679 24.2918C18.1101 23.4051 13.6843 21.452 9.74288 17.5106C5.78585 13.5536 3.75069 9.06527 2.99288 6.88558L2.96163 6.85433L2.96163 6.82308C2.90694 6.70199 2.87569 6.57308 2.86788 6.44808Z" fill="#5A623A"/>
</svg>
