<svg width="18" height="17" viewBox="0 0 18 17" fill="none" xmlns="http://www.w3.org/2000/svg">
<path d="M3 0.25C2.3125 0.25 1.70142 0.534817 1.31396 0.970703C0.92651 1.40659 0.75 1.95833 0.75 2.5C0.75 3.04167 0.92651 3.59341 1.31396 4.0293C1.70142 4.46518 2.3125 4.75 3 4.75C3.6875 4.75 4.29858 4.46518 4.68604 4.0293C5.07349 3.59341 5.25 3.04167 5.25 2.5C5.25 1.95833 5.07349 1.40659 4.68604 0.970703C4.29858 0.534817 3.6875 0.25 3 0.25ZM9 0.25C8.3125 0.25 7.70142 0.534817 7.31396 0.970703C6.92651 1.40659 6.75 1.95833 6.75 2.5C6.75 3.04167 6.92651 3.59341 7.31396 4.0293C7.70142 4.46518 8.3125 4.75 9 4.75C9.6875 4.75 10.2986 4.46518 10.686 4.0293C11.0735 3.59341 11.25 3.04167 11.25 2.5C11.25 1.95833 11.0735 1.40659 10.686 0.970703C10.2986 0.534817 9.6875 0.25 9 0.25ZM15 0.25C14.3125 0.25 13.7014 0.534817 13.314 0.970703C12.9265 1.40659 12.75 1.95833 12.75 2.5C12.75 3.04167 12.9265 3.59341 13.314 4.0293C13.7014 4.46518 14.3125 4.75 15 4.75C15.6875 4.75 16.2986 4.46518 16.686 4.0293C17.0735 3.59341 17.25 3.04167 17.25 2.5C17.25 1.95833 17.0735 1.40659 16.686 0.970703C16.2986 0.534817 15.6875 0.25 15 0.25ZM3 1.75C3.3125 1.75 3.45142 1.84018 3.56396 1.9668C3.67651 2.09341 3.75 2.29167 3.75 2.5C3.75 2.70833 3.67651 2.90659 3.56396 3.0332C3.45142 3.15982 3.3125 3.25 3 3.25C2.6875 3.25 2.54858 3.15982 2.43604 3.0332C2.32349 2.90659 2.25 2.70833 2.25 2.5C2.25 2.29167 2.32349 2.09341 2.43604 1.9668C2.54858 1.84018 2.6875 1.75 3 1.75ZM9 1.75C9.3125 1.75 9.45142 1.84018 9.56396 1.9668C9.67651 2.09341 9.75 2.29167 9.75 2.5C9.75 2.70833 9.67651 2.90659 9.56396 3.0332C9.45142 3.15982 9.3125 3.25 9 3.25C8.6875 3.25 8.54858 3.15982 8.43604 3.0332C8.32349 2.90659 8.25 2.70833 8.25 2.5C8.25 2.29167 8.32349 2.09341 8.43604 1.9668C8.54858 1.84018 8.6875 1.75 9 1.75ZM15 1.75C15.3125 1.75 15.4514 1.84018 15.564 1.9668C15.6765 2.09341 15.75 2.29167 15.75 2.5C15.75 2.70833 15.6765 2.90659 15.564 3.0332C15.4514 3.15982 15.3125 3.25 15 3.25C14.6875 3.25 14.5486 3.15982 14.436 3.0332C14.3235 2.90659 14.25 2.70833 14.25 2.5C14.25 2.29167 14.3235 2.09341 14.436 1.9668C14.5486 1.84018 14.6875 1.75 15 1.75ZM3 6.25C2.3125 6.25 1.70142 6.53482 1.31396 6.9707C0.92651 7.40659 0.75 7.95833 0.75 8.5C0.75 9.04167 0.92651 9.59341 1.31396 10.0293C1.70142 10.4652 2.3125 10.75 3 10.75C3.6875 10.75 4.29858 10.4652 4.68604 10.0293C5.07349 9.59341 5.25 9.04167 5.25 8.5C5.25 7.95833 5.07349 7.40659 4.68604 6.9707C4.29858 6.53482 3.6875 6.25 3 6.25ZM9 6.25C8.3125 6.25 7.70142 6.53482 7.31396 6.9707C6.92651 7.40659 6.75 7.95833 6.75 8.5C6.75 9.04167 6.92651 9.59341 7.31396 10.0293C7.70142 10.4652 8.3125 10.75 9 10.75C9.6875 10.75 10.2986 10.4652 10.686 10.0293C11.0735 9.59341 11.25 9.04167 11.25 8.5C11.25 7.95833 11.0735 7.40659 10.686 6.9707C10.2986 6.53482 9.6875 6.25 9 6.25ZM15 6.25C14.3125 6.25 13.7014 6.53482 13.314 6.9707C12.9265 7.40659 12.75 7.95833 12.75 8.5C12.75 9.04167 12.9265 9.59341 13.314 10.0293C13.7014 10.4652 14.3125 10.75 15 10.75C15.6875 10.75 16.2986 10.4652 16.686 10.0293C17.0735 9.59341 17.25 9.04167 17.25 8.5C17.25 7.95833 17.0735 7.40659 16.686 6.9707C16.2986 6.53482 15.6875 6.25 15 6.25ZM3 7.75C3.3125 7.75 3.45142 7.84018 3.56396 7.9668C3.67651 8.09341 3.75 8.29167 3.75 8.5C3.75 8.70833 3.67651 8.90659 3.56396 9.0332C3.45142 9.15982 3.3125 9.25 3 9.25C2.6875 9.25 2.54858 9.15982 2.43604 9.0332C2.32349 8.90659 2.25 8.70833 2.25 8.5C2.25 8.29167 2.32349 8.09341 2.43604 7.9668C2.54858 7.84018 2.6875 7.75 3 7.75ZM9 7.75C9.3125 7.75 9.45142 7.84018 9.56396 7.9668C9.67651 8.09341 9.75 8.29167 9.75 8.5C9.75 8.70833 9.67651 8.90659 9.56396 9.0332C9.45142 9.15982 9.3125 9.25 9 9.25C8.6875 9.25 8.54858 9.15982 8.43604 9.0332C8.32349 8.90659 8.25 8.70833 8.25 8.5C8.25 8.29167 8.32349 8.09341 8.43604 7.9668C8.54858 7.84018 8.6875 7.75 9 7.75ZM15 7.75C15.3125 7.75 15.4514 7.84018 15.564 7.9668C15.6765 8.09341 15.75 8.29167 15.75 8.5C15.75 8.70833 15.6765 8.90659 15.564 9.0332C15.4514 9.15982 15.3125 9.25 15 9.25C14.6875 9.25 14.5486 9.15982 14.436 9.0332C14.3235 8.90659 14.25 8.70833 14.25 8.5C14.25 8.29167 14.3235 8.09341 14.436 7.9668C14.5486 7.84018 14.6875 7.75 15 7.75ZM3 12.25C2.3125 12.25 1.70142 12.5348 1.31396 12.9707C0.92651 13.4066 0.75 13.9583 0.75 14.5C0.75 15.0417 0.92651 15.5934 1.31396 16.0293C1.70142 16.4652 2.3125 16.75 3 16.75C3.6875 16.75 4.29858 16.4652 4.68604 16.0293C5.07349 15.5934 5.25 15.0417 5.25 14.5C5.25 13.9583 5.07349 13.4066 4.68604 12.9707C4.29858 12.5348 3.6875 12.25 3 12.25ZM9 12.25C8.3125 12.25 7.70142 12.5348 7.31396 12.9707C6.92651 13.4066 6.75 13.9583 6.75 14.5C6.75 15.0417 6.92651 15.5934 7.31396 16.0293C7.70142 16.4652 8.3125 16.75 9 16.75C9.6875 16.75 10.2986 16.4652 10.686 16.0293C11.0735 15.5934 11.25 15.0417 11.25 14.5C11.25 13.9583 11.0735 13.4066 10.686 12.9707C10.2986 12.5348 9.6875 12.25 9 12.25ZM15 12.25C14.3125 12.25 13.7014 12.5348 13.314 12.9707C12.9265 13.4066 12.75 13.9583 12.75 14.5C12.75 15.0417 12.9265 15.5934 13.314 16.0293C13.7014 16.4652 14.3125 16.75 15 16.75C15.6875 16.75 16.2986 16.4652 16.686 16.0293C17.0735 15.5934 17.25 15.0417 17.25 14.5C17.25 13.9583 17.0735 13.4066 16.686 12.9707C16.2986 12.5348 15.6875 12.25 15 12.25ZM3 13.75C3.3125 13.75 3.45142 13.8402 3.56396 13.9668C3.67651 14.0934 3.75 14.2917 3.75 14.5C3.75 14.7083 3.67651 14.9066 3.56396 15.0332C3.45142 15.1598 3.3125 15.25 3 15.25C2.6875 15.25 2.54858 15.1598 2.43604 15.0332C2.32349 14.9066 2.25 14.7083 2.25 14.5C2.25 14.2917 2.32349 14.0934 2.43604 13.9668C2.54858 13.8402 2.6875 13.75 3 13.75ZM9 13.75C9.3125 13.75 9.45142 13.8402 9.56396 13.9668C9.67651 14.0934 9.75 14.2917 9.75 14.5C9.75 14.7083 9.67651 14.9066 9.56396 15.0332C9.45142 15.1598 9.3125 15.25 9 15.25C8.6875 15.25 8.54858 15.1598 8.43604 15.0332C8.32349 14.9066 8.25 14.7083 8.25 14.5C8.25 14.2917 8.32349 14.0934 8.43604 13.9668C8.54858 13.8402 8.6875 13.75 9 13.75ZM15 13.75C15.3125 13.75 15.4514 13.8402 15.564 13.9668C15.6765 14.0934 15.75 14.2917 15.75 14.5C15.75 14.7083 15.6765 14.9066 15.564 15.0332C15.4514 15.1598 15.3125 15.25 15 15.25C14.6875 15.25 14.5486 15.1598 14.436 15.0332C14.3235 14.9066 14.25 14.7083 14.25 14.5C14.25 14.2917 14.3235 14.0934 14.436 13.9668C14.5486 13.8402 14.6875 13.75 15 13.75Z" fill="#697A80"/>
</svg>
