<svg width="21" height="21" viewBox="0 0 21 21" fill="none" xmlns="http://www.w3.org/2000/svg">
<path d="M12.75 0.75C8.61621 0.75 5.25 4.11621 5.25 8.25C5.25 10.0459 5.87988 11.6924 6.9375 12.9844L0.960938 18.9609L2.03906 20.0391L8.01562 14.0625C9.30762 15.1201 10.9541 15.75 12.75 15.75C16.8838 15.75 20.25 12.3838 20.25 8.25C20.25 4.11621 16.8838 0.75 12.75 0.75ZM12.75 2.25C16.0723 2.25 18.75 4.92773 18.75 8.25C18.75 11.5723 16.0723 14.25 12.75 14.25C9.42773 14.25 6.75 11.5723 6.75 8.25C6.75 4.92773 9.42773 2.25 12.75 2.25Z" fill="#697A80"/>
</svg>
