<svg width="24" height="24" viewBox="0 0 24 24" fill="none" xmlns="http://www.w3.org/2000/svg">
<path d="M12 0C8.19141 0 4.79688 1.78906 2.59375 4.5625L1 3L0 9L6 8L4 6C5.63281 3.82422 8.13672 2.34375 11 2.0625V3H13V2.0625C17.7383 2.52734 21.4727 6.26172 21.9375 11H21V13H21.9375C21.4727 17.7383 17.7383 21.4727 13 21.9375V21H11V21.9375C5.93359 21.4414 2 17.1992 2 12H0C0 18.6172 5.38281 24 12 24C18.6172 24 24 18.6172 24 12C24 5.38281 18.6172 0 12 0ZM8.5 8C7.13281 8 6 9.13281 6 10.5V11H8V10.5C8 10.2148 8.21484 10 8.5 10C8.78516 10 9 10.2148 9 10.5V11.3438C9 11.4844 8.94531 11.625 8.84375 11.7188L6.3125 14L6 14.3125V16H11V14H9.3125L10.1875 13.1875C10.7031 12.7148 11 12.043 11 11.3438V10.5C11 9.13281 9.86719 8 8.5 8ZM12 8V13H15V16H17V8H15V11H14V8H12Z" fill="white"/>
</svg>
