<svg width="20" height="19" viewBox="0 0 20 19" fill="none" xmlns="http://www.w3.org/2000/svg">
<path d="M0.554688 0.976562L0.507812 1.9375L0.25 8.52344L0.226562 9.10938L0.789062 9.27344L5.59375 10.7266L1.51562 13.5625L0.367188 14.3594L1.65625 14.875L3.78906 15.7188L4.07031 15.8359L4.35156 15.7188L11.8516 12.6016L16.6562 14.0547C17.9219 14.4355 19.2754 13.7002 19.6562 12.4375C20.0371 11.1719 19.3018 9.81836 18.0391 9.4375L13.7734 8.125L10.9375 3.4375L10.7734 3.17969L10.4922 3.08594L8.5 2.54688L7.39844 2.26562L7.5625 3.39062L7.96094 6.32031L4.77344 5.33594L3.55469 2.19531L3.41406 1.84375L3.0625 1.72656L1.46875 1.25781L0.554688 0.976562ZM1.96094 2.96875L2.28906 3.0625L3.48438 6.20312L3.60156 6.55469L3.95312 6.64844L17.5938 10.8672C18.083 11.0137 18.3496 11.5059 18.2031 11.9922C18.0566 12.4814 17.5645 12.748 17.0781 12.6016L12.0156 11.0781L11.7578 11.0078L11.5234 11.1016L4.07031 14.2188L3.50781 13.9844L7.72656 11.0781L9.01562 10.1875L7.51562 9.74219L1.77344 8.00781L1.96094 2.96875ZM9.17969 4.30469L9.78906 4.46875L11.6172 7.44531L9.50781 6.8125L9.17969 4.30469ZM13.375 13.75C12.7539 13.75 12.25 14.2539 12.25 14.875C12.25 15.4961 12.7539 16 13.375 16C13.9961 16 14.5 15.4961 14.5 14.875C14.5 14.2539 13.9961 13.75 13.375 13.75ZM0.25 17.5V19H19.75V17.5H0.25Z" fill="#697A80"/>
</svg>
