<svg width="20" height="18" viewBox="0 0 20 18" fill="none" xmlns="http://www.w3.org/2000/svg">
<path d="M6.41406 0.28125C5.79297 1.04883 5.50586 1.70508 5.5 2.34375C5.49414 2.98242 5.77832 3.47754 5.96875 3.79688C6.15918 4.11621 6.24414 4.27734 6.25 4.45312C6.25586 4.62891 6.19727 4.93652 5.73438 5.53125L6.90625 6.46875C7.49219 5.71289 7.77051 5.0332 7.75 4.40625C7.72949 3.7793 7.44238 3.33105 7.25781 3.02344C7.07324 2.71582 6.99707 2.55176 7 2.36719C7.00293 2.18262 7.08203 1.83984 7.58594 1.21875L6.41406 0.28125ZM10.1641 0.28125C9.54297 1.04883 9.25586 1.70508 9.25 2.34375C9.24414 2.98242 9.52832 3.47754 9.71875 3.79688C9.90918 4.11621 9.99414 4.27734 10 4.45312C10.0059 4.62891 9.94727 4.93652 9.48438 5.53125L10.6562 6.46875C11.2422 5.71289 11.5205 5.0332 11.5 4.40625C11.4795 3.7793 11.1924 3.33105 11.0078 3.02344C10.8232 2.71582 10.7471 2.55176 10.75 2.36719C10.7529 2.18262 10.832 1.83984 11.3359 1.21875L10.1641 0.28125ZM13.9141 0.28125C13.293 1.04883 13.0059 1.70508 13 2.34375C12.9941 2.98242 13.2783 3.47754 13.4688 3.79688C13.6592 4.11621 13.7441 4.27734 13.75 4.45312C13.7559 4.62891 13.6973 4.93652 13.2344 5.53125L14.4062 6.46875C14.9922 5.71289 15.2705 5.0332 15.25 4.40625C15.2295 3.7793 14.9424 3.33105 14.7578 3.02344C14.5732 2.71582 14.4971 2.55176 14.5 2.36719C14.5029 2.18262 14.582 1.83984 15.0859 1.21875L13.9141 0.28125ZM0.25 7.5V9H1.14062L2.28906 14.6953V14.7188C2.46191 15.4922 3.03613 16.1279 3.78906 16.3828L3.25 18H4.75L5.24219 16.5H14.7578L15.25 18H16.75L16.2109 16.3828C16.9961 16.1426 17.6055 15.5127 17.7812 14.7188V14.6953L18.8594 9H19.75V7.5H0.25ZM2.66406 9H17.3594L16.3047 14.4141C16.2168 14.7393 15.9414 15 15.5547 15H4.51562C4.11426 15 3.8418 14.7334 3.76562 14.3906L2.66406 9Z" fill="black"/>
</svg>
