<svg width="20" height="18" viewBox="0 0 20 18" fill="none" xmlns="http://www.w3.org/2000/svg">
<path d="M13 0V0.836426C11.5629 1.14236 10.4602 2.30044 10.1523 3.75H9.25V7.5H0.25V8.25V12.75C0.25 13.6416 0.739799 14.4244 1.4292 14.9414C1.52883 15.0161 1.64193 15.0755 1.75 15.1406V18H3.25V15.6885C3.49349 15.7273 3.74325 15.75 4 15.75C4.98037 15.75 5.8814 15.4584 6.5708 14.9414C6.74525 14.8106 6.85586 14.6203 7 14.458C7.14414 14.6203 7.25475 14.8106 7.4292 14.9414C8.1186 15.4584 9.01963 15.75 10 15.75C10.9804 15.75 11.8814 15.4584 12.5708 14.9414C12.7453 14.8106 12.8559 14.6203 13 14.458C13.1441 14.6203 13.2547 14.8106 13.4292 14.9414C14.1186 15.4584 15.0196 15.75 16 15.75C16.2568 15.75 16.5065 15.7273 16.75 15.6885V18H18.25V15.1406C18.3581 15.0755 18.4712 15.0161 18.5708 14.9414C19.2602 14.4244 19.75 13.6416 19.75 12.75V7.5H18.25V3.75H17.3477C17.0398 2.30044 15.9371 1.14236 14.5 0.836426V0H13ZM13.75 2.25C14.7069 2.25 15.3631 2.91565 15.6909 3.75H11.8091C12.1369 2.91565 12.7931 2.25 13.75 2.25ZM1.75 3V4.5H7.75V3H1.75ZM1.75 5.25V6.75H7.75V5.25H1.75ZM10.75 5.25H16.75V7.5H10.75V5.25ZM1.75 9H18.25V12.75C18.25 13.1012 18.0678 13.4444 17.6714 13.7417C17.275 14.039 16.6764 14.25 16 14.25C15.3236 14.25 14.725 14.039 14.3286 13.7417C13.9322 13.4444 13.75 13.1012 13.75 12.75H12.25C12.25 13.1012 12.0678 13.4444 11.6714 13.7417C11.275 14.039 10.6764 14.25 10 14.25C9.32362 14.25 8.72503 14.039 8.32861 13.7417C7.9322 13.4444 7.75 13.1012 7.75 12.75H6.25C6.25 13.1012 6.0678 13.4444 5.67139 13.7417C5.27497 14.039 4.67638 14.25 4 14.25C3.32362 14.25 2.72503 14.039 2.32861 13.7417C1.9322 13.4444 1.75 13.1012 1.75 12.75V9Z" fill="black"/>
</svg>
