<svg width="20" height="18" viewBox="0 0 20 18" fill="none" xmlns="http://www.w3.org/2000/svg">
<path d="M4.75 0C3.10059 0 1.75 1.35059 1.75 3V6.75H0.25V9H1.75V17.25C1.75 17.6631 2.08691 18 2.5 18H4.75L5.00781 17.25H14.9922L15.25 18H17.5C17.9131 18 18.25 17.6631 18.25 17.25V9H19.75V6.75H18.25V3C18.25 1.35059 16.8994 0 15.25 0H4.75ZM4.75 1.5H15.25C16.0879 1.5 16.75 2.16211 16.75 3H3.25C3.25 2.16211 3.91211 1.5 4.75 1.5ZM3.25 4.5H9.25V9.75H3.25V4.5ZM10.75 4.5H16.75V9.75H10.75V4.5ZM3.25 11.25H16.75V15.75H3.25V11.25ZM4 12.75V14.25H7V12.75H4ZM13 12.75V14.25H16V12.75H13Z" fill="black"/>
</svg>
