<svg width="24" height="25" viewBox="0 0 24 25" fill="none" xmlns="http://www.w3.org/2000/svg">
<path d="M19.5 15.5H15V14H19.5V15.5ZM22.5 21.5H18V20H22.5V21.5ZM21 18.5H16.5V17H21V18.5Z" fill="#5A623A"/>
<path d="M12.7525 15.5C12.7473 14.8672 12.5785 14.2464 12.2626 13.6981C11.9466 13.1497 11.4943 12.6923 10.9495 12.3702L16.5003 2.75L15.2028 2L9.52004 11.8445C8.82261 11.6887 8.09725 11.7102 7.41031 11.9072C6.72336 12.1041 6.09675 12.4701 5.58779 12.9718C2.77979 15.68 2.99729 22.0115 3.00779 22.28C3.01554 22.4737 3.09797 22.6568 3.23779 22.791C3.37761 22.9253 3.56397 23.0002 3.75779 23H15.001C15.1584 23 15.3119 22.9505 15.4396 22.8584C15.5673 22.7664 15.6628 22.6365 15.7126 22.4872C15.7623 22.3378 15.7639 22.1766 15.7169 22.0264C15.67 21.8761 15.577 21.7444 15.451 21.65C12.796 19.658 12.7525 15.5405 12.7525 15.5ZM8.94779 13.2477C9.54807 13.2543 10.1227 13.4921 10.5521 13.9116C10.9815 14.3311 11.2327 14.9 11.2533 15.5C11.2533 15.5285 11.2548 15.656 11.266 15.8517L6.84104 13.8837C7.13252 13.6434 7.46887 13.4634 7.83055 13.3542C8.19223 13.245 8.572 13.2088 8.94779 13.2477ZM11.5878 21.5C10.9883 20.8896 10.6062 20.099 10.5003 19.25H9.00029C9.054 20.0482 9.30334 20.8209 9.72629 21.5H8.05904C7.7506 20.5267 7.56294 19.5191 7.50029 18.5H6.00029C6.04865 19.5161 6.21605 20.5229 6.49904 21.5H4.50029C4.52354 20.123 4.71779 17.081 5.85254 15.0853L11.5023 17.5978C11.7737 19.0072 12.3525 20.3396 13.1973 21.5H11.5878Z" fill="#5A623A"/>
</svg>
