<svg width="24" height="25" viewBox="0 0 24 25" fill="none" xmlns="http://www.w3.org/2000/svg">
<path d="M10.5 12.9425L8.5575 11L7.5 12.0575L10.5 15.0575L16.5 9.0575L15.4425 8L10.5 12.9425Z" fill="#5A623A"/>
<path d="M12 23L7.368 20.5303C6.0475 19.8277 4.94323 18.7789 4.1737 17.4963C3.40416 16.2137 2.99842 14.7457 3 13.25V3.5C3.0004 3.1023 3.15856 2.721 3.43978 2.43978C3.721 2.15856 4.1023 2.0004 4.5 2H19.5C19.8977 2.0004 20.279 2.15856 20.5602 2.43978C20.8414 2.721 20.9996 3.1023 21 3.5V13.25C21.0016 14.7457 20.5958 16.2137 19.8263 17.4963C19.0568 18.7789 17.9525 19.8277 16.632 20.5303L12 23ZM4.5 3.5V13.25C4.49876 14.4739 4.83083 15.6749 5.46058 16.7243C6.09032 17.7737 6.99396 18.6318 8.0745 19.2065L12 21.2997L15.9255 19.2073C17.0062 18.6325 17.9099 17.7743 18.5396 16.7248C19.1694 15.6752 19.5014 14.474 19.5 13.25V3.5H4.5Z" fill="#5A623A"/>
</svg>
