<svg width="20" height="18" viewBox="0 0 20 18" fill="none" xmlns="http://www.w3.org/2000/svg">
<path d="M10.75 0.25C10.1621 0.25 9.62782 0.485703 9.22511 0.86084C8.9203 0.581178 8.55186 0.389763 8.15724 0.308594C7.59148 0.192224 6.98211 0.289954 6.46681 0.629395L1.26515 3.99707L1.26222 3.99854C0.232534 4.67755 -0.0575103 6.08422 0.620618 7.11426L6.78761 16.4775C7.46588 17.5089 8.87419 17.798 9.9048 17.1191L11.5908 16.0088L11.585 16H17.5C18.7337 16 19.75 14.9837 19.75 13.75V2.5C19.75 1.26627 18.7337 0.25 17.5 0.25H10.75ZM10.75 1.75H17.5C17.9238 1.75 18.25 2.07623 18.25 2.5V13.75C18.25 14.1738 17.9238 14.5 17.5 14.5H10.75C10.3262 14.5 10 14.1738 10 13.75V2.5C10 2.07623 10.3262 1.75 10.75 1.75ZM7.5713 1.76758C7.85915 1.71218 8.15738 1.83086 8.33155 2.0957L8.34034 2.10889L8.51466 2.35059C8.51124 2.40084 8.50001 2.44894 8.50001 2.5V13.75C8.50001 14.5144 8.89119 15.1941 9.48146 15.6016L9.08009 15.8667C8.72619 16.0998 8.27228 16.0074 8.04005 15.6543L1.87452 6.28955C1.64215 5.93659 1.73508 5.48396 2.08839 5.25098L7.29005 1.8833L7.29152 1.88184C7.37999 1.82356 7.47535 1.78604 7.5713 1.76758Z" fill="#697A80"/>
</svg>
