<svg width="20" height="19" viewBox="0 0 20 19" fill="none" xmlns="http://www.w3.org/2000/svg">
<path d="M5.5 0.912109L0.25 3.53711V19H10.75H19.75V5.5H10.75V3.53711L5.5 0.912109ZM5.5 2.58789L9.25 4.46289V17.5H1.75V4.46289L5.5 2.58789ZM3.25 5.5V7H4.75V5.5H3.25ZM6.25 5.5V7H7.75V5.5H6.25ZM10.75 7H18.25V17.5H10.75V7ZM3.25 8.5V10H4.75V8.5H3.25ZM6.25 8.5V10H7.75V8.5H6.25ZM12.25 8.5V10H13.75V8.5H12.25ZM15.25 8.5V10H16.75V8.5H15.25ZM3.25 11.5V13H4.75V11.5H3.25ZM6.25 11.5V13H7.75V11.5H6.25ZM12.25 11.5V13H13.75V11.5H12.25ZM15.25 11.5V13H16.75V11.5H15.25ZM3.25 14.5V16H4.75V14.5H3.25ZM6.25 14.5V16H7.75V14.5H6.25ZM12.25 14.5V16H13.75V14.5H12.25ZM15.25 14.5V16H16.75V14.5H15.25Z" fill="#B3B3B3"/>
</svg>
