<svg width="26" height="22" viewBox="0 0 26 22" fill="none" xmlns="http://www.w3.org/2000/svg">
<path d="M10 0C6.14567 0 3 3.14567 3 7C3 9.44813 4.34416 11.5059 6.25781 12.7578C2.59937 14.2461 0 17.8153 0 22H2C2 17.5693 5.56933 14 10 14C14.4307 14 18 17.5693 18 22H20C20 17.8153 17.4006 14.2461 13.7422 12.7578C15.1022 11.8681 16.111 10.5851 16.5957 9H18V11.8691L22.3027 9H26V0H25H15V2.13477C13.7267 0.826048 11.962 0 10 0ZM10 2C12.7737 2 15 4.22633 15 7C15 9.77367 12.7737 12 10 12C7.22633 12 5 9.77367 5 7C5 4.22633 7.22633 2 10 2ZM17 2H24V7H21.6973L20 8.13086V7H17V2Z" fill="#5A623A"/>
</svg>
