<svg width="26" height="19" viewBox="0 0 26 19" fill="none" xmlns="http://www.w3.org/2000/svg">
<path d="M10 0C9.11328 0 8.30078 0.382813 7.75 1C6.48438 1.09766 5.55469 1.88672 4.65625 2.65625L4.3125 2.96875C3.58984 3.57422 1.41797 5.37891 0 6.5625V9.15625C0.234375 8.96094 4.51562 5.40234 5.59375 4.5L5.96875 4.1875C6.37891 3.83594 6.69531 3.57422 7 3.375V10.0938C6.625 10.3008 5.90625 10.6875 5.90625 10.6875L6.84375 12.4375C6.84375 12.4375 10.6719 10.3359 11.125 10.0938C12.1953 9.51562 12.8516 9 13.8438 9C14.4961 9 15 9.51953 15 10.2812C15 10.7305 14.9023 10.8984 14.7188 11.125C14.5352 11.3516 14.2109 11.6172 13.75 11.9062C12.6641 12.5859 11.4688 13.75 11.4688 13.75L11.4062 13.8438L11.3438 13.9062C10.1836 15.5977 8.69141 17 6.03125 17H0V19H6.03125C9.34375 19 11.5078 17.1172 12.875 15.1875C12.875 15.1875 13.5977 14.5156 14.25 14H23C24.6484 14 26 12.6484 26 11V3C26 1.35156 24.6484 0 23 0H10ZM10 2H23C23.5625 2 24 2.4375 24 3V4H10V6H24V11C24 11.5625 23.5625 12 23 12H16.5625C16.8398 11.5156 17 10.9297 17 10.2812C17 8.50781 15.6094 7 13.8438 7C12.1484 7 11.0078 7.88281 10.1562 8.34375C10.0195 8.41797 9.47266 8.70703 9 8.96875V3C9 2.4375 9.4375 2 10 2Z" fill="#5A623A"/>
</svg>
