<svg width="24" height="21" viewBox="0 0 24 21" fill="none" xmlns="http://www.w3.org/2000/svg">
<path d="M20.3305 0.19186C19.999 0.221994 19.6776 0.319093 19.3662 0.486503L15.3215 2.62936L9.85725 1.29007L9.53582 1.20972L9.21439 1.37043L7.36618 2.44186L6.26796 3.08472L7.28582 3.8615L9.61618 5.62936L6.69653 7.18293L3.5626 5.76329L3.1876 5.60257L2.8126 5.79007L1.3126 6.59365L0.321533 7.12936L1.07153 7.93293L5.70546 12.9151L6.13403 13.424L6.72332 13.1026L11.143 10.7454L10.259 15.6204L9.96439 17.174L11.4376 16.5579L13.634 15.6204L13.9555 15.4865L14.0894 15.1651L17.2769 7.424L21.7769 5.01329C23.0157 4.34699 23.5146 2.76999 22.8483 1.53115C22.5168 0.911726 21.951 0.489851 21.3215 0.299003C21.0068 0.205253 20.6619 0.161726 20.3305 0.19186ZM20.4912 1.90615C20.5983 1.89945 20.7088 1.9028 20.8126 1.93293C21.0202 1.99655 21.2077 2.12378 21.3215 2.33472C21.5492 2.75994 21.3985 3.25882 20.9733 3.4865L16.1787 6.08472L15.9108 6.21865L15.8037 6.51329L12.6162 14.174L12.2412 14.3347L13.1519 9.27222L13.4733 7.53115L11.9197 8.3615L6.50903 11.2811L3.10725 7.58472L3.24118 7.50436L6.3751 8.89722L6.77689 9.08472L7.1251 8.87043L20.1697 1.9865C20.2769 1.92958 20.384 1.91284 20.4912 1.90615ZM9.7501 3.03115L13.0447 3.83472L11.2769 4.74543L9.34832 3.27222L9.7501 3.03115ZM0.857247 18.3794V20.0936H23.143V18.3794H0.857247Z" fill="#697A80"/>
</svg>
