<svg width="18" height="18" viewBox="0 0 18 18" fill="none" xmlns="http://www.w3.org/2000/svg">
<path d="M0.75 0.75V17.25H17.25V0.75H0.75ZM2.25 2.25H15.75V15.75H2.25V2.25ZM8.25 3.375C7.62891 3.375 7.125 3.87891 7.125 4.5C7.125 5.12109 7.62891 5.625 8.25 5.625C8.87109 5.625 9.375 5.12109 9.375 4.5C9.375 3.87891 8.87109 3.375 8.25 3.375ZM7.5 6V9C7.5 9.82031 8.17969 10.5 9 10.5H10.7109L11.2969 12.2344L11.4609 12.75H13.5V11.25H12.5391L12.1406 10.0312C11.9385 9.41895 11.3525 9 10.7109 9H9V8.25H11.25V6.75H9V6H7.5ZM6.75 6.16406C5.02148 6.65625 3.75 8.24121 3.75 10.125C3.75 12.3984 5.60156 14.25 7.875 14.25C8.89453 14.25 9.82617 13.8838 10.5469 13.2656L10.0078 11.625C9.5332 12.2988 8.7627 12.75 7.875 12.75C6.42773 12.75 5.25 11.5723 5.25 10.125C5.25 9.08203 5.86523 8.17969 6.75 7.75781V6.16406Z" fill="black"/>
</svg>
