<svg width="20" height="20" viewBox="0 0 20 20" fill="none" xmlns="http://www.w3.org/2000/svg">
<path d="M13.9844 0.625C13.4102 0.625 12.8242 0.847656 12.3906 1.28125C12.1035 1.56836 11.9248 1.91992 11.8281 2.28906C11.6729 2.25684 11.5205 2.21875 11.3594 2.21875C10.7852 2.21875 10.1992 2.41797 9.76562 2.85156C8.89844 3.71875 8.89844 5.14844 9.76562 6.01562L10.3984 6.64844L6.64844 10.3984L6.01562 9.76562C5.58203 9.33203 5.01953 9.10938 4.44531 9.10938C3.87109 9.10938 3.28516 9.33203 2.85156 9.76562C2.29199 10.3281 2.10156 11.125 2.26562 11.8516C1.90527 11.9453 1.56543 12.1064 1.28125 12.3906C0.414062 13.2578 0.414062 14.6875 1.28125 15.5547L1.30469 15.5781L2.3125 16.6094L1.79688 17.125L2.875 18.2031L3.39062 17.6875L4.44531 18.7188C5.3125 19.5859 6.74219 19.5859 7.60938 18.7188C7.89062 18.4375 8.07227 18.0947 8.17188 17.7344C8.89258 17.8896 9.67773 17.7051 10.2344 17.1484C11.1016 16.2812 11.1016 14.8516 10.2344 13.9844L9.60156 13.3516L13.3516 9.60156L13.9844 10.2344C14.8516 11.1016 16.2812 11.1016 17.1484 10.2344C17.7021 9.67773 17.8896 8.89258 17.7344 8.17188C18.0977 8.07227 18.4346 7.89355 18.7188 7.60938C19.5859 6.74219 19.5859 5.3125 18.7188 4.44531L17.6875 3.39062L18.2031 2.875L17.125 1.79688L16.6094 2.3125L15.5547 1.28125C15.1211 0.847656 14.5586 0.625 13.9844 0.625ZM13.9844 2.125C14.1719 2.125 14.3535 2.18945 14.5 2.33594L17.6641 5.5C17.96 5.7959 17.957 6.23828 17.6641 6.53125C17.3711 6.82422 16.9053 6.82422 16.6094 6.53125L13.4688 3.39062C13.1758 3.09766 13.1758 2.63184 13.4688 2.33594C13.6152 2.18945 13.7969 2.125 13.9844 2.125ZM11.3594 3.69531C11.5469 3.69531 11.7285 3.7832 11.875 3.92969L16.0703 8.125C16.3633 8.4209 16.3633 8.88379 16.0703 9.17969C15.7773 9.47266 15.335 9.44922 15.0391 9.15625H15.0156L10.8203 4.96094C10.5273 4.66797 10.5508 4.22559 10.8438 3.92969C10.9873 3.79199 11.1777 3.69531 11.3594 3.69531ZM11.4531 7.70312L12.2969 8.54688L8.54688 12.2969L7.70312 11.4531L11.4531 7.70312ZM4.44531 10.6094C4.63281 10.6094 4.81445 10.6973 4.96094 10.8438H4.98438L9.17969 15.0391C9.47266 15.332 9.44922 15.7744 9.15625 16.0703C8.86328 16.3486 8.41504 16.3604 8.125 16.0703L7.60938 15.5547L7.51562 15.4844L4.44531 12.3906L3.92969 11.875C3.63672 11.5791 3.63672 11.1162 3.92969 10.8203C4.07617 10.6738 4.25781 10.6094 4.44531 10.6094ZM2.85156 13.2344C3.03906 13.2344 3.24414 13.3223 3.39062 13.4688L6.53125 16.6094C6.82422 16.9023 6.82422 17.3682 6.53125 17.6641C6.23828 17.957 5.7959 17.957 5.5 17.6641L2.33594 14.5C2.04004 14.2041 2.04297 13.7617 2.33594 13.4688C2.48242 13.3223 2.66406 13.2344 2.85156 13.2344Z" fill="black"/>
</svg>
