<svg width="28" height="19" viewBox="0 0 28 19" fill="none" xmlns="http://www.w3.org/2000/svg">
<path d="M14 0.144989L15.224 3.19199L18.5 3.41499L15.98 5.51999L16.781 8.70499L14 6.95899L11.219 8.70499L12.02 5.51999L9.5 3.41499L12.777 3.19199L14 0.144989ZM23 0.144989L24.224 3.19199L27.5 3.41499L24.98 5.51999L25.781 8.70499L23 6.95899L20.219 8.70499L21.02 5.51999L18.5 3.41499L21.777 3.19199L23 0.144989ZM5 0.144989L6.224 3.19199L9.5 3.41499L6.98 5.51999L7.781 8.70499L5 6.95899L2.219 8.70499L3.02 5.51999L0.5 3.41499L3.777 3.19199L5 0.144989ZM9.5 10.145L10.724 13.192L14 13.415L11.48 15.52L12.281 18.704L9.5 16.959L6.719 18.705L7.52 15.52L5 13.415L8.277 13.192L9.5 10.145ZM18.5 10.145L19.724 13.192L23 13.415L20.48 15.52L21.281 18.704L18.5 16.959L15.719 18.705L16.52 15.521L14 13.415L17.277 13.192L18.5 10.145Z" fill="#5A623A"/>
</svg>
