<svg width="19" height="15" viewBox="0 0 19 15" fill="none" xmlns="http://www.w3.org/2000/svg">
<path d="M16.1211 0C16.867 0 17.5824 0.303914 18.1098 0.844884C18.6373 1.38585 18.9336 2.11957 18.9336 2.88462V12.1154C18.9336 12.8804 18.6373 13.6141 18.1098 14.1551C17.5824 14.6961 16.867 15 16.1211 15H3.74609C3.00017 15 2.2848 14.6961 1.75736 14.1551C1.22991 13.6141 0.933594 12.8804 0.933594 12.1154V2.88462C0.933594 2.11957 1.22991 1.38585 1.75736 0.844884C2.2848 0.303914 3.00017 0 3.74609 0H16.1211ZM17.8086 4.57038L10.2193 9.15115C10.1476 9.19436 10.0674 9.2207 9.98452 9.22829C9.90165 9.23587 9.81817 9.2245 9.74009 9.195L9.64784 9.15115L2.05859 4.57269V12.1154C2.05859 12.5744 2.23638 13.0146 2.55285 13.3392C2.86932 13.6638 3.29854 13.8462 3.74609 13.8462H16.1211C16.5686 13.8462 16.9979 13.6638 17.3143 13.3392C17.6308 13.0146 17.8086 12.5744 17.8086 12.1154V4.57038ZM16.1211 1.15385H3.74609C3.29854 1.15385 2.86932 1.33619 2.55285 1.66078C2.23638 1.98536 2.05859 2.42559 2.05859 2.88462V3.23308L9.93359 7.98462L17.8086 3.23077V2.88462C17.8086 2.42559 17.6308 1.98536 17.3143 1.66078C16.9979 1.33619 16.5686 1.15385 16.1211 1.15385Z" fill="#EDE059"/>
</svg>
