<svg width="19" height="24" viewBox="0 0 19 24" fill="none" xmlns="http://www.w3.org/2000/svg">
<path d="M9.70034 13.4286C8.87036 13.4286 8.05903 13.1824 7.36893 12.7213C6.67883 12.2602 6.14096 11.6048 5.82334 10.838C5.50572 10.0712 5.42262 9.22748 5.58454 8.41345C5.74646 7.59943 6.14613 6.85169 6.73301 6.26481C7.3199 5.67793 8.06763 5.27826 8.88165 5.11634C9.69568 4.95442 10.5394 5.03752 11.3062 5.35514C12.073 5.67276 12.7284 6.21063 13.1895 6.90073C13.6507 7.59082 13.8968 8.40216 13.8968 9.23214C13.8954 10.3447 13.4529 11.4113 12.6662 12.198C11.8795 12.9847 10.8129 13.4272 9.70034 13.4286ZM9.70034 6.71428C9.20235 6.71428 8.71555 6.86195 8.30149 7.13861C7.88743 7.41528 7.56471 7.80852 7.37414 8.26859C7.18357 8.72867 7.13371 9.23493 7.23086 9.72335C7.32801 10.2118 7.56781 10.6604 7.91994 11.0125C8.27207 11.3647 8.72071 11.6045 9.20913 11.7016C9.69754 11.7988 10.2038 11.7489 10.6639 11.5583C11.124 11.3678 11.5172 11.045 11.7939 10.631C12.0705 10.2169 12.2182 9.73012 12.2182 9.23214C12.2175 8.56456 11.952 7.92452 11.48 7.45248C11.0079 6.98043 10.3679 6.71495 9.70034 6.71428Z" fill="#EDE059"/>
<path d="M9.7009 23.5L2.62069 15.1499C2.52231 15.0246 2.42495 14.8984 2.32862 14.7714C1.11919 13.1783 0.465828 11.2323 0.46876 9.23214C0.46876 6.78363 1.44143 4.43539 3.17279 2.70403C4.90415 0.97267 7.25239 0 9.7009 0C12.1494 0 14.4977 0.97267 16.229 2.70403C17.9604 4.43539 18.933 6.78363 18.933 9.23214C18.936 11.2314 18.2829 13.1765 17.074 14.7689L17.0732 14.7714C17.0732 14.7714 16.8214 15.1021 16.7836 15.1466L9.7009 23.5ZM3.66812 13.7601C3.6698 13.7601 3.86451 14.0186 3.90899 14.074L9.7009 20.9049L15.5004 14.0647C15.5373 14.0186 15.7337 13.7584 15.7345 13.7576C16.7225 12.4559 17.2564 10.8663 17.2545 9.23214C17.2545 7.22881 16.4587 5.30753 15.0421 3.89096C13.6255 2.47439 11.7042 1.67857 9.7009 1.67857C7.69757 1.67857 5.77629 2.47439 4.35972 3.89096C2.94315 5.30753 2.14733 7.22881 2.14733 9.23214C2.14557 10.8673 2.68009 12.4579 3.66896 13.7601H3.66812Z" fill="#EDE059"/>
</svg>
