<svg width="16" height="21" viewBox="0 0 16 21" fill="none" xmlns="http://www.w3.org/2000/svg">
<path d="M7.81103 0.00292798C3.91181 0.109199 0.757812 3.32185 0.757812 7.25097C0.757812 9.41694 1.50973 10.9983 2.41748 12.3193C3.32523 13.6404 4.35839 14.7372 5.09814 16.106C5.90074 17.5917 6.25706 18.915 6.40771 19.6655C6.56102 20.4329 7.24609 21 8.03223 21C8.79047 21 9.46226 20.4737 9.64062 19.7344V19.7329C9.85959 18.8207 10.3354 17.1467 10.9121 16.1162C11.6021 14.8838 12.4743 13.8906 13.2852 12.7852C14.096 11.6797 14.8406 10.4412 15.1279 8.79785C15.8691 4.55951 12.927 0.368677 8.60059 0.0234358C8.33473 0.00219662 8.07098 -0.00415674 7.81103 0.00292798ZM7.84912 1.50146C8.05689 1.49609 8.26754 1.50203 8.48047 1.51904C8.68315 1.53521 8.8819 1.56399 9.07666 1.60107L6.17334 4.98779L3.96143 3.16406C4.96374 2.17043 6.32761 1.54082 7.84912 1.50146ZM10.5913 2.13721C11.5008 2.61526 12.2582 3.33418 12.8018 4.2041L10.8374 6.49658C10.7144 6.12116 10.5302 5.76368 10.2559 5.45508C9.83846 4.98551 9.20077 4.70595 8.4834 4.59668L10.5913 2.13721ZM3.03857 4.34912L5.19629 6.12744L2.5332 9.23437C2.36039 8.65113 2.25781 8.00737 2.25781 7.25097C2.25781 6.19102 2.54263 5.20062 3.03857 4.34912ZM13.4814 5.71728C13.745 6.60677 13.8197 7.56926 13.6499 8.54004C13.4152 9.8824 12.8315 10.8678 12.0752 11.8989C11.3189 12.9301 10.3856 13.9852 9.60254 15.3838C8.87129 16.6903 8.41564 18.4141 8.1831 19.3828C8.16497 19.458 8.11248 19.5 8.03223 19.5C7.95031 19.5 7.89512 19.4551 7.87842 19.3711C7.70507 18.5076 7.30888 17.0433 6.41797 15.394C6.2569 15.096 6.08136 14.8255 5.90674 14.5547L10.1123 9.64892C10.1536 9.60823 10.2177 9.5879 10.2559 9.54492C10.3104 9.48357 10.3291 9.40467 10.3774 9.33984L13.4814 5.71728ZM8.00732 6C8.56982 6 8.89624 6.18393 9.13379 6.45117C9.37133 6.71841 9.50732 7.10416 9.50732 7.5C9.50732 7.85383 9.36598 8.17726 9.17334 8.4375L9.04883 8.58252C8.81596 8.81753 8.52746 9 8.00732 9C7.44482 9 7.1184 8.81607 6.88086 8.54883C6.64331 8.28159 6.50732 7.89583 6.50732 7.5C6.50732 7.11404 6.64544 6.7438 6.87207 6.47754L6.90137 6.44238C7.13782 6.18308 7.45516 6 8.00732 6ZM5.17139 8.46094C5.29336 8.85165 5.47439 9.22497 5.75879 9.54492C6.16888 10.0063 6.79364 10.2808 7.49463 10.396L5.02051 13.2832C4.53962 12.6501 4.06244 12.0644 3.65381 11.4697C3.49153 11.2336 3.34769 10.9946 3.20703 10.7534L5.17139 8.46094Z" fill="#697A80"/>
</svg>
