<svg width="28" height="26" viewBox="0 0 28 26" fill="none" xmlns="http://www.w3.org/2000/svg">
<path d="M7.5 0C3.36218 0 0 3.40352 0 7.5C0 8.92833 0.651794 10.1534 1.25195 11.0488C1.85211 11.9442 2.46484 12.5449 2.46484 12.5449L5.27148 15.3535L6.68555 13.9395L3.87109 11.123L3.86914 11.1211C3.86914 11.1211 3.3974 10.6567 2.91406 9.93555C2.43072 9.21449 2 8.27167 2 7.5C2 4.49648 4.45782 2 7.5 2C10.4865 2 13.2559 4.91797 13.2559 4.91797L14 5.75L14.7441 4.91797C14.7441 4.91797 17.5135 2 20.5 2C23.5422 2 26 4.49648 26 7.5V8H28V7.5C28 3.40352 24.6378 0 20.5 0C17.068 0 14.8555 2.06007 14 2.93164C13.1445 2.06007 10.932 0 7.5 0ZM20.4102 6.98633L19.7031 7.69336L16.3652 11.0312H16.0332H12.4688C12.3356 11.0313 12.2037 11.0579 12.081 11.1095C11.9582 11.1612 11.847 11.2368 11.7539 11.332L8.27148 14.8809C6.94316 16.2098 6.84054 17.8146 7.20898 18.8652C7.57743 19.9159 8.29883 20.5645 8.29883 20.5645C8.32635 20.592 10.4428 22.7095 12.5156 24.7812C13.7984 26.0634 15.388 26.1479 16.4355 25.8066C17.4831 25.4654 18.1602 24.793 18.1602 24.793C18.1641 24.7884 18.168 24.7839 18.1719 24.7793L25.9805 16.9707L26.6875 16.2637L25.2734 14.8496L24.5664 15.5566L16.7695 23.3535C16.7695 23.3535 16.3689 23.7243 15.8164 23.9043C15.2639 24.0843 14.7329 24.1681 13.9297 23.3652C11.8439 21.2805 9.68555 19.123 9.68555 19.123C9.67661 19.1138 9.66749 19.1046 9.6582 19.0957C9.6582 19.0957 9.27801 18.723 9.0957 18.2031C8.91339 17.6833 8.81087 17.17 9.68555 16.2949C9.68817 16.2923 9.69077 16.2897 9.69336 16.2871L12.8887 13.0312H14.3652L13.2227 14.1738L12.5156 14.8809L13.9297 16.2949L14.6367 15.5879L21.1172 9.10742L21.8242 8.40039L20.4102 6.98633ZM23.5312 8.10742L22.8242 8.81445L16.7578 14.8809L16.0508 15.5879L17.4648 17.002L18.1719 16.2949L24.2383 10.2285L24.9453 9.52148L23.5312 8.10742ZM24.6523 11.2285L23.9453 11.9355L18.8789 17.002L18.1719 17.709L19.5859 19.123L20.293 18.416L25.3594 13.3496L26.0664 12.6426L24.6523 11.2285Z" fill="#5A623A"/>
</svg>
