<svg width="306" height="228" viewBox="0 0 306 228" fill="none" xmlns="http://www.w3.org/2000/svg">
<g clip-path="url(#clip0_1229_3530)">
<path d="M279.579 154.387H264.254C263.804 154.384 263.374 154.205 263.058 153.887C262.741 153.57 262.563 153.141 262.563 152.693C262.563 152.244 262.742 151.814 263.061 151.496C263.38 151.178 263.813 151 264.264 151H279.589C280.04 151 280.472 151.178 280.791 151.496C281.11 151.814 281.289 152.244 281.289 152.693C281.289 152.917 281.245 153.138 281.159 153.344C281.073 153.55 280.947 153.737 280.788 153.894C280.629 154.052 280.44 154.176 280.233 154.261C280.025 154.345 279.803 154.388 279.579 154.387Z" fill="#263238"/>
<path d="M282.036 153.466H255.429C252.983 153.466 251 155.441 251 157.877V205.326C251 207.762 252.983 209.736 255.429 209.736H282.036C284.482 209.736 286.466 207.762 286.466 205.326V157.877C286.466 155.441 284.482 153.466 282.036 153.466Z" fill="#EDE059"/>
<g opacity="0.3">
<path opacity="0.3" d="M282.036 153.466H255.429C252.983 153.466 251 155.441 251 157.877V205.326C251 207.762 252.983 209.736 255.429 209.736H282.036C284.482 209.736 286.466 207.762 286.466 205.326V157.877C286.466 155.441 284.482 153.466 282.036 153.466Z" fill="black"/>
</g>
<path d="M290.455 153.466H263.848C261.402 153.466 259.419 155.441 259.419 157.877V205.326C259.419 207.762 261.402 209.736 263.848 209.736H290.455C292.901 209.736 294.885 207.762 294.885 205.326V157.877C294.885 155.441 292.901 153.466 290.455 153.466Z" fill="#EDE059"/>
<path d="M294.583 200.334C294.583 200.403 286.673 200.462 276.934 200.462C267.195 200.462 259.281 200.403 259.281 200.334C259.281 200.265 267.19 200.206 276.934 200.206C286.678 200.206 294.583 200.26 294.583 200.334Z" fill="#263238"/>
<path d="M294.583 192.576C294.583 192.645 286.673 192.704 276.934 192.704C267.195 192.704 259.281 192.645 259.281 192.576C259.281 192.507 267.19 192.448 276.934 192.448C286.678 192.448 294.583 192.507 294.583 192.576Z" fill="#263238"/>
<path d="M294.583 184.838C294.583 184.912 286.673 184.966 276.934 184.966C267.195 184.966 259.281 184.912 259.281 184.838C259.281 184.764 267.19 184.71 276.934 184.71C286.678 184.71 294.583 184.749 294.583 184.838Z" fill="#263238"/>
<path d="M294.583 177.065C294.583 177.134 286.673 177.193 276.934 177.193C267.195 177.193 259.281 177.134 259.281 177.065C259.281 176.996 267.19 176.937 276.934 176.937C286.678 176.937 294.583 176.996 294.583 177.065Z" fill="#263238"/>
<path d="M294.583 169.307C294.583 169.381 286.673 169.435 276.934 169.435C267.195 169.435 259.281 169.381 259.281 169.307C259.281 169.233 267.19 169.179 276.934 169.179C286.678 169.179 294.583 169.238 294.583 169.307Z" fill="#263238"/>
<path d="M294.583 161.554C294.583 161.623 286.673 161.682 276.934 161.682C267.195 161.682 259.281 161.623 259.281 161.554C259.281 161.485 267.19 161.426 276.934 161.426C286.678 161.426 294.583 161.48 294.583 161.554Z" fill="#263238"/>
<path d="M289.002 212.783C289.002 213.386 288.822 213.976 288.486 214.477C288.149 214.978 287.671 215.369 287.111 215.599C286.552 215.829 285.936 215.89 285.343 215.772C284.749 215.654 284.204 215.363 283.776 214.936C283.348 214.51 283.057 213.966 282.94 213.375C282.822 212.783 282.883 212.171 283.116 211.614C283.348 211.057 283.741 210.582 284.245 210.247C284.749 209.913 285.341 209.735 285.946 209.736C286.757 209.738 287.534 210.059 288.107 210.631C288.68 211.202 289.002 211.976 289.002 212.783Z" fill="#263238"/>
<path d="M291.132 212.783C291.132 213.386 290.953 213.975 290.617 214.476C290.28 214.977 289.803 215.368 289.243 215.599C288.684 215.829 288.069 215.889 287.475 215.772C286.882 215.654 286.336 215.364 285.909 214.938C285.481 214.512 285.189 213.969 285.071 213.378C284.953 212.787 285.014 212.174 285.245 211.617C285.477 211.061 285.869 210.585 286.372 210.25C286.875 209.915 287.467 209.736 288.072 209.736C288.884 209.736 289.662 210.057 290.236 210.629C290.81 211.2 291.132 211.975 291.132 212.783Z" fill="#455A64"/>
<path d="M264.664 212.783C264.664 213.386 264.485 213.976 264.148 214.477C263.812 214.978 263.333 215.369 262.774 215.599C262.215 215.829 261.599 215.89 261.005 215.772C260.411 215.654 259.866 215.363 259.438 214.936C259.011 214.51 258.72 213.966 258.602 213.375C258.485 212.783 258.546 212.171 258.778 211.614C259.011 211.057 259.404 210.582 259.908 210.247C260.411 209.913 261.004 209.735 261.609 209.736C262.42 209.738 263.197 210.059 263.77 210.631C264.342 211.202 264.664 211.976 264.664 212.783Z" fill="#263238"/>
<path d="M266.795 212.783C266.795 213.386 266.615 213.975 266.279 214.476C265.943 214.977 265.465 215.368 264.906 215.599C264.347 215.829 263.731 215.889 263.138 215.772C262.544 215.654 261.999 215.364 261.571 214.938C261.143 214.512 260.852 213.969 260.734 213.378C260.616 212.787 260.676 212.174 260.908 211.617C261.139 211.061 261.532 210.585 262.035 210.25C262.538 209.915 263.13 209.736 263.735 209.736C264.546 209.736 265.325 210.057 265.899 210.629C266.473 211.2 266.795 211.975 266.795 212.783Z" fill="#455A64"/>
<path d="M255.177 169.307H254.782C253.843 169.307 253.081 170.065 253.081 171.001V187.718C253.081 188.653 253.843 189.411 254.782 189.411H255.177C256.117 189.411 256.878 188.653 256.878 187.718V171.001C256.878 170.065 256.117 169.307 255.177 169.307Z" fill="#263238"/>
<path d="M255.711 209.234L255.593 209.146L255.247 208.865C254.837 208.469 254.484 208.018 254.198 207.526C253.422 206.246 252.963 204.08 252.977 201.452C253.066 196.189 253.274 188.928 253.472 180.91C253.67 172.891 253.917 165.649 254.07 160.368C254.061 159.179 254.165 157.992 254.381 156.823C254.566 155.934 254.982 155.11 255.588 154.431C255.971 154.002 256.455 153.674 256.997 153.476C257.183 153.408 257.377 153.365 257.575 153.348C257.575 153.348 257.372 153.387 257.011 153.525C256.489 153.741 256.026 154.078 255.662 154.51C255.084 155.184 254.692 155.997 254.525 156.868C254.324 158.028 254.233 159.205 254.253 160.382C254.119 165.654 253.932 172.91 253.729 180.924C253.526 188.938 253.294 196.184 253.145 201.461C253.106 204.08 253.531 206.212 254.268 207.487C254.646 208.146 255.134 208.737 255.711 209.234Z" fill="#263238"/>
<path d="M305.567 200.342H0V200.464H305.567V200.342Z" fill="#EBEBEB"/>
<path d="M105.848 204.258H91.6702V204.38H105.848V204.258Z" fill="#EBEBEB"/>
<path d="M280.388 207.501H245.737V207.623H280.388V207.501Z" fill="#EBEBEB"/>
<path d="M60.7468 207.501H26.0955V207.623H60.7468V207.501Z" fill="#EBEBEB"/>
<path d="M144.839 173.05H26.8287C24.9342 173.05 23.3452 171.459 23.3452 169.562V3.48792C23.3452 1.59098 24.9342 0 26.8287 0H144.839C146.794 0 148.322 1.59098 148.322 3.48792V169.562C148.322 171.459 146.794 173.05 144.839 173.05ZM26.8287 0.122383C24.9953 0.122383 23.4674 1.59098 23.4674 3.48792V169.562C23.4674 171.398 24.9342 172.928 26.8287 172.928H144.839C146.672 172.928 148.2 171.459 148.2 169.562V3.48792C148.2 1.65217 146.733 0.122383 144.839 0.122383H26.8287Z" fill="#EBEBEB"/>
<path d="M277.027 173.05H159.017C157.062 173.05 155.534 171.459 155.534 169.562V3.48792C155.534 1.59098 157.123 0 159.017 0H277.027C278.922 0 280.511 1.52979 280.511 3.48792V169.562C280.511 171.459 278.983 173.05 277.027 173.05ZM159.017 0.122383C157.184 0.122383 155.656 1.59098 155.656 3.48792V169.562C155.656 171.398 157.123 172.928 159.017 172.928H277.027C278.861 172.928 280.388 171.459 280.388 169.562V3.48792C280.388 1.65217 278.922 0.122383 277.027 0.122383H159.017Z" fill="#EBEBEB"/>
<path d="M192.568 151.755H178.451V200.647H192.568V151.755Z" fill="#E6E6E6"/>
<path d="M182.546 151.755H168.429V200.647H182.546V151.755Z" fill="#E6E6E6"/>
<path d="M179.857 200.648H182.546V193.06H177.046L179.857 200.648Z" fill="#F0F0F0"/>
<path d="M111.654 151.755H97.5371V200.647H111.654V151.755Z" fill="#E6E6E6"/>
<path d="M182.546 151.755H109.271V196.915H182.546V151.755Z" fill="#F0F0F0"/>
<path d="M178.024 186.757H149.3C147.772 186.757 146.489 185.533 146.489 183.942V156.467C146.489 154.937 147.711 153.652 149.3 153.652H177.962C179.49 153.652 180.774 154.876 180.774 156.467V183.942C180.774 185.472 179.551 186.757 178.024 186.757ZM149.3 154.325C148.078 154.325 147.1 155.305 147.1 156.467V183.942C147.1 185.166 148.078 186.145 149.239 186.145H177.901C179.124 186.145 180.101 185.166 180.101 184.003C180.101 184.003 180.101 184.003 180.101 183.942V156.467C180.101 155.243 179.124 154.325 177.901 154.325H149.3Z" fill="#E0E0E0"/>
<path d="M142.517 186.757H113.854C112.327 186.757 111.043 185.533 111.043 183.942V156.467C111.043 154.937 112.265 153.652 113.854 153.652H142.517C144.044 153.652 145.328 154.876 145.328 156.467V183.942C145.328 185.533 144.106 186.757 142.517 186.757ZM113.854 154.325C112.632 154.325 111.715 155.305 111.715 156.467V183.942C111.715 185.166 112.693 186.084 113.854 186.084H142.517C143.739 186.084 144.717 185.105 144.717 183.942V156.467C144.717 155.243 143.739 154.325 142.517 154.325H113.854Z" fill="#E0E0E0"/>
<path d="M139.889 162.403C138.422 162.403 137.2 161.179 137.2 159.71C137.2 158.242 138.422 157.018 139.889 157.018C141.355 157.018 142.578 158.242 142.578 159.71C142.578 161.179 141.355 162.341 139.889 162.403Z" fill="#FAFAFA"/>
<path d="M151.989 162.403C150.523 162.403 149.3 161.24 149.3 159.71C149.3 158.242 150.461 157.018 151.989 157.018C153.456 157.018 154.678 158.18 154.678 159.71C154.678 159.71 154.678 159.71 154.678 159.771C154.617 161.179 153.456 162.341 151.989 162.403Z" fill="#FAFAFA"/>
<path d="M111.96 200.648H109.271V193.06H114.771L111.96 200.648Z" fill="#F0F0F0"/>
<path d="M107.132 151.755H93.0146V200.647H107.132V151.755Z" fill="#E6E6E6"/>
<path d="M104.443 200.648H107.132V193.06H101.632L104.443 200.648Z" fill="#F0F0F0"/>
<path d="M107.132 151.755H33.8569V196.915H107.132V151.755Z" fill="#F0F0F0"/>
<path d="M102.548 186.757H73.8251C72.2973 186.757 71.0139 185.533 71.0139 183.942V156.467C71.0139 154.937 72.2973 153.652 73.8251 153.652H102.487C104.015 153.652 105.299 154.876 105.299 156.467V183.942C105.36 185.472 104.137 186.757 102.548 186.757ZM73.8862 154.325C72.664 154.325 71.6862 155.305 71.6862 156.467V183.942C71.6862 185.166 72.664 186.145 73.8251 186.145H102.487C103.71 186.145 104.687 185.166 104.687 184.003C104.687 184.003 104.687 184.003 104.687 183.942V156.467C104.687 155.243 103.71 154.325 102.548 154.325H73.8862Z" fill="#E0E0E0"/>
<path d="M67.1026 186.757H38.4404C36.9125 186.757 35.6292 185.533 35.6292 183.942V156.467C35.6292 154.937 36.8514 153.652 38.4404 153.652H67.1026C68.6304 153.652 69.9138 154.876 69.9138 156.467V183.942C69.9138 185.533 68.6304 186.757 67.1026 186.757ZM38.4404 154.325C37.2181 154.325 36.2403 155.305 36.2403 156.467V183.942C36.2403 185.166 37.2181 186.145 38.3793 186.145H67.0414C68.2637 186.145 69.2415 185.166 69.2415 184.003V156.467C69.2415 155.243 68.2637 154.325 67.0414 154.325H38.4404Z" fill="#E0E0E0"/>
<path d="M64.4749 162.403C63.0082 162.403 61.7859 161.179 61.7859 159.71C61.7859 158.242 63.0082 157.018 64.4749 157.018C65.9416 157.018 67.1639 158.242 67.1639 159.71C67.1639 161.179 65.9416 162.403 64.4749 162.403Z" fill="#FAFAFA"/>
<path d="M76.5142 162.403C75.0475 162.403 73.8252 161.24 73.8252 159.71C73.8252 158.242 74.9863 157.018 76.5142 157.018C77.9809 157.018 79.2032 158.18 79.2032 159.71C79.2032 159.71 79.2032 159.71 79.2032 159.771C79.2032 161.179 78.042 162.341 76.5142 162.403Z" fill="#FAFAFA"/>
<path d="M36.5459 200.648H33.8569V193.06H39.3571L36.5459 200.648Z" fill="#F0F0F0"/>
<path d="M163.356 16.2158H137.077V42.5282H163.356V16.2158Z" fill="#EBEBEB"/>
<path d="M164.517 16.2158H163.356V42.5282H164.517V16.2158Z" fill="#E0E0E0"/>
<path d="M159.751 19.7649H140.622V38.9179H159.751V19.7649Z" fill="white"/>
<path d="M153.395 32.5539C151.623 34.3285 148.75 34.3285 146.978 32.5539C145.206 30.7793 145.206 27.9033 146.978 26.1288C148.75 24.3542 151.623 24.3542 153.395 26.1288C155.167 27.9645 155.167 30.7793 153.395 32.5539Z" fill="#F5F5F5"/>
<path d="M137.628 50.0549H106.826V80.8955H137.628V50.0549Z" fill="#EBEBEB"/>
<path d="M138.972 50.0549H137.627V80.8955H138.972V50.0549Z" fill="#E0E0E0"/>
<path d="M133.472 54.2158H111.043V76.6732H133.472V54.2158Z" fill="white"/>
<path d="M127.055 60.6411H117.46V70.2482H127.055V60.6411Z" fill="#F5F5F5"/>
<path d="M275.316 40.1418H258.632V44.0581H275.316V40.1418Z" fill="#E6E6E6"/>
<path d="M258.632 40.1418H189.635V44.0581H258.632V40.1418Z" fill="#F5F5F5"/>
<path d="M228.87 19.3977H209.436V40.0805H228.87V19.3977Z" fill="#E0E0E0"/>
<path d="M209.436 19.3977H204.486V40.0805H209.436V19.3977Z" fill="#F0F0F0"/>
<path d="M234.003 16.2158H219.397V40.0806H234.003V16.2158Z" fill="#E6E6E6"/>
<path d="M219.397 16.2158H215.18V40.0806H219.397V16.2158Z" fill="#F0F0F0"/>
<path d="M235.959 19.3977H223.675V40.0805H235.959V19.3977Z" fill="#F0F0F0"/>
<path d="M223.675 19.3977H220.864V40.0805H223.675V19.3977Z" fill="#FAFAFA"/>
<path d="M249.893 22.947H233.759V40.1419H249.893V22.947Z" fill="#E6E6E6"/>
<path d="M233.759 22.947H229.603V40.1419H233.759V22.947Z" fill="#FAFAFA"/>
<path d="M254.048 20.2544H241.948V40.0805H254.048V20.2544Z" fill="#E6E6E6"/>
<path d="M241.948 20.2544H238.465V40.0805H241.948V20.2544Z" fill="#F0F0F0"/>
<path d="M257.349 22.947H245.554V40.1419H257.349V22.947Z" fill="#F0F0F0"/>
<path d="M245.554 22.947H243.231V40.1419H245.554V22.947Z" fill="#FAFAFA"/>
<path d="M248.793 155.672C253.988 148.818 266.455 146.309 270.733 141.965C276.355 136.335 276.355 127.829 271.527 124.77C267.371 122.139 253.56 140.068 252.032 142.087C246.715 149.002 245.126 154.142 244.148 159.098C244.271 154.876 244.393 151.021 244.454 148.023C244.759 138.293 245.126 135.111 245.248 134.193C245.86 133.704 246.532 133.153 246.898 132.908C250.26 130.399 257.654 127.462 261.321 123.852C266.699 118.589 265.844 112.226 262.055 109.9C258.082 107.453 251.115 113.266 247.387 119.018C243.659 124.77 245.248 130.338 244.209 135.05C243.965 135.968 243.782 139.578 243.537 144.535C242.682 139.639 239.993 135.295 236.02 132.296C230.887 128.197 226.487 123.24 222.27 123.852C218.053 124.464 220.375 131.073 223.675 135.723C226.67 139.823 241.337 143.984 243.476 147.288C243.232 154.019 242.987 162.525 242.865 170.419C241.704 166.319 242.498 166.013 237.793 159.71C234.981 155.978 223.431 151.388 222.086 153.958C220.742 156.528 222.82 161.362 227.159 164.728C230.703 167.482 238.465 167.482 240.298 169.134C240.726 169.501 242.132 171.031 242.926 171.887C242.743 181.556 242.682 190.061 242.743 192.999H243.476C243.415 192.264 243.537 187.308 243.659 180.821C245.554 177.333 258.327 175.314 262.238 171.765C266.333 167.971 269.327 163.627 267.555 160.689C266.088 158.242 254.477 161.546 249.71 165.646C246.593 168.338 244.637 171.214 243.782 175.131C243.904 170.725 244.026 165.952 244.148 161.424C245.065 160.322 247.204 157.752 248.793 155.672Z" fill="#E6E6E6"/>
<path d="M249.893 200.525H236.631C235.898 200.525 235.287 199.607 235.165 198.261L234.248 189.694H252.338L251.421 198.261C251.238 199.607 250.626 200.525 249.893 200.525Z" fill="#F0F0F0"/>
<path d="M252.704 193.06H233.82C233.392 193.06 232.965 192.448 232.965 191.591L232.598 185.227C232.537 184.248 232.965 183.391 233.453 183.391H253.071C253.621 183.391 253.988 184.248 253.926 185.227L253.56 191.591C253.56 192.387 253.132 193.06 252.704 193.06Z" fill="#F0F0F0"/>
<path d="M152.784 227.939C218.229 227.939 271.282 224.843 271.282 221.024C271.282 217.205 218.229 214.11 152.784 214.11C87.3384 214.11 34.2847 217.205 34.2847 221.024C34.2847 224.843 87.3384 227.939 152.784 227.939Z" fill="#F5F5F5"/>
<path d="M131.088 61.62C129.744 64.9243 121.799 64.6796 113.426 61.2528C105.115 57.7649 99.4315 52.3189 100.837 49.0757C101.143 48.3414 101.998 45.4654 102.976 45.0982C106.093 43.8132 111.96 46.7504 118.377 49.3817C124.305 51.8293 131.149 53.4203 132.188 56.6635C132.799 58.5604 131.455 60.7021 131.088 61.62Z" fill="#EDE059"/>
<path opacity="0.2" d="M132.188 56.6022C132.677 59.1723 131.577 60.3961 131.088 61.5587C130.599 62.7826 129.194 63.5169 127.238 63.7616C126.994 63.8228 126.749 63.8228 126.505 63.8228C125.16 63.9452 123.632 63.8228 121.982 63.5781C121.738 63.5781 121.555 63.5169 121.31 63.4557C119.66 63.1497 117.949 62.7214 116.116 62.1095C115.932 62.0483 115.749 61.9871 115.504 61.9259C114.832 61.6811 114.099 61.4364 113.427 61.1304C112.754 60.8244 112.082 60.5185 111.41 60.2125C111.226 60.1513 111.043 60.0289 110.86 59.9678C109.21 59.1723 107.743 58.2544 106.398 57.3365C106.215 57.2141 106.093 57.0917 105.91 56.9694C104.565 55.9903 103.404 54.95 102.548 53.971C102.426 53.7874 102.243 53.665 102.121 53.4814C100.776 51.8293 100.287 50.2383 100.837 48.9533C101.204 48.1578 101.937 45.343 102.976 44.9758C104.015 44.6087 105.36 44.6087 106.948 44.9758C107.132 45.037 107.376 45.037 107.56 45.0982C110.615 45.8937 114.465 47.607 118.377 49.2592C123.021 51.1562 128.522 53.1755 131.149 55.4396C131.333 55.562 131.455 55.7455 131.638 55.8679C131.822 56.1739 132.005 56.4186 132.188 56.6022Z" fill="black"/>
<g opacity="0.2">
<path opacity="0.2" d="M107.804 44.67L107.499 45.1595L102.548 54.0323C102.426 53.8487 102.243 53.7263 102.121 53.5428L106.887 45.0371L107.254 44.364L107.804 44.67Z" fill="black"/>
</g>
<g opacity="0.2">
<path opacity="0.2" d="M111.532 48.2803L106.399 57.4591C106.215 57.3367 106.093 57.2143 105.91 57.0919L110.982 47.9744L111.532 48.2803Z" fill="black"/>
</g>
<g opacity="0.2">
<path opacity="0.2" d="M120.943 53.5426L116.116 62.2318C115.932 62.1706 115.749 62.1095 115.504 62.0483L120.393 53.2979L120.943 53.5426Z" fill="black"/>
</g>
<g opacity="0.2">
<path opacity="0.2" d="M116.604 51.0951L111.471 60.335C111.288 60.2739 111.104 60.1515 110.921 60.0903L116.116 50.8503L116.604 51.0951Z" fill="black"/>
</g>
<g opacity="0.2">
<path opacity="0.2" d="M126.627 55.2562L121.921 63.7006C121.677 63.7006 121.493 63.6394 121.249 63.5782L126.077 54.9502L126.627 55.2562Z" fill="black"/>
</g>
<path d="M132.127 58.744C130.783 62.0484 122.899 61.926 114.588 58.438C106.276 54.9501 100.593 49.5653 101.937 46.2609C103.282 42.9566 111.165 43.0789 119.477 46.5669C127.849 49.9936 133.472 55.4397 132.127 58.744Z" fill="#EDE059"/>
<path opacity="0.2" d="M129.316 57.5814C128.338 59.9066 122.227 59.6007 115.627 56.8471C109.026 54.0934 104.443 50.0548 105.421 47.7295C106.399 45.4042 112.51 45.7102 119.11 48.4638C125.71 51.1562 130.233 55.2561 129.316 57.5814Z" fill="white"/>
<path d="M173.195 31.8807C175.396 34.6955 171.24 41.4878 164.09 46.9951C156.939 52.5023 149.422 54.7052 147.222 51.8904C146.733 51.2173 144.717 49.0756 144.839 48.0353C145.267 44.6698 150.767 40.9983 156.206 36.7761C161.278 32.7986 166.045 27.7197 169.406 28.3928C171.423 28.8823 172.584 31.0852 173.195 31.8807Z" fill="#EDE059"/>
<path opacity="0.2" d="M169.406 28.4541C171.912 29.3108 172.401 30.9018 173.195 31.8808C173.99 32.9211 173.929 34.5121 173.195 36.3478C173.134 36.5926 173.012 36.7762 172.89 37.0209C172.34 38.2448 171.484 39.5298 170.445 40.8148C170.323 40.9984 170.201 41.182 170.018 41.3043C168.979 42.5894 167.695 43.8744 166.29 45.1594C166.106 45.2818 165.984 45.4042 165.801 45.5878C165.251 46.0773 164.701 46.5056 164.09 46.9952C163.478 47.4235 162.928 47.913 162.317 48.2802C162.134 48.4026 161.951 48.525 161.828 48.6473C160.3 49.6876 158.773 50.5443 157.367 51.2174C157.184 51.3398 157 51.401 156.817 51.4622C155.289 52.1353 153.822 52.6248 152.539 52.8696C152.295 52.9308 152.111 52.9308 151.867 52.9919C149.789 53.2979 148.139 52.9919 147.283 51.8905C146.733 51.2174 144.717 49.1369 144.9 48.0354C145.083 46.934 145.817 45.7713 146.856 44.6087C146.978 44.4863 147.161 44.3027 147.283 44.1192C149.483 41.8551 152.906 39.4074 156.267 36.7762C160.239 33.7166 164.701 29.9227 168.001 28.7601C168.184 28.6989 168.429 28.6377 168.612 28.5765C168.856 28.5765 169.162 28.5153 169.406 28.4541Z" fill="black"/>
<g opacity="0.2">
<path opacity="0.2" d="M146.978 43.6907L147.283 44.1802L152.539 52.9306C152.295 52.9918 152.111 52.9918 151.867 53.053L146.794 44.6697L146.428 43.9966L146.978 43.6907Z" fill="black"/>
</g>
<g opacity="0.2">
<path opacity="0.2" d="M151.928 42.2834L157.306 51.2786C157.123 51.401 156.939 51.4622 156.756 51.5234L151.378 42.5894L151.928 42.2834Z" fill="black"/>
</g>
<g opacity="0.2">
<path opacity="0.2" d="M161.217 36.7148L166.351 45.2205C166.167 45.3429 166.045 45.4653 165.862 45.6488L160.728 37.0208L161.217 36.7148Z" fill="black"/>
</g>
<g opacity="0.2">
<path opacity="0.2" d="M156.878 39.2849L162.317 48.3413C162.134 48.4637 161.95 48.586 161.828 48.7084L156.389 39.5909L156.878 39.2849Z" fill="black"/>
</g>
<g opacity="0.2">
<path opacity="0.2" d="M165.495 32.615L170.445 40.8759C170.323 41.0594 170.201 41.243 170.017 41.3654L164.945 32.8598L165.495 32.615Z" fill="black"/>
</g>
<path d="M162.283 44.6497C169.408 39.1247 173.425 32.3716 171.255 29.5661C169.085 26.7607 161.55 28.9653 154.425 34.4903C147.301 40.0153 143.284 46.7684 145.454 49.5738C147.624 52.3793 155.159 50.1747 162.283 44.6497Z" fill="#EDE059"/>
<path opacity="0.2" d="M161.351 42.9276C166.981 38.5614 170.306 33.4191 168.777 31.442C167.247 29.4648 161.443 31.4015 155.813 35.7677C150.182 40.1338 146.858 45.2762 148.387 47.2533C149.917 49.2305 155.721 47.2938 161.351 42.9276Z" fill="white"/>
<path d="M143.678 18.7247C142.944 22.7634 133.961 24.4767 123.755 22.641C113.549 20.8052 105.849 16.0935 106.521 12.0548C106.704 11.137 106.949 7.71024 107.926 7.03713C111.104 4.77304 118.438 6.66998 126.322 8.07739C133.655 9.36241 141.661 9.4848 143.678 12.8503C144.9 14.9309 143.922 17.6233 143.678 18.7247Z" fill="#EDE059"/>
<path opacity="0.2" d="M143.678 12.8502C144.9 15.6038 143.922 17.3172 143.678 18.7246C143.433 20.1932 142.028 21.3559 139.889 22.1514C139.644 22.2737 139.339 22.3349 139.094 22.4573C137.628 22.8857 135.855 23.1916 133.961 23.314C133.716 23.314 133.472 23.314 133.227 23.3752C131.333 23.4364 129.255 23.3752 127.055 23.1304C126.81 23.1304 126.566 23.0692 126.322 23.0692C125.466 22.9468 124.672 22.8245 123.816 22.7021C122.96 22.5797 122.166 22.3961 121.31 22.2125C121.066 22.1514 120.821 22.0902 120.638 22.029C118.621 21.5394 116.727 20.8663 115.016 20.1932C114.771 20.132 114.588 20.0096 114.343 19.9485C112.571 19.153 111.043 18.2963 109.821 17.3784C109.638 17.1948 109.393 17.0724 109.21 16.8889C107.315 15.3591 106.338 13.7069 106.643 12.1159C106.826 11.1369 106.949 7.77132 108.049 7.09821C109.149 6.4251 110.677 6.11914 112.51 6.11914C112.754 6.11914 112.999 6.11914 113.243 6.11914C116.91 6.24152 121.616 7.28178 126.444 8.13847C132.127 9.17872 138.789 10.0354 142.394 11.9323C142.639 12.0547 142.822 12.1771 143.006 12.2995C143.189 12.4831 143.494 12.6666 143.678 12.8502Z" fill="black"/>
<g opacity="0.2">
<path opacity="0.2" d="M113.365 5.44618L113.182 6.11929L109.76 17.3174C109.576 17.1338 109.332 17.0114 109.149 16.8278L112.388 6.0581L112.632 5.20142L113.365 5.44618Z" fill="black"/>
</g>
<g opacity="0.2">
<path opacity="0.2" d="M118.438 8.56688L114.954 20.1321C114.71 20.0709 114.527 19.9485 114.282 19.8873L117.766 8.3833L118.438 8.56688Z" fill="black"/>
</g>
<g opacity="0.2">
<path opacity="0.2" d="M130.294 12.1772L126.994 23.1305C126.749 23.1305 126.505 23.0693 126.26 23.0693L129.622 11.9937L130.294 12.1772Z" fill="black"/>
</g>
<g opacity="0.2">
<path opacity="0.2" d="M124.794 10.525L121.249 22.1515C121.005 22.0903 120.76 22.0291 120.577 21.9679L124.121 10.2803L124.794 10.525Z" fill="black"/>
</g>
<g opacity="0.2">
<path opacity="0.2" d="M137.139 12.6667L133.9 23.3141C133.655 23.3141 133.411 23.3141 133.166 23.3753L136.466 12.4832L137.139 12.6667Z" fill="black"/>
</g>
<path d="M144.186 15.2682C144.901 11.2423 137.184 6.50041 126.95 4.67677C116.715 2.85312 107.839 4.63835 107.123 8.66419C106.408 12.69 114.124 17.432 124.359 19.2556C134.593 21.0793 143.47 19.294 144.186 15.2682Z" fill="#EDE059"/>
<path opacity="0.2" d="M140.661 14.5977C141.169 11.7364 135.036 8.25047 126.961 6.81168C118.887 5.3729 111.929 6.5261 111.42 9.38744C110.912 12.2488 117.045 15.7347 125.12 17.1735C133.194 18.6123 140.152 17.4591 140.661 14.5977Z" fill="white"/>
<path d="M197.029 121.527L134.144 125.198C131.944 125.32 129.744 125.871 127.666 126.789L59.3409 157.385C56.8353 158.486 55.4908 161.179 56.0408 163.81L67.3468 217.23C68.1413 220.902 72.1747 222.799 75.5971 221.147L143.005 187.43L205.28 185.349C208.58 185.227 210.963 182.29 210.474 179.108L202.163 127.952C201.796 125.259 199.78 121.465 197.029 121.527Z" fill="#EDE059"/>
<path opacity="0.1" d="M197.029 121.527L134.144 125.198C131.944 125.32 129.744 125.871 127.666 126.789L59.3409 157.385C56.8353 158.486 55.4908 161.179 56.0408 163.81L67.3468 217.23C68.1413 220.902 72.1747 222.799 75.5971 221.147L143.005 187.43L205.28 185.349C208.58 185.227 210.963 182.29 210.474 179.108L202.163 127.952C201.796 125.259 199.78 121.465 197.029 121.527Z" fill="black"/>
<path d="M70.7765 86.7605L37.793 117.199L97.0186 181.541L130.002 151.102L70.7765 86.7605Z" fill="#EDE059"/>
<path opacity="0.5" d="M130.051 151.082L97.0495 181.556L37.8306 117.182L59.4647 97.2338L70.8318 86.77L72.7263 88.7893L130.051 151.082Z" fill="#FAFAFA"/>
<path d="M71.0321 90.7202L41.9131 117.593L97.3284 177.795L126.447 150.922L71.0321 90.7202Z" stroke="#EDE059" stroke-miterlimit="10"/>
<path d="M90.7128 141.315C94.0632 138.223 93.6451 132.312 89.7788 128.112C85.9126 123.913 80.0624 123.015 76.712 126.107C73.3616 129.2 73.7797 135.111 77.6459 139.311C81.5122 143.51 87.3624 144.408 90.7128 141.315Z" fill="#EDE059"/>
<path opacity="0.1" d="M96.6812 155.427L84.9474 159.465L59.4631 97.2335L70.8302 86.7698L72.7247 88.7891L96.6812 155.427Z" fill="black"/>
<path d="M98.8988 61.5595L56.7285 76.8665L86.5118 159.129L128.682 143.822L98.8988 61.5595Z" fill="#EDE059"/>
<path opacity="0.5" d="M98.8988 61.5595L56.7285 76.8665L86.5118 159.129L128.682 143.822L98.8988 61.5595Z" fill="#FAFAFA"/>
<path d="M97.6381 65.269L60.4087 78.7825L88.2758 155.753L125.505 142.239L97.6381 65.269Z" stroke="#EDE059" stroke-miterlimit="10"/>
<path d="M96.2331 119.629C100.517 118.074 102.413 112.461 100.469 107.092C98.5254 101.722 93.477 98.6301 89.1934 100.185C84.9098 101.74 83.0131 107.353 84.9571 112.722C86.9011 118.091 91.9495 121.184 96.2331 119.629Z" fill="#EDE059"/>
<path d="M197.457 123.729L135.427 127.217C133.227 127.34 131.088 127.891 129.072 128.808L61.7856 159.221C59.3411 160.322 57.9966 163.015 58.5466 165.585L69.8526 219.005C70.6471 222.676 74.6806 224.635 77.9807 222.921L144.411 189.388L205.83 187.43C209.069 187.308 211.452 184.432 210.964 181.188L202.591 130.032C202.102 127.462 200.146 123.668 197.457 123.729Z" fill="#EDE059"/>
<path opacity="0.2" d="M137.933 136.58L191.163 133.275" stroke="black" stroke-width="2" stroke-miterlimit="10" stroke-linecap="round" stroke-linejoin="round"/>
<path opacity="0.2" d="M131.577 137.987L141.294 182.657" stroke="black" stroke-width="2" stroke-miterlimit="10" stroke-linecap="round" stroke-linejoin="round"/>
<path opacity="0.2" d="M66.7358 178.312L73.5806 212.702C73.5806 212.702 78.8974 199.056 66.7358 178.312Z" fill="#FAFAFA"/>
<path opacity="0.2" d="M67.6526 178.741C67.897 179.353 128.583 153.285 128.583 153.285C128.583 153.285 130.111 172.01 111.838 182.29C93.5647 192.509 67.6526 178.741 67.6526 178.741Z" fill="#FAFAFA"/>
<path d="M107.926 179.72C109.378 179.72 110.554 178.542 110.554 177.089C110.554 175.635 109.378 174.457 107.926 174.457C106.475 174.457 105.298 175.635 105.298 177.089C105.298 178.542 106.475 179.72 107.926 179.72Z" fill="#EDE059"/>
<path opacity="0.2" d="M128.583 153.285C128.583 153.285 136.099 164.605 134.266 183.942L128.583 153.285Z" fill="black"/>
<g opacity="0.2">
<g opacity="0.2">
<path opacity="0.2" d="M63.8635 164.789L65.2691 164.177" stroke="#FAFAFA" stroke-linecap="round" stroke-linejoin="round"/>
<path opacity="0.2" d="M68.1416 162.892L124.794 137.865" stroke="#FAFAFA" stroke-linecap="round" stroke-linejoin="round" stroke-dasharray="5.2 5.2"/>
<path opacity="0.2" d="M126.26 137.191L127.666 136.58" stroke="#FAFAFA" stroke-linecap="round" stroke-linejoin="round"/>
</g>
</g>
<path opacity="0.2" d="M139.766 146.615L192.935 143.372" stroke="black" stroke-width="2" stroke-miterlimit="10" stroke-linecap="round" stroke-linejoin="round"/>
<path opacity="0.2" d="M142.15 159.16L195.379 155.855" stroke="black" stroke-width="2" stroke-miterlimit="10" stroke-linecap="round" stroke-linejoin="round"/>
<path d="M183.707 70.1257C183.707 70.1257 182.362 84.3834 177.046 85.6072C171.729 86.8311 167.267 84.6282 167.267 84.6282L162.989 81.3238L160.912 88.6668C160.912 88.6668 163.234 91.7876 168.001 89.6459C168.001 89.6459 176.557 93.4398 181.262 89.6459C185.968 85.852 187.496 75.5106 187.496 75.5106L183.707 70.1257Z" fill="#B97964"/>
<path d="M187.985 63.2111C187.985 63.2111 184.318 56.9084 185.968 45.4655C187.618 34.0227 197.213 32.6153 200.941 33.4108C204.608 34.2674 207.663 37.8166 210.169 44.5476C212.675 51.3399 213.591 53.0533 217.808 51.8906C222.025 50.728 233.209 46.9953 236.264 50.2997C239.381 53.604 238.342 57.2755 238.342 57.2755C238.342 57.2755 253.865 53.4816 252.521 67.3721C251.176 81.2626 228.747 94.1741 207.419 80.4671C186.09 66.8214 187.985 63.2111 187.985 63.2111Z" fill="#263238"/>
<path d="M187.802 96.7441C187.802 96.7441 183.585 133.092 183.707 150.164C183.829 167.237 189.879 207.379 189.879 207.379H197.335C197.335 207.379 196.357 175.253 196.48 164.238C196.602 153.224 198.619 135.05 198.619 135.05C198.619 135.05 201.002 151.388 203.813 157.201C206.624 162.953 222.27 183.391 233.087 189.755L238.159 185.105C238.159 185.105 226.914 171.153 222.697 164.238C218.48 157.324 214.691 155.366 213.103 142.515C211.575 129.665 214.203 109.105 209.741 96.6829H187.802V96.7441Z" fill="#263238"/>
<path opacity="0.2" d="M198.619 135.111L195.38 112.042C195.38 112.042 192.813 125.871 197.885 142.821L198.619 135.111Z" fill="black"/>
<path d="M191.407 209.459L191.652 216.619L196.663 217.047L196.907 216.374V208.97L191.407 209.459Z" fill="#B97964"/>
<path d="M189.024 206.767L189.513 209.459L198.068 209.643L198.618 206.399L189.024 206.767Z" fill="#EDE059"/>
<path d="M230.764 190.306L238.709 182.902L240.481 185.656L233.636 191.958L230.764 190.306Z" fill="#EDE059"/>
<path d="M234.615 190.306L239.87 194.712L243.232 190.796L238.892 186.329L234.615 190.306Z" fill="#B97964"/>
<path d="M244.27 190.429L247.448 192.387C248.059 192.754 248.182 193.611 247.693 194.161C245.37 196.792 239.503 203.401 238.892 203.83C238.159 204.441 237.303 203.401 237.059 202.483C237.059 202.483 238.709 200.28 238.892 198.873C239.014 197.833 238.953 196.303 238.892 195.569C238.892 195.263 238.953 195.018 239.137 194.834L242.681 190.673C243.109 190.245 243.781 190.184 244.27 190.429Z" fill="#263238"/>
<path d="M197.885 217.231L198.557 220.902C198.68 221.636 198.13 222.248 197.396 222.248C193.913 222.248 185.051 222.309 184.318 222.187C183.401 222.003 183.585 220.718 184.074 219.923C184.074 219.923 186.824 219.678 187.985 218.883C188.84 218.271 189.94 217.231 190.429 216.68C190.613 216.496 190.857 216.374 191.163 216.374L196.663 216.251C197.274 216.251 197.824 216.68 197.885 217.231Z" fill="#263238"/>
<path d="M210.536 76.6121L218.175 71.2272C218.175 71.2272 216.158 63.0887 213.164 62.7216C210.169 62.2932 195.257 59.4784 185.724 62.7216C185.724 62.7216 182.301 63.7006 181.262 73.3077L185.296 74.5928C185.296 74.5928 186.763 92.5219 187.679 95.3367H209.313C209.313 95.2755 209.558 79.8552 210.536 76.6121Z" fill="#EDE059"/>
<path d="M212.186 75.4494C212.186 75.4494 215.058 83.7103 215.608 88.1773C215.608 88.1773 208.764 85.4237 206.991 84.1998L205.647 79.3657L201.063 77.1016L199.719 80.7119L203.508 85.4237C203.508 85.4237 213.836 95.0919 219.092 92.889C224.348 90.6861 217.014 72.0227 217.014 72.0227L212.186 75.4494Z" fill="#B97964"/>
<path d="M192.813 39.2852C192.813 39.2852 190.185 44.5476 190.368 48.8923C190.552 53.2369 192.752 54.9502 196.846 55.5621C196.846 55.5621 198.619 61.0694 193.974 61.6201C193.607 61.6813 193.485 63.0887 193.546 63.2723C193.668 64.1902 194.524 64.6797 195.38 64.8633C196.235 65.108 197.152 65.108 198.007 65.1692C199.963 65.2304 201.613 64.4349 202.958 62.9663C203.08 62.844 203.997 61.6813 203.997 61.6813C203.997 61.6813 201.797 60.5799 202.591 53.4204C202.591 53.4204 204.058 52.5638 204.913 50.5444C204.913 50.5444 206.319 49.8101 206.686 48.4027C206.991 46.9953 205.769 44.976 203.447 46.9953C203.447 46.9953 199.108 44.7924 197.457 37.0823C197.335 37.0211 195.624 38.918 192.813 39.2852Z" fill="#B97964"/>
<path d="M194.035 47.6683L194.402 44.8535L192.385 47.0564C192.385 47.0564 193.057 47.7907 194.035 47.6683Z" fill="#A24E3F"/>
<path d="M195.196 49.749C195.196 49.749 197.335 50.055 198.313 48.7087" stroke="#222221" stroke-width="0.75" stroke-miterlimit="10" stroke-linecap="round" stroke-linejoin="round"/>
<path d="M197.274 40.8762C197.274 40.8762 198.619 40.3867 200.024 41.6105" stroke="#222221" stroke-miterlimit="10" stroke-linecap="round" stroke-linejoin="round"/>
<path d="M193.668 40.2643C193.668 40.2643 192.446 40.0807 191.896 40.7539" stroke="#222221" stroke-miterlimit="10" stroke-linecap="round" stroke-linejoin="round"/>
<path d="M198.13 44.6089C198.069 45.0372 197.824 45.3432 197.519 45.3432C197.213 45.282 197.03 44.9148 197.091 44.4865C197.152 44.0582 197.396 43.7522 197.702 43.7522C198.008 43.8134 198.191 44.1805 198.13 44.6089Z" fill="#222221"/>
<path d="M193.264 43.6972C193.32 43.2615 193.149 42.88 192.881 42.8452C192.614 42.8103 192.351 43.1353 192.294 43.571C192.237 44.0067 192.409 44.3881 192.677 44.423C192.944 44.4578 193.207 44.1329 193.264 43.6972Z" fill="#222221"/>
<path d="M197.763 43.8133L196.785 43.385C196.785 43.385 196.968 44.2417 197.763 43.8133Z" fill="#222221"/>
<path d="M192.935 42.8954L191.957 42.467C191.957 42.467 192.202 43.3237 192.935 42.8954Z" fill="#222221"/>
<path d="M186.885 94.3577V96.8666L210.352 97.1113L209.741 94.0518L186.885 94.3577Z" fill="#EDE059"/>
<path opacity="0.4" d="M186.885 94.3577V96.8666L210.352 97.1113L209.741 94.0518L186.885 94.3577Z" fill="white"/>
<path d="M187.19 81.9356L174.295 126.911C173.379 130.093 170.629 132.235 167.573 132.541C166.595 132.663 165.617 132.541 164.639 132.296L139.95 125.198C135.794 123.974 133.411 119.63 134.572 115.53L147.467 70.5539C148.139 68.1675 149.911 66.3317 152.05 65.475C153.639 64.8631 155.411 64.6795 157.123 65.2303L181.812 72.3285C185.968 73.4299 188.413 77.7746 187.19 81.9356Z" fill="#EDE059"/>
<path opacity="0.2" d="M187.19 81.9356L174.295 126.911C173.379 130.093 170.629 132.235 167.573 132.541C166.595 132.663 165.617 132.541 164.639 132.296L139.95 125.198C135.794 123.974 133.411 119.63 134.572 115.53L147.467 70.5539C148.139 68.1675 149.911 66.3317 152.05 65.475C153.639 64.8631 155.411 64.6795 157.123 65.2303L181.812 72.3285C185.968 73.4299 188.413 77.7746 187.19 81.9356Z" fill="black"/>
<path d="M185.051 82.4863L172.156 127.462C171.484 129.849 169.712 131.684 167.573 132.541C166.595 132.663 165.617 132.541 164.639 132.296L139.95 125.198C135.794 123.974 133.411 119.63 134.572 115.53L147.467 70.5539C148.139 68.1674 149.911 66.3317 152.05 65.475C153.028 65.3526 154.006 65.475 154.984 65.7198L179.673 72.818C183.829 73.9807 186.274 78.3253 185.051 82.4863Z" fill="#EDE059"/>
<path opacity="0.5" d="M185.051 82.4863L172.156 127.462C171.484 129.849 169.712 131.684 167.573 132.541C166.595 132.663 165.617 132.541 164.639 132.296L139.95 125.198C135.794 123.974 133.411 119.63 134.572 115.53L147.467 70.5539C148.139 68.1674 149.911 66.3317 152.05 65.475C153.028 65.3526 154.006 65.475 154.984 65.7198L179.673 72.818C183.829 73.9807 186.274 78.3253 185.051 82.4863Z" fill="#FAFAFA"/>
<path d="M150.326 86.3198L147.679 85.573L138.182 119.321L140.829 120.068L150.326 86.3198Z" fill="#FAFAFA"/>
<path d="M144.655 121.16L141.966 120.364L151.5 86.6475L154.128 87.3818L144.655 121.16Z" fill="#FAFAFA"/>
<path d="M148.444 122.261L145.816 121.527L155.35 87.7488L157.978 88.4831L148.444 122.261Z" fill="#FAFAFA"/>
<path opacity="0.5" d="M173.366 92.9382L170.719 92.1914L161.222 125.939L163.869 126.686L173.366 92.9382Z" fill="black"/>
<path d="M173.012 83.343L171.729 87.9324L170.14 87.504C168.551 87.0757 167.634 85.4235 168.062 83.8325L168.917 80.7729L172.095 81.6908C172.829 81.9356 173.195 82.6699 173.012 83.343Z" fill="#FAFAFA"/>
<path d="M172.279 81.1402L169.101 80.2223L170.018 76.8568C170.445 75.2658 172.095 74.3479 173.684 74.7762L175.334 75.2658L173.929 80.2223C173.684 80.8954 172.951 81.3238 172.279 81.1402Z" fill="#FAFAFA"/>
<path d="M175.273 82.6088L178.451 83.5267L177.595 86.5251C177.168 88.116 175.518 89.0339 173.929 88.6056L172.279 88.116L173.562 83.5267C173.806 82.8536 174.54 82.4252 175.273 82.6088Z" fill="#FAFAFA"/>
<path d="M179.551 79.5491L178.573 82.9758L175.395 82.0579C174.662 81.8744 174.295 81.0789 174.479 80.4057L175.884 75.4492L177.473 75.8776C179.062 76.3059 179.979 77.9581 179.551 79.5491Z" fill="#FAFAFA"/>
</g>
<defs>
<clipPath id="clip0_1229_3530">
<rect width="305.567" height="228" fill="white"/>
</clipPath>
</defs>
</svg>
