<svg width="18" height="17" viewBox="0 0 18 17" fill="none" xmlns="http://www.w3.org/2000/svg">
<path d="M1.5 0.25C0.670898 0.25 0 0.920898 0 1.75C0 2.5791 0.670898 3.25 1.5 3.25C2.3291 3.25 3 2.5791 3 1.75C3 0.920898 2.3291 0.25 1.5 0.25ZM5.25 1V2.5H18V1H5.25ZM1.5 7C0.670898 7 0 7.6709 0 8.5C0 9.3291 0.670898 10 1.5 10C2.3291 10 3 9.3291 3 8.5C3 7.6709 2.3291 7 1.5 7ZM5.25 7.75V9.25H18V7.75H5.25ZM1.5 13.75C0.670898 13.75 0 14.4209 0 15.25C0 16.0791 0.670898 16.75 1.5 16.75C2.3291 16.75 3 16.0791 3 15.25C3 14.4209 2.3291 13.75 1.5 13.75ZM5.25 14.5V16H18V14.5H5.25Z" fill="#697A80"/>
</svg>
