<svg width="14" height="18" viewBox="0 0 14 18" fill="none" xmlns="http://www.w3.org/2000/svg">
<path d="M7.00073 0C3.28296 0 0.250732 3.03223 0.250732 6.75C0.250732 9.3252 1.87378 11.918 3.41479 13.9453C4.95581 15.9727 6.48511 17.4141 6.48511 17.4141L7.00073 17.9062L7.51636 17.4141C7.51636 17.4141 9.04565 15.9727 10.5867 13.9453C12.1277 11.918 13.7507 9.3252 13.7507 6.75C13.7507 3.03223 10.7185 0 7.00073 0ZM7.00073 1.5C9.90991 1.5 12.2507 3.84082 12.2507 6.75C12.2507 8.6543 10.8738 11.1152 9.41479 13.0312C8.21362 14.6104 7.38745 15.3721 7.00073 15.75C6.61401 15.3721 5.78784 14.6104 4.58667 13.0312C3.12769 11.1152 1.75073 8.6543 1.75073 6.75C1.75073 3.84082 4.09155 1.5 7.00073 1.5ZM4.35229 4.10156C2.89331 5.56055 2.89331 7.93945 4.35229 9.39844L5.40698 8.34375C4.52222 7.45898 4.52222 6.04102 5.40698 5.15625L4.35229 4.10156ZM9.64917 4.10156L8.59448 5.15625C9.47925 6.04102 9.47925 7.45898 8.59448 8.34375L9.64917 9.39844C11.1082 7.93945 11.1082 5.56055 9.64917 4.10156ZM7.00073 5.625C6.37964 5.625 5.87573 6.12891 5.87573 6.75C5.87573 7.37109 6.37964 7.875 7.00073 7.875C7.62183 7.875 8.12573 7.37109 8.12573 6.75C8.12573 6.12891 7.62183 5.625 7.00073 5.625Z" fill="black"/>
</svg>
