<svg width="20" height="21" viewBox="0 0 20 21" fill="none" xmlns="http://www.w3.org/2000/svg">
<path d="M12.25 0.75C8.11621 0.75 4.75 4.11621 4.75 8.25C4.75 10.0459 5.37988 11.6924 6.4375 12.9844L0.460938 18.9609L1.53906 20.0391L7.51562 14.0625C8.80762 15.1201 10.4541 15.75 12.25 15.75C16.3838 15.75 19.75 12.3838 19.75 8.25C19.75 4.11621 16.3838 0.75 12.25 0.75ZM12.25 2.25C15.5723 2.25 18.25 4.92773 18.25 8.25C18.25 11.5723 15.5723 14.25 12.25 14.25C8.92773 14.25 6.25 11.5723 6.25 8.25C6.25 4.92773 8.92773 2.25 12.25 2.25Z" fill="#5A623A"/>
</svg>
