<svg width="24" height="24" viewBox="0 0 24 24" fill="none" xmlns="http://www.w3.org/2000/svg">
<path d="M14 0V2H12V4H14.1562C14.0742 4.32031 14 4.65625 14 5C14 7.19922 15.8008 9 18 9C20.1992 9 22 7.19922 22 5C22 4.65625 21.9258 4.32031 21.8438 4H22V0H14ZM16.2812 4H19.7188C19.8867 4.29297 20 4.63281 20 5C20 6.11719 19.1172 7 18 7C16.8828 7 16 6.11719 16 5C16 4.63281 16.1133 4.29297 16.2812 4ZM15.8438 10C14.332 10 12.957 10.8672 12.2812 12.2188L12.25 12.2812L12.2188 12.3125L11.2812 15H7V17H12.7188L12.9375 16.3438L14.0938 13.0312L14.125 13C14.4805 12.3789 15.125 12 15.8438 12H20C20.2344 12 20.4492 12.0547 20.6562 12.125L15 19.2812V18H13V24H15V22.5L15.4062 22H22V24H24V14C24 11.8008 22.1992 10 20 10H15.8438ZM0 11V22.0312C0 23.1055 0.894531 24 1.96875 24H9.03125C10.1055 24 11 23.1055 11 22.0312V19H2V11H0ZM21.9688 13.6562C21.9883 13.7695 22 13.8828 22 14V20H16.9688L21.9688 13.6562ZM2 21H9V22H2V21Z" fill="#5A623A"/>
</svg>
