<svg width="19" height="18" viewBox="0 0 19 18" fill="none" xmlns="http://www.w3.org/2000/svg">
<path d="M10.875 0C9.43359 0 8.25 1.18359 8.25 2.625C8.25 4.06641 9.43359 5.25 10.875 5.25C12.3164 5.25 13.5 4.06641 13.5 2.625C13.5 1.18359 12.3164 0 10.875 0ZM10.875 1.5C11.5049 1.5 12 1.99512 12 2.625C12 3.25488 11.5049 3.75 10.875 3.75C10.2451 3.75 9.75 3.25488 9.75 2.625C9.75 1.99512 10.2451 1.5 10.875 1.5ZM14.0156 5.50781C13.8838 5.5166 13.7461 5.5459 13.6172 5.57812L12.4453 5.85938C11.8477 6.00879 11.3438 6.40137 11.0391 6.9375L9.02344 10.5H10.7578L11.8828 8.46094L12.8438 10.5H14.4844L12.9844 7.26562L13.9688 7.03125C14.3145 6.94043 14.6836 7.10449 14.8359 7.42969L16.2656 10.5H17.9062L16.1953 6.79688C15.7969 5.94141 14.9297 5.44629 14.0156 5.50781ZM2.625 9.75C1.18359 9.75 0 10.9336 0 12.375C0 13.8164 1.18359 15 2.625 15C4.06641 15 5.25 13.8164 5.25 12.375C5.25 10.9336 4.06641 9.75 2.625 9.75ZM2.625 11.25C3.25488 11.25 3.75 11.7451 3.75 12.375C3.75 13.0049 3.25488 13.5 2.625 13.5C1.99512 13.5 1.5 13.0049 1.5 12.375C1.5 11.7451 1.99512 11.25 2.625 11.25ZM8.25 11.25C7.0166 11.25 6 12.2666 6 13.5V14.6719L4.17188 16.5H0V18H4.80469L5.03906 17.7891L7.07812 15.75H14.25V17.25H18.75V15.75H15.75V12.75H18.75V11.25H8.25ZM8.25 12.75H14.25V14.25H7.5V13.5C7.5 13.0752 7.8252 12.75 8.25 12.75Z" fill="black"/>
</svg>
