<svg width="22" height="18" viewBox="0 0 22 18" fill="none" xmlns="http://www.w3.org/2000/svg">
<path d="M0.5 0.75V12.75H21.5V0.75H0.5ZM3.43555 2.25H18.5674C18.5234 2.37012 18.5 2.49609 18.5 2.625C18.5 3.24609 19.0039 3.75 19.625 3.75C19.7539 3.75 19.8799 3.72656 20 3.68555V9.81738C19.8799 9.77344 19.7539 9.75 19.625 9.75C19.0039 9.75 18.5 10.2539 18.5 10.875C18.5 11.0039 18.5234 11.1299 18.5674 11.25H3.43555C3.47656 11.1299 3.5 11.0039 3.5 10.875C3.5 10.2539 2.99609 9.75 2.375 9.75C2.24609 9.75 2.12012 9.77344 2 9.81738V3.68555C2.12012 3.72656 2.24609 3.75 2.375 3.75C2.99609 3.75 3.5 3.24609 3.5 2.625C3.5 2.49609 3.47656 2.37012 3.43555 2.25ZM11 3.75C9.3418 3.75 8 5.0918 8 6.75V7.5H8.15234C8.48926 8.7832 9.6084 9.75 11 9.75C12.3916 9.75 13.5107 8.7832 13.8477 7.5H14V6.75C14 5.0918 12.6582 3.75 11 3.75ZM11 5.25C11.8936 5.25 12.5 5.85645 12.5 6.75C12.5 7.64355 11.8936 8.25 11 8.25C10.1064 8.25 9.5 7.64355 9.5 6.75C9.5 5.85645 10.1064 5.25 11 5.25ZM5.75 5.625C5.12891 5.625 4.625 6.12891 4.625 6.75C4.625 7.37109 5.12891 7.875 5.75 7.875C6.37109 7.875 6.875 7.37109 6.875 6.75C6.875 6.12891 6.37109 5.625 5.75 5.625ZM16.25 5.625C15.6289 5.625 15.125 6.12891 15.125 6.75C15.125 7.37109 15.6289 7.875 16.25 7.875C16.8711 7.875 17.375 7.37109 17.375 6.75C17.375 6.12891 16.8711 5.625 16.25 5.625ZM0.5 13.5V15H1.25293C1.25293 15 12.0049 14.9707 19.8096 17.0391L20.75 17.2852V13.5H19.25V14.3174C19.1299 14.2734 19.0039 14.25 18.875 14.25C18.3682 14.25 17.9229 14.5928 17.7881 15.082C10.083 13.4912 1.25879 13.5 1.25 13.5H0.5Z" fill="white"/>
</svg>
