<svg width="21" height="18" viewBox="0 0 21 18" fill="none" xmlns="http://www.w3.org/2000/svg">
    <path
        d="M0 0.75V12.75H21V0.75H0ZM2.93555 2.25H18.0674C18.0234 2.37012 18 2.49609 18 2.625C18 3.24609 18.5039 3.75 19.125 3.75C19.2539 3.75 19.3799 3.72656 19.5 3.68555V9.81738C19.3799 9.77344 19.2539 9.75 19.125 9.75C18.5039 9.75 18 10.2539 18 10.875C18 11.0039 18.0234 11.1299 18.0674 11.25H2.93555C2.97656 11.1299 3 11.0039 3 10.875C3 10.2539 2.49609 9.75 1.875 9.75C1.74609 9.75 1.62012 9.77344 1.5 9.81738V3.68555C1.62012 3.72656 1.74609 3.75 1.875 3.75C2.49609 3.75 3 3.24609 3 2.625C3 2.49609 2.97656 2.37012 2.93555 2.25ZM10.5 3.75C8.8418 3.75 7.5 5.0918 7.5 6.75V7.5H7.65234C7.98926 8.7832 9.1084 9.75 10.5 9.75C11.8916 9.75 13.0107 8.7832 13.3477 7.5H13.5V6.75C13.5 5.0918 12.1582 3.75 10.5 3.75ZM10.5 5.25C11.3936 5.25 12 5.85645 12 6.75C12 7.64355 11.3936 8.25 10.5 8.25C9.60645 8.25 9 7.64355 9 6.75C9 5.85645 9.60645 5.25 10.5 5.25ZM5.25 5.625C4.62891 5.625 4.125 6.12891 4.125 6.75C4.125 7.37109 4.62891 7.875 5.25 7.875C5.87109 7.875 6.375 7.37109 6.375 6.75C6.375 6.12891 5.87109 5.625 5.25 5.625ZM15.75 5.625C15.1289 5.625 14.625 6.12891 14.625 6.75C14.625 7.37109 15.1289 7.875 15.75 7.875C16.3711 7.875 16.875 7.37109 16.875 6.75C16.875 6.12891 16.3711 5.625 15.75 5.625ZM0 13.5V15H0.75293C0.75293 15 11.5049 14.9707 19.3096 17.0391L20.25 17.2852V13.5H18.75V14.3174C18.6299 14.2734 18.5039 14.25 18.375 14.25C17.8682 14.25 17.4229 14.5928 17.2881 15.082C9.58301 13.4912 0.758789 13.5 0.75 13.5H0Z"
        fill="black" />
</svg>