<svg width="22" height="28" viewBox="0 0 22 28" fill="none" xmlns="http://www.w3.org/2000/svg">
<path d="M9 0C8.30859 0 7.62891 0.25 7.09375 0.6875C6.16406 1.44531 5.80859 2.65234 6.09375 3.75L5.53125 3.4375C5.52344 3.43359 5.50781 3.44141 5.5 3.4375C5.03906 3.16797 4.53516 3 4 3C2.94531 3 1.98047 3.56641 1.4375 4.46875C0.59375 5.87891 1.05859 7.71484 2.46875 8.5625L2.5 8.59375L2.5625 8.625L5.59375 10H4.75L0.875 13.875C0.3125 14.4375 0 15.207 0 16C0 16.793 0.3125 17.5625 0.875 18.125C1.00781 18.2578 1.22266 18.2383 1.375 18.3438C1.03516 18.9453 0.933594 19.6445 1.3125 20.2812H1.28125L1.3125 20.3438L3.59375 24.4375L3.75 24.7188L4.03125 24.8438C4.03125 24.8438 5.16797 25.3789 6.4375 25.9062C7.07422 26.168 7.73828 26.418 8.34375 26.625C8.94922 26.832 9.41406 27 10 27C11.5234 27 12.3594 26.6562 12.9062 26.4062C13.4531 26.1562 13.7109 26 15 26C15.5352 26 16.9102 26.3906 18.0625 26.8438C18.6367 27.0703 19.1797 27.3086 19.5938 27.5C20.0078 27.6914 20.3633 27.875 20.3125 27.8438L20.5625 28H21.9688V27L22 16V15.4688L21.5625 15.1562L19 13.4375V5C19 3.35547 17.6445 2 16 2C14.8477 2 13.8477 2.66406 13.3438 3.625L11.3125 1.09375C10.7422 0.394531 9.89844 0 9 0ZM9 2C9.30859 2 9.58594 2.13672 9.78125 2.375L13.0938 6.4375L13.125 6.53125L16.9688 14.5H17V14.5312L17.4375 14.8438L20 16.5625L19.9688 25.5C19.6016 25.3359 19.2266 25.1445 18.7812 24.9688C17.543 24.4805 16.207 24 15 24C13.4766 24 12.6406 24.3438 12.0938 24.5938C11.5469 24.8438 11.2891 25 10 25C10.043 25 9.53516 24.9023 9 24.7188C8.46484 24.5352 7.82812 24.2852 7.21875 24.0312C6.15625 23.5938 5.42188 23.2656 5.1875 23.1562L3.03125 19.3125V19.2812L3 19.25L3.46875 19.0938C4.34375 18.7969 5.3125 19.1289 5.8125 19.9062L5.875 20.0312L7.25 21.6562L7.53125 22H10.5938L10.9062 21.5312L12.8438 18.5312L13.2188 17.9688L12.8125 17.4062L10.6875 14.4062L10.375 14H6.59375L6.3125 14.2812L3.71875 16.6875V16.7188C3.52344 16.9141 3.27344 17 3 17C2.72656 17 2.47656 16.9141 2.28125 16.7188C2.08594 16.5234 2 16.2734 2 16C2 15.7266 2.08594 15.4766 2.28125 15.2812L5.59375 12H11.5938L14.1875 15.5938L15 15L15.875 14.5312L15.8125 14.4062L11.9688 7.03125L11.8125 6.75L11.5625 6.625L10.7188 6.15625L8.21875 3.625C7.86719 3.19141 7.94141 2.57422 8.375 2.21875C8.55078 2.07422 8.77344 2 9 2ZM16 4C16.5664 4 17 4.43359 17 5V9.9375L15 5.75V5C15 4.43359 15.4336 4 16 4ZM4 5C4.17969 5 4.34375 5.0625 4.5 5.15625H4.5625L10.3125 8.21875L11.25 10H9.4375L8.59375 9.15625L8.40625 9.09375L3.5 6.875V6.84375C3.01953 6.55469 2.86719 5.94922 3.15625 5.46875C3.33203 5.17578 3.65625 5 4 5ZM7.375 16H9.34375L10.7812 18.0312L9.53125 20H8.46875L7.46875 18.8438L7.40625 18.75L7.375 18.7812C6.97266 18.1914 6.39844 17.7969 5.78125 17.5L7.375 16Z" fill="#5A623A"/>
</svg>
