<svg width="20" height="21" viewBox="0 0 20 21" fill="none" xmlns="http://www.w3.org/2000/svg">
<path d="M4.49212 0.75C4.09954 0.75 3.71282 0.890625 3.39056 1.14844L3.34368 1.17188L3.32024 1.19531L0.976493 3.60938L0.999931 3.63281C0.276298 4.30078 0.0536416 5.2998 0.367118 6.16406C0.370048 6.16992 0.364189 6.18164 0.367118 6.1875C1.00286 8.00684 2.62884 11.5195 5.80462 14.6953C8.99212 17.8828 12.5517 19.4443 14.3124 20.1328H14.3359C15.247 20.4375 16.2343 20.2207 16.9374 19.6172L19.3046 17.25C19.9257 16.6289 19.9257 15.5508 19.3046 14.9297L16.2577 11.8828L16.2343 11.8359C15.6132 11.2148 14.5117 11.2148 13.8906 11.8359L12.3906 13.3359C11.8486 13.0752 10.5566 12.4072 9.32024 11.2266C8.0927 10.0547 7.46575 8.70703 7.23431 8.17969L8.73431 6.67969C9.36419 6.04981 9.37591 5.00098 8.71087 4.38281L8.73431 4.35938L8.66399 4.28906L5.66399 1.19531L5.64056 1.17188L5.59368 1.14844C5.27142 0.890625 4.8847 0.75 4.49212 0.75ZM4.49212 2.25C4.54778 2.25 4.60345 2.27637 4.65618 2.32031L7.65618 5.39063L7.72649 5.46094C7.72063 5.45508 7.77044 5.53418 7.67962 5.625L5.80462 7.5L5.45306 7.82813L5.61712 8.29688C5.61712 8.29688 6.47845 10.6025 8.28899 12.3281L8.45306 12.4688C10.1962 14.0596 12.2499 14.9297 12.2499 14.9297L12.7187 15.1406L14.9452 12.9141C15.0742 12.7852 15.0507 12.7852 15.1796 12.9141L18.2499 15.9844C18.3788 16.1133 18.3788 16.0664 18.2499 16.1953L15.9531 18.4922C15.6074 18.7881 15.2411 18.8496 14.8046 18.7031C13.1054 18.0352 9.80364 16.585 6.85931 13.6406C3.89153 10.6729 2.34173 7.30664 1.77337 5.67188C1.65911 5.36719 1.74114 4.91602 2.00774 4.6875L2.05462 4.64063L4.32806 2.32031C4.38079 2.27637 4.43645 2.25 4.49212 2.25Z" fill="#697A80"/>
</svg>
