<svg width="24" height="25" viewBox="0 0 24 25" fill="none" xmlns="http://www.w3.org/2000/svg">
<path d="M6.49285 2.75C6.10027 2.75 5.71355 2.89063 5.39129 3.14844L5.34441 3.17188L5.32098 3.19531L2.97723 5.60938L3.00066 5.63281C2.27703 6.30078 2.05437 7.2998 2.36785 8.16406C2.37078 8.16992 2.36492 8.18164 2.36785 8.1875C3.00359 10.0068 4.62957 13.5195 7.80535 16.6953C10.9929 19.8828 14.5524 21.4443 16.3132 22.1328H16.3366C17.2477 22.4375 18.235 22.2207 18.9382 21.6172L21.3054 19.25C21.9264 18.6289 21.9264 17.5508 21.3054 16.9297L18.2585 13.8828L18.235 13.8359C17.6139 13.2148 16.5124 13.2148 15.8913 13.8359L14.3913 15.3359C13.8493 15.0752 12.5573 14.4072 11.321 13.2266C10.0934 12.0547 9.46648 10.707 9.23504 10.1797L10.735 8.67969C11.3649 8.0498 11.3766 7.00098 10.7116 6.38281L10.735 6.35938L10.6647 6.28906L7.66473 3.19531L7.64129 3.17188L7.59441 3.14844C7.27215 2.89063 6.88543 2.75 6.49285 2.75ZM6.49285 4.25C6.54852 4.25 6.60418 4.27637 6.65691 4.32031L9.65691 7.39063L9.72723 7.46094C9.72137 7.45508 9.77117 7.53418 9.68035 7.625L7.80535 9.5L7.45379 9.82813L7.61785 10.2969C7.61785 10.2969 8.47918 12.6025 10.2897 14.3281L10.4538 14.4688C12.197 16.0596 14.2507 16.9297 14.2507 16.9297L14.7194 17.1406L16.946 14.9141C17.0749 14.7852 17.0514 14.7852 17.1804 14.9141L20.2507 17.9844C20.3796 18.1133 20.3796 18.0664 20.2507 18.1953L17.9538 20.4922C17.6081 20.7881 17.2419 20.8496 16.8054 20.7031C15.1061 20.0352 11.8044 18.585 8.86004 15.6406C5.89226 12.6729 4.34246 9.30664 3.7741 7.67188C3.65984 7.36719 3.74187 6.91602 4.00848 6.6875L4.05535 6.64063L6.32879 4.32031C6.38152 4.27637 6.43719 4.25 6.49285 4.25Z" fill="black"/>
</svg>
