<svg width="25" height="21" viewBox="0 0 25 21" fill="none" xmlns="http://www.w3.org/2000/svg">
<path d="M21.5 0.5C19.8555 0.5 18.5 1.85547 18.5 3.5C18.5 5.14453 19.8555 6.5 21.5 6.5C23.1445 6.5 24.5 5.14453 24.5 3.5C24.5 1.85547 23.1445 0.5 21.5 0.5ZM12.7188 1.09375C12.5859 1.10547 12.4453 1.12109 12.3125 1.15625L8.53125 2.21875L9.0625 4.15625L12.875 3.0625L14.8125 4.1875L11.0938 7.34375C10.1328 8.15625 9.75781 9.46094 10.1562 10.6562L11.625 15H7V17H11.625C12.9609 17 13.9219 15.6406 13.5 14.375L12.0625 10.0312C11.9219 9.60938 12.0664 9.16406 12.4062 8.875L16.3125 5.53125L17.2812 7L14.0625 10.125C13.4336 10.7422 13.3047 11.7188 13.7188 12.5L15.6875 16.1875L13.5938 21H15.75L17.5 17C17.7461 16.4375 17.7266 15.793 17.4375 15.25L15.4688 11.5625L18 9.09375V10C18 11.0938 18.9062 12 20 12H24V10H20V8.03125C20 7.63281 19.8711 7.23438 19.6562 6.90625L17.5 3.6875C17.332 3.44141 17.0977 3.24219 16.8438 3.09375L13.875 1.34375C13.5234 1.13672 13.1211 1.0625 12.7188 1.09375ZM21.5 2.5C22.0625 2.5 22.5 2.9375 22.5 3.5C22.5 4.0625 22.0625 4.5 21.5 4.5C20.9375 4.5 20.5 4.0625 20.5 3.5C20.5 2.9375 20.9375 2.5 21.5 2.5ZM0 6V8H8.3125C8.57812 7.25391 9.02344 6.56641 9.625 6H0ZM0 10V12H8.5L8.28125 11.3125C8.13672 10.8828 8.05859 10.4336 8.03125 10H0Z" fill="#5A623A"/>
</svg>
