<svg width="20" height="19" viewBox="0 0 20 19" fill="none" xmlns="http://www.w3.org/2000/svg">
<path d="M13.9863 0.125C13.4121 0.125 12.8262 0.347656 12.3926 0.78125C12.1055 1.06836 11.9268 1.41992 11.8301 1.78906C11.6748 1.75684 11.5225 1.71875 11.3613 1.71875C10.7871 1.71875 10.2012 1.91797 9.76758 2.35156C8.90039 3.21875 8.90039 4.64844 9.76758 5.51562L10.4004 6.14844L6.65039 9.89844L6.01758 9.26562C5.58398 8.83203 5.02148 8.60938 4.44727 8.60938C3.87305 8.60938 3.28711 8.83203 2.85352 9.26562C2.29395 9.82812 2.10352 10.625 2.26758 11.3516C1.90723 11.4453 1.56738 11.6064 1.2832 11.8906C0.416016 12.7578 0.416016 14.1875 1.2832 15.0547L1.30664 15.0781L2.31445 16.1094L1.79883 16.625L2.87695 17.7031L3.39258 17.1875L4.44727 18.2188C5.31445 19.0859 6.74414 19.0859 7.61133 18.2188C7.89258 17.9375 8.07422 17.5947 8.17383 17.2344C8.89453 17.3896 9.67969 17.2051 10.2363 16.6484C11.1035 15.7812 11.1035 14.3516 10.2363 13.4844L9.60352 12.8516L13.3535 9.10156L13.9863 9.73438C14.8535 10.6016 16.2832 10.6016 17.1504 9.73438C17.7041 9.17773 17.8916 8.39258 17.7363 7.67188C18.0996 7.57227 18.4365 7.39355 18.7207 7.10938C19.5879 6.24219 19.5879 4.8125 18.7207 3.94531L17.6895 2.89062L18.2051 2.375L17.127 1.29688L16.6113 1.8125L15.5566 0.78125C15.123 0.347656 14.5605 0.125 13.9863 0.125ZM13.9863 1.625C14.1738 1.625 14.3555 1.68945 14.502 1.83594L17.666 5C17.9619 5.2959 17.959 5.73828 17.666 6.03125C17.373 6.32422 16.9072 6.32422 16.6113 6.03125L13.4707 2.89062C13.1777 2.59766 13.1777 2.13184 13.4707 1.83594C13.6172 1.68945 13.7988 1.625 13.9863 1.625ZM11.3613 3.19531C11.5488 3.19531 11.7305 3.2832 11.877 3.42969L16.0723 7.625C16.3652 7.9209 16.3652 8.38379 16.0723 8.67969C15.7793 8.97266 15.3369 8.94922 15.041 8.65625H15.0176L10.8223 4.46094C10.5293 4.16797 10.5527 3.72559 10.8457 3.42969C10.9893 3.29199 11.1797 3.19531 11.3613 3.19531ZM11.4551 7.20312L12.2988 8.04688L8.54883 11.7969L7.70508 10.9531L11.4551 7.20312ZM4.44727 10.1094C4.63477 10.1094 4.81641 10.1973 4.96289 10.3438H4.98633L9.18164 14.5391C9.47461 14.832 9.45117 15.2744 9.1582 15.5703C8.86523 15.8486 8.41699 15.8604 8.12695 15.5703L7.61133 15.0547L7.51758 14.9844L4.44727 11.8906L3.93164 11.375C3.63867 11.0791 3.63867 10.6162 3.93164 10.3203C4.07813 10.1738 4.25977 10.1094 4.44727 10.1094ZM2.85352 12.7344C3.04102 12.7344 3.24609 12.8223 3.39258 12.9688L6.5332 16.1094C6.82617 16.4023 6.82617 16.8682 6.5332 17.1641C6.24023 17.457 5.79785 17.457 5.50195 17.1641L2.33789 14C2.04199 13.7041 2.04492 13.2617 2.33789 12.9688C2.48438 12.8223 2.66602 12.7344 2.85352 12.7344Z" fill="#5A623A"/>
</svg>
