<svg width="16" height="14" viewBox="0 0 16 14" fill="none" xmlns="http://www.w3.org/2000/svg">
<path d="M8 0.0625L7.54688 1.09375L5.92188 4.73438L1.95312 5.15625L0.828125 5.28125L1.67188 6.03125L4.625 8.70312L3.79688 12.6094L3.5625 13.7031L4.54688 13.1406L8 11.1406L11.4531 13.1406L12.4375 13.7031L12.2031 12.6094L11.375 8.70312L14.3281 6.03125L15.1719 5.28125L14.0469 5.15625L10.0781 4.73438L8.45312 1.09375L8 0.0625ZM8 2.51562L9.28125 5.40625L9.40625 5.67188L9.6875 5.70312L12.8281 6.03125L10.4844 8.14062L10.2656 8.34375L10.3281 8.625L10.9844 11.7031L8.25 10.1406L8 9.98438L7.75 10.1406L5.01562 11.7031L5.67188 8.625L5.73438 8.34375L5.51562 8.14062L3.17188 6.03125L6.3125 5.70312L6.59375 5.67188L6.71875 5.40625L8 2.51562Z" fill="white"/>
</svg>
