<svg width="18" height="18" viewBox="0 0 18 18" fill="none" xmlns="http://www.w3.org/2000/svg">
<path d="M9 0C7.55911 0 6.375 1.18411 6.375 2.625C6.375 4.06589 7.55911 5.25 9 5.25C10.4409 5.25 11.625 4.06589 11.625 2.625C11.625 1.18411 10.4409 0 9 0ZM9 1.5C9.63061 1.5 10.125 1.99439 10.125 2.625C10.125 3.25561 9.63061 3.75 9 3.75C8.36939 3.75 7.875 3.25561 7.875 2.625C7.875 1.99439 8.36939 1.5 9 1.5ZM8.71729 6C7.00014 6 5.49633 7.17441 5.08008 8.84033L4.40186 11.5518L7.80029 14.1006L8.69971 12.8994L6.09814 10.9482L6.53467 9.20508V9.20361C6.78592 8.19807 7.68043 7.5 8.71729 7.5H9.28418C10.3201 7.5 11.2149 8.19919 11.4668 9.20508L11.9019 10.9482L9.30029 12.8994L10.1997 14.1006L13.5981 11.5518L12.9214 8.84033C12.5043 7.17472 11.0008 6 9.28418 6H8.71729ZM1.5 6.75V10.5H3V6.75H1.5ZM15 6.75V10.5H16.5V6.75H15ZM0.75 12V18H2.25V13.5H3.75V12H0.75ZM14.25 12V13.5H15.75V18H17.25V12H14.25ZM4.79883 13.0444C4.51758 13.4412 4.42157 13.9579 4.58057 14.4521L5.72168 18H7.29639L6.00879 13.9937C6.00429 13.9802 6.01022 13.9676 6.01172 13.9541L4.79883 13.0444ZM13.2012 13.0444L11.9883 13.9541C11.9898 13.9676 11.9957 13.9802 11.9912 13.9937L10.7036 18H12.2783L13.4194 14.4521C13.5784 13.9579 13.4824 13.4412 13.2012 13.0444Z" fill="black"/>
</svg>
