<svg width="25" height="26" viewBox="0 0 25 26" fill="none" xmlns="http://www.w3.org/2000/svg">
<path d="M12 0C5.95312 0 1 4.95312 1 11V12.5312C0.394531 13.1797 0 14.0312 0 15C0 16.5938 1.02734 17.8086 2.375 18.4688C3.51172 22.7344 7.35547 26 12 26C15.2734 26 18.1641 24.4688 19.9688 22H20C21.9336 22 23.5352 20.6367 23.9062 18.8125C24.1016 18.7227 24.2812 18.5938 24.4375 18.4375C24.8164 18.0586 25 17.5234 25 17V12C25 11.4766 24.8164 10.9414 24.4375 10.5625C24.0586 10.1836 23.5234 10 23 10H22.9375C22.4297 4.41797 17.7109 0 12 0ZM12 2C16.3672 2 20.0039 5.14453 20.8125 9.28125C20.6328 9.21094 20.4492 9.16406 20.2812 9.125C19.5703 8.95703 18.8828 8.91016 18.25 8.75C17.6172 8.58984 17.1055 8.36328 16.7188 7.875C16.332 7.38672 16 6.55469 16 5H14C14 6.97266 13.4336 7.76562 12.5938 8.28125C11.7539 8.79688 10.418 8.96875 8.96875 9C7.51953 9.03125 6.02734 8.91797 4.6875 9.1875C4.12109 9.30078 3.54297 9.48047 3.0625 9.84375C3.63672 5.43359 7.44141 2 12 2ZM14.9375 8.78125C15.0117 8.89453 15.0742 9.02344 15.1562 9.125C15.8945 10.0547 16.8828 10.4727 17.75 10.6875C18.6172 10.9023 19.4297 10.9648 19.8438 11.0625C19.9727 11.0938 19.9688 11.1055 20 11.125V19H21.75C21.4297 19.6133 20.8086 20 20 20H13.9062C13.7031 19.4141 13.1562 19 12.5 19C11.6719 19 11 19.6719 11 20.5C11 21.3281 11.6719 22 12.5 22H17.3125C15.9219 23.2578 14.0664 24 12 24C8.17969 24 4.98828 21.2383 4.1875 17.6875L4.0625 17.125L3.5 16.9375C2.57031 16.6523 2 15.9727 2 15C2 14.1602 2.66797 13.3164 3.25 13.1562L4 12.9688V12.1875C4 11.7461 4.08984 11.6289 4.21875 11.5C4.34766 11.3711 4.60938 11.2461 5.0625 11.1562C5.97266 10.9727 7.48047 11.0312 9.03125 11C10.582 10.9688 12.2461 10.832 13.6562 9.96875C14.1406 9.67188 14.582 9.26953 14.9375 8.78125ZM22 12H23V17H22V12ZM8.5 13C7.67188 13 7 13.6719 7 14.5C7 15.3281 7.67188 16 8.5 16C9.32812 16 10 15.3281 10 14.5C10 13.6719 9.32812 13 8.5 13ZM15.5 13C14.6719 13 14 13.6719 14 14.5C14 15.3281 14.6719 16 15.5 16C16.3281 16 17 15.3281 17 14.5C17 13.6719 16.3281 13 15.5 13Z" fill="#5A623A"/>
</svg>
