<svg width="16" height="17" viewBox="0 0 16 17" fill="none" xmlns="http://www.w3.org/2000/svg">
<path d="M8 0C5.1084 0 2.75 2.3584 2.75 5.25C2.75 7.0459 3.66406 8.63965 5.04688 9.58594C2.36328 10.7285 0.5 13.3945 0.5 16.5H2C2 13.1514 4.65137 10.5 8 10.5C11.3486 10.5 14 13.1514 14 16.5H15.5C15.5 13.3945 13.6367 10.7285 10.9531 9.58594C12.3359 8.63965 13.25 7.0459 13.25 5.25C13.25 2.3584 10.8916 0 8 0ZM8 1.5C10.0801 1.5 11.75 3.16992 11.75 5.25C11.75 7.33008 10.0801 9 8 9C5.91992 9 4.25 7.33008 4.25 5.25C4.25 3.16992 5.91992 1.5 8 1.5Z" fill="#697A80"/>
</svg>
