<svg width="20" height="22" viewBox="0 0 20 22" fill="none" xmlns="http://www.w3.org/2000/svg">
<path d="M10.0015 0.957031L9.47998 1.46094L7.51709 3.35791L4.09668 2.87451L3.50049 6.27734L0.449219 7.896L1.96533 11L0.449219 14.104L3.50049 15.7227L4.09668 19.1255L7.51709 18.6421L10.0015 21.043L12.4829 18.6421L15.9033 19.1255L16.501 15.7227L19.5522 14.104L18.0361 11L19.5522 7.896L16.501 6.27734L15.9033 2.87451L12.4829 3.35791L10.0015 0.957031ZM10 3.04297L11.9673 4.9458L14.6772 4.56348L15.1504 7.25879L17.5674 8.54199L16.3662 11L17.5674 13.458L15.1504 14.7412L14.6772 17.4365L11.9673 17.0542L10 18.957L8.03418 17.0542L5.32422 17.4365L4.85107 14.7412L2.43408 13.458L3.63525 11L2.43408 8.54199L4.85107 7.25879L5.32422 4.56348L8.03418 4.9458L10 3.04297ZM13.2021 7.97217L8.5 12.6743L6.03027 10.2046L4.96973 11.2651L8.5 14.7954L14.2627 9.03271L13.2021 7.97217Z" fill="black"/>
</svg>
