<svg width="16" height="20" viewBox="0 0 16 20" fill="none" xmlns="http://www.w3.org/2000/svg">
<path d="M0.5 0.25V19.75H15.5V0.25H0.5ZM2 1.75H14V18.25H2V1.75ZM8 4C5.52441 4 3.5 6.02441 3.5 8.5C3.5 10.9756 5.52441 13 8 13C10.4756 13 12.5 10.9756 12.5 8.5C12.5 6.02441 10.4756 4 8 4ZM8.51562 5.57031C8.87891 5.63184 9.21875 5.74316 9.52344 5.92188L9.57031 6.46094L9.21875 6.32031L8.9375 6.55469L8.98438 7.23438L9.71094 7.02344L10.6016 7.30469L10.3672 7.70312L9.82812 7.375L9.24219 7.46875L8.67969 7.89062L8.35156 8.875L8.98438 9.39062C8.98438 9.39062 9.65234 9.27344 9.6875 9.27344C9.72266 9.27344 9.96875 9.88281 9.96875 9.88281L9.59375 11.0312C9.13379 11.3184 8.58887 11.5 8 11.5C7.82422 11.5 7.65137 11.459 7.48438 11.4297L7.34375 11.1953L7.69531 9.88281L6.35938 8.875H5.11719L5.02344 8.6875C5.02051 8.62305 5 8.56445 5 8.5C5 8.33887 5.02344 8.18359 5.04688 8.03125L5.67969 7.53906L7.01562 6.90625L6.80469 6.03906L7.39062 5.92188L7.64844 6.29688L8.65625 6.10938L8.51562 5.57031ZM5.79688 10.5391H6.03125L6.47656 11.0781C6.22168 10.9287 5.99609 10.7529 5.79688 10.5391ZM3.5 14.5V16H12.5V14.5H3.5Z" fill="black"/>
</svg>
