<svg width="21" height="18" viewBox="0 0 21 18" fill="none" xmlns="http://www.w3.org/2000/svg">
<path d="M11.7748 0.5C8.02475 0.5 4.20005 2.97559 3.45005 6.72559C3.00005 8.97559 3.60092 11.0747 1.72592 11.0747C0.900924 11.0747 0.374752 12.0506 0.899752 12.7256C1.94975 14.1506 3.37563 14.975 4.80063 15.5L5.26206 15.6846C5.23544 15.9453 5.26378 16.2088 5.34527 16.4579C5.42676 16.707 5.55958 16.9363 5.73516 17.1309C5.91074 17.3256 6.12517 17.4812 6.36462 17.5879C6.60407 17.6945 6.86322 17.7497 7.12534 17.75C7.55698 17.7493 7.97515 17.5997 8.30927 17.3264C8.64339 17.0531 8.87299 16.6729 8.95932 16.25H11.9256H12.0399C12.1263 16.6732 12.3561 17.0535 12.6905 17.3268C13.0249 17.6001 13.4434 17.7496 13.8753 17.75C14.1724 17.7499 14.4653 17.6793 14.7297 17.5439C14.9941 17.4084 15.2226 17.2121 15.3963 16.971C15.5699 16.73 15.6838 16.4511 15.7286 16.1574C15.7733 15.8637 15.7477 15.5636 15.6537 15.2817C18.7959 13.684 20.5418 10.5034 19.95 7.10059C19.5 3.27559 15.7498 0.5 11.7748 0.5ZM11.7748 2C15.1498 2 18.1506 4.32559 18.6756 7.47559C19.1256 10.1756 17.7 12.7997 15.075 14.0747L14.7352 14.2109C14.4695 14.073 14.1747 14.0007 13.8753 14C13.5845 14.0002 13.2977 14.0681 13.0376 14.1983C12.7775 14.3284 12.5513 14.5173 12.3768 14.75C12.3763 14.75 12.3759 14.75 12.3753 14.75H12.075H8.92563C8.83387 14.75 8.71598 14.7381 8.61069 14.7339C8.43587 14.506 8.21101 14.3212 7.95347 14.194C7.69593 14.0667 7.4126 14.0004 7.12534 14C6.76091 14.0007 6.40459 14.1076 6.09995 14.3076C6.09209 14.305 6.08282 14.3029 6.07505 14.3003L5.39975 14.0747C4.34975 13.6997 3.45005 13.1753 2.70005 12.4253C4.50005 11.9003 4.65092 9.80059 4.72592 8.60059C4.80092 8.07559 4.80034 7.54941 4.87534 7.02441C5.55034 3.87441 8.84975 2 11.7748 2ZM9.37534 5.75C9.07697 5.75 8.79082 5.86853 8.57984 6.0795C8.36887 6.29048 8.25034 6.57663 8.25034 6.875C8.25034 7.17337 8.36887 7.45952 8.57984 7.6705C8.79082 7.88147 9.07697 8 9.37534 8C9.67371 8 9.95986 7.88147 10.1708 7.6705C10.3818 7.45952 10.5003 7.17337 10.5003 6.875C10.5003 6.57663 10.3818 6.29048 10.1708 6.0795C9.95986 5.86853 9.67371 5.75 9.37534 5.75ZM13.8753 5.75C13.577 5.75 13.2908 5.86853 13.0798 6.0795C12.8689 6.29048 12.7503 6.57663 12.7503 6.875C12.7503 7.17337 12.8689 7.45952 13.0798 7.6705C13.2908 7.88147 13.577 8 13.8753 8C14.1737 8 14.4599 7.88147 14.6708 7.6705C14.8818 7.45952 15.0003 7.17337 15.0003 6.875C15.0003 6.57663 14.8818 6.29048 14.6708 6.0795C14.4599 5.86853 14.1737 5.75 13.8753 5.75ZM8.70444 8.73389C8.65757 8.72686 8.60688 8.73125 8.55063 8.75C8.32563 8.825 8.17534 8.97471 8.25034 9.19971C8.62534 10.9247 10.2753 11.75 11.6253 11.75C12.9753 11.75 14.6253 10.9247 15.0003 9.19971C15.0003 8.97471 14.925 8.825 14.7 8.75C14.475 8.75 14.3253 8.82529 14.2503 9.05029C13.9503 10.4003 12.6753 11 11.6253 11C10.5753 11 9.30034 10.4003 9.00034 9.05029C8.94409 8.88154 8.84507 8.75498 8.70444 8.73389Z" fill="#697A80"/>
</svg>
