<svg width="15" height="19" viewBox="0 0 15 19" fill="none" xmlns="http://www.w3.org/2000/svg">
<path d="M11 0.25C9.7666 0.25 8.75 1.2666 8.75 2.5C8.75 3.7334 9.7666 4.75 11 4.75C12.2334 4.75 13.25 3.7334 13.25 2.5C13.25 1.2666 12.2334 0.25 11 0.25ZM11 1.75C11.4219 1.75 11.75 2.07812 11.75 2.5C11.75 2.92188 11.4219 3.25 11 3.25C10.5781 3.25 10.25 2.92188 10.25 2.5C10.25 2.07812 10.5781 1.75 11 1.75ZM6.89844 3.83594L4.20312 4.14062C3.75781 4.19043 3.36816 4.44238 3.125 4.82031L1.25 7.72656L2.51562 8.52344L4.39062 5.64062L6.10156 5.45312L5 8.57031C2.46289 8.93652 0.5 11.1133 0.5 13.75C0.5 16.6416 2.8584 19 5.75 19C8.6416 19 11 16.6416 11 13.75C11 13.4951 10.9648 13.2461 10.9297 13H11.8906L12.8984 17.5703L14.3516 17.2422L13.3672 12.6719C13.2178 11.9863 12.5908 11.5 11.8906 11.5H10.4844C10.1855 10.8701 9.75488 10.3223 9.24219 9.85938L10.1094 7.44531C10.4873 6.39941 10.0332 5.22754 9.05469 4.70312L7.78906 4V4.02344C7.51953 3.87988 7.2002 3.80078 6.89844 3.83594ZM7.64844 5.64062L8.35156 6.01562C8.68555 6.19434 8.83203 6.5752 8.70312 6.92969L7.95312 8.99219C7.51953 8.79004 7.05664 8.64648 6.57031 8.57031L7.64844 5.64062ZM5.75 10C7.83008 10 9.5 11.6699 9.5 13.75C9.5 15.8301 7.83008 17.5 5.75 17.5C3.66992 17.5 2 15.8301 2 13.75C2 11.6699 3.66992 10 5.75 10Z" fill="black"/>
</svg>
